<svg xmlns="http://www.w3.org/2000/svg" xmlns:xlink="http://www.w3.org/1999/xlink" viewBox="0 0 5616.3 1664.1"><style>.st1{fill:none}.st2{fill:#1b1a1a;stroke:#1b1a1a;stroke-width:5;stroke-miterlimit:10}.st3{fill:#fff}</style><g id="Layer_1"><path d="M5408.9 1646.4H207.4c-105.2 0-190.5-85.3-190.5-190.5V208.2C17 103 102.2 17.7 207.4 17.7h5201.5c105.2 0 190.5 85.3 190.5 190.5v1247.7c0 105.2-85.3 190.5-190.5 190.5z"/><defs><path id="SVGID_1_" d="M0 0h5616.3v1664.1H0z"/></defs><clipPath id="SVGID_2_"><use xlink:href="#SVGID_1_" overflow="visible"/></clipPath><path d="M5408.3 33.3c96.4 0 174.7 78.4 174.7 174.7v1248.1c0 96.4-78.4 174.7-174.7 174.7H208c-96.4 0-174.7-78.4-174.7-174.7V208c0-96.4 78.4-174.7 174.7-174.7h5200.3m0-33.3H208C93.6 0 0 93.6 0 208v1248.1c0 114.4 93.6 208 208 208h5200.3c114.4 0 208-93.6 208-208V208c0-114.4-93.6-208-208-208" clip-path="url(#SVGID_2_)" fill="#a8a8a8"/><path class="st1" d="M0 0h5616.3v1664.1H0z"/><path class="st1" d="M0 0h5616.3v1664.1H0z"/></g><g id="Layer_3"><path class="st2" d="M2000.5 1204.4h-210.1l-50.5 149h-89l199-551.3h92.5l199 551.3h-90.5l-50.4-149zm-188.4-68.8h166.6l-82.1-241.9h-2.3l-82.2 241.9zm759.2 16.9c0 124.9-66.9 205.2-167.7 205.2-57.3 0-102.8-25.6-126.5-70.3h-1.9v199.1h-82.5V951.4h79.9v66.9h1.5c22.9-43.1 71.8-71.1 128-71.1 101.9 0 169.2 80.7 169.2 205.3zm-84.8 0c0-81.4-42.1-134.9-106.2-134.9-63 0-105.4 54.6-105.4 134.9 0 81 42.4 135.2 105.4 135.2 64.1 0 106.2-53.1 106.2-135.2zm527.2 0c0 124.9-66.9 205.2-167.7 205.2-57.3 0-102.8-25.6-126.5-70.3h-1.9v199.1h-82.5V951.4h79.8v66.9h1.5c22.9-43.1 71.8-71.1 128-71.1 102 0 169.3 80.7 169.3 205.3zm-84.8 0c0-81.4-42.1-134.9-106.2-134.9-63 0-105.4 54.6-105.4 134.9 0 81 42.4 135.2 105.4 135.2 64.1 0 106.2-53.1 106.2-135.2zm377.1 47.3c6.1 54.7 59.2 90.6 131.8 90.6 69.5 0 119.6-35.9 119.6-85.2 0-42.8-30.2-68.4-101.6-86l-71.4-17.2c-101.2-24.5-148.2-71.8-148.2-148.6 0-95.1 82.9-160.5 200.6-160.5 116.5 0 196.4 65.3 199 160.5h-83.3c-5-55-50.5-88.2-116.9-88.2-66.5 0-111.9 33.6-111.9 82.5 0 39 29 61.9 100.1 79.5l60.7 14.9c113.1 26.7 160.1 72.2 160.1 152.8 0 103.1-82.2 167.7-212.8 167.7-122.3 0-204.8-63.1-210.1-162.8h84.3zm516.6-343.5v95.1h76.4v65.3h-76.4v221.6c0 34.4 15.3 50.5 48.9 50.5 8.4 0 21.8-1.2 27.1-1.9v64.9c-9.1 2.3-27.5 3.8-45.8 3.8-81.4 0-113.1-30.6-113.1-108.5v-230.4h-58.4v-65.3h58.4v-95.1h82.9zm120.7 296.2c0-126.5 74.5-206 190.6-206 116.5 0 190.7 79.5 190.7 206 0 126.8-73.7 205.9-190.7 205.9-116.9 0-190.6-79.1-190.6-205.9zm297.2 0c0-86.8-39.8-138-106.6-138-66.9 0-106.6 51.6-106.6 138 0 87.1 39.8 137.9 106.6 137.9 66.9 0 106.6-50.8 106.6-137.9zm152.1-201.1h78.7v68.4h1.9c12.6-45.5 49.3-72.6 96.7-72.6 11.8 0 21.8 1.6 28.3 3.1v77.2c-6.5-2.7-21-5-37.1-5-53.1 0-86 35.9-86 92.5v238.4h-82.5v-402zm585.9 283.9c-11.1 73-82.2 123-173.1 123-116.9 0-189.5-78.3-189.5-204 0-126.1 73-207.9 186-207.9 111.2 0 181.1 76.4 181.1 198.3v28.3h-283.9v5c0 68.8 43.2 113.8 108.1 113.8 45.8 0 81.8-21.8 92.8-56.5h78.5zm-278.9-119.9h200.9c-1.9-61.5-41.3-102-98.6-102-56.8-.1-98.1 41.2-102.3 102zM1802.1 547.7c-16.8 0-33-5.2-48.8-15.6-15.8-10.4-26.7-26-32.7-46.6l30.5-12.8c3.9 13.6 10.3 24.2 19.3 31.7 9 7.6 19.6 11.3 31.7 11.3 13.6 0 25.3-4.2 35.1-12.7s14.7-19.1 14.7-31.7c0-12.4-5-22.8-15.1-31.3s-22.1-12.7-36.2-12.7h-21.5V396h18.9c13.1 0 24-3.6 32.6-10.9 8.6-7.3 12.9-17 12.9-29.1 0-11.4-4.2-20.4-12.6-27-8.4-6.6-18.8-9.8-31.1-9.8-21.3 0-35.8 10.8-43.3 32.4l-31-13.1c4.8-13.4 13.5-25.3 25.8-35.7 12.4-10.4 28.5-15.6 48.4-15.6 22.3 0 40.9 6.5 55.7 19.5 14.8 13 22.2 29.4 22.2 49.3 0 24-11.1 41.9-33.4 53.5v1.5c12.1 5.1 22.1 12.9 30 23.3 7.9 10.4 11.9 22.8 11.9 37.1 0 22.1-8.2 40.4-24.4 54.8-16.2 14.3-36.1 21.5-59.6 21.5zm104.9-5.8l98.3-260.6h37.9l98.3 260.6h-37.1l-25.1-70.6h-109.6l-25.5 70.6H1907zm73.8-101.9h86.7l-42.6-117.6h-1.5L1980.8 440zM2175 541.9V281.3h94.3c20.4 0 38 6.7 52.9 20.2 15 13.4 22.4 30.4 22.4 50.8 0 12.4-3.2 23.3-9.6 32.8-6.4 9.5-15 16.6-25.7 21.5v1.5c12.9 4.4 23.4 11.9 31.7 22.6 8.2 10.7 12.4 23 12.4 37.1 0 21.3-7.8 39.1-23.5 53.2-15.7 14.1-34.2 21.1-55.5 21.1H2175zm33.5-148.9h60.8c12.6 0 22.8-4.2 30.4-12.5 7.7-8.4 11.5-17.6 11.5-27.5s-3.7-19.1-11.1-27.3c-7.4-8.2-17.2-12.4-29.3-12.4h-62.3V393zm0 116.9h67.4c12.9 0 23.3-4.5 31.3-13.5s12-18.8 12-29.5-4.1-20.5-12.4-29.3c-8.2-8.9-19.1-13.3-32.4-13.3h-65.9v85.6zm161.5 32l98.3-260.6h37.9l98.3 260.6h-37.1l-25.1-70.6h-109.6l-25.5 70.6H2370zm73.9-101.9h86.7L2488 322.4h-1.5L2443.9 440zm194.2 101.9V281.3h33.5V393h130.3V281.3h33.5v260.6h-33.5V424.3h-130.3v117.6zm339.5 0h-33.5V313.3h-72.8v-32h179.1v32h-72.8zm63.9 0l98.3-260.6h37.9l98.3 260.6h-37.1l-25.1-70.6h-109.6l-25.5 70.6h-37.2zm73.9-101.9h86.7l-42.6-117.6h-1.5L3115.4 440zm360.5-17.5v119.4h-33.4V422.5h-1.5l-101.2 119.4h-43.7v-1.4l110-126-105.6-131.8v-1.4h40.8l99.7 126.6h1.5V281.3h33.4v126.6h1.5l99.8-126.6h40.7v1.4l-105.6 131.8 110 126v1.4h-43.7l-101.2-119.4zm379.2-141.2v260.6h-33.5V379.5l1.5-50.2h-1.5l-132.5 212.6h-34.9V281.3h33.5v152.5l-1.5 50.2h1.5l126.7-202.7zm142.2 260.6h-33.5V313.3H3891v-32h179.1v32h-72.8zm310.9-260.6v260.6h-33.5V379.5l1.5-50.2h-1.5l-132.5 212.6h-34.9V281.3h33.4v152.5l-1.4 50.2h1.4l126.8-202.7zm200.9 266.4c-16.8 0-33-5.2-48.8-15.6-15.8-10.4-26.7-26-32.7-46.6l30.5-12.8c3.9 13.6 10.3 24.2 19.3 31.7 9 7.6 19.6 11.3 31.7 11.3 13.6 0 25.3-4.2 35.1-12.7s14.7-19.1 14.7-31.7c0-12.4-5-22.8-15.1-31.3s-22.1-12.7-36.2-12.7h-21.5V396h18.9c13.1 0 24-3.6 32.6-10.9 8.6-7.3 12.9-17 12.9-29.1 0-11.4-4.2-20.4-12.6-27-8.4-6.6-18.8-9.8-31.1-9.8-21.3 0-35.8 10.8-43.3 32.4l-31-13.1c4.8-13.4 13.5-25.3 25.8-35.7 12.4-10.4 28.5-15.6 48.4-15.6 22.3 0 40.9 6.5 55.7 19.5 14.8 13 22.2 29.4 22.2 49.3 0 24-11.1 41.9-33.4 53.5v1.5c12.1 5.1 22.1 12.9 30 23.3 7.9 10.4 11.9 22.8 11.9 37.1 0 22.1-8.2 40.4-24.4 54.8-16.1 14.3-36.1 21.5-59.6 21.5z"/><g id="XMLID_1_"><g id="XMLID_2_"><g id="XMLID_3_"><path id="XMLID_5_" class="st2" d="M1146.9 868.7c-1.2-130.9 107.2-194.6 112.1-197.6-61.4-89.5-156.5-101.7-189.9-102.7-79.9-8.4-157.4 47.8-198.1 47.8-41.5 0-104.2-47-171.7-45.6-86.9 1.3-168.2 51.7-212.8 129.8-92 159.3-23.4 393.5 64.8 522.3 44.1 63.1 95.7 133.5 163.1 131 66-2.7 90.7-42.1 170.3-42.1 78.9 0 102.1 42.1 170.9 40.5 70.8-1.1 115.4-63.3 158-127 51-72.3 71.4-143.5 72.3-147.2-1.7-.4-137.6-52.2-139-209.2z"/><path id="XMLID_4_" class="st2" d="M1017 483.8c35.5-44.4 59.8-104.8 53-166.1-51.4 2.3-115.6 35.5-152.6 79-32.7 38.3-62 101-54.4 159.9 57.6 4.3 116.9-29.1 154-72.8z"/></g></g></g></g><g id="Layer_2"><g id="XMLID_20_"><g id="XMLID_22_"><g id="XMLID_23_"><path id="XMLID_25_" class="st3" d="M1146.9 868.7c-1.2-130.9 107.2-194.6 112.1-197.6-61.4-89.5-156.5-101.7-189.9-102.7-79.9-8.4-157.4 47.8-198.1 47.8-41.5 0-104.2-47-171.7-45.6-86.9 1.3-168.2 51.7-212.8 129.8-92 159.3-23.4 393.5 64.8 522.3 44.1 63.1 95.7 133.5 163.1 131 66-2.7 90.7-42.1 170.3-42.1 78.9 0 102.1 42.1 170.9 40.5 70.8-1.1 115.4-63.3 158-127 51-72.3 71.4-143.5 72.3-147.2-1.7-.4-137.6-52.2-139-209.2z"/><path id="XMLID_24_" class="st3" d="M1017 483.8c35.5-44.4 59.8-104.8 53-166.1-51.4 2.3-115.6 35.5-152.6 79-32.7 38.3-62 101-54.4 159.9 57.6 4.3 116.9-29.1 154-72.8z"/></g></g></g><path class="st3" d="M2000.5 1204.4h-210.1l-50.5 149h-89l199-551.3h92.5l199 551.3h-90.5l-50.4-149zm-188.4-68.8h166.6l-82.1-241.9h-2.3l-82.2 241.9zm759.2 16.9c0 124.9-66.9 205.2-167.7 205.2-57.3 0-102.8-25.6-126.5-70.3h-1.9v199.1h-82.5V951.4h79.9v66.9h1.5c22.9-43.1 71.8-71.1 128-71.1 101.9 0 169.2 80.7 169.2 205.3zm-84.8 0c0-81.4-42.1-134.9-106.2-134.9-63 0-105.4 54.6-105.4 134.9 0 81 42.4 135.2 105.4 135.2 64.1 0 106.2-53.1 106.2-135.2zm527.2 0c0 124.9-66.9 205.2-167.7 205.2-57.3 0-102.8-25.6-126.5-70.3h-1.9v199.1h-82.5V951.4h79.8v66.9h1.5c22.9-43.1 71.8-71.1 128-71.1 102 0 169.3 80.7 169.3 205.3zm-84.8 0c0-81.4-42.1-134.9-106.2-134.9-63 0-105.4 54.6-105.4 134.9 0 81 42.4 135.2 105.4 135.2 64.1 0 106.2-53.1 106.2-135.2zm377.1 47.3c6.1 54.7 59.2 90.6 131.8 90.6 69.5 0 119.6-35.9 119.6-85.2 0-42.8-30.2-68.4-101.6-86l-71.4-17.2c-101.2-24.5-148.2-71.8-148.2-148.6 0-95.1 82.9-160.5 200.6-160.5 116.5 0 196.4 65.3 199 160.5h-83.3c-5-55-50.5-88.2-116.9-88.2-66.5 0-111.9 33.6-111.9 82.5 0 39 29 61.9 100.1 79.5l60.7 14.9c113.1 26.7 160.1 72.2 160.1 152.8 0 103.1-82.2 167.7-212.8 167.7-122.3 0-204.8-63.1-210.1-162.8h84.3zm516.6-343.5v95.1h76.4v65.3h-76.4v221.6c0 34.4 15.3 50.5 48.9 50.5 8.4 0 21.8-1.2 27.1-1.9v64.9c-9.1 2.3-27.5 3.8-45.8 3.8-81.4 0-113.1-30.6-113.1-108.5v-230.4h-58.4v-65.3h58.4v-95.1h82.9zm120.7 296.2c0-126.5 74.5-206 190.6-206 116.5 0 190.7 79.5 190.7 206 0 126.8-73.7 205.9-190.7 205.9-116.9 0-190.6-79.1-190.6-205.9zm297.2 0c0-86.8-39.8-138-106.6-138-66.9 0-106.6 51.6-106.6 138 0 87.1 39.8 137.9 106.6 137.9 66.9 0 106.6-50.8 106.6-137.9zm152.1-201.1h78.7v68.4h1.9c12.6-45.5 49.3-72.6 96.7-72.6 11.8 0 21.8 1.6 28.3 3.1v77.2c-6.5-2.7-21-5-37.1-5-53.1 0-86 35.9-86 92.5v238.4h-82.5v-402zm585.9 283.9c-11.1 73-82.2 123-173.1 123-116.9 0-189.5-78.3-189.5-204 0-126.1 73-207.9 186-207.9 111.2 0 181.1 76.4 181.1 198.3v28.3h-283.9v5c0 68.8 43.2 113.8 108.1 113.8 45.8 0 81.8-21.8 92.8-56.5h78.5zm-278.9-119.9h200.9c-1.9-61.5-41.3-102-98.6-102-56.8-.1-98.1 41.2-102.3 102zM1802.1 547.7c-16.8 0-33-5.2-48.8-15.6-15.8-10.4-26.7-26-32.7-46.6l30.5-12.8c3.9 13.6 10.3 24.2 19.3 31.7 9 7.6 19.6 11.3 31.7 11.3 13.6 0 25.3-4.2 35.1-12.7s14.7-19.1 14.7-31.7c0-12.4-5-22.8-15.1-31.3s-22.1-12.7-36.2-12.7h-21.5V396h18.9c13.1 0 24-3.6 32.6-10.9 8.6-7.3 12.9-17 12.9-29.1 0-11.4-4.2-20.4-12.6-27-8.4-6.6-18.8-9.8-31.1-9.8-21.3 0-35.8 10.8-43.3 32.4l-31-13.1c4.8-13.4 13.5-25.3 25.8-35.7 12.4-10.4 28.5-15.6 48.4-15.6 22.3 0 40.9 6.5 55.7 19.5 14.8 13 22.2 29.4 22.2 49.3 0 24-11.1 41.9-33.4 53.5v1.5c12.1 5.1 22.1 12.9 30 23.3 7.9 10.4 11.9 22.8 11.9 37.1 0 22.1-8.2 40.4-24.4 54.8-16.2 14.3-36.1 21.5-59.6 21.5zm104.9-5.8l98.3-260.6h37.9l98.3 260.6h-37.1l-25.1-70.6h-109.6l-25.5 70.6H1907zm73.8-101.9h86.7l-42.6-117.6h-1.5L1980.8 440zM2175 541.9V281.3h94.3c20.4 0 38 6.7 52.9 20.2 15 13.4 22.4 30.4 22.4 50.8 0 12.4-3.2 23.3-9.6 32.8-6.4 9.5-15 16.6-25.7 21.5v1.5c12.9 4.4 23.4 11.9 31.7 22.6 8.2 10.7 12.4 23 12.4 37.1 0 21.3-7.8 39.1-23.5 53.2-15.7 14.1-34.2 21.1-55.5 21.1H2175zm33.5-148.9h60.8c12.6 0 22.8-4.2 30.4-12.5 7.7-8.4 11.5-17.6 11.5-27.5s-3.7-19.1-11.1-27.3c-7.4-8.2-17.2-12.4-29.3-12.4h-62.3V393zm0 116.9h67.4c12.9 0 23.3-4.5 31.3-13.5s12-18.8 12-29.5-4.1-20.5-12.4-29.3c-8.2-8.9-19.1-13.3-32.4-13.3h-65.9v85.6zm161.5 32l98.3-260.6h37.9l98.3 260.6h-37.1l-25.1-70.6h-109.6l-25.5 70.6H2370zm73.9-101.9h86.7L2488 322.4h-1.5L2443.9 440zm194.2 101.9V281.3h33.5V393h130.3V281.3h33.5v260.6h-33.5V424.3h-130.3v117.6zm339.5 0h-33.5V313.3h-72.8v-32h179.1v32h-72.8zm63.9 0l98.3-260.6h37.9l98.3 260.6h-37.1l-25.1-70.6h-109.6l-25.5 70.6h-37.2zm73.9-101.9h86.7l-42.6-117.6h-1.5L3115.4 440zm360.5-17.5v119.4h-33.4V422.5h-1.5l-101.2 119.4h-43.7v-1.4l110-126-105.6-131.8v-1.4h40.8l99.7 126.6h1.5V281.3h33.4v126.6h1.5l99.8-126.6h40.7v1.4l-105.6 131.8 110 126v1.4h-43.7l-101.2-119.4zm379.2-141.2v260.6h-33.5V379.5l1.5-50.2h-1.5l-132.5 212.6h-34.9V281.3h33.5v152.5l-1.5 50.2h1.5l126.7-202.7zm142.2 260.6h-33.5V313.3H3891v-32h179.1v32h-72.8zm310.9-260.6v260.6h-33.5V379.5l1.5-50.2h-1.5l-132.5 212.6h-34.9V281.3h33.4v152.5l-1.4 50.2h1.4l126.8-202.7zm200.9 266.4c-16.8 0-33-5.2-48.8-15.6-15.8-10.4-26.7-26-32.7-46.6l30.5-12.8c3.9 13.6 10.3 24.2 19.3 31.7 9 7.6 19.6 11.3 31.7 11.3 13.6 0 25.3-4.2 35.1-12.7s14.7-19.1 14.7-31.7c0-12.4-5-22.8-15.1-31.3s-22.1-12.7-36.2-12.7h-21.5V396h18.9c13.1 0 24-3.6 32.6-10.9 8.6-7.3 12.9-17 12.9-29.1 0-11.4-4.2-20.4-12.6-27-8.4-6.6-18.8-9.8-31.1-9.8-21.3 0-35.8 10.8-43.3 32.4l-31-13.1c4.8-13.4 13.5-25.3 25.8-35.7 12.4-10.4 28.5-15.6 48.4-15.6 22.3 0 40.9 6.5 55.7 19.5 14.8 13 22.2 29.4 22.2 49.3 0 24-11.1 41.9-33.4 53.5v1.5c12.1 5.1 22.1 12.9 30 23.3 7.9 10.4 11.9 22.8 11.9 37.1 0 22.1-8.2 40.4-24.4 54.8-16.1 14.3-36.1 21.5-59.6 21.5z"/></g></svg>