<svg xmlns="http://www.w3.org/2000/svg" viewBox="0 0 2083.8 150"><path d="M819 150.4c1.7-1.8 4-1.1 6.1-1.4 20.8-3.2 36.4-15.3 50.8-29.6 18.1-18.1 32.2-39.3 47.1-59.9 8.8-12.3 17.6-24.6 28.6-35.2 11.9-11.4 25.6-19.4 42-22.5 1.2-.2 2.8.3 3.5-1.2h24c3.4 2 7.3 1.7 10.9 2.5 21.6 4.8 39.4 16.5 56.2 30 17.7 14.3 33.9 30.5 52.2 44.1 15.7 11.6 32.4 20.8 52.1 23.6 15.3 2.2 30.2-.1 44.7-4.9 14-4.7 27.6-10.7 42-14.3 28.6-7.2 55.4-1.7 80.9 12 15.6 8.3 30 18.5 44.9 28 17.7 11.4 35.9 21.6 56.7 26.3 3.1.7 6.6.4 9.4 2.5H819z" fill="#feba0d"/><path d="M23.9 150.4c16.4-2.8 31.5-9 45.5-17.9 9.5-6.1 19-12.3 28.5-18.4 14.6-9.2 29.9-16.6 47.6-18.1 12.2-1 23.9 1.1 35.3 5.1 9.1 3.1 18.1 6.6 27.3 9.4 18.1 5.6 35.5 3.1 52.2-5.6 14.9-7.8 27.2-19.1 39.7-30.1 11.2-9.9 22.3-20.1 35.6-27.3 20.7-11.3 42.2-15.3 64.7-5.9 12.5 5.2 21.8 14.6 29.8 25.2 11.1 14.7 21.8 29.8 32.9 44.6 5.9 7.9 12.7 15 20 21.5 9.2 8.2 19.5 14.5 31.9 16.4.8.1 1.7.1 2 1.1h-493zm2060.1 0h-416.2c22.7-4.3 36-20.9 49.1-37.5 9.7-12.3 17.7-25.8 27.9-37.7 19.5-22.6 45-27.7 72-14.7 13.9 6.7 25 16.9 36.4 26.9 9 7.9 18 15.9 28.3 22.1 17 10.3 34.9 12.2 53.7 5.6 6.4-2.3 12.8-4.6 19.3-6.9 18.4-6.5 36.3-5.3 53.9 2.9 10.3 4.8 19.7 11.1 29.1 17.4 14.4 9.7 29.1 18.7 46.5 21.9z" fill="#feba0e"/></svg>