<svg xmlns="http://www.w3.org/2000/svg" xmlns:xlink="http://www.w3.org/1999/xlink" viewBox="0 0 5616.3 1664.1"><style>.st7{opacity:.12;clip-path:url(#SVGID_16_);enable-background:new}</style><g id="Layer_1"><path d="M5408.9 1646.4H207.4c-105.2 0-190.5-85.3-190.5-190.5V208.2C17 103 102.2 17.7 207.4 17.7h5201.5c105.2 0 190.5 85.3 190.5 190.5v1247.7c0 105.2-85.3 190.5-190.5 190.5z"/><defs><path id="SVGID_1_" d="M0 0h5616.3v1664.1H0z"/></defs><clipPath id="SVGID_2_"><use xlink:href="#SVGID_1_" overflow="visible"/></clipPath><path d="M5408.3 33.3c96.4 0 174.7 78.4 174.7 174.7v1248.1c0 96.4-78.4 174.7-174.7 174.7H208c-96.4 0-174.7-78.4-174.7-174.7V208c0-96.4 78.4-174.7 174.7-174.7h5200.3m0-33.3H208C93.6 0 0 93.6 0 208v1248.1c0 114.4 93.6 208 208 208h5200.3c114.4 0 208-93.6 208-208V208c0-114.4-93.6-208-208-208" clip-path="url(#SVGID_2_)" fill="#a8a8a8"/><defs><path id="SVGID_3_" d="M434.2 313.6c-12.1 12.8-19.3 32.7-19.3 58.5v920.1c0 25.8 7.2 45.6 19.3 58.4l3 3 515.5-515.4V826L437.2 310.6l-3 3z"/></defs><clipPath id="SVGID_4_"><use xlink:href="#SVGID_3_" overflow="visible"/></clipPath><linearGradient id="SVGID_5_" gradientUnits="userSpaceOnUse" x1="-15.834" y1="-4.253" x2="25.768" y2="-4.253" gradientTransform="rotate(135 205.715 483.55) scale(23.7339)"><stop offset="0" stop-color="#0093d4"/><stop offset=".007" stop-color="#0094d5"/><stop offset=".26" stop-color="#00ace4"/><stop offset=".512" stop-color="#00adce"/><stop offset=".76" stop-color="#00adc4"/><stop offset="1" stop-color="#00aec1"/></linearGradient><path clip-path="url(#SVGID_4_)" fill="url(#SVGID_5_)" d="M683.8 41.7L104 621.5l14 435.2 565.8 565.8 790.4-790.4z"/><defs><path id="SVGID_6_" d="M952.7 826v12.2l171.8 171.9 3.9-2.2L1332 892.2c58.1-33.1 58.1-87.2 0-120.2l-203.6-115.7-3.9-2.2L952.7 826z"/></defs><clipPath id="SVGID_7_"><use xlink:href="#SVGID_6_" overflow="visible"/></clipPath><linearGradient id="SVGID_8_" gradientUnits="userSpaceOnUse" x1="-56.774" y1="6.438" x2="-15.171" y2="6.438" gradientTransform="rotate(180 16.917 493.941) scale(24.1969)"><stop offset="0" stop-color="#ffe000"/><stop offset=".409" stop-color="#fab300"/><stop offset=".775" stop-color="#f59900"/><stop offset="1" stop-color="#f39000"/></linearGradient><path clip-path="url(#SVGID_7_)" fill="url(#SVGID_8_)" d="M952.7 654.2h437.4v355.9H952.7z"/><defs><path id="SVGID_9_" d="M434.2 1350.5c19.1 20.3 50.8 22.8 86.4 2.6l607.7-345.3-175.6-175.7-518.5 518.4z"/></defs><clipPath id="SVGID_10_"><use xlink:href="#SVGID_9_" overflow="visible"/></clipPath><linearGradient id="SVGID_11_" gradientUnits="userSpaceOnUse" x1="-2.257" y1="-.356" x2="39.345" y2="-.356" gradientTransform="rotate(135 274.427 659.994) scale(32.1851)"><stop offset="0" stop-color="#e7322e"/><stop offset="1" stop-color="#e60a65"/></linearGradient><path clip-path="url(#SVGID_10_)" fill="url(#SVGID_11_)" d="M781.3 485l-617.8 617.7 617.8 617.8 617.7-617.8z"/><defs><path id="SVGID_12_" d="M434.2 313.6l518.5 518.5 175.7-175.7-607.8-345.3c-16.7-9.5-32.6-14-46.6-14-16-.1-29.7 5.7-39.8 16.5"/></defs><clipPath id="SVGID_13_"><use xlink:href="#SVGID_12_" overflow="visible"/></clipPath><linearGradient id="SVGID_14_" gradientUnits="userSpaceOnUse" x1="14.93" y1="29.69" x2="56.532" y2="29.69" gradientTransform="rotate(45 697.387 296.35) scale(14.372)"><stop offset="0" stop-color="#009c6b"/><stop offset=".069" stop-color="#009a64"/><stop offset=".476" stop-color="#009a51"/><stop offset=".801" stop-color="#009946"/><stop offset="1" stop-color="#009844"/></linearGradient><path clip-path="url(#SVGID_13_)" fill="url(#SVGID_14_)" d="M166.6 564.6l614.7 614.6 614.6-614.6-458.4-458.4-275.1-37.4z"/><defs><path id="SVGID_15_" d="M0 0h5616.3v1664.1H0z"/></defs><clipPath id="SVGID_16_"><use xlink:href="#SVGID_15_" overflow="visible"/></clipPath><g opacity=".2" clip-path="url(#SVGID_16_)"><defs><path id="SVGID_17_" d="M434.1 1003.9h694.2v363.2H434.1z"/></defs><clipPath id="SVGID_18_"><use xlink:href="#SVGID_17_" overflow="visible"/></clipPath><path d="M1124.5 1003.9L520.6 1347c-33.8 19.1-64 17.9-83.4.4l-3.1 3.1 3 3c19.4 17.5 49.6 18.8 83.4-.4l607.7-345.3-3.7-3.9z" clip-path="url(#SVGID_18_)" fill="#020203"/></g><g class="st7"><defs><path id="SVGID_19_" d="M414.9 1286.1h22.4v64.5h-22.4z"/></defs><clipPath id="SVGID_20_"><use xlink:href="#SVGID_19_" overflow="visible"/></clipPath><path d="M434.1 1344.5c-12.1-12.8-19.3-32.7-19.3-58.5v6.1c0 25.8 7.2 45.6 19.3 58.5l3.1-3.1-3.1-3z" clip-path="url(#SVGID_20_)" fill="#020203"/></g><g class="st7"><defs><path id="SVGID_21_" d="M1124.5 832.1h251v175.7h-251z"/></defs><clipPath id="SVGID_22_"><use xlink:href="#SVGID_21_" overflow="visible"/></clipPath><path d="M1331.9 886.1L1124.5 1004l3.9 3.9L1332 892.2c29.1-16.5 43.6-38.3 43.6-60-2.6 19.6-17.3 38.9-43.7 53.9" clip-path="url(#SVGID_22_)" fill="#020203"/></g><g opacity=".25" clip-path="url(#SVGID_16_)"><defs><path id="SVGID_23_" d="M414.9 297.1h960.6v535H414.9z"/></defs><clipPath id="SVGID_24_"><use xlink:href="#SVGID_23_" overflow="visible"/></clipPath><path d="M520.6 317.1l811.3 461c26.4 15 41.1 34.3 43.6 54 0-21.8-14.5-43.6-43.6-60.1L520.6 311c-58.2-33-105.7-5.6-105.7 61v6.1c0-66.5 47.5-94 105.7-61" clip-path="url(#SVGID_24_)" fill="#fff"/></g><path fill="none" d="M0 0h5616.3v1664.1H0z"/></g><path d="M2834.6 904.9c-97.8 0-177.6 74.4-177.6 177 0 101.9 79.8 176.9 177.6 176.9s177.6-75.1 177.6-176.9c0-102.6-79.7-177-177.6-177m0 284.2c-53.6 0-99.9-44.2-99.9-107.2 0-63.7 46.3-107.3 99.9-107.3s99.8 43.6 99.8 107.3c.1 63-46.2 107.2-99.8 107.2m-387.5-284.2c-97.8 0-177.6 74.4-177.6 177 0 101.9 79.8 176.9 177.6 176.9 97.9 0 177.6-75.1 177.6-176.9.1-102.6-79.7-177-177.6-177m0 284.2c-53.6 0-99.8-44.2-99.8-107.2 0-63.7 46.3-107.3 99.8-107.3 53.6 0 99.9 43.6 99.9 107.3 0 63-46.2 107.2-99.9 107.2m-460.8-229.9v75.1h179.6c-5.3 42.2-19.4 73.1-40.9 94.5-26.2 26.2-67.1 55-138.7 55-110.6 0-197.1-89.2-197.1-199.7s86.4-199.8 197.1-199.8c59.7 0 103.2 23.5 135.4 53.7l53-53c-44.9-42.9-104.5-75.8-188.3-75.8-151.5 0-278.9 123.4-278.9 274.8s127.3 274.8 278.9 274.8c81.7 0 143.4-26.8 191.7-77.1 49.6-49.6 65-119.3 65-175.6 0-17.4-1.3-33.5-4-46.9h-252.8zm1884.9 58.3c-14.8-39.5-59.7-112.6-151.5-112.6-91.2 0-166.9 71.7-166.9 177 0 99.2 75.1 176.9 175.6 176.9 81.1 0 128-49.6 147.5-78.4l-60.3-40.2c-20.1 29.5-47.6 48.9-87.2 48.9-39.5 0-67.7-18.1-85.7-53.6l236.6-97.8-8.1-20.2zm-241.3 59c-2-68.4 53-103.2 92.5-103.2 30.9 0 57 15.4 65.7 37.5l-158.2 65.7zm-192.3 171.6h77.7V728h-77.7v520.1zm-127.4-303.6h-2.7c-17.4-20.8-51-39.6-93.1-39.6-88.5 0-169.6 77.8-169.6 177.6 0 99.2 81.1 176.3 169.6 176.3 42.2 0 75.7-18.8 93.1-40.2h2.7v25.5c0 67.7-36.2 103.9-94.5 103.9-47.6 0-77.1-34.2-89.2-63l-67.7 28.2c19.4 46.9 71 104.5 156.8 104.5 91.2 0 168.2-53.6 168.2-184.3V915.6H3310v28.9zm-89.1 244.6c-53.6 0-98.5-44.9-98.5-106.5 0-62.4 44.9-107.9 98.5-107.9 52.9 0 94.5 45.6 94.5 107.9-.1 61.6-41.6 106.5-94.5 106.5M4235.4 728h-186v520.1h77.6v-197h108.4c86 0 170.6-62.3 170.6-161.5S4321.4 728 4235.4 728m2 250.7H4127V800.4h110.4c58 0 91 48 91 89.1-.1 40.3-33 89.2-91 89.2m479.7-74.8c-56.2 0-114.4 24.8-138.5 79.6l68.9 28.8c14.7-28.8 42.1-38.1 70.9-38.1 40.1 0 81 24.1 81.6 66.9v5.4c-14.1-8-44.2-20.1-81-20.1-74.3 0-149.9 40.8-149.9 117.1 0 69.6 60.9 114.4 129.1 114.4 52.2 0 81-23.4 99-50.9h2.7v40.1h75v-199.4c.1-92.2-68.8-143.8-157.8-143.8m-9.4 285.1c-25.4 0-60.9-12.7-60.9-44.2 0-40.1 44.2-55.5 82.3-55.5 34.1 0 50.2 7.4 70.9 17.4-6 48.2-47.4 82.3-92.3 82.3M5148 915.3l-89 225.5h-2.7L4964 915.3h-83.6l138.5 315.1-79 175.3h81l213.5-490.4H5148zm-699.2 332.8h77.6V728h-77.6v520.1zM1802.1 547.7c-16.8 0-33-5.2-48.8-15.6-15.8-10.4-26.7-26-32.7-46.6l30.5-12.8c3.9 13.6 10.3 24.2 19.3 31.7 9 7.6 19.6 11.3 31.7 11.3 13.6 0 25.3-4.2 35.1-12.7s14.7-19.1 14.7-31.7c0-12.4-5-22.8-15.1-31.3s-22.1-12.7-36.2-12.7h-21.5V396h18.9c13.1 0 24-3.6 32.6-10.9 8.6-7.3 12.9-17 12.9-29.1 0-11.4-4.2-20.4-12.6-27-8.4-6.6-18.8-9.8-31.1-9.8-21.3 0-35.8 10.8-43.3 32.4l-31-13.1c4.8-13.4 13.5-25.3 25.8-35.7 12.4-10.4 28.5-15.6 48.4-15.6 22.3 0 40.9 6.5 55.7 19.5 14.8 13 22.2 29.4 22.2 49.3 0 24-11.1 41.9-33.4 53.5v1.5c12.1 5.1 22.1 12.9 30 23.3 7.9 10.4 11.9 22.8 11.9 37.1 0 22.1-8.2 40.4-24.4 54.8-16.2 14.3-36.1 21.5-59.6 21.5zm104.9-5.8l98.3-260.6h37.9l98.3 260.6h-37.1l-25.1-70.6h-109.6l-25.5 70.6H1907zm73.8-101.9h86.7l-42.6-117.6h-1.5L1980.8 440zM2175 541.9V281.3h94.3c20.4 0 38 6.7 52.9 20.2 15 13.4 22.4 30.4 22.4 50.8 0 12.4-3.2 23.3-9.6 32.8-6.4 9.5-15 16.6-25.7 21.5v1.5c12.9 4.4 23.4 11.9 31.7 22.6 8.2 10.7 12.4 23 12.4 37.1 0 21.3-7.8 39.1-23.5 53.2-15.7 14.1-34.2 21.1-55.5 21.1H2175zm33.5-148.9h60.8c12.6 0 22.8-4.2 30.4-12.5 7.7-8.4 11.5-17.6 11.5-27.5 0-9.9-3.7-19.1-11.1-27.3-7.4-8.2-17.2-12.4-29.3-12.4h-62.3V393zm0 116.9h67.4c12.9 0 23.3-4.5 31.3-13.5s12-18.8 12-29.5-4.1-20.5-12.4-29.3c-8.2-8.9-19.1-13.3-32.4-13.3h-65.9v85.6zm161.5 32l98.3-260.6h37.9l98.3 260.6h-37.1l-25.1-70.6h-109.6l-25.5 70.6H2370zm73.9-101.9h86.7L2488 322.4h-1.5L2443.9 440zm194.2 101.9V281.3h33.5V393h130.3V281.3h33.5v260.6h-33.5V424.3h-130.3v117.6zm339.5 0h-33.5V313.3h-72.8v-32h179.1v32h-72.8zm63.9 0l98.3-260.6h37.9l98.3 260.6h-37.1l-25.1-70.6h-109.6l-25.5 70.6h-37.2zm73.9-101.9h86.7l-42.6-117.6h-1.5L3115.4 440zm360.5-17.5v119.4h-33.4V422.5h-1.5l-101.2 119.4h-43.7v-1.4l110-126-105.6-131.8v-1.4h40.8l99.7 126.6h1.5V281.3h33.4v126.6h1.5l99.8-126.6h40.7v1.4l-105.6 131.8 110 126v1.4h-43.7l-101.2-119.4zm379.2-141.2v260.6h-33.5V379.5l1.5-50.2h-1.5l-132.5 212.6h-34.9V281.3h33.5v152.5l-1.5 50.2h1.5l126.7-202.7zm142.2 260.6h-33.5V313.3H3891v-32h179.1v32h-72.8zm310.9-260.6v260.6h-33.5V379.5l1.5-50.2h-1.5l-132.5 212.6h-34.9V281.3h33.4v152.5l-1.4 50.2h1.4l126.8-202.7zm200.9 266.4c-16.8 0-33-5.2-48.8-15.6-15.8-10.4-26.7-26-32.7-46.6l30.5-12.8c3.9 13.6 10.3 24.2 19.3 31.7 9 7.6 19.6 11.3 31.7 11.3 13.6 0 25.3-4.2 35.1-12.7s14.7-19.1 14.7-31.7c0-12.4-5-22.8-15.1-31.3s-22.1-12.7-36.2-12.7h-21.5V396h18.9c13.1 0 24-3.6 32.6-10.9 8.6-7.3 12.9-17 12.9-29.1 0-11.4-4.2-20.4-12.6-27-8.4-6.6-18.8-9.8-31.1-9.8-21.3 0-35.8 10.8-43.3 32.4l-31-13.1c4.8-13.4 13.5-25.3 25.8-35.7 12.4-10.4 28.5-15.6 48.4-15.6 22.3 0 40.9 6.5 55.7 19.5 14.8 13 22.2 29.4 22.2 49.3 0 24-11.1 41.9-33.4 53.5v1.5c12.1 5.1 22.1 12.9 30 23.3 7.9 10.4 11.9 22.8 11.9 37.1 0 22.1-8.2 40.4-24.4 54.8-16.1 14.3-36.1 21.5-59.6 21.5z" fill="#1b1a1a" stroke="#1b1a1a" stroke-width="5" stroke-miterlimit="10" id="Layer_3"/><path d="M2834.6 904.9c-97.8 0-177.6 74.4-177.6 177 0 101.9 79.8 176.9 177.6 176.9s177.6-75.1 177.6-176.9c0-102.6-79.7-177-177.6-177m0 284.2c-53.6 0-99.9-44.2-99.9-107.2 0-63.7 46.3-107.3 99.9-107.3s99.8 43.6 99.8 107.3c.1 63-46.2 107.2-99.8 107.2m-387.5-284.2c-97.8 0-177.6 74.4-177.6 177 0 101.9 79.8 176.9 177.6 176.9 97.9 0 177.6-75.1 177.6-176.9.1-102.6-79.7-177-177.6-177m0 284.2c-53.6 0-99.8-44.2-99.8-107.2 0-63.7 46.3-107.3 99.8-107.3 53.6 0 99.9 43.6 99.9 107.3 0 63-46.2 107.2-99.9 107.2m-460.8-229.9v75.1h179.6c-5.3 42.2-19.4 73.1-40.9 94.5-26.2 26.2-67.1 55-138.7 55-110.6 0-197.1-89.2-197.1-199.7s86.4-199.8 197.1-199.8c59.7 0 103.2 23.5 135.4 53.7l53-53c-44.9-42.9-104.5-75.8-188.3-75.8-151.5 0-278.9 123.4-278.9 274.8s127.3 274.8 278.9 274.8c81.7 0 143.4-26.8 191.7-77.1 49.6-49.6 65-119.3 65-175.6 0-17.4-1.3-33.5-4-46.9h-252.8zm1884.9 58.3c-14.8-39.5-59.7-112.6-151.5-112.6-91.2 0-166.9 71.7-166.9 177 0 99.2 75.1 176.9 175.6 176.9 81.1 0 128-49.6 147.5-78.4l-60.3-40.2c-20.1 29.5-47.6 48.9-87.2 48.9-39.5 0-67.7-18.1-85.7-53.6l236.6-97.8-8.1-20.2zm-241.3 59c-2-68.4 53-103.2 92.5-103.2 30.9 0 57 15.4 65.7 37.5l-158.2 65.7zm-192.3 171.6h77.7V728h-77.7v520.1zm-127.4-303.6h-2.7c-17.4-20.8-51-39.6-93.1-39.6-88.5 0-169.6 77.8-169.6 177.6 0 99.2 81.1 176.3 169.6 176.3 42.2 0 75.7-18.8 93.1-40.2h2.7v25.5c0 67.7-36.2 103.9-94.5 103.9-47.6 0-77.1-34.2-89.2-63l-67.7 28.2c19.4 46.9 71 104.5 156.8 104.5 91.2 0 168.2-53.6 168.2-184.3V915.6H3310v28.9zm-89.1 244.6c-53.6 0-98.5-44.9-98.5-106.5 0-62.4 44.9-107.9 98.5-107.9 52.9 0 94.5 45.6 94.5 107.9-.1 61.6-41.6 106.5-94.5 106.5M4235.4 728h-186v520.1h77.6v-197h108.4c86 0 170.6-62.3 170.6-161.5S4321.4 728 4235.4 728m2 250.7H4127V800.4h110.4c58 0 91 48 91 89.1-.1 40.3-33 89.2-91 89.2m479.7-74.8c-56.2 0-114.4 24.8-138.5 79.6l68.9 28.8c14.7-28.8 42.1-38.1 70.9-38.1 40.1 0 81 24.1 81.6 66.9v5.4c-14.1-8-44.2-20.1-81-20.1-74.3 0-149.9 40.8-149.9 117.1 0 69.6 60.9 114.4 129.1 114.4 52.2 0 81-23.4 99-50.9h2.7v40.1h75v-199.4c.1-92.2-68.8-143.8-157.8-143.8m-9.4 285.1c-25.4 0-60.9-12.7-60.9-44.2 0-40.1 44.2-55.5 82.3-55.5 34.1 0 50.2 7.4 70.9 17.4-6 48.2-47.4 82.3-92.3 82.3M5148 915.3l-89 225.5h-2.7L4964 915.3h-83.6l138.5 315.1-79 175.3h81l213.5-490.4H5148zm-699.2 332.8h77.6V728h-77.6v520.1zM1802.1 547.7c-16.8 0-33-5.2-48.8-15.6-15.8-10.4-26.7-26-32.7-46.6l30.5-12.8c3.9 13.6 10.3 24.2 19.3 31.7 9 7.6 19.6 11.3 31.7 11.3 13.6 0 25.3-4.2 35.1-12.7s14.7-19.1 14.7-31.7c0-12.4-5-22.8-15.1-31.3s-22.1-12.7-36.2-12.7h-21.5V396h18.9c13.1 0 24-3.6 32.6-10.9 8.6-7.3 12.9-17 12.9-29.1 0-11.4-4.2-20.4-12.6-27-8.4-6.6-18.8-9.8-31.1-9.8-21.3 0-35.8 10.8-43.3 32.4l-31-13.1c4.8-13.4 13.5-25.3 25.8-35.7 12.4-10.4 28.5-15.6 48.4-15.6 22.3 0 40.9 6.5 55.7 19.5 14.8 13 22.2 29.4 22.2 49.3 0 24-11.1 41.9-33.4 53.5v1.5c12.1 5.1 22.1 12.9 30 23.3 7.9 10.4 11.9 22.8 11.9 37.1 0 22.1-8.2 40.4-24.4 54.8-16.2 14.3-36.1 21.5-59.6 21.5zm104.9-5.8l98.3-260.6h37.9l98.3 260.6h-37.1l-25.1-70.6h-109.6l-25.5 70.6H1907zm73.8-101.9h86.7l-42.6-117.6h-1.5L1980.8 440zM2175 541.9V281.3h94.3c20.4 0 38 6.7 52.9 20.2 15 13.4 22.4 30.4 22.4 50.8 0 12.4-3.2 23.3-9.6 32.8-6.4 9.5-15 16.6-25.7 21.5v1.5c12.9 4.4 23.4 11.9 31.7 22.6 8.2 10.7 12.4 23 12.4 37.1 0 21.3-7.8 39.1-23.5 53.2-15.7 14.1-34.2 21.1-55.5 21.1H2175zm33.5-148.9h60.8c12.6 0 22.8-4.2 30.4-12.5 7.7-8.4 11.5-17.6 11.5-27.5 0-9.9-3.7-19.1-11.1-27.3-7.4-8.2-17.2-12.4-29.3-12.4h-62.3V393zm0 116.9h67.4c12.9 0 23.3-4.5 31.3-13.5s12-18.8 12-29.5-4.1-20.5-12.4-29.3c-8.2-8.9-19.1-13.3-32.4-13.3h-65.9v85.6zm161.5 32l98.3-260.6h37.9l98.3 260.6h-37.1l-25.1-70.6h-109.6l-25.5 70.6H2370zm73.9-101.9h86.7L2488 322.4h-1.5L2443.9 440zm194.2 101.9V281.3h33.5V393h130.3V281.3h33.5v260.6h-33.5V424.3h-130.3v117.6zm339.5 0h-33.5V313.3h-72.8v-32h179.1v32h-72.8zm63.9 0l98.3-260.6h37.9l98.3 260.6h-37.1l-25.1-70.6h-109.6l-25.5 70.6h-37.2zm73.9-101.9h86.7l-42.6-117.6h-1.5L3115.4 440zm360.5-17.5v119.4h-33.4V422.5h-1.5l-101.2 119.4h-43.7v-1.4l110-126-105.6-131.8v-1.4h40.8l99.7 126.6h1.5V281.3h33.4v126.6h1.5l99.8-126.6h40.7v1.4l-105.6 131.8 110 126v1.4h-43.7l-101.2-119.4zm379.2-141.2v260.6h-33.5V379.5l1.5-50.2h-1.5l-132.5 212.6h-34.9V281.3h33.5v152.5l-1.5 50.2h1.5l126.7-202.7zm142.2 260.6h-33.5V313.3H3891v-32h179.1v32h-72.8zm310.9-260.6v260.6h-33.5V379.5l1.5-50.2h-1.5l-132.5 212.6h-34.9V281.3h33.4v152.5l-1.4 50.2h1.4l126.8-202.7zm200.9 266.4c-16.8 0-33-5.2-48.8-15.6-15.8-10.4-26.7-26-32.7-46.6l30.5-12.8c3.9 13.6 10.3 24.2 19.3 31.7 9 7.6 19.6 11.3 31.7 11.3 13.6 0 25.3-4.2 35.1-12.7s14.7-19.1 14.7-31.7c0-12.4-5-22.8-15.1-31.3s-22.1-12.7-36.2-12.7h-21.5V396h18.9c13.1 0 24-3.6 32.6-10.9 8.6-7.3 12.9-17 12.9-29.1 0-11.4-4.2-20.4-12.6-27-8.4-6.6-18.8-9.8-31.1-9.8-21.3 0-35.8 10.8-43.3 32.4l-31-13.1c4.8-13.4 13.5-25.3 25.8-35.7 12.4-10.4 28.5-15.6 48.4-15.6 22.3 0 40.9 6.5 55.7 19.5 14.8 13 22.2 29.4 22.2 49.3 0 24-11.1 41.9-33.4 53.5v1.5c12.1 5.1 22.1 12.9 30 23.3 7.9 10.4 11.9 22.8 11.9 37.1 0 22.1-8.2 40.4-24.4 54.8-16.1 14.3-36.1 21.5-59.6 21.5z" fill="#fff" id="Layer_2"/></svg>