<svg width="60" height="60" fill="none" xmlns="http://www.w3.org/2000/svg"><g clip-path="url(#clip0)" stroke="#323232" stroke-miterlimit="10"><path d="M30 56.966c14.893 0 26.966-12.073 26.966-26.966S44.893 3.034 30 3.034 3.034 15.107 3.034 30 15.107 56.966 30 56.966z"/><path d="M30 59.663c16.382 0 29.663-13.28 29.663-29.663C59.663 13.618 46.383.337 30 .337 13.618.337.337 13.617.337 30c0 16.382 13.28 29.663 29.663 29.663zM18.54 33.37l12.808-12.808m-5.056 20.562l12.81-12.81M15.843 43.483l26.966-26.966"/></g><defs><clipPath id="clip0"><path fill="#fff" d="M0 0h60v60H0z"/></clipPath></defs></svg>