<svg width="60" height="60" fill="none" xmlns="http://www.w3.org/2000/svg"><g clip-path="url(#clip0)" stroke="#323232" stroke-miterlimit="10"><path d="M19.205 34.953L31.728 22.43m-4.943 20.103L39.308 30.01M16.569 44.84l26.364-26.365m8.272 18.535l-.514 6.044c-.731 8.667-6.9 15.522-14.678 16.307a59.892 59.892 0 01-12.2 0v0c-7.778-.785-13.948-7.64-14.68-16.307L8.66 37.01a83.216 83.216 0 010-14.04l.508-6.024C9.865 8.279 16.035 1.424 23.819.659a59.901 59.901 0 0112.194 0v0c7.777.765 13.947 7.62 14.678 16.287l.514 6.024a83.21 83.21 0 010 14.04z"/><path d="M49.254 36.364l-.461 5.497c-.666 7.87-6.268 14.099-13.334 14.824-3.686.375-7.4.375-11.087 0v0C17.307 55.96 11.704 49.73 11.04 41.86l-.462-5.497a74.826 74.826 0 010-12.748l.462-5.477c.659-7.87 6.268-14.099 13.333-14.81a54.628 54.628 0 0111.087 0v0c7.066.711 12.668 6.94 13.334 14.81l.461 5.477a76.23 76.23 0 010 12.748v0z"/></g><defs><clipPath id="clip0"><path fill="#fff" d="M0 0h60v60H0z"/></clipPath></defs></svg>