<svg width="60" height="60" fill="none" xmlns="http://www.w3.org/2000/svg"><g clip-path="url(#clip0)" stroke="#323232" stroke-miterlimit="10"><path d="M49.773 3.41H10.227a6.818 6.818 0 00-6.818 6.817v39.546a6.818 6.818 0 006.818 6.818h39.546a6.818 6.818 0 006.818-6.818V10.227a6.818 6.818 0 00-6.818-6.818z"/><path d="M52.84.34H7.16A6.818 6.818 0 00.34 7.16v45.68a6.818 6.818 0 006.82 6.82h45.68a6.818 6.818 0 006.82-6.82V7.16A6.818 6.818 0 0052.84.34zM19.773 32.727l12.954-12.954m-5.113 20.795l12.954-12.954M17.045 42.955l27.273-27.273"/></g><defs><clipPath id="clip0"><path fill="#fff" d="M0 0h60v60H0z"/></clipPath></defs></svg>