<svg width="1920" height="700" fill="none" xmlns="http://www.w3.org/2000/svg"><g clip-path="url(#clip0)"><g clip-path="url(#clip1)"><path d="M29.576 220.146c-.837.034-2.475-.243-3.347-.278-2.928-.07-6.623 3.439-8.017 4.69-2.928 2.64-5.194 6.635-5.16 10.908.035 3.926 1.22 6.74 5.3 9.519 1.393.938 8.853 4.482 14.919-.868 1.569-1.39 2.893-3.058 4.113-4.795 1.848-2.675 3.66-6.774 2.58-10.595-.907-3.162-.697-6.358-2.754-8.13-3.695-3.092-5.926-.555-7.634-.451zm-16.593-38.805c-.418.417-1.325 1.528-3.556 2.571-.697.312-5.298 2.084-7.495 3.265-1.882 1.008-3.904 2.154-4.636 4.169-.453 1.32-.314 2.744-.279 4.134.105 4.551-1.568 4.725-1.987 7.817-.279 2.154.907 4.273 2.58 5.662 1.673 1.355 4.322 2.953 8.366 2.78 4.288-.174 7.634-3.127 9.551-4.864 2.859-2.606 4.428-6.601 4.044-10.457-.104-.973-.383-3.196-.209-4.169.349-1.91 2.057-2.848 2.684-3.995 3.172-5.975-5.333-10.7-9.063-6.913zm31.373 28.278c1.673-1.111 3.486-1.598 5.403-1.077.837.244 3.451 1.077 6.519-1.077 1.255-.868 3.904-2.952 4.846-7.191.592-2.64.418-4.064.522-5.384.349-4.343 2.406-4.239 3.626-6.81.592-1.285.14-2.883-.698-4.029-.836-1.147-4.113-3.474-6.936-3.926-5.543-.869-11.643 2.084-13.56 7.33-.454 1.251-.698 2.571-.942 3.856-.349 1.841-.662 3.683-1.01 5.559-.14.833-.315 1.667-.733 2.397-1.778 3.161-6.623 1.911-5.577 6.913.557 2.675 4.81 5.906 8.54 3.439z" fill="#DE882C"/><path d="M87.965 103.939C87.965 72.499 62.378 47 30.831 47 4.163 47-18.251 65.239-24.526 89.87c-4.845-2.293-10.283-3.579-16.035-3.579-20.672 0-37.439 16.71-37.439 37.277 0 20.601 16.767 37.276 37.404 37.276 0 0 91.959-.243 96.874-.243 17.36 0 31.443-14.035 31.443-31.336.488-10.005.244-24.805.244-25.326z" fill="#fff"/></g><g clip-path="url(#clip2)"><path d="M258.414 595.72c-1.512.062-4.473-.441-6.048-.504-5.292-.126-11.97 6.232-14.489 8.498-5.292 4.783-9.387 12.022-9.324 19.764.063 7.113 2.205 12.212 9.576 17.247 2.519 1.7 16.001 8.12 26.963-1.573 2.835-2.518 5.229-5.539 7.434-8.687 3.339-4.847 6.615-12.274 4.662-19.198-1.638-5.728-1.26-11.519-4.977-14.729-6.678-5.602-10.71-1.007-13.797-.818zm-57.77 8.308c.252 1.511 1.386 4.343 2.016 5.665 1.386 3.022-.189 7.428-1.701 10.512-3.213 6.358-10.521 17.94-18.836 20.52-6.804 2.141-15.939-2.455-21.609-7.301-2.268-1.952-10.143-11.645-3.591-24.675 1.701-3.399 10.269-17.75 22.932-17.562 9.386.126 13.355-1.762 16.442-.188 7.749 3.902 3.465 7.553 4.347 13.029zm27.783-78.618c-.756.755-2.394 2.769-6.426 4.657-1.26.567-9.576 3.777-13.545 5.917-3.402 1.826-7.056 3.903-8.379 7.554-.819 2.392-.567 4.972-.504 7.49.189 8.246-2.835 8.561-3.591 14.163-.504 3.903 1.638 7.742 4.662 10.26 3.024 2.455 7.812 5.35 15.12 5.036 7.749-.315 13.797-5.665 17.262-8.813 5.165-4.721 8-11.959 7.307-18.946-.189-1.763-.693-5.791-.378-7.554.63-3.462 3.717-5.161 4.851-7.238 5.733-10.827-9.638-19.388-16.379-12.526zm-71.882-1.322c-3.78-2.518-7.434-4.406-11.718-3.588-3.78.755-7.937 1.636-18.584 14.037-5.922 6.924-11.151 14.603-12.222 18.065-.567 1.951-.882 4.028-.378 5.98 2.709 10.26 18.585 19.576 25.703 19.576 3.906 0 7.119-3.273 8.82-6.798 1.701-3.525.504-6.106 2.079-9.694 1.575-3.651 6.237-5.917 6.489-8.875.063-1.007 0-2.077.063-3.085.756-6.168 4.536-9.378 6.489-12.652 3.528-5.728-3.024-10.511-6.741-12.966zm128.581 52.559c3.024-2.014 6.299-2.895 9.764-1.951 1.512.44 6.237 1.951 11.781-1.952 2.268-1.573 7.056-5.35 8.757-13.029 1.071-4.784.756-7.365.945-9.757.63-7.868 4.347-7.679 6.552-12.337 1.071-2.329.252-5.224-1.26-7.302-1.512-2.077-7.434-6.294-12.537-7.112-10.017-1.574-21.041 3.776-24.506 13.281-.819 2.266-1.26 4.658-1.701 6.987-.63 3.336-1.197 6.672-1.827 10.071-.252 1.511-.567 3.022-1.323 4.343-3.213 5.728-11.97 3.462-10.08 12.527 1.008 4.846 8.694 10.7 15.435 6.231z" fill="#DE882C"/><path d="M363.937 385.167c0-56.965-46.241-103.167-103.255-103.167-48.194 0-88.702 33.046-100.042 77.675-8.757-4.155-18.585-6.484-28.979-6.484-37.359 0-67.661 30.277-67.661 67.54 0 37.327 30.302 67.541 67.598 67.541 0 0 166.19-.441 175.073-.441 31.374 0 56.825-25.43 56.825-56.776.882-18.129.441-44.943.441-45.888z" fill="#fff"/></g><g clip-path="url(#clip3)"><path d="M1364.41 474.72c-1.51.062-4.47-.441-6.04-.504-5.3-.126-11.97 6.232-14.49 8.498-5.3 4.783-9.39 12.022-9.33 19.764.07 7.113 2.21 12.212 9.58 17.247 2.52 1.7 16 8.12 26.96-1.573 2.84-2.518 5.23-5.539 7.44-8.687 3.33-4.846 6.61-12.274 4.66-19.198-1.64-5.728-1.26-11.519-4.98-14.729-6.68-5.602-10.71-1.007-13.8-.818zm-57.77 8.308c.26 1.511 1.39 4.343 2.02 5.665 1.39 3.022-.19 7.428-1.7 10.512-3.21 6.358-10.52 17.94-18.84 20.52-6.8 2.141-15.94-2.454-21.61-7.301-2.26-1.952-10.14-11.645-3.59-24.675 1.7-3.399 10.27-17.75 22.93-17.562 9.39.126 13.36-1.762 16.45-.188 7.75 3.902 3.46 7.553 4.34 13.029zm27.79-78.618c-.76.755-2.4 2.769-6.43 4.657-1.26.567-9.58 3.777-13.54 5.917-3.41 1.826-7.06 3.903-8.38 7.554-.82 2.392-.57 4.972-.51 7.49.19 8.246-2.83 8.561-3.59 14.163-.5 3.903 1.64 7.742 4.66 10.26 3.03 2.455 7.82 5.35 15.12 5.036 7.75-.315 13.8-5.665 17.27-8.813 5.16-4.721 8-11.959 7.3-18.946-.19-1.763-.69-5.791-.37-7.554.63-3.462 3.71-5.161 4.85-7.238 5.73-10.827-9.64-19.388-16.38-12.526zm-71.88-1.322c-3.78-2.518-7.44-4.406-11.72-3.588-3.78.755-7.94 1.636-18.59 14.037-5.92 6.924-11.15 14.603-12.22 18.065-.57 1.951-.88 4.028-.38 5.98 2.71 10.26 18.59 19.576 25.71 19.576 3.9 0 7.12-3.273 8.82-6.798 1.7-3.525.5-6.106 2.08-9.694 1.57-3.651 6.23-5.917 6.48-8.875.07-1.007 0-2.077.07-3.085.75-6.168 4.53-9.378 6.49-12.652 3.52-5.728-3.03-10.511-6.74-12.966zm128.58 52.559c3.02-2.014 6.3-2.895 9.76-1.951 1.51.44 6.24 1.951 11.78-1.952 2.27-1.573 7.06-5.35 8.76-13.029 1.07-4.784.75-7.365.94-9.757.63-7.868 4.35-7.679 6.55-12.337 1.08-2.329.26-5.224-1.26-7.302-1.51-2.077-7.43-6.294-12.53-7.113-10.02-1.573-21.04 3.777-24.51 13.282-.82 2.266-1.26 4.658-1.7 6.987-.63 3.336-1.2 6.672-1.83 10.071-.25 1.511-.56 3.021-1.32 4.343-3.21 5.728-11.97 3.462-10.08 12.526 1.01 4.847 8.69 10.701 15.44 6.232z" fill="#DE882C"/><path d="M1469.94 264.167c0-56.965-46.24-103.167-103.26-103.167-48.19 0-88.7 33.046-100.04 77.675-8.76-4.155-18.58-6.484-28.98-6.484-37.36 0-67.66 30.277-67.66 67.54 0 37.327 30.3 67.541 67.6 67.541 0 0 166.19-.441 175.07-.441 31.37 0 56.83-25.43 56.83-56.776.88-18.129.44-44.943.44-45.888z" fill="#fff"/></g><g clip-path="url(#clip4)"><path d="M1910.17 306.34c-.86.036-2.54-.25-3.43-.286-3-.072-6.78 3.542-8.21 4.83-3 2.72-5.32 6.835-5.28 11.236.03 4.044 1.25 6.942 5.42 9.805 1.43.966 9.07 4.616 15.28-.895 1.61-1.431 2.97-3.149 4.21-4.938 1.9-2.755 3.75-6.978 2.65-10.914-.93-3.256-.72-6.548-2.82-8.373-3.79-3.184-6.07-.572-7.82-.465zm-32.74 4.723c.14.859.79 2.469 1.14 3.221.79 1.717-.1 4.222-.96 5.975-1.82 3.615-5.96 10.199-10.67 11.666-3.86 1.216-9.04-1.396-12.25-4.151-1.28-1.109-5.75-6.62-2.03-14.027.96-1.932 5.82-10.091 12.99-9.983 5.32.071 7.57-1.002 9.32-.108 4.39 2.219 1.96 4.294 2.46 7.407zm15.75-44.692c-.43.429-1.36 1.574-3.65 2.648-.71.322-5.42 2.147-7.67 3.363-1.93 1.038-4 2.219-4.75 4.294-.46 1.36-.32 2.827-.29 4.258.11 4.688-1.6 4.867-2.03 8.052-.29 2.218.93 4.401 2.64 5.832 1.72 1.396 4.43 3.042 8.57 2.863 4.39-.179 7.82-3.221 9.78-5.01 2.93-2.684 4.53-6.799 4.14-10.77-.1-1.002-.39-3.292-.21-4.294.36-1.968 2.1-2.934 2.75-4.115 3.25-6.155-5.47-11.021-9.28-7.121zm-40.74-.751c-2.14-1.432-4.21-2.505-6.64-2.04-2.14.429-4.5.93-10.53 7.979-3.35 3.937-6.32 8.302-6.92 10.27-.33 1.109-.5 2.29-.22 3.399 1.54 5.833 10.53 11.129 14.57 11.129 2.21 0 4.03-1.861 4.99-3.865.97-2.004.29-3.471 1.18-5.51.89-2.076 3.54-3.364 3.68-5.046.04-.572 0-1.18.04-1.753.42-3.507 2.57-5.332 3.67-7.192 2-3.256-1.71-5.976-3.82-7.371zm72.86 29.878c1.72-1.145 3.57-1.646 5.54-1.109.85.25 3.53 1.109 6.67-1.11 1.29-.894 4-3.041 4.97-7.407.6-2.719.42-4.186.53-5.546.36-4.473 2.46-4.365 3.71-7.013.61-1.324.15-2.97-.71-4.151-.86-1.181-4.21-3.578-7.1-4.043-5.68-.895-11.93 2.147-13.89 7.55-.47 1.288-.72 2.648-.96 3.972-.36 1.896-.68 3.793-1.04 5.725-.14.859-.32 1.717-.75 2.469-1.82 3.256-6.78 1.968-5.71 7.121.57 2.755 4.92 6.083 8.74 3.542z" fill="#DE882C"/><path d="M1969.96 186.648c0-32.384-26.2-58.648-58.51-58.648-27.31 0-50.26 18.786-56.69 44.156-4.96-2.362-10.53-3.686-16.42-3.686-21.17 0-38.34 17.211-38.34 38.395 0 21.219 17.17 38.394 38.31 38.394 0 0 94.17-.25 99.2-.25 17.78 0 32.2-14.456 32.2-32.276.5-10.305.25-25.549.25-26.085z" fill="#fff"/></g></g><defs><clipPath id="clip0"><path fill="#fff" d="M0 0h1920v700H0z"/></clipPath><clipPath id="clip1"><path fill="#fff" transform="translate(-78 47)" d="M0 0h166v200H0z"/></clipPath><clipPath id="clip2"><path fill="#fff" transform="translate(64 282)" d="M0 0h300v362.376H0z"/></clipPath><clipPath id="clip3"><path fill="#fff" transform="translate(1170 161)" d="M0 0h300v362.376H0z"/></clipPath><clipPath id="clip4"><path fill="#fff" transform="translate(1800 128)" d="M0 0h170v206H0z"/></clipPath></defs></svg>