<svg width="1920" height="700" fill="none" xmlns="http://www.w3.org/2000/svg"><g clip-path="url(#clip0)"><path d="M285 219.016c0-32.562-26.434-58.984-59.05-59.016.032.38.032.759.032 1.139 0 8.449-6.307 15.411-14.485 16.455-21.363.316-39.081 15.505-43.297 35.663a35.53 35.53 0 00-20.222-6.297c-.349 0-.697 0-1.046.031a11.449 11.449 0 011.046 4.778c0 6.329-4.311 11.424-10.65 11.424-.127 0-.412 0-.602.031-12.773 1.013-22.726 11.74-22.726 24.778 0 16.17 13.756 29.998 34.01 29.998h78.13c32.521-.127 58.86-26.486 58.86-58.984z" fill="#F1F9FE"/><path d="M240.816 170.221c-.349 1.076-2.504 1.361-4.755.601-2.282-.759-3.835-2.247-3.455-3.322.349-1.076 2.504-1.361 4.755-.602 2.282.76 3.835 2.247 3.455 3.323zm33.851 35.663c-1.838.822-4.754-1.583-6.466-5.411-1.711-3.829-1.648-7.595.19-8.449 1.839-.823 4.755 1.582 6.466 5.411 1.744 3.829 1.648 7.626-.19 8.449z" fill="#D89150"/><path d="M250.325 201.453c-1.585 2.279-5.674 2.152-9.097-.253-3.423-2.405-4.913-6.17-3.328-8.449 1.585-2.278 5.673-2.151 9.096.254 3.455 2.404 4.945 6.17 3.329 8.448z" fill="#E65611"/><path d="M194.793 192.941c1.839 2.057.793 5.981-2.314 8.766-3.138 2.784-7.163 3.354-9.001 1.297-1.839-2.057-.793-5.981 2.313-8.765 3.138-2.785 7.164-3.355 9.002-1.298zm-66.72 54.966c2.314.506 3.645 3.291 3.011 6.202-.634 2.911-3.043 4.873-5.325 4.367-2.314-.507-3.645-3.291-3.011-6.202.634-2.912 3.043-4.874 5.325-4.367z" fill="#522915"/><path d="M134.222 231.104c.888 1.519-.285 3.829-2.567 5.158-2.314 1.329-4.882 1.171-5.769-.348-.887-1.519.285-3.829 2.567-5.158 2.314-1.329 4.913-1.171 5.769.348z" fill="#823B16"/><path d="M150.577 244.521c1.427 1.582.951 4.303-1.046 6.075-1.997 1.772-4.754 1.899-6.18.317-1.427-1.582-.951-4.304 1.045-6.076 1.997-1.772 4.755-1.93 6.181-.316z" fill="#D89150"/><path d="M255.745 183.48c-.539 1.677-3.043 2.341-5.579 1.519-2.536-.823-4.12-2.848-3.582-4.525.539-1.678 3.043-2.342 5.579-1.519 2.536.822 4.152 2.879 3.582 4.525z" fill="#823B16"/><path d="M168.073 235.028c-.538 1.677-3.042 2.341-5.578 1.519-2.536-.823-4.121-2.848-3.582-4.526.539-1.677 3.043-2.341 5.579-1.518 2.535.822 4.12 2.847 3.581 4.525zm95.279-3.861c-3.297.411-6.498-3.291-7.1-8.259-.634-4.968 1.553-9.335 4.849-9.778 3.297-.411 6.498 3.291 7.1 8.259.602 5-1.553 9.367-4.849 9.778z" fill="#522915"/><path d="M222.274 202.403c.76 3.133-1.902 6.487-5.991 7.468-4.057.981-7.987-.76-8.748-3.892-.761-3.133 1.902-6.487 5.99-7.468 4.058-.981 7.988.759 8.749 3.892z" fill="#D89150"/><path d="M187.598 221.895c.602 2.469-1.49 5.063-4.691 5.855-3.169.759-6.244-.602-6.846-3.038-.602-2.469 1.49-5.063 4.691-5.854 3.169-.791 6.244.569 6.846 3.037z" fill="#823B16"/><path d="M222.4 182.752c0 1.867-2.821 3.386-6.307 3.386-3.487 0-6.308-1.519-6.308-3.386 0-1.867 2.821-3.386 6.308-3.386 3.486 0 6.307 1.519 6.307 3.386zm-65.927 34.713c1.394 1.234.634 4.367-1.68 6.962-2.314 2.595-5.357 3.702-6.751 2.436-1.395-1.234-.634-4.366 1.679-6.961 2.346-2.595 5.357-3.671 6.752-2.437zm15.214 33.258a5.062 5.062 0 005.071 5.063 5.061 5.061 0 005.071-5.063 5.062 5.062 0 00-5.071-5.063 5.042 5.042 0 00-5.071 5.063z" fill="#E65611"/><path d="M201.481 228.952c-1.3 3.892.222 7.911 3.423 8.955 3.17 1.044 6.815-1.266 8.083-5.158 1.299-3.892-.222-7.911-3.423-8.955-3.17-1.044-6.783 1.266-8.083 5.158z" fill="#823B16"/><path d="M688 363.029c0-59.053-47.922-106.972-107.049-107.029.057.689.057 1.377.057 2.066 0 15.323-11.434 27.948-26.259 29.842-38.729.574-70.849 28.12-78.491 64.676-10.401-7.173-23.042-11.42-36.66-11.42-.632 0-1.264 0-1.896.057a20.788 20.788 0 011.896 8.666c0 11.477-7.815 20.717-19.307 20.717-.23 0-.747 0-1.092.057C396.043 372.498 378 391.952 378 415.596 378 444.921 402.938 470 439.655 470h141.641C640.25 469.77 688 421.966 688 363.029z" fill="#F1F9FE"/><path d="M607.9 274.536c-.632 1.952-4.539 2.468-8.619 1.091-4.137-1.378-6.953-4.075-6.263-6.026.632-1.951 4.539-2.468 8.619-1.09 4.137 1.377 6.952 4.074 6.263 6.025zm61.368 64.677c-3.333 1.492-8.619-2.87-11.722-9.814-3.103-6.944-2.988-13.773.345-15.322 3.332-1.492 8.619 2.869 11.722 9.813 3.16 6.944 2.988 13.831-.345 15.323z" fill="#D89150"/><path d="M625.138 331.178c-2.873 4.132-10.285 3.903-16.491-.459-6.206-4.361-8.907-11.19-6.034-15.322 2.874-4.132 10.286-3.903 16.492.459 6.263 4.361 8.964 11.19 6.033 15.322z" fill="#E65611"/><path d="M524.467 315.741c3.333 3.73 1.437 10.846-4.195 15.896-5.688 5.051-12.986 6.084-16.318 2.353-3.333-3.73-1.437-10.846 4.194-15.896 5.689-5.05 12.986-6.083 16.319-2.353zm-120.954 99.683c4.194.918 6.607 5.968 5.458 11.248-1.149 5.28-5.516 8.838-9.653 7.92-4.195-.919-6.608-5.969-5.459-11.248 1.149-5.28 5.516-8.838 9.654-7.92z" fill="#522915"/><path d="M414.66 384.951c1.609 2.755-.517 6.944-4.654 9.354-4.195 2.41-8.849 2.124-10.458-.631s.517-6.944 4.654-9.354c4.195-2.411 8.906-2.124 10.458.631z" fill="#823B16"/><path d="M444.31 409.283c2.585 2.87 1.723 7.805-1.897 11.019-3.62 3.214-8.619 3.443-11.204.574-2.586-2.87-1.724-7.805 1.896-11.019 3.62-3.213 8.619-3.5 11.205-.574z" fill="#D89150"/><path d="M634.964 298.582c-.977 3.041-5.516 4.247-10.113 2.755-4.597-1.493-7.47-5.165-6.493-8.207.977-3.042 5.516-4.247 10.113-2.755 4.597 1.493 7.527 5.223 6.493 8.207z" fill="#823B16"/><path d="M476.028 392.067c-.977 3.042-5.516 4.247-10.113 2.755-4.597-1.492-7.47-5.165-6.493-8.207.976-3.041 5.516-4.247 10.113-2.754 4.597 1.492 7.47 5.164 6.493 8.206zm172.726-7.001c-5.975.746-11.779-5.969-12.871-14.979-1.149-9.009 2.816-16.929 8.792-17.732 5.976-.747 11.779 5.968 12.871 14.978 1.092 9.067-2.816 16.987-8.792 17.733z" fill="#522915"/><path d="M574.285 332.9c1.38 5.681-3.447 11.765-10.86 13.544-7.355 1.779-14.48-1.378-15.859-7.059-1.379-5.682 3.448-11.765 10.86-13.544 7.355-1.779 14.48 1.378 15.859 7.059z" fill="#D89150"/><path d="M511.424 368.251c1.091 4.476-2.701 9.182-8.505 10.617-5.746 1.377-11.319-1.091-12.411-5.509-1.092-4.477 2.701-9.183 8.504-10.617 5.746-1.435 11.32 1.033 12.412 5.509z" fill="#823B16"/><path d="M574.515 297.262c0 3.386-5.114 6.141-11.434 6.141-6.321 0-11.435-2.755-11.435-6.141s5.114-6.141 11.435-6.141c6.32 0 11.434 2.755 11.434 6.141zm-119.518 62.955c2.528 2.238 1.149 7.919-3.045 12.625-4.195 4.706-9.711 6.714-12.239 4.419-2.529-2.238-1.15-7.92 3.045-12.625 4.252-4.706 9.711-6.657 12.239-4.419zm27.581 60.315c0 5.107 4.137 9.182 9.194 9.182a9.178 9.178 0 009.194-9.182c0-5.108-4.137-9.183-9.194-9.183a9.142 9.142 0 00-9.194 9.183z" fill="#E65611"/><path d="M536.591 381.049c-2.356 7.058.403 14.347 6.206 16.24 5.746 1.894 12.354-2.295 14.653-9.354 2.355-7.059-.403-14.347-6.206-16.241-5.746-1.894-12.297 2.296-14.653 9.355z" fill="#823B16"/><path d="M1546 280.034c0-68.987-55.96-124.967-125.01-125.034.07.805.07 1.609.07 2.414 0 17.9-13.35 32.649-30.66 34.861-45.23.671-82.74 32.851-91.66 75.557-12.15-8.38-26.91-13.342-42.81-13.342-.74 0-1.48 0-2.21.068a24.258 24.258 0 012.21 10.123c0 13.408-9.13 24.202-22.55 24.202-.26 0-.87 0-1.27.067-27.04 2.145-48.11 24.873-48.11 52.494 0 34.259 29.12 63.556 72 63.556h165.4c68.84-.268 124.6-56.114 124.6-124.966z" fill="#F1F9FE"/><path d="M1452.46 176.655c-.73 2.279-5.3 2.882-10.06 1.273-4.83-1.609-8.12-4.76-7.31-7.039.73-2.279 5.3-2.883 10.06-1.274 4.83 1.609 8.12 4.76 7.31 7.04zm71.67 75.556c-3.9 1.743-10.07-3.352-13.69-11.464-3.63-8.112-3.49-16.09.4-17.9 3.89-1.743 10.06 3.352 13.69 11.464 3.69 8.112 3.49 16.157-.4 17.9z" fill="#D89150"/><path d="M1472.59 242.825c-3.35 4.827-12.01 4.559-19.25-.536-7.25-5.095-10.4-13.073-7.05-17.9 3.36-4.827 12.01-4.559 19.26.536 7.31 5.095 10.47 13.073 7.04 17.9z" fill="#E65611"/><path d="M1355.04 224.791c3.89 4.358 1.67 12.671-4.9 18.57-6.65 5.9-15.17 7.107-19.06 2.749-3.89-4.358-1.68-12.671 4.9-18.57 6.64-5.9 15.16-7.107 19.06-2.749zm-141.25 116.452c4.9 1.073 7.72 6.972 6.38 13.14-1.35 6.168-6.45 10.325-11.28 9.252-4.89-1.073-7.71-6.972-6.37-13.14 1.34-6.168 6.44-10.325 11.27-9.252z" fill="#522915"/><path d="M1226.81 305.644c1.88 3.218-.6 8.112-5.44 10.927-4.89 2.816-10.33 2.481-12.21-.737-1.88-3.218.61-8.112 5.44-10.928 4.9-2.816 10.4-2.48 12.21.738z" fill="#823B16"/><path d="M1261.43 334.069c3.02 3.353 2.02 9.118-2.21 12.873-4.23 3.754-10.07 4.022-13.09.67-3.02-3.352-2.01-9.118 2.22-12.872 4.23-3.754 10.06-4.09 13.08-.671z" fill="#D89150"/><path d="M1484.07 204.745c-1.14 3.553-6.44 4.961-11.81 3.218-5.37-1.743-8.72-6.034-7.58-9.587 1.14-3.553 6.44-4.961 11.81-3.218 5.36 1.743 8.79 6.101 7.58 9.587z" fill="#823B16"/><path d="M1298.47 313.957c-1.14 3.553-6.44 4.961-11.81 3.218-5.37-1.743-8.72-6.034-7.58-9.587 1.14-3.553 6.44-4.961 11.81-3.218 5.37 1.743 8.72 6.034 7.58 9.587zm201.7-8.179c-6.98.871-13.75-6.973-15.03-17.498-1.34-10.526 3.29-19.778 10.27-20.716 6.98-.872 13.75 6.972 15.03 17.498 1.27 10.592-3.29 19.844-10.27 20.716z" fill="#522915"/><path d="M1413.21 244.836c1.61 6.638-4.03 13.744-12.68 15.822-8.59 2.079-16.91-1.609-18.52-8.246-1.61-6.637 4.03-13.743 12.68-15.822 8.59-2.078 16.91 1.609 18.52 8.246z" fill="#D89150"/><path d="M1339.8 286.134c1.28 5.23-3.15 10.727-9.93 12.403-6.71 1.609-13.21-1.274-14.49-6.436-1.27-5.229 3.15-10.727 9.93-12.403 6.71-1.676 13.22 1.207 14.49 6.436z" fill="#823B16"/><path d="M1413.48 203.203c0 3.956-5.97 7.174-13.35 7.174s-13.36-3.218-13.36-7.174c0-3.955 5.98-7.173 13.36-7.173 7.38 0 13.35 3.218 13.35 7.173zm-139.57 73.545c2.96 2.615 1.34 9.252-3.55 14.75-4.9 5.497-11.34 7.844-14.3 5.162-2.95-2.615-1.34-9.252 3.56-14.749 4.97-5.498 11.34-7.777 14.29-5.163zm32.21 70.462c0 5.966 4.83 10.726 10.74 10.726 5.97 0 10.73-4.827 10.73-10.726 0-5.967-4.83-10.727-10.73-10.727-5.98 0-10.74 4.76-10.74 10.727z" fill="#E65611"/><path d="M1369.19 301.085c-2.75 8.246.47 16.76 7.25 18.973 6.71 2.212 14.43-2.682 17.11-10.928 2.75-8.246-.47-16.761-7.25-18.973-6.71-2.213-14.36 2.682-17.11 10.928z" fill="#823B16"/><path d="M1981 275.516c0-33.389-27.05-60.484-60.43-60.516.03.389.03.779.03 1.168 0 8.664-6.45 15.803-14.82 16.873-21.87.325-40 15.9-44.31 36.57a36.324 36.324 0 00-20.7-6.458c-.35 0-.71 0-1.07.033a11.777 11.777 0 011.07 4.9c0 6.489-4.41 11.713-10.9 11.713-.13 0-.42 0-.61.033-13.07 1.038-23.26 12.038-23.26 25.407 0 16.581 14.08 30.761 34.81 30.761h79.95c33.28-.13 60.24-27.159 60.24-60.484z" fill="#F1F9FE"/><path d="M1888.68 248.779c1.88 2.109.81 6.133-2.36 8.988-3.22 2.855-7.34 3.439-9.22 1.33-1.88-2.109-.81-6.132 2.37-8.988 3.21-2.855 7.33-3.439 9.21-1.33zm-68.28 56.363c2.37.519 3.73 3.374 3.08 6.359-.64 2.986-3.11 4.998-5.45 4.478-2.36-.519-3.73-3.374-3.08-6.36.65-2.985 3.12-4.997 5.45-4.477z" fill="#522915"/><path d="M1826.7 287.912c.9 1.557-.3 3.926-2.63 5.289-2.37 1.362-5 1.2-5.91-.357-.9-1.558.3-3.927 2.63-5.289 2.37-1.363 5.03-1.201 5.91.357z" fill="#823B16"/><path d="M1843.43 301.67c1.46 1.622.98 4.413-1.07 6.23-2.04 1.817-4.86 1.947-6.32.324-1.46-1.622-.98-4.413 1.07-6.23 2.04-1.817 4.86-1.979 6.32-.324z" fill="#D89150"/><path d="M1861.34 291.935c-.55 1.72-3.12 2.401-5.71 1.558-2.6-.844-4.22-2.921-3.67-4.641.56-1.719 3.12-2.401 5.71-1.557 2.6.844 4.22 2.92 3.67 4.64z" fill="#522915"/><path d="M1916.81 258.481c.77 3.212-1.95 6.652-6.13 7.658-4.16 1.006-8.18-.779-8.96-3.992-.78-3.212 1.95-6.651 6.13-7.657 4.16-1.006 8.18.778 8.96 3.991z" fill="#D89150"/><path d="M1881.32 278.469c.62 2.531-1.52 5.192-4.8 6.003-3.24.779-6.39-.617-7.01-3.115-.61-2.531 1.53-5.192 4.8-6.003 3.25-.811 6.39.584 7.01 3.115z" fill="#823B16"/><path d="M1916.94 238.33c0 1.915-2.89 3.472-6.46 3.472s-6.45-1.557-6.45-3.472c0-1.914 2.88-3.472 6.45-3.472 3.57 0 6.46 1.558 6.46 3.472zm-67.47 35.596c1.42 1.266.64 4.478-1.72 7.139-2.37 2.661-5.48 3.796-6.91 2.498-1.43-1.265-.65-4.477 1.72-7.138 2.4-2.661 5.48-3.764 6.91-2.499zm15.57 34.104a5.182 5.182 0 005.19 5.191 5.19 5.19 0 005.19-5.191 5.188 5.188 0 00-5.19-5.192 5.163 5.163 0 00-5.19 5.192z" fill="#E65611"/><path d="M1895.53 285.705c-1.33 3.991.22 8.112 3.5 9.183 3.24 1.071 6.97-1.298 8.27-5.289 1.33-3.991-.22-8.112-3.5-9.183-3.24-1.071-6.94 1.298-8.27 5.289z" fill="#823B16"/></g><defs><clipPath id="clip0"><path fill="#fff" d="M0 0h1920v700H0z"/></clipPath></defs></svg>