<svg width="1920" height="700" fill="none" xmlns="http://www.w3.org/2000/svg"><path d="M180.84 164.986c-1.805 2.708-3.368 5.66-5.59 8.021-2.569 2.708-5.903 4.549-8.993 6.632-9.896 6.667-18.056 17.014-19.063 28.924-.382 4.305.209 8.645-.104 12.951-.555 7.396-3.68 14.444-4.028 21.84-.347 7.396 3.542 16.077 10.903 17.049 8.681 1.18 14.514-8.368 17.917-16.424 3.576-8.472 7.153-16.91 10.729-25.382 4.097-9.653 8.368-19.583 15.833-26.909 4.723-4.653 10.521-8.056 15.66-12.223 5.139-4.166 9.827-9.514 11.042-16.007 5.868-31.979-35.729-11.284-44.306 1.528zm204.792 90.764c-.278 7.014-3.021 13.715-3.333 20.729-.382 8.472 2.847 16.91 1.597 25.313-2.292 15.59-18.403 24.895-26.493 38.437-1.771 2.952-3.195 6.181-5.452 8.785-5.243 6.007-13.889 7.569-21.875 7.812-4.166.139-9.027-.382-11.354-3.854-1.771-2.673-1.354-6.215-.59-9.34 4.444-18.403 17.986-33.16 25.59-50.486 4.236-9.653 6.528-19.965 8.195-30.313 1.389-8.68.659-19.687 7.118-26.493 13.75-14.548 27.187 5.556 26.597 19.41z" fill="#A6C93D"/><path d="M252.125 391.583L129.417 268.875c-5.174-5.174-5.174-13.576 0-18.75l64.132-64.132 58.576-58.576c5.174-5.174 13.576-5.174 18.75 0l61.354 61.354 61.354 61.354c5.174 5.174 5.174 13.576 0 18.75l-65.347 65.382-57.361 57.326c-5.174 5.174-13.576 5.174-18.75 0z" fill="#FAB800"/><path d="M380.319 259.5c0 65.625-53.194 118.819-118.819 118.819S142.681 325.125 142.681 259.5 195.875 140.681 261.5 140.681 380.319 193.875 380.319 259.5z" fill="#F59737"/><path d="M275.771 157.521c3.576.972.069 5.66-1.563 7.604-.312.347-.902.208-.972-.278-.451-2.5-1.18-8.368 2.535-7.326zm-74.792 20.347c-2.535-.312-8.333-1.424-6.215-4.687 2.014-3.091 5.417 1.666 6.771 3.819.243.417-.07.903-.556.868zm12.257 22.292c-3.68-.486-.833-5.625.556-7.743.243-.417.868-.313 1.007.139.798 2.395 2.257 8.125-1.563 7.604zm8.438-30.973c-3.716.174-1.841-5.381-.868-7.743.173-.451.798-.486 1.007-.069 1.25 2.257 3.715 7.604-.139 7.812zm25.312 25c-2.465-.694-8.055-2.604-5.486-5.52 2.431-2.778 5.139 2.395 6.181 4.757.173.416-.243.902-.695.763zm-4.653-32.013c-.486-.035-.694-.625-.347-.973 1.806-1.805 6.215-5.729 7.5-2.083 1.25 3.507-4.618 3.299-7.153 3.056zm14.827 16.041c-.452.139-.868-.312-.695-.764.972-2.361 3.507-7.673 6.111-4.826 2.5 2.743-2.986 4.826-5.416 5.59zm27.812 9.306c-1.041 2.361-3.75 7.569-6.25 4.653-2.396-2.813 3.125-4.723 5.59-5.417.452-.139.834.312.66.764zm17.188-20.59c-2.257 2.951-5.278-2.084-6.459-4.341a.558.558 0 01.625-.798c2.5.521 8.195 2.083 5.834 5.139zm7.534 26.493c-3.333 1.597-3.784-4.236-3.819-6.771 0-.486.556-.729.903-.452 2.014 1.598 6.389 5.521 2.916 7.223zm10.278-16.389c-2.048-1.563-6.493-5.417-3.021-7.188 3.299-1.666 3.855 4.167 3.959 6.702 0 .52-.556.798-.938.486zm17.084 14.305c-1.355 2.188-4.792 6.979-6.841 3.716-1.979-3.125 3.785-4.237 6.285-4.549.486-.07.833.417.556.833zm-88.264 173.125c-3.577-.972-.07-5.659 1.562-7.604a.547.547 0 01.972.278c.487 2.5 1.216 8.368-2.534 7.326zm87.5-41.458c.416-.243.902.104.833.59-.417 2.535-1.701 8.299-4.861 6.077-3.021-2.118 1.84-5.382 4.028-6.667zm-12.674 21.111c2.535.313 8.333 1.424 6.215 4.688-2.014 3.09-5.416-1.667-6.771-3.82-.243-.417.07-.937.556-.868zm-15.972-19.444c3.68.486.833 5.625-.556 7.743-.243.416-.868.312-1.007-.139-.798-2.396-2.257-8.125 1.563-7.604zm-4.722 28.125c3.715-.174 1.84 5.382.868 7.743-.174.451-.799.486-1.007.069-1.25-2.257-3.716-7.604.139-7.812zm-20.66 7.014c.486.034.694.625.347.972-1.805 1.805-6.215 5.729-7.5 2.083-1.25-3.507 4.618-3.299 7.153-3.055zm-14.826-18.438c.451-.139.868.312.694.764-.972 2.361-3.507 7.674-6.111 4.826-2.5-2.743 2.951-4.826 5.417-5.59zm-20.869-6.215c1.042-2.361 3.75-7.57 6.25-4.653 2.396 2.812-3.125 4.722-5.59 5.417-.451.139-.868-.348-.66-.764zm-14.756 4.791c.243-.416.868-.312 1.006.139.799 2.431 2.327 8.125-1.527 7.639-3.646-.486-.834-5.625.521-7.778zm-9.375 15.07c2.256-2.952 5.277 2.083 6.458 4.34a.558.558 0 01-.625.799c-2.5-.521-8.195-2.049-5.833-5.139zm65.277-36.007c.278-.382.868-.278 1.007.208.625 2.5 1.771 8.264-2.014 7.535-3.646-.764-.486-5.694 1.007-7.743zm35.139-8.611c.278-.382.868-.278 1.007.208.625 2.5 1.771 8.264-2.049 7.535-3.645-.764-.486-5.695 1.042-7.743zm-41.805-16.563c2.465.695 8.055 2.604 5.486 5.521-2.431 2.778-5.139-2.396-6.181-4.757-.173-.451.243-.903.695-.764zm-15.174 17.153c.451-.139.868.313.694.764-.972 2.361-3.506 7.674-6.111 4.826-2.465-2.777 2.986-4.826 5.417-5.59zm-21.458-6.493c.243-.417.868-.313 1.007.139.798 2.43 2.326 8.125-1.528 7.639-3.646-.486-.833-5.625.521-7.778zm-34.236 16.597c3.333-1.597 3.784 4.236 3.819 6.771 0 .486-.556.729-.903.451-2.014-1.597-6.389-5.555-2.916-7.222zm104.826-33.75c.486-.069.833.417.59.834-1.25 2.222-4.444 7.187-6.667 4.027-2.118-3.055 3.577-4.444 6.077-4.861zm-47.569-.278c.451-.138.868.313.694.764-.972 2.361-3.507 7.674-6.111 4.827-2.5-2.743 2.951-4.827 5.417-5.591zm-19.098-7.187c1.042-2.361 3.75-7.569 6.25-4.653 2.396 2.813-3.125 4.722-5.59 5.417-.451.104-.868-.347-.66-.764zM229.903 287c.451-.174.868.278.729.729-.868 2.431-3.16 7.847-5.868 5.104-2.639-2.639 2.708-4.965 5.139-5.833zm-23.889 5.556c.243-.417.868-.313 1.007.138.798 2.431 2.326 8.125-1.528 7.639-3.646-.486-.833-5.625.521-7.777zm102.43-58.056c2.744 2.5-2.534 5.069-4.861 6.076-.451.174-.902-.243-.764-.694.73-2.465 2.778-7.986 5.625-5.382zm8.195 23.507c3.68.486.833 5.625-.556 7.743-.243.417-.868.312-1.007-.139-.798-2.43-2.257-8.125 1.563-7.604zm-25.347 7.674c.277-.382.868-.278 1.007.208.625 2.5 1.771 8.264-2.049 7.535-3.611-.764-.451-5.695 1.042-7.743zm-15.174-15.487c2.465.695 8.056 2.605 5.486 5.521-2.43 2.778-5.139-2.396-6.18-4.757-.139-.416.243-.902.694-.764zm-23.785 1.98c.452-.139.868.312.695.764-.972 2.361-3.507 7.673-6.111 4.826-2.5-2.743 2.951-4.826 5.416-5.59zm-22.673-16.771c.243-.417.868-.313 1.007.139.798 2.43 2.326 8.125-1.528 7.639-3.646-.521-.833-5.625.521-7.778zm-25.764 24.479c0-.486.521-.764.903-.451 2.014 1.562 6.423 5.486 2.986 7.187-3.299 1.667-3.82-4.167-3.889-6.736zm18.611-2.535c3.333-1.597 3.785 4.236 3.819 6.771 0 .486-.555.729-.902.451-2.049-1.562-6.424-5.52-2.917-7.222zm94.132-47.673c3.68.486.833 5.625-.556 7.743-.243.416-.868.312-1.007-.139-.798-2.431-2.257-8.125 1.563-7.604zm-32.361 22.083c.278-.382.868-.278 1.007.208.625 2.5 1.771 8.264-2.049 7.535-3.611-.764-.451-5.694 1.042-7.743zm-16.84 1.042c.451-.139.868.312.694.764-.972 2.361-3.507 7.673-6.111 4.826-2.5-2.778 2.951-4.861 5.417-5.59zm-21.181-3.264c1.042-2.361 3.75-7.57 6.25-4.653 2.396 2.812-3.125 4.722-5.59 5.417-.452.139-.834-.348-.66-.764zm-44.479 1.84c.243-.417.868-.312 1.007.139.798 2.43 2.326 8.125-1.528 7.639-3.646-.521-.833-5.625.521-7.778zm13.125-11.389c3.333-1.597 3.785 4.236 3.819 6.771a.562.562 0 01-.903.451c-2.048-1.597-6.423-5.555-2.916-7.222zm78.055-14.097c.278-.382.868-.278 1.007.208.625 2.5 1.771 8.264-2.014 7.535-3.645-.764-.486-5.694 1.007-7.743zm-27.43.903c.382.277.312.868-.174 1.007-2.465.729-8.229 2.014-7.569-1.806.625-3.646 5.625-.625 7.743.799zm-31.563.625c.243-.417.868-.313 1.007.139.799 2.43 2.327 8.125-1.528 7.638-3.645-.486-.833-5.625.521-7.777zM197.75 340.056c2.049 1.562 6.493 5.416 3.021 7.187-3.299 1.667-3.854-4.167-3.958-6.701.034-.521.555-.799.937-.486zm-41.076-95.105c.972-3.576 5.659-.069 7.604 1.563a.547.547 0 01-.278.972c-2.465.486-8.333 1.181-7.326-2.535zm20.347 74.792c-.313 2.535-1.424 8.333-4.688 6.215-3.09-2.014 1.667-5.416 3.82-6.77.416-.244.937.104.868.555zm15.347-15.937c-.486 3.68-5.625.833-7.743-.556-.417-.243-.312-.868.139-1.007 2.396-.799 8.125-2.257 7.604 1.563zm-24.028-4.757c.174 3.715-5.382 1.84-7.743.868-.451-.174-.486-.799-.069-1.007 2.291-1.25 7.639-3.716 7.812.139zm20.035-22.848c-.694 2.466-2.604 8.056-5.521 5.487-2.778-2.431 2.396-5.139 4.757-6.181.451-.174.903.208.764.694zm-27.014 2.188c-.035.486-.625.694-.972.347-1.806-1.805-5.729-6.215-2.083-7.5 3.507-1.215 3.298 4.618 3.055 7.153zm18.403-14.826c.139.451-.313.868-.764.694-2.361-.972-7.674-3.507-4.826-6.111 2.777-2.5 4.861 2.986 5.59 5.417zm3.472-33.577c.486.035.695.625.347.972-1.805 1.806-6.25 5.695-7.5 2.049-1.215-3.507 4.618-3.264 7.153-3.021zm9.34-18.958c1.598 3.333-4.236 3.785-6.77 3.819a.562.562 0 01-.452-.903c1.597-2.013 5.556-6.388 7.222-2.916zm-16.354-10.278c-1.562 2.049-5.416 6.493-7.187 3.021-1.667-3.299 4.166-3.854 6.701-3.959.486 0 .764.556.486.938zm190.104 80.59c-.972 3.577-5.659.07-7.604-1.562a.547.547 0 01.278-.972c2.465-.487 8.333-1.181 7.326 2.534zm-20.347-74.826c.313-2.535 1.424-8.333 4.688-6.215 3.09 2.013-1.667 5.416-3.82 6.77-.416.243-.937-.069-.868-.555zm-20.208 18.16c.486-3.681 5.625-.834 7.743.555.417.243.312.868-.139 1.007-2.431.799-8.125 2.257-7.604-1.562zm28.889 2.569c-.174-3.715 5.382-1.84 7.743-.868.451.174.486.799.069 1.007-2.291 1.215-7.639 3.715-7.812-.139zm-28.056 18.646c.695-2.465 2.604-8.056 5.521-5.486 2.778 2.43-2.396 5.139-4.757 6.18-.417.174-.868-.208-.764-.694zm35.035 1.979c.035-.486.625-.694.972-.347 1.806 1.805 5.729 6.215 2.083 7.5-3.506 1.25-3.298-4.583-3.055-7.153zm-18.403 14.861c-.139-.451.313-.868.764-.694 2.361.972 7.674 3.507 4.826 6.111-2.777 2.465-4.861-2.986-5.59-5.417zm-7.951 21.459c-2.361-1.042-7.57-3.75-4.653-6.25 2.812-2.396 4.722 3.125 5.417 5.59.138.451-.348.833-.764.66zm6.528 14.131c-.417-.243-.313-.868.138-1.006 2.431-.799 8.125-2.327 7.639 1.527-.521 3.681-5.625.834-7.777-.521zm15.069 9.375c-2.951-2.257 2.083-5.277 4.34-6.458a.558.558 0 01.799.625c-.521 2.5-2.083 8.195-5.139 5.833zm-10.104 17.848c1.562-2.049 5.416-6.493 7.187-3.021 1.667 3.298-4.166 3.854-6.701 3.958-.486-.034-.764-.59-.486-.937z" fill="#E8E9E9"/></svg>