<svg viewBox="0 0 620 235" fill="none" xmlns="http://www.w3.org/2000/svg"><path d="M30.5 40H1l29 126h27.5L78 88.5h1l21 77.5h28l29-126h-30.5l-15 82-22-82h-22L46 122 30.5 40z" fill="#F2F2F2" stroke="#F2F2F2"/><path fill-rule="evenodd" clip-rule="evenodd" d="M268 166h-31l-7-25h-37l-8 25h-30l41-126h30.5L268 166zm-57-86h1l11 39h-24l12-39z" fill="#F2F2F2"/><path d="M320 166h-28v-44l-42-82h31l25 55h1l25-55h31l-43 82v44z" fill="#F2F2F2" stroke="#F2F2F2"/><path d="M391 2l-.293.293A2.413 2.413 0 00390 4v199.586a3.415 3.415 0 003.414 3.414H438c1.5 0 3.065 2.707 3.5 6.5l.5 6.5c.164 2.666.267 4.185.5 7 .233 2.815-.071 3.7 1.5 5 1.805 1.494 4.125 1.406 6 0 0 0 34.5-25 38-25h127.586c.905 0 1.774-.36 2.414-1l.293-.293A2.414 2.414 0 00619 204V4c0-.64-.254-1.254-.707-1.707L618 2l-.152-.152A2.896 2.896 0 00615.8 1H393c-.64 0-1.254.254-1.707.707L391 2z" stroke="#F2F2F2" stroke-width="2"/><path d="M435 58s-1 63 0 64.5m0 0s.124.888.5 2.329m-.5-2.329l.5 2.329M493.5 58s.5 61.5 0 64.5-.107.888-.453 2.329c-1.494 6.205-7.447 22.671-28.547 22.671-21.101 0-27.382-16.466-29-22.671M521 148v-40.5m0 0v-48h29v0c2.654 0 5.315.318 7.83 1.166 9.355 3.154 13.563 7.261 16.272 16.043.668 2.166.898 4.436.898 6.702v0c0 2.383-.256 4.772-.989 7.04-2.765 8.55-6.803 12.575-14.97 15.5-3.294 1.179-6.813 1.549-10.312 1.549H521z" stroke="#F2F2F2" stroke-width="4"/></svg>