<svg width="992" height="294" fill="none" xmlns="http://www.w3.org/2000/svg"><path d="M955.367 290.905H36.634c-18.567 0-33.64-15.074-33.64-33.643V36.837c0-18.568 15.073-33.643 33.64-33.643h918.832c18.567 0 33.639 15.075 33.639 33.643v220.425c-.1 18.569-15.172 33.643-33.738 33.643z" fill="#040708"/><path d="M955.267 5.89c16.969 0 30.844 13.876 30.844 30.847v220.525c0 16.972-13.875 30.848-30.844 30.848H36.733c-17.069 0-30.844-13.876-30.844-30.848V36.738C5.89 19.667 19.764 5.89 36.733 5.89h918.534zm0-5.89H36.733C16.57 0 0 16.572 0 36.737v220.525C0 277.428 16.57 294 36.733 294h918.534C975.43 294 992 277.428 992 257.262V36.738C992 16.572 975.53 0 955.267 0z" fill="#A6A6A6"/><path d="M500.691 159.928c-17.269 0-31.343 13.178-31.343 31.247 0 17.969 14.074 31.247 31.343 31.247s31.343-13.278 31.343-31.247c0-18.169-14.074-31.247-31.343-31.247zm0 50.115c-9.483 0-17.668-7.787-17.668-18.968 0-11.281 8.185-18.968 17.668-18.968 9.483 0 17.668 7.687 17.668 18.968 0 11.181-8.185 18.968-17.668 18.968zm-68.476-50.115c-17.268 0-31.343 13.178-31.343 31.247 0 17.969 14.075 31.247 31.343 31.247 17.269 0 31.343-13.278 31.343-31.247.1-18.169-14.074-31.247-31.343-31.247zm0 50.115c-9.483 0-17.668-7.787-17.668-18.968 0-11.281 8.185-18.968 17.668-18.968 9.483 0 17.668 7.687 17.668 18.968 0 11.181-8.185 18.968-17.668 18.968zm-81.352-40.531v13.277h31.742c-.898 7.487-3.394 12.878-7.187 16.672-4.591 4.592-11.878 9.683-24.555 9.683-19.565 0-34.837-15.773-34.837-35.24 0-19.566 15.272-35.34 34.837-35.34 10.581 0 18.267 4.193 23.956 9.484l9.383-9.384c-7.985-7.587-18.466-13.377-33.239-13.377-26.752 0-49.211 21.763-49.211 48.517 0 26.755 22.459 48.518 49.211 48.518 14.473 0 25.354-4.692 33.838-13.577 8.784-8.785 11.479-21.064 11.479-31.047 0-3.095-.199-5.89-.698-8.286h-44.719v.1zm332.896 10.282c-2.595-6.988-10.581-19.866-26.752-19.866-16.07 0-29.446 12.678-29.446 31.247 0 17.57 13.276 31.247 31.043 31.247 14.275 0 22.659-8.785 26.053-13.877l-10.68-7.088c-3.594 5.192-8.385 8.686-15.373 8.686-6.987 0-11.978-3.195-15.172-9.484l41.824-17.271-1.497-3.594zm-42.623 10.383c-.399-12.08 9.383-18.269 16.37-18.269 5.491 0 10.082 2.695 11.579 6.588l-27.949 11.681zm-33.938 30.348h13.775v-91.844h-13.775v91.844zm-22.559-53.609h-.4c-3.094-3.694-8.983-6.988-16.47-6.988-15.671 0-29.945 13.777-29.945 31.347s14.374 31.147 29.945 31.147c7.487 0 13.376-3.295 16.47-7.088h.499v4.492c0 11.98-6.388 18.369-16.669 18.369-8.385 0-13.576-5.99-15.772-11.081l-11.978 4.991c3.394 8.286 12.577 18.469 27.75 18.469 16.071 0 29.746-9.484 29.746-32.545v-56.104h-13.077v4.991h-.099zm-15.672 43.127c-9.483 0-17.368-7.887-17.368-18.868 0-10.981 7.885-19.068 17.368-19.068 9.383 0 16.67 8.087 16.67 19.068 0 10.981-7.387 18.868-16.67 18.868zm179.175-81.462h-32.84v91.844h13.675v-34.841h19.165c15.172 0 30.145-10.981 30.145-28.551s-14.973-28.452-30.145-28.452zm.299 44.325h-19.464v-31.447h19.464c10.282 0 16.071 8.486 16.071 15.774 0 7.088-5.789 15.673-16.071 15.673zm84.747-13.178c-9.882 0-20.164 4.393-24.456 14.076l12.178 5.092c2.595-5.092 7.486-6.789 12.577-6.789 7.087 0 14.274 4.293 14.374 11.78v.899c-2.495-1.398-7.786-3.494-14.274-3.494-13.076 0-26.452 7.187-26.452 20.665 0 12.279 10.78 20.265 22.858 20.265 9.184 0 14.275-4.093 17.469-8.985h.499v7.088h13.276v-35.24c-.1-16.272-12.278-25.357-28.049-25.357zm-1.597 50.315c-4.492 0-10.781-2.296-10.781-7.787 0-7.088 7.786-9.783 14.574-9.783 5.989 0 8.884 1.297 12.477 3.094-1.098 8.486-8.385 14.476-16.27 14.476zm77.758-48.318l-15.671 39.832h-.499l-16.271-39.832h-14.773l24.456 55.705-13.975 30.948h14.274l37.732-86.653h-15.273zm-123.575 58.8h13.675v-91.844h-13.675v91.844z" fill="#222120"/><path d="M500.691 159.928c-17.269 0-31.343 13.178-31.343 31.247 0 17.969 14.074 31.247 31.343 31.247s31.343-13.278 31.343-31.247c0-18.169-14.074-31.247-31.343-31.247zm0 50.115c-9.483 0-17.668-7.787-17.668-18.968 0-11.281 8.185-18.968 17.668-18.968 9.483 0 17.668 7.687 17.668 18.968 0 11.181-8.185 18.968-17.668 18.968zm-68.476-50.115c-17.268 0-31.343 13.178-31.343 31.247 0 17.969 14.075 31.247 31.343 31.247 17.269 0 31.343-13.278 31.343-31.247.1-18.169-14.074-31.247-31.343-31.247zm0 50.115c-9.483 0-17.668-7.787-17.668-18.968 0-11.281 8.185-18.968 17.668-18.968 9.483 0 17.668 7.687 17.668 18.968 0 11.181-8.185 18.968-17.668 18.968zm-81.352-40.531v13.277h31.742c-.898 7.487-3.394 12.878-7.187 16.672-4.591 4.592-11.878 9.683-24.555 9.683-19.565 0-34.837-15.773-34.837-35.24 0-19.566 15.272-35.34 34.837-35.34 10.581 0 18.267 4.193 23.956 9.484l9.383-9.384c-7.985-7.587-18.466-13.377-33.239-13.377-26.752 0-49.211 21.763-49.211 48.517 0 26.755 22.459 48.518 49.211 48.518 14.473 0 25.354-4.692 33.838-13.577 8.784-8.785 11.479-21.064 11.479-31.047 0-3.095-.199-5.89-.698-8.286h-44.719v.1zm332.896 10.282c-2.595-6.988-10.581-19.866-26.752-19.866-16.07 0-29.446 12.678-29.446 31.247 0 17.57 13.276 31.247 31.043 31.247 14.275 0 22.659-8.785 26.053-13.877l-10.68-7.088c-3.594 5.192-8.385 8.686-15.373 8.686-6.987 0-11.978-3.195-15.172-9.484l41.824-17.271-1.497-3.594zm-42.623 10.383c-.399-12.08 9.383-18.269 16.37-18.269 5.491 0 10.082 2.695 11.579 6.588l-27.949 11.681zm-33.938 30.348h13.775v-91.844h-13.775v91.844zm-22.559-53.609h-.4c-3.094-3.694-8.983-6.988-16.47-6.988-15.671 0-29.945 13.777-29.945 31.347s14.374 31.147 29.945 31.147c7.487 0 13.376-3.295 16.47-7.088h.499v4.492c0 11.98-6.388 18.369-16.669 18.369-8.385 0-13.576-5.99-15.772-11.081l-11.978 4.991c3.394 8.286 12.577 18.469 27.75 18.469 16.071 0 29.746-9.484 29.746-32.545v-56.104h-13.077v4.991h-.099zm-15.672 43.127c-9.483 0-17.368-7.887-17.368-18.868 0-10.981 7.885-19.068 17.368-19.068 9.383 0 16.67 8.087 16.67 19.068 0 10.981-7.387 18.868-16.67 18.868zm179.175-81.462h-32.84v91.844h13.675v-34.841h19.165c15.172 0 30.145-10.981 30.145-28.551s-14.973-28.452-30.145-28.452zm.299 44.325h-19.464v-31.447h19.464c10.282 0 16.071 8.486 16.071 15.774 0 7.088-5.789 15.673-16.071 15.673zm84.747-13.178c-9.882 0-20.164 4.393-24.456 14.076l12.178 5.092c2.595-5.092 7.486-6.789 12.577-6.789 7.087 0 14.274 4.293 14.374 11.78v.899c-2.495-1.398-7.786-3.494-14.274-3.494-13.076 0-26.452 7.187-26.452 20.665 0 12.279 10.78 20.265 22.858 20.265 9.184 0 14.275-4.093 17.469-8.985h.499v7.088h13.276v-35.24c-.1-16.272-12.278-25.357-28.049-25.357zm-1.597 50.315c-4.492 0-10.781-2.296-10.781-7.787 0-7.088 7.786-9.783 14.574-9.783 5.989 0 8.884 1.297 12.477 3.094-1.098 8.486-8.385 14.476-16.27 14.476zm77.758-48.318l-15.671 39.832h-.499l-16.271-39.832h-14.773l24.456 55.705-13.975 30.948h14.274l37.732-86.653h-15.273zm-123.575 58.8h13.675v-91.844h-13.675v91.844z" stroke="#222120" stroke-width="5" stroke-miterlimit="10"/><path d="M318.322 96.735c-2.994 0-5.789-.898-8.584-2.795-2.795-1.797-4.692-4.592-5.79-8.186l5.39-2.296c.699 2.396 1.797 4.293 3.394 5.59 1.597 1.298 3.494 1.997 5.59 1.997 2.396 0 4.492-.799 6.189-2.296 1.697-1.498 2.595-3.394 2.595-5.59 0-2.197-.898-3.994-2.695-5.491-1.797-1.498-3.893-2.296-6.388-2.296h-3.793V69.88h3.393c2.296 0 4.193-.599 5.79-1.897 1.497-1.297 2.296-2.995 2.296-5.19 0-1.997-.699-3.595-2.196-4.793-1.498-1.198-3.294-1.697-5.49-1.697-3.793 0-6.289 1.897-7.686 5.69l-5.49-2.296c.898-2.396 2.395-4.492 4.591-6.289 2.196-1.797 4.991-2.795 8.585-2.795 3.893 0 7.187 1.098 9.882 3.394 2.595 2.296 3.893 5.191 3.893 8.685 0 4.193-1.997 7.388-5.89 9.484v.3a13.316 13.316 0 015.291 4.093c1.397 1.797 2.096 3.993 2.096 6.589 0 3.893-1.397 7.087-4.292 9.683-2.995 2.695-6.588 3.893-10.681 3.893z" fill="#222120"/><path d="M318.322 96.735c-2.994 0-5.789-.898-8.584-2.795-2.795-1.797-4.692-4.592-5.79-8.186l5.39-2.296c.699 2.396 1.797 4.293 3.394 5.59 1.597 1.298 3.494 1.997 5.59 1.997 2.396 0 4.492-.799 6.189-2.296 1.697-1.498 2.595-3.394 2.595-5.59 0-2.197-.898-3.994-2.695-5.491-1.797-1.498-3.893-2.296-6.388-2.296h-3.793V69.88h3.393c2.296 0 4.193-.599 5.79-1.897 1.497-1.297 2.296-2.995 2.296-5.19 0-1.997-.699-3.595-2.196-4.793-1.498-1.198-3.294-1.697-5.49-1.697-3.793 0-6.289 1.897-7.686 5.69l-5.49-2.296c.898-2.396 2.395-4.492 4.591-6.289 2.196-1.797 4.991-2.795 8.585-2.795 3.893 0 7.187 1.098 9.882 3.394 2.595 2.296 3.893 5.191 3.893 8.685 0 4.193-1.997 7.388-5.89 9.484v.3a13.316 13.316 0 015.291 4.093c1.397 1.797 2.096 3.993 2.096 6.589 0 3.893-1.397 7.087-4.292 9.683-2.995 2.695-6.588 3.893-10.681 3.893z" stroke="#222120" stroke-width="5" stroke-miterlimit="10"/><path d="M336.789 95.737l17.368-46.021h6.688l17.368 46.021h-6.588l-4.392-12.479h-19.365l-4.491 12.48h-6.588zm13.076-17.97h15.272l-7.486-20.764h-.3l-7.486 20.765z" fill="#222120"/><path d="M336.789 95.737l17.368-46.021h6.688l17.368 46.021h-6.588l-4.392-12.479h-19.365l-4.491 12.48h-6.588zm13.076-17.97h15.272l-7.486-20.764h-.3l-7.486 20.765z" stroke="#222120" stroke-width="5" stroke-miterlimit="10"/><path d="M384.203 95.737V49.716h16.669c3.594 0 6.688 1.197 9.383 3.593 2.695 2.396 3.993 5.391 3.993 8.985 0 2.196-.599 4.093-1.697 5.79s-2.695 2.895-4.492 3.794v.3c2.296.798 4.093 2.096 5.59 3.993 1.497 1.896 2.196 4.092 2.196 6.588 0 3.794-1.397 6.888-4.192 9.384-2.795 2.496-5.989 3.694-9.782 3.694h-17.668v-.1zm5.889-26.255h10.78c2.196 0 3.993-.699 5.391-2.196 1.397-1.498 1.996-3.095 1.996-4.892 0-1.797-.699-3.394-1.996-4.792-1.298-1.497-2.995-2.196-5.191-2.196h-10.98v14.076zm0 20.565h11.878c2.296 0 4.093-.799 5.49-2.396 1.398-1.597 2.097-3.294 2.097-5.191 0-1.897-.699-3.594-2.196-5.191-1.498-1.598-3.394-2.297-5.69-2.297h-11.679v15.075h.1z" fill="#222120"/><path d="M384.203 95.737V49.716h16.669c3.594 0 6.688 1.197 9.383 3.593 2.695 2.396 3.993 5.391 3.993 8.985 0 2.196-.599 4.093-1.697 5.79s-2.695 2.895-4.492 3.794v.3c2.296.798 4.093 2.096 5.59 3.993 1.497 1.896 2.196 4.092 2.196 6.588 0 3.794-1.397 6.888-4.192 9.384-2.795 2.496-5.989 3.694-9.782 3.694h-17.668v-.1zm5.889-26.255h10.78c2.196 0 3.993-.699 5.391-2.196 1.397-1.498 1.996-3.095 1.996-4.892 0-1.797-.699-3.394-1.996-4.792-1.298-1.497-2.995-2.196-5.191-2.196h-10.98v14.076zm0 20.565h11.878c2.296 0 4.093-.799 5.49-2.396 1.398-1.597 2.097-3.294 2.097-5.191 0-1.897-.699-3.594-2.196-5.191-1.498-1.598-3.394-2.297-5.69-2.297h-11.679v15.075h.1z" stroke="#222120" stroke-width="5" stroke-miterlimit="10"/><path d="M418.64 95.737l17.368-46.021h6.688l17.368 46.021h-6.588l-4.392-12.479H429.72l-4.492 12.48h-6.588zm12.976-17.97h15.272l-7.486-20.764h-.299l-7.487 20.765z" fill="#222120"/><path d="M418.64 95.737l17.368-46.021h6.688l17.368 46.021h-6.588l-4.392-12.479H429.72l-4.492 12.48h-6.588zm12.976-17.97h15.272l-7.486-20.764h-.299l-7.487 20.765z" stroke="#222120" stroke-width="5" stroke-miterlimit="10"/><path d="M465.954 95.737V49.716h5.889v19.766h23.059V49.715h5.889v46.022h-5.889V74.973h-23.059v20.764h-5.889z" fill="#222120"/><path d="M465.954 95.737V49.716h5.889v19.766h23.059V49.715h5.889v46.022h-5.889V74.973h-23.059v20.764h-5.889z" stroke="#222120" stroke-width="5" stroke-miterlimit="10"/><path d="M525.945 95.737h-5.89V55.406h-12.876v-5.69h31.642v5.69h-12.876v40.331z" fill="#222120"/><path d="M525.945 95.737h-5.89V55.406h-12.876v-5.69h31.642v5.69h-12.876v40.331z" stroke="#222120" stroke-width="5" stroke-miterlimit="10"/><path d="M537.225 95.737l17.368-46.021h6.688l17.368 46.021h-6.588l-4.392-12.479h-19.365l-4.491 12.48h-6.588zm13.076-17.97h15.272l-7.486-20.764h-.3l-7.486 20.765z" fill="#222120"/><path d="M537.225 95.737l17.368-46.021h6.688l17.368 46.021h-6.588l-4.392-12.479h-19.365l-4.491 12.48h-6.588zm13.076-17.97h15.272l-7.486-20.764h-.3l-7.486 20.765z" stroke="#222120" stroke-width="5" stroke-miterlimit="10"/><path d="M613.986 74.673v21.064h-5.89V74.673h-.299l-17.868 21.064h-7.686v-.2l19.365-22.262-18.666-23.26v-.3h7.287l17.568 22.362h.299V49.716h5.89v22.361h.199l17.668-22.361h7.187v.299l-18.666 23.26 19.465 22.262v.2h-7.686l-17.968-21.064h-.199z" fill="#222120"/><path d="M613.986 74.673v21.064h-5.89V74.673h-.299l-17.868 21.064h-7.686v-.2l19.365-22.262-18.666-23.26v-.3h7.287l17.568 22.362h.299V49.716h5.89v22.361h.199l17.668-22.361h7.187v.299l-18.666 23.26 19.465 22.262v.2h-7.686l-17.968-21.064h-.199z" stroke="#222120" stroke-width="5" stroke-miterlimit="10"/><path d="M680.963 49.715v46.022h-5.889V67.086l.2-8.885h-.2l-23.457 37.536h-6.189V49.716h5.889V76.67l-.2 8.885h.2l22.459-35.84h7.187z" fill="#222120"/><path d="M680.963 49.715v46.022h-5.889V67.086l.2-8.885h-.2l-23.457 37.536h-6.189V49.716h5.889V76.67l-.2 8.885h.2l22.459-35.84h7.187z" stroke="#222120" stroke-width="5" stroke-miterlimit="10"/><path d="M706.019 95.737h-5.889V55.406h-12.877v-5.69h31.643v5.69h-12.877v40.331z" fill="#222120"/><path d="M706.019 95.737h-5.889V55.406h-12.877v-5.69h31.643v5.69h-12.877v40.331z" stroke="#222120" stroke-width="5" stroke-miterlimit="10"/><path d="M761.019 49.715v46.022h-5.989V67.086l.299-8.885h-.299l-23.358 37.536h-6.189V49.716h5.89V76.67l-.2 8.885h.2l22.359-35.84h7.287z" fill="#222120"/><path d="M761.019 49.715v46.022h-5.989V67.086l.299-8.885h-.299l-23.358 37.536h-6.189V49.716h5.89V76.67l-.2 8.885h.2l22.359-35.84h7.287z" stroke="#222120" stroke-width="5" stroke-miterlimit="10"/><path d="M796.454 96.735c-2.995 0-5.79-.898-8.584-2.795-2.795-1.797-4.692-4.592-5.79-8.186l5.39-2.296c.699 2.396 1.797 4.293 3.394 5.59 1.597 1.298 3.494 1.997 5.59 1.997 2.396 0 4.492-.799 6.189-2.296 1.697-1.498 2.595-3.394 2.595-5.59 0-2.197-.898-3.994-2.695-5.491-1.797-1.498-3.893-2.296-6.388-2.296h-3.794V69.88h3.294c2.296 0 4.193-.599 5.79-1.897 1.497-1.297 2.296-2.995 2.296-5.19 0-1.997-.699-3.595-2.196-4.793-1.498-1.198-3.294-1.697-5.49-1.697-3.793 0-6.289 1.897-7.686 5.69l-5.49-2.296c.898-2.396 2.395-4.492 4.591-6.289 2.196-1.797 4.991-2.795 8.585-2.795 3.893 0 7.187 1.098 9.882 3.394 2.595 2.296 3.893 5.191 3.893 8.685 0 4.193-1.997 7.388-5.89 9.484v.3a13.316 13.316 0 015.291 4.093c1.397 1.797 2.096 3.993 2.096 6.589 0 3.893-1.397 7.087-4.292 9.683-2.895 2.695-6.389 3.893-10.581 3.893z" fill="#222120"/><path d="M796.454 96.735c-2.995 0-5.79-.898-8.584-2.795-2.795-1.797-4.692-4.592-5.79-8.186l5.39-2.296c.699 2.396 1.797 4.293 3.394 5.59 1.597 1.298 3.494 1.997 5.59 1.997 2.396 0 4.492-.799 6.189-2.296 1.697-1.498 2.595-3.394 2.595-5.59 0-2.197-.898-3.994-2.695-5.491-1.797-1.498-3.893-2.296-6.388-2.296h-3.794V69.88h3.294c2.296 0 4.193-.599 5.79-1.897 1.497-1.297 2.296-2.995 2.296-5.19 0-1.997-.699-3.595-2.196-4.793-1.498-1.198-3.294-1.697-5.49-1.697-3.793 0-6.289 1.897-7.686 5.69l-5.49-2.296c.898-2.396 2.395-4.492 4.591-6.289 2.196-1.797 4.991-2.795 8.585-2.795 3.893 0 7.187 1.098 9.882 3.394 2.595 2.296 3.893 5.191 3.893 8.685 0 4.193-1.997 7.388-5.89 9.484v.3a13.316 13.316 0 015.291 4.093c1.397 1.797 2.096 3.993 2.096 6.589 0 3.893-1.397 7.087-4.292 9.683-2.895 2.695-6.389 3.893-10.581 3.893z" stroke="#222120" stroke-width="5" stroke-miterlimit="10"/><path d="M500.691 159.928c-17.269 0-31.343 13.178-31.343 31.247 0 17.969 14.074 31.247 31.343 31.247s31.343-13.278 31.343-31.247c0-18.169-14.074-31.247-31.343-31.247zm0 50.115c-9.483 0-17.668-7.787-17.668-18.968 0-11.281 8.185-18.968 17.668-18.968 9.483 0 17.668 7.687 17.668 18.968 0 11.181-8.185 18.968-17.668 18.968zm-68.476-50.115c-17.268 0-31.343 13.178-31.343 31.247 0 17.969 14.075 31.247 31.343 31.247 17.269 0 31.343-13.278 31.343-31.247.1-18.169-14.074-31.247-31.343-31.247zm0 50.115c-9.483 0-17.668-7.787-17.668-18.968 0-11.281 8.185-18.968 17.668-18.968 9.483 0 17.668 7.687 17.668 18.968 0 11.181-8.185 18.968-17.668 18.968zm-81.352-40.531v13.277h31.742c-.898 7.487-3.394 12.878-7.187 16.672-4.591 4.592-11.878 9.683-24.555 9.683-19.565 0-34.837-15.773-34.837-35.24 0-19.566 15.272-35.34 34.837-35.34 10.581 0 18.267 4.193 23.956 9.484l9.383-9.384c-7.985-7.587-18.466-13.377-33.239-13.377-26.752 0-49.211 21.763-49.211 48.517 0 26.755 22.459 48.518 49.211 48.518 14.473 0 25.354-4.692 33.838-13.577 8.784-8.785 11.479-21.064 11.479-31.047 0-3.095-.199-5.89-.698-8.286h-44.719v.1zm332.896 10.282c-2.595-6.988-10.581-19.866-26.752-19.866-16.07 0-29.446 12.678-29.446 31.247 0 17.57 13.276 31.247 31.043 31.247 14.275 0 22.659-8.785 26.053-13.877l-10.68-7.088c-3.594 5.192-8.385 8.686-15.373 8.686-6.987 0-11.978-3.195-15.172-9.484l41.824-17.271-1.497-3.594zm-42.623 10.383c-.399-12.08 9.383-18.269 16.37-18.269 5.491 0 10.082 2.695 11.579 6.588l-27.949 11.681zm-33.938 30.348h13.775v-91.844h-13.775v91.844zm-22.559-53.609h-.4c-3.094-3.694-8.983-6.988-16.47-6.988-15.671 0-29.945 13.777-29.945 31.347s14.374 31.147 29.945 31.147c7.487 0 13.376-3.295 16.47-7.088h.499v4.492c0 11.98-6.388 18.369-16.669 18.369-8.385 0-13.576-5.99-15.772-11.081l-11.978 4.991c3.394 8.286 12.577 18.469 27.75 18.469 16.071 0 29.746-9.484 29.746-32.545v-56.104h-13.077v4.991h-.099zm-15.672 43.127c-9.483 0-17.368-7.887-17.368-18.868 0-10.981 7.885-19.068 17.368-19.068 9.383 0 16.67 8.087 16.67 19.068 0 10.981-7.387 18.868-16.67 18.868zm179.175-81.462h-32.84v91.844h13.675v-34.841h19.165c15.172 0 30.145-10.981 30.145-28.551s-14.973-28.452-30.145-28.452zm.299 44.325h-19.464v-31.447h19.464c10.282 0 16.071 8.486 16.071 15.774 0 7.088-5.789 15.673-16.071 15.673zm84.747-13.178c-9.882 0-20.164 4.393-24.456 14.076l12.178 5.092c2.595-5.092 7.486-6.789 12.577-6.789 7.087 0 14.274 4.293 14.374 11.78v.899c-2.495-1.398-7.786-3.494-14.274-3.494-13.076 0-26.452 7.187-26.452 20.665 0 12.279 10.78 20.265 22.858 20.265 9.184 0 14.275-4.093 17.469-8.985h.499v7.088h13.276v-35.24c-.1-16.272-12.278-25.357-28.049-25.357zm-1.597 50.315c-4.492 0-10.781-2.296-10.781-7.787 0-7.088 7.786-9.783 14.574-9.783 5.989 0 8.884 1.297 12.477 3.094-1.098 8.486-8.385 14.476-16.27 14.476zm77.758-48.318l-15.671 39.832h-.499l-16.271-39.832h-14.773l24.456 55.705-13.975 30.948h14.274l37.732-86.653h-15.273zm-123.575 58.8h13.675v-91.844h-13.675v91.844zM318.322 96.735c-2.994 0-5.789-.898-8.584-2.795-2.795-1.797-4.692-4.592-5.79-8.186l5.39-2.296c.699 2.396 1.797 4.293 3.394 5.59 1.597 1.298 3.494 1.997 5.59 1.997 2.396 0 4.492-.799 6.189-2.296 1.697-1.498 2.595-3.394 2.595-5.59 0-2.197-.898-3.994-2.695-5.491-1.797-1.498-3.893-2.296-6.388-2.296h-3.793V69.88h3.393c2.296 0 4.193-.599 5.79-1.897 1.497-1.297 2.296-2.995 2.296-5.19 0-1.997-.699-3.595-2.196-4.793-1.498-1.198-3.294-1.697-5.49-1.697-3.793 0-6.289 1.897-7.686 5.69l-5.49-2.296c.898-2.396 2.395-4.492 4.591-6.289 2.196-1.797 4.991-2.795 8.585-2.795 3.893 0 7.187 1.098 9.882 3.394 2.595 2.296 3.893 5.191 3.893 8.685 0 4.193-1.997 7.388-5.89 9.484v.3a13.316 13.316 0 015.291 4.093c1.397 1.797 2.096 3.993 2.096 6.589 0 3.893-1.397 7.087-4.292 9.683-2.995 2.695-6.588 3.893-10.681 3.893zm18.467-.998l17.368-46.021h6.688l17.368 46.021h-6.588l-4.392-12.479h-19.365l-4.491 12.48h-6.588zm13.076-17.97h15.272l-7.486-20.764h-.3l-7.486 20.765zm34.338 17.97V49.716h16.669c3.594 0 6.688 1.197 9.383 3.593 2.695 2.396 3.993 5.391 3.993 8.985 0 2.196-.599 4.093-1.697 5.79s-2.695 2.895-4.492 3.794v.3c2.296.798 4.093 2.096 5.59 3.993 1.497 1.896 2.196 4.092 2.196 6.588 0 3.794-1.397 6.888-4.192 9.384-2.795 2.496-5.989 3.694-9.782 3.694h-17.668v-.1zm5.889-26.255h10.78c2.196 0 3.993-.699 5.391-2.196 1.397-1.498 1.996-3.095 1.996-4.892 0-1.797-.699-3.394-1.996-4.792-1.298-1.497-2.995-2.196-5.191-2.196h-10.98v14.076zm0 20.565h11.878c2.296 0 4.093-.799 5.49-2.396 1.398-1.597 2.097-3.294 2.097-5.191 0-1.897-.699-3.594-2.196-5.191-1.498-1.598-3.394-2.297-5.69-2.297h-11.679v15.075h.1zm28.548 5.69l17.368-46.021h6.688l17.368 46.021h-6.588l-4.392-12.479H429.72l-4.492 12.48h-6.588zm12.976-17.97h15.272l-7.486-20.764h-.299l-7.487 20.765zm34.338 17.97V49.716h5.889v19.766h23.059V49.715h5.889v46.022h-5.889V74.973h-23.059v20.764h-5.889zm59.991 0h-5.89V55.406h-12.876v-5.69h31.642v5.69h-12.876v40.331zm11.28 0l17.368-46.021h6.688l17.368 46.021h-6.588l-4.392-12.479h-19.365l-4.491 12.48h-6.588zm13.076-17.97h15.272l-7.486-20.764h-.3l-7.486 20.765zm63.685-3.094v21.064h-5.89V74.673h-.299l-17.868 21.064h-7.686v-.2l19.365-22.262-18.666-23.26v-.3h7.287l17.568 22.362h.299V49.716h5.89v22.361h.199l17.668-22.361h7.187v.299l-18.666 23.26 19.465 22.262v.2h-7.686l-17.968-21.064h-.199zm66.977-24.958v46.022h-5.889V67.086l.2-8.885h-.2l-23.457 37.536h-6.189V49.716h5.889V76.67l-.2 8.885h.2l22.459-35.84h7.187zm25.056 46.022h-5.889V55.406h-12.877v-5.69h31.643v5.69h-12.877v40.331zm55-46.022v46.022h-5.989V67.086l.299-8.885h-.299l-23.358 37.536h-6.189V49.716h5.89V76.67l-.2 8.885h.2l22.359-35.84h7.287zm35.435 47.02c-2.995 0-5.79-.898-8.584-2.795-2.795-1.797-4.692-4.592-5.79-8.186l5.39-2.296c.699 2.396 1.797 4.293 3.394 5.59 1.597 1.298 3.494 1.997 5.59 1.997 2.396 0 4.492-.799 6.189-2.296 1.697-1.498 2.595-3.394 2.595-5.59 0-2.197-.898-3.994-2.695-5.491-1.797-1.498-3.893-2.296-6.388-2.296h-3.794V69.88h3.294c2.296 0 4.193-.599 5.79-1.897 1.497-1.297 2.296-2.995 2.296-5.19 0-1.997-.699-3.595-2.196-4.793-1.498-1.198-3.294-1.697-5.49-1.697-3.793 0-6.289 1.897-7.686 5.69l-5.49-2.296c.898-2.396 2.395-4.492 4.591-6.289 2.196-1.797 4.991-2.795 8.585-2.795 3.893 0 7.187 1.098 9.882 3.394 2.595 2.296 3.893 5.191 3.893 8.685 0 4.193-1.997 7.388-5.89 9.484v.3a13.316 13.316 0 015.291 4.093c1.397 1.797 2.096 3.993 2.096 6.589 0 3.893-1.397 7.087-4.292 9.683-2.895 2.695-6.389 3.893-10.581 3.893zM301.652 176.5h-11.379v11.38h11.379V176.5zM290.273 51.612h-11.379v11.38h11.379v-11.38z" fill="#fff"/><path d="M290.273 40.331h-11.379v11.381h11.379v-11.38zm0-11.381h-11.379v11.381h11.379v-11.38zm0-11.38h-11.379v11.38h11.379V17.57zm-11.279 238.295h-11.38v11.381h11.38v-11.381zm0-124.788h-11.38v11.381h11.38v-11.381zm0-45.423h-11.38v11.381h11.38v-11.38z" fill="#fff"/><path d="M267.615 255.865h-11.38v11.381h11.38v-11.381zm-22.659-45.323h-11.38v11.381h11.38v-11.381zm0-11.381h-11.38v11.381h11.38v-11.381zm0-45.422h-11.38v11.38h11.38v-11.38z" fill="#fff"/><path d="M244.956 142.458h-11.38v11.38h11.38v-11.38zm0-68.084h-11.38v11.38h11.38v-11.38zm-11.38 147.449h-11.379v11.38h11.379v-11.38z" fill="#fff"/><path d="M233.576 210.542h-11.379v11.381h11.379v-11.381zm0-56.803h-11.379v11.38h11.379v-11.38z" fill="#fff"/><path d="M233.576 142.458h-11.379v11.38h11.379v-11.38zm0-11.381h-11.379v11.381h11.379v-11.381zm-11.379 136.169h-11.38v11.38h11.38v-11.38zm0-113.507h-11.38v11.38h11.38v-11.38z" fill="#fff"/><path d="M222.197 142.458h-11.38v11.38h11.38v-11.38zm0-11.381h-11.38v11.381h11.38v-11.381zm0-113.507h-11.38v11.38h11.38V17.57zm-11.28 147.549h-11.379V176.5h11.379v-11.381z" fill="#fff"/><path d="M210.917 153.739h-11.379v11.38h11.379v-11.38z" fill="#fff"/><path d="M210.917 142.458h-11.379v11.38h11.379v-11.38zm0-11.381h-11.379v11.381h11.379v-11.381zm0-11.381h-11.379v11.381h11.379v-11.381zm0-34.042h-11.379v11.381h11.379v-11.38zm0-34.042h-11.379v11.38h11.379v-11.38zM199.538 176.5h-11.379v11.38h11.379V176.5zm0-11.381h-11.379V176.5h11.379v-11.381zm0-11.38h-11.379v11.38h11.379v-11.38z" fill="#fff"/><path d="M199.538 142.458h-11.379v11.38h11.379v-11.38zm0-11.381h-11.379v11.381h11.379v-11.381zm0-11.381h-11.379v11.381h11.379v-11.381zm0-102.126h-11.379v11.38h11.379V17.57zm-11.379 227.014h-11.38v11.381h11.38v-11.381zm0-68.084h-11.38v11.38h11.38V176.5zm0-11.381h-11.38V176.5h11.38v-11.381zm0-11.38h-11.38v11.38h11.38v-11.38z" fill="#fff"/><path d="M188.159 142.458h-11.38v11.38h11.38v-11.38zm0-11.381h-11.38v11.381h11.38v-11.381zm0-11.381h-11.38v11.381h11.38v-11.381zm0-102.126h-11.38v11.38h11.38V17.57zm-11.28 170.211H165.5v11.38h11.379v-11.38z" fill="#fff"/><path d="M176.879 176.5H165.5v11.38h11.379V176.5zm0-11.381H165.5V176.5h11.379v-11.381zm0-11.38H165.5v11.38h11.379v-11.38z" fill="#fff"/><path d="M176.879 142.458H165.5v11.38h11.379v-11.38z" fill="#000"/><path d="M176.879 131.077H165.5v11.381h11.379v-11.381zm0-11.381H165.5v11.381h11.379v-11.381z" fill="#fff"/><path d="M176.879 108.416H165.5v11.38h11.379v-11.38zm-11.38 79.365H154.12v11.38h11.379v-11.38z" fill="#fff"/><path d="M165.499 176.5H154.12v11.38h11.379V176.5zm0-11.381H154.12V176.5h11.379v-11.381zm0-11.38H154.12v11.38h11.379v-11.38z" fill="#fff"/><path d="M165.499 142.458H154.12v11.38h11.379v-11.38zm0-11.381H154.12v11.381h11.379v-11.381z" fill="#fff"/><path d="M165.499 119.696H154.12v11.381h11.379v-11.381z" fill="#000"/><path d="M165.499 108.416H154.12v11.38h11.379v-11.38zm0-11.381H154.12v11.381h11.379V97.035zm0-45.423H154.12v11.38h11.379v-11.38zM154.12 244.584h-11.379v11.381h11.379v-11.381zm0-45.423h-11.379v11.381h11.379v-11.381zm0-11.38h-11.379v11.38h11.379v-11.38z" fill="#fff"/><path d="M154.12 176.5h-11.379v11.38h11.379V176.5z" fill="#000"/><path d="M154.12 165.119h-11.379V176.5h11.379v-11.381zm0-11.38h-11.379v11.38h11.379v-11.38z" fill="#fff"/><path d="M154.12 142.458h-11.379v11.38h11.379v-11.38zm0-11.381h-11.379v11.381h11.379v-11.381zm0-11.381h-11.379v11.381h11.379v-11.381z" fill="#fff"/><path d="M154.12 108.416h-11.379v11.38h11.379v-11.38zm0-11.381h-11.379v11.381h11.379V97.035zm0-11.381h-11.379v11.381h11.379v-11.38zm-11.279 113.507h-11.38v11.381h11.38v-11.381zm0-11.38h-11.38v11.38h11.38v-11.38z" fill="#fff"/><path d="M142.841 176.5h-11.38v11.38h11.38V176.5z" fill="#000"/><path d="M142.841 165.119h-11.38V176.5h11.38v-11.381zm0-11.38h-11.38v11.38h11.38v-11.38z" fill="#fff"/><path d="M142.841 142.458h-11.38v11.38h11.38v-11.38zm0-11.381h-11.38v11.381h11.38v-11.381zm0-11.381h-11.38v11.381h11.38v-11.381z" fill="#fff"/><path d="M142.841 108.416h-11.38v11.38h11.38v-11.38zm0-11.381h-11.38v11.381h11.38V97.035zm0-11.381h-11.38v11.381h11.38v-11.38zm0-34.042h-11.38v11.38h11.38v-11.38zm-11.38 158.93h-11.379v11.381h11.379v-11.381zm0-11.381h-11.379v11.381h11.379v-11.381zm0-11.38h-11.379v11.38h11.379v-11.38z" fill="#fff"/><path d="M131.461 176.5h-11.379v11.38h11.379V176.5zm0-11.381h-11.379V176.5h11.379v-11.381zm0-11.38h-11.379v11.38h11.379v-11.38z" fill="#fff"/><path d="M131.461 142.458h-11.379v11.38h11.379v-11.38zm0-11.381h-11.379v11.381h11.379v-11.381zm0-11.381h-11.379v11.381h11.379v-11.381z" fill="#fff"/><path d="M131.461 108.416h-11.379v11.38h11.379v-11.38zm0-11.381h-11.379v11.381h11.379V97.035zm0-11.381h-11.379v11.381h11.379v-11.38z" fill="#fff"/><path d="M131.461 74.374h-11.379v11.38h11.379v-11.38zm-11.379 136.168h-11.379v11.381h11.379v-11.381zm0-11.381h-11.379v11.381h11.379v-11.381zm0-11.38h-11.379v11.38h11.379v-11.38z" fill="#fff"/><path d="M120.082 176.5h-11.379v11.38h11.379V176.5z" fill="#000"/><path d="M120.082 165.119h-11.379V176.5h11.379v-11.381zm0-11.38h-11.379v11.38h11.379v-11.38z" fill="#fff"/><path d="M120.082 142.458h-11.379v11.38h11.379v-11.38zm0-11.381h-11.379v11.381h11.379v-11.381zm0-11.381h-11.379v11.381h11.379v-11.381z" fill="#fff"/><path d="M120.082 108.416h-11.379v11.38h11.379v-11.38z" fill="#fff"/><path d="M120.082 97.035h-11.379v11.381h11.379V97.035z" fill="#000"/><path d="M120.082 85.654h-11.379v11.381h11.379v-11.38z" fill="#fff"/><path d="M120.082 74.374h-11.379v11.38h11.379v-11.38zm-11.279 147.449h-11.38v11.38h11.38v-11.38z" fill="#fff"/><path d="M108.803 210.542h-11.38v11.381h11.38v-11.381zm0-11.381h-11.38v11.381h11.38v-11.381zm0-11.38h-11.38v11.38h11.38v-11.38z" fill="#fff"/><path d="M108.803 176.5h-11.38v11.38h11.38V176.5zm0-11.381h-11.38V176.5h11.38v-11.381zm0-11.38h-11.38v11.38h11.38v-11.38z" fill="#fff"/><path d="M108.803 142.458h-11.38v11.38h11.38v-11.38z" fill="#000"/><path d="M108.803 131.077h-11.38v11.381h11.38v-11.381zm0-11.381h-11.38v11.381h11.38v-11.381z" fill="#fff"/><path d="M108.803 108.416h-11.38v11.38h11.38v-11.38zm0-11.381h-11.38v11.381h11.38V97.035zm0-11.381h-11.38v11.381h11.38v-11.38z" fill="#fff"/><path d="M108.803 74.374h-11.38v11.38h11.38v-11.38zm-11.38 147.449h-11.38v11.38h11.38v-11.38z" fill="#fff"/><path d="M97.423 210.542h-11.38v11.381h11.38v-11.381zm0-11.381h-11.38v11.381h11.38v-11.381zm0-11.38h-11.38v11.38h11.38v-11.38z" fill="#fff"/><path d="M97.423 176.5h-11.38v11.38h11.38V176.5zm0-11.381h-11.38V176.5h11.38v-11.381zm0-11.38h-11.38v11.38h11.38v-11.38z" fill="#fff"/><path d="M97.423 142.458h-11.38v11.38h11.38v-11.38zm0-11.381h-11.38v11.381h11.38v-11.381zm0-11.381h-11.38v11.381h11.38v-11.381z" fill="#fff"/><path d="M97.423 108.416h-11.38v11.38h11.38v-11.38zm0-11.381h-11.38v11.381h11.38V97.035zm0-11.381h-11.38v11.381h11.38v-11.38z" fill="#fff"/><path d="M97.423 74.374h-11.38v11.38h11.38v-11.38zm0-11.381h-11.38v11.38h11.38v-11.38zm-11.38 170.21H74.664v11.381h11.38v-11.381z" fill="#fff"/><path d="M86.043 221.823H74.664v11.38h11.38v-11.38z" fill="#000"/><path d="M86.043 210.542H74.664v11.381h11.38v-11.381zm0-11.381H74.664v11.381h11.38v-11.381zm0-11.38H74.664v11.38h11.38v-11.38z" fill="#fff"/><path d="M86.043 176.5H74.664v11.38h11.38V176.5zm0-11.381H74.664V176.5h11.38v-11.381zm0-11.38H74.664v11.38h11.38v-11.38z" fill="#fff"/><path d="M86.043 142.458H74.664v11.38h11.38v-11.38zm0-11.381H74.664v11.381h11.38v-11.381zm0-11.381H74.664v11.381h11.38v-11.381z" fill="#fff"/><path d="M86.043 108.416H74.664v11.38h11.38v-11.38zm0-11.381H74.664v11.381h11.38V97.035zm0-11.381H74.664v11.381h11.38v-11.38z" fill="#fff"/><path d="M86.043 74.374H74.664v11.38h11.38v-11.38zm0-11.381H74.664v11.38h11.38v-11.38zm0-56.704H74.664v11.38h11.38V6.29zM74.764 176.5h-11.38v11.38h11.38V176.5zm0-56.804h-11.38v11.381h11.38v-11.381z" fill="#fff"/><path d="M74.764 17.57h-11.38v11.38h11.38V17.57zM63.385 267.246h-11.38v11.38h11.38v-11.38zm-11.379-45.423h-11.38v11.38h11.38v-11.38zm0-102.127h-11.38v11.381h11.38v-11.381zm0-34.042h-11.38v11.381h11.38v-11.38z" fill="#fff"/><path d="M40.726 210.542h-11.38v11.381h11.38v-11.381zm0-68.084h-11.38v11.38h11.38v-11.38zM29.347 28.95h-11.38v11.381h11.38v-11.38z" fill="#fff"/></svg>