<svg width="1935" height="1354" fill="none" xmlns="http://www.w3.org/2000/svg"><path d="M1746.3 1146.82l-15.87 38.08-21.57-9-10 24.12-43.16-18 10.06-24.11-21.58-9 15.87-38.07 21.58 9 10.05-24.11 43.15 18-10 24.11 21.47 8.98zm-31.82-964.58l-2.39 28.42-16.09-1.36-1.51 18-32.21-2.72 1.52-18-16.1-1.36 2.39-28.42 16.11 1.36 1.51-18 32.21 2.72-1.52 18 16.08 1.36zM1093.6 720.4l-3.93 28-15.84-2.23-2.49 17.7-31.69-4.46 2.49-17.7-15.84-2.23 3.94-28 15.84 2.23 2.49-17.7 31.69 4.45-2.5 17.71 15.84 2.23zM241.74 558.8l-3.94 28-15.8-2.27-2.49 17.7-31.68-4.46 2.49-17.7-15.84-2.23 3.93-28 15.84 2.23 2.5-17.7 31.68 4.46-2.49 17.7 15.8 2.27zm370.13 637.29l4 21.54-12.2 2.29 2.55 13.64-24.41 4.57-2.56-13.64-12.2 2.28-4-21.54 12.2-2.28-2.55-13.64 24.41-4.57 2.55 13.64 12.21-2.29z" fill="#fff"/></svg>