<svg xmlns="http://www.w3.org/2000/svg" width="395.09" height="302.35"><path data-name="Shape 3 copy 3" d="M212.76 279.14c47.44-4.57 78.65 12.14 112.03 7.46 17.99-2.52 53.38-27.92 59.74-53.23s10.73-58.64 10.57-93.4c-.16-36.61-4.08-73.6-24.71-96.64S324.52 3.02 303.52.68c-40.64-4.54-51.77 13.93-111.17 25.4s-107.17-3-130.05 14.36C24.61 69.02 7.64 72.36 1.19 139.45c-2.38 24.7-2.46 79.89 12.34 101.78 43.02 63.59 56.74 70.53 131.84 52.52 35.99-8.63 51.58-13.09 67.39-14.61z" fill="#f5f9fd" fill-rule="evenodd"/></svg>