<svg width="992" height="294" fill="none" xmlns="http://www.w3.org/2000/svg"><path d="M955.4 290.8H36.6C18 290.8 3 275.7 3 257.2V36.8C3 18.2 18.1 3.2 36.6 3.2h918.8C974 3.2 989 18.3 989 36.8v220.4c.1 18.6-15 33.6-33.6 33.6z" fill="#040708"/><path d="M955.3 5.9c17 0 30.9 13.8 30.9 30.9v220.5c0 17-13.8 30.9-30.9 30.9H36.7c-17 0-30.9-13.8-30.9-30.9V36.8c0-17 13.8-30.9 30.9-30.9h918.6zm0-5.9H36.7C16.5 0 0 16.6 0 36.8v220.5C0 277.5 16.5 294 36.7 294h918.6c20.2 0 36.7-16.5 36.7-36.7V36.8C992 16.6 975.5 0 955.3 0z" fill="#A6A6A6"/><path d="M353.3 212.8h-37.1l-8.9 26.3h-15.7l35.2-97.4h16.3l35.2 97.4h-16l-9-26.3zm-33.2-12.2h29.4L335 157.9h-.4l-14.5 42.7z" fill="#222120"/><path d="M353.3 212.8h-37.1l-8.9 26.3h-15.7l35.2-97.4h16.3l35.2 97.4h-16l-9-26.3zm-33.2-12.2h29.4L335 157.9h-.4l-14.5 42.7z" stroke="#222120" stroke-width="5" stroke-miterlimit="10"/><path d="M454.2 203.6c0 22.1-11.8 36.2-29.6 36.2-10.1 0-18.2-4.5-22.3-12.4h-.3v35.2h-14.6v-94.5h14.1v11.8h.3c4.1-7.6 12.7-12.6 22.6-12.6 17.9 0 29.8 14.3 29.8 36.3zm-15 0c0-14.4-7.4-23.8-18.8-23.8-11.1 0-18.6 9.6-18.6 23.8 0 14.3 7.5 23.9 18.6 23.9 11.4 0 18.8-9.4 18.8-23.9z" fill="#222120"/><path d="M454.2 203.6c0 22.1-11.8 36.2-29.6 36.2-10.1 0-18.2-4.5-22.3-12.4h-.3v35.2h-14.6v-94.5h14.1v11.8h.3c4.1-7.6 12.7-12.6 22.6-12.6 17.9 0 29.8 14.3 29.8 36.3zm-15 0c0-14.4-7.4-23.8-18.8-23.8-11.1 0-18.6 9.6-18.6 23.8 0 14.3 7.5 23.9 18.6 23.9 11.4 0 18.8-9.4 18.8-23.9z" stroke="#222120" stroke-width="5" stroke-miterlimit="10"/><path d="M532.3 203.6c0 22.1-11.8 36.2-29.6 36.2-10.1 0-18.2-4.5-22.3-12.4h-.4v35.2h-14.6v-94.5h14.1v11.8h.3c4.1-7.6 12.7-12.6 22.6-12.6 18 0 29.9 14.3 29.9 36.3zm-15 0c0-14.4-7.4-23.8-18.8-23.8-11.1 0-18.6 9.6-18.6 23.8 0 14.3 7.5 23.9 18.6 23.9 11.4 0 18.8-9.4 18.8-23.9z" fill="#222120"/><path d="M532.3 203.6c0 22.1-11.8 36.2-29.6 36.2-10.1 0-18.2-4.5-22.3-12.4h-.4v35.2h-14.6v-94.5h14.1v11.8h.3c4.1-7.6 12.7-12.6 22.6-12.6 18 0 29.9 14.3 29.9 36.3zm-15 0c0-14.4-7.4-23.8-18.8-23.8-11.1 0-18.6 9.6-18.6 23.8 0 14.3 7.5 23.9 18.6 23.9 11.4 0 18.8-9.4 18.8-23.9z" stroke="#222120" stroke-width="5" stroke-miterlimit="10"/><path d="M584 212c1.1 9.7 10.5 16 23.3 16 12.3 0 21.1-6.3 21.1-15 0-7.6-5.3-12.1-18-15.2l-12.6-3c-17.9-4.3-26.2-12.7-26.2-26.3 0-16.8 14.6-28.3 35.4-28.3 20.6 0 34.7 11.5 35.2 28.3h-14.7c-.9-9.7-8.9-15.6-20.7-15.6-11.7 0-19.8 5.9-19.8 14.6 0 6.9 5.1 10.9 17.7 14l10.7 2.6c20 4.7 28.3 12.8 28.3 27 0 18.2-14.5 29.6-37.6 29.6-21.6 0-36.2-11.1-37.1-28.8h15v.1z" fill="#222120"/><path d="M584 212c1.1 9.7 10.5 16 23.3 16 12.3 0 21.1-6.3 21.1-15 0-7.6-5.3-12.1-18-15.2l-12.6-3c-17.9-4.3-26.2-12.7-26.2-26.3 0-16.8 14.6-28.3 35.4-28.3 20.6 0 34.7 11.5 35.2 28.3h-14.7c-.9-9.7-8.9-15.6-20.7-15.6-11.7 0-19.8 5.9-19.8 14.6 0 6.9 5.1 10.9 17.7 14l10.7 2.6c20 4.7 28.3 12.8 28.3 27 0 18.2-14.5 29.6-37.6 29.6-21.6 0-36.2-11.1-37.1-28.8h15v.1z" stroke="#222120" stroke-width="5" stroke-miterlimit="10"/><path d="M675.2 151.3v16.8h13.5v11.5h-13.5v39.1c0 6.1 2.7 8.9 8.6 8.9 1.5 0 3.9-.2 4.8-.3v11.5c-1.6.4-4.9.7-8.1.7-14.4 0-20-5.4-20-19.2v-40.7h-10.3v-11.5h10.3v-16.8h14.7z" fill="#222120"/><path d="M675.2 151.3v16.8h13.5v11.5h-13.5v39.1c0 6.1 2.7 8.9 8.6 8.9 1.5 0 3.9-.2 4.8-.3v11.5c-1.6.4-4.9.7-8.1.7-14.4 0-20-5.4-20-19.2v-40.7h-10.3v-11.5h10.3v-16.8h14.7z" stroke="#222120" stroke-width="5" stroke-miterlimit="10"/><path d="M696.5 203.6c0-22.3 13.2-36.4 33.7-36.4 20.6 0 33.7 14 33.7 36.4s-13 36.4-33.7 36.4c-20.7 0-33.7-14-33.7-36.4zm52.5 0c0-15.3-7-24.4-18.8-24.4s-18.8 9.1-18.8 24.4c0 15.4 7 24.4 18.8 24.4s18.8-9 18.8-24.4z" fill="#222120"/><path d="M696.5 203.6c0-22.3 13.2-36.4 33.7-36.4 20.6 0 33.7 14 33.7 36.4s-13 36.4-33.7 36.4c-20.7 0-33.7-14-33.7-36.4zm52.5 0c0-15.3-7-24.4-18.8-24.4s-18.8 9.1-18.8 24.4c0 15.4 7 24.4 18.8 24.4s18.8-9 18.8-24.4z" stroke="#222120" stroke-width="5" stroke-miterlimit="10"/><path d="M775.9 168.1h13.9v12.1h.3c2.2-8 8.7-12.8 17.1-12.8 2.1 0 3.8.3 5 .5v13.6c-1.1-.5-3.7-.9-6.5-.9-9.4 0-15.2 6.3-15.2 16.3V239h-14.6v-70.9z" fill="#222120"/><path d="M775.9 168.1h13.9v12.1h.3c2.2-8 8.7-12.8 17.1-12.8 2.1 0 3.8.3 5 .5v13.6c-1.1-.5-3.7-.9-6.5-.9-9.4 0-15.2 6.3-15.2 16.3V239h-14.6v-70.9 0z" stroke="#222120" stroke-width="5" stroke-miterlimit="10"/><path d="M879.4 218.2c-2 12.9-14.5 21.7-30.6 21.7-20.7 0-33.5-13.8-33.5-36 0-22.3 12.9-36.7 32.9-36.7 19.6 0 32 13.5 32 35v5h-50.1v.9c0 12.1 7.6 20.1 19.1 20.1 8.1 0 14.4-3.8 16.4-10h13.8zM830.1 197h35.5c-.3-10.9-7.3-18-17.4-18-10.1 0-17.3 7.3-18.1 18z" fill="#222120"/><path d="M879.4 218.2c-2 12.9-14.5 21.7-30.6 21.7-20.7 0-33.5-13.8-33.5-36 0-22.3 12.9-36.7 32.9-36.7 19.6 0 32 13.5 32 35v5h-50.1v.9c0 12.1 7.6 20.1 19.1 20.1 8.1 0 14.4-3.8 16.4-10h13.8zM830.1 197h35.5c-.3-10.9-7.3-18-17.4-18-10.1 0-17.3 7.3-18.1 18z" stroke="#222120" stroke-width="5" stroke-miterlimit="10"/><path d="M318.3 96.8c-3 0-5.8-.9-8.6-2.8-2.8-1.8-4.7-4.6-5.8-8.2l5.4-2.3c.7 2.4 1.8 4.3 3.4 5.6 1.6 1.3 3.5 2 5.6 2 2.4 0 4.5-.8 6.2-2.2 1.7-1.5 2.6-3.4 2.6-5.6 0-2.2-.9-4-2.7-5.5-1.8-1.5-3.9-2.2-6.4-2.2h-3.8V70h3.3c2.3 0 4.2-.6 5.8-1.9 1.5-1.3 2.3-3 2.3-5.1 0-2-.7-3.6-2.2-4.8-1.5-1.2-3.3-1.7-5.5-1.7-3.8 0-6.3 1.9-7.6 5.7l-5.5-2.3c.9-2.4 2.4-4.5 4.6-6.3 2.2-1.8 5-2.8 8.6-2.8 3.9 0 7.2 1.1 9.8 3.4 2.6 2.3 3.9 5.2 3.9 8.7 0 4.2-2 7.4-5.9 9.5v.3c2.1.9 3.9 2.3 5.3 4.1 1.4 1.8 2.1 4 2.1 6.6 0 3.9-1.4 7.1-4.3 9.7-2.9 2.4-6.5 3.7-10.6 3.7z" fill="#222120"/><path d="M318.3 96.8c-3 0-5.8-.9-8.6-2.8-2.8-1.8-4.7-4.6-5.8-8.2l5.4-2.3c.7 2.4 1.8 4.3 3.4 5.6 1.6 1.3 3.5 2 5.6 2 2.4 0 4.5-.8 6.2-2.2 1.7-1.5 2.6-3.4 2.6-5.6 0-2.2-.9-4-2.7-5.5-1.8-1.5-3.9-2.2-6.4-2.2h-3.8V70h3.3c2.3 0 4.2-.6 5.8-1.9 1.5-1.3 2.3-3 2.3-5.1 0-2-.7-3.6-2.2-4.8-1.5-1.2-3.3-1.7-5.5-1.7-3.8 0-6.3 1.9-7.6 5.7l-5.5-2.3c.9-2.4 2.4-4.5 4.6-6.3 2.2-1.8 5-2.8 8.6-2.8 3.9 0 7.2 1.1 9.8 3.4 2.6 2.3 3.9 5.2 3.9 8.7 0 4.2-2 7.4-5.9 9.5v.3c2.1.9 3.9 2.3 5.3 4.1 1.4 1.8 2.1 4 2.1 6.6 0 3.9-1.4 7.1-4.3 9.7-2.9 2.4-6.5 3.7-10.6 3.7z" stroke="#222120" stroke-width="5" stroke-miterlimit="10"/><path d="M336.8 95.8l17.4-46h6.7l17.4 46h-6.6l-4.4-12.5h-19.4l-4.5 12.5h-6.6zm13.1-18.1h15.3l-7.5-20.8h-.3l-7.5 20.8z" fill="#222120"/><path d="M336.8 95.8l17.4-46h6.7l17.4 46h-6.6l-4.4-12.5h-19.4l-4.5 12.5h-6.6zm13.1-18.1h15.3l-7.5-20.8h-.3l-7.5 20.8z" stroke="#222120" stroke-width="5" stroke-miterlimit="10"/><path d="M384.2 95.7v-46h16.7c3.6 0 6.7 1.2 9.3 3.6 2.6 2.4 4 5.4 4 9 0 2.2-.6 4.1-1.7 5.8-1.1 1.7-2.6 2.9-4.5 3.8v.3c2.3.8 4.1 2.1 5.6 4s2.2 4.1 2.2 6.6c0 3.8-1.4 6.9-4.1 9.4-2.8 2.5-6 3.7-9.8 3.7h-17.7v-.2zm5.9-26.3h10.7c2.2 0 4-.7 5.4-2.2 1.4-1.5 2-3.1 2-4.9 0-1.8-.7-3.4-2-4.8-1.3-1.5-3-2.2-5.2-2.2h-11v14.1h.1zm0 20.7H402c2.3 0 4.1-.8 5.5-2.4 1.4-1.6 2.1-3.3 2.1-5.2 0-1.9-.7-3.6-2.2-5.2-1.5-1.6-3.4-2.3-5.7-2.3h-11.6v15.1z" fill="#222120"/><path d="M384.2 95.7v-46h16.7c3.6 0 6.7 1.2 9.3 3.6 2.6 2.4 4 5.4 4 9 0 2.2-.6 4.1-1.7 5.8-1.1 1.7-2.6 2.9-4.5 3.8v.3c2.3.8 4.1 2.1 5.6 4s2.2 4.1 2.2 6.6c0 3.8-1.4 6.9-4.1 9.4-2.8 2.5-6 3.7-9.8 3.7h-17.7v-.2zm5.9-26.3h10.7c2.2 0 4-.7 5.4-2.2 1.4-1.5 2-3.1 2-4.9 0-1.8-.7-3.4-2-4.8-1.3-1.5-3-2.2-5.2-2.2h-11v14.1h.1zm0 20.7H402c2.3 0 4.1-.8 5.5-2.4 1.4-1.6 2.1-3.3 2.1-5.2 0-1.9-.7-3.6-2.2-5.2-1.5-1.6-3.4-2.3-5.7-2.3h-11.6v15.1z" stroke="#222120" stroke-width="5" stroke-miterlimit="10"/><path d="M418.6 95.8l17.4-46h6.7l17.4 46h-6.6l-4.4-12.5h-19.4l-4.5 12.5h-6.6zm13.1-18.1H447l-7.5-20.8h-.3l-7.5 20.8z" fill="#222120"/><path d="M418.6 95.8l17.4-46h6.7l17.4 46h-6.6l-4.4-12.5h-19.4l-4.5 12.5h-6.6zm13.1-18.1H447l-7.5-20.8h-.3l-7.5 20.8z" stroke="#222120" stroke-width="5" stroke-miterlimit="10"/><path d="M466 95.7v-46h5.9v19.7h23V49.7h5.9v46h-5.9V75h-23v20.7H466z" fill="#222120"/><path d="M466 95.7v-46h5.9v19.7h23V49.7h5.9v46h-5.9V75h-23v20.7H466z" stroke="#222120" stroke-width="5" stroke-miterlimit="10"/><path d="M525.9 95.7H520V55.4h-12.8v-5.7h31.6v5.7h-12.9v40.3z" fill="#222120"/><path d="M525.9 95.7H520V55.4h-12.8v-5.7h31.6v5.7h-12.9v40.3z" stroke="#222120" stroke-width="5" stroke-miterlimit="10"/><path d="M537.2 95.8l17.4-46h6.7l17.4 46h-6.6l-4.4-12.5h-19.4l-4.5 12.5h-6.6zm13.1-18.1h15.3l-7.5-20.8h-.3l-7.5 20.8z" fill="#222120"/><path d="M537.2 95.8l17.4-46h6.7l17.4 46h-6.6l-4.4-12.5h-19.4l-4.5 12.5h-6.6zm13.1-18.1h15.3l-7.5-20.8h-.3l-7.5 20.8z" stroke="#222120" stroke-width="5" stroke-miterlimit="10"/><path d="M614 74.7v21h-6v-21h-.2l-17.9 21h-7.7v-.2l19.4-22.3L583 50v-.3h7.2l17.6 22.4h.2V49.7h6v22.4h.2l17.6-22.4h7.2v.3l-18.6 23.2 19.4 22.3v.2h-7.7l-17.9-21h-.2z" fill="#222120"/><path d="M614 74.7v21h-6v-21h-.2l-17.9 21h-7.7v-.2l19.4-22.3L583 50v-.3h7.2l17.6 22.4h.2V49.7h6v22.4h.2l17.6-22.4h7.2v.3l-18.6 23.2 19.4 22.3v.2h-7.7l-17.9-21h-.2z" stroke="#222120" stroke-width="5" stroke-miterlimit="10"/><path d="M680.9 49.7v46H675V67.1l.3-8.9h-.3l-23.4 37.5h-6.2v-46h6v27l-.3 8.8h.3l22.3-35.8h7.2z" fill="#222120"/><path d="M680.9 49.7v46H675V67.1l.3-8.9h-.3l-23.4 37.5h-6.2v-46h6v27l-.3 8.8h.3l22.3-35.8h7.2z" stroke="#222120" stroke-width="5" stroke-miterlimit="10"/><path d="M706.1 95.7h-6V55.4h-12.8v-5.7h31.6v5.7h-12.8v40.3z" fill="#222120"/><path d="M706.1 95.7h-6V55.4h-12.8v-5.7h31.6v5.7h-12.8v40.3z" stroke="#222120" stroke-width="5" stroke-miterlimit="10"/><path d="M761 49.7v46h-5.9V67.1l.2-8.9h-.2l-23.4 37.5h-6.2v-46h5.9v27l-.3 8.8h.3l22.4-35.8h7.2z" fill="#222120"/><path d="M761 49.7v46h-5.9V67.1l.2-8.9h-.2l-23.4 37.5h-6.2v-46h5.9v27l-.3 8.8h.3l22.4-35.8h7.2z" stroke="#222120" stroke-width="5" stroke-miterlimit="10"/><path d="M796.5 96.8c-3 0-5.8-.9-8.6-2.8-2.8-1.8-4.7-4.6-5.8-8.2l5.4-2.3c.7 2.4 1.8 4.3 3.4 5.6 1.6 1.3 3.5 2 5.6 2 2.4 0 4.5-.8 6.2-2.2 1.7-1.5 2.6-3.4 2.6-5.6 0-2.2-.9-4-2.7-5.5-1.8-1.5-3.9-2.2-6.4-2.2h-3.8V70h3.3c2.3 0 4.2-.6 5.8-1.9 1.5-1.3 2.3-3 2.3-5.1 0-2-.7-3.6-2.2-4.8-1.5-1.2-3.3-1.7-5.5-1.7-3.8 0-6.3 1.9-7.7 5.7l-5.5-2.3c.9-2.4 2.4-4.5 4.6-6.3 2.2-1.8 5-2.8 8.6-2.8 3.9 0 7.2 1.1 9.8 3.4 2.6 2.3 3.9 5.2 3.9 8.7 0 4.2-2 7.4-5.9 9.5v.3c2.1.9 3.9 2.3 5.3 4.1 1.4 1.8 2.1 4 2.1 6.6 0 3.9-1.4 7.1-4.3 9.7-2.9 2.4-6.4 3.7-10.5 3.7z" fill="#222120"/><path d="M796.5 96.8c-3 0-5.8-.9-8.6-2.8-2.8-1.8-4.7-4.6-5.8-8.2l5.4-2.3c.7 2.4 1.8 4.3 3.4 5.6 1.6 1.3 3.5 2 5.6 2 2.4 0 4.5-.8 6.2-2.2 1.7-1.5 2.6-3.4 2.6-5.6 0-2.2-.9-4-2.7-5.5-1.8-1.5-3.9-2.2-6.4-2.2h-3.8V70h3.3c2.3 0 4.2-.6 5.8-1.9 1.5-1.3 2.3-3 2.3-5.1 0-2-.7-3.6-2.2-4.8-1.5-1.2-3.3-1.7-5.5-1.7-3.8 0-6.3 1.9-7.7 5.7l-5.5-2.3c.9-2.4 2.4-4.5 4.6-6.3 2.2-1.8 5-2.8 8.6-2.8 3.9 0 7.2 1.1 9.8 3.4 2.6 2.3 3.9 5.2 3.9 8.7 0 4.2-2 7.4-5.9 9.5v.3c2.1.9 3.9 2.3 5.3 4.1 1.4 1.8 2.1 4 2.1 6.6 0 3.9-1.4 7.1-4.3 9.7-2.9 2.4-6.4 3.7-10.5 3.7z" stroke="#222120" stroke-width="5" stroke-miterlimit="10"/><path d="M353.3 212.8h-37.1l-8.9 26.3h-15.7l35.2-97.4h16.3l35.2 97.4h-16l-9-26.3zm-33.2-12.2h29.4L335 157.9h-.4l-14.5 42.7zm134.1 3c0 22.1-11.8 36.2-29.6 36.2-10.1 0-18.2-4.5-22.3-12.4h-.3v35.2h-14.6v-94.5h14.1v11.8h.3c4.1-7.6 12.7-12.6 22.6-12.6 17.9 0 29.8 14.3 29.8 36.3zm-15 0c0-14.4-7.4-23.8-18.8-23.8-11.1 0-18.6 9.6-18.6 23.8 0 14.3 7.5 23.9 18.6 23.9 11.4 0 18.8-9.4 18.8-23.9zm93.1 0c0 22.1-11.8 36.2-29.6 36.2-10.1 0-18.2-4.5-22.3-12.4h-.4v35.2h-14.6v-94.5h14.1v11.8h.3c4.1-7.6 12.7-12.6 22.6-12.6 18 0 29.9 14.3 29.9 36.3zm-15 0c0-14.4-7.4-23.8-18.8-23.8-11.1 0-18.6 9.6-18.6 23.8 0 14.3 7.5 23.9 18.6 23.9 11.4 0 18.8-9.4 18.8-23.9zM584 212c1.1 9.7 10.5 16 23.3 16 12.3 0 21.1-6.3 21.1-15 0-7.6-5.3-12.1-18-15.2l-12.6-3c-17.9-4.3-26.2-12.7-26.2-26.3 0-16.8 14.6-28.3 35.4-28.3 20.6 0 34.7 11.5 35.2 28.3h-14.7c-.9-9.7-8.9-15.6-20.7-15.6-11.7 0-19.8 5.9-19.8 14.6 0 6.9 5.1 10.9 17.7 14l10.7 2.6c20 4.7 28.3 12.8 28.3 27 0 18.2-14.5 29.6-37.6 29.6-21.6 0-36.2-11.1-37.1-28.8h15v.1zm91.2-60.7v16.8h13.5v11.5h-13.5v39.1c0 6.1 2.7 8.9 8.6 8.9 1.5 0 3.9-.2 4.8-.3v11.5c-1.6.4-4.9.7-8.1.7-14.4 0-20-5.4-20-19.2v-40.7h-10.3v-11.5h10.3v-16.8h14.7zm21.3 52.3c0-22.3 13.2-36.4 33.7-36.4 20.6 0 33.7 14 33.7 36.4s-13 36.4-33.7 36.4c-20.7 0-33.7-14-33.7-36.4zm52.5 0c0-15.3-7-24.4-18.8-24.4s-18.8 9.1-18.8 24.4c0 15.4 7 24.4 18.8 24.4s18.8-9 18.8-24.4zm26.9-35.5h13.9v12.1h.3c2.2-8 8.7-12.8 17.1-12.8 2.1 0 3.8.3 5 .5v13.6c-1.1-.5-3.7-.9-6.5-.9-9.4 0-15.2 6.3-15.2 16.3V239h-14.6v-70.9zm103.5 50.1c-2 12.9-14.5 21.7-30.6 21.7-20.7 0-33.5-13.8-33.5-36 0-22.3 12.9-36.7 32.9-36.7 19.6 0 32 13.5 32 35v5h-50.1v.9c0 12.1 7.6 20.1 19.1 20.1 8.1 0 14.4-3.8 16.4-10h13.8zM830.1 197h35.5c-.3-10.9-7.3-18-17.4-18-10.1 0-17.3 7.3-18.1 18zM318.3 96.8c-3 0-5.8-.9-8.6-2.8-2.8-1.8-4.7-4.6-5.8-8.2l5.4-2.3c.7 2.4 1.8 4.3 3.4 5.6 1.6 1.3 3.5 2 5.6 2 2.4 0 4.5-.8 6.2-2.2 1.7-1.5 2.6-3.4 2.6-5.6 0-2.2-.9-4-2.7-5.5-1.8-1.5-3.9-2.2-6.4-2.2h-3.8V70h3.3c2.3 0 4.2-.6 5.8-1.9 1.5-1.3 2.3-3 2.3-5.1 0-2-.7-3.6-2.2-4.8-1.5-1.2-3.3-1.7-5.5-1.7-3.8 0-6.3 1.9-7.6 5.7l-5.5-2.3c.9-2.4 2.4-4.5 4.6-6.3 2.2-1.8 5-2.8 8.6-2.8 3.9 0 7.2 1.1 9.8 3.4 2.6 2.3 3.9 5.2 3.9 8.7 0 4.2-2 7.4-5.9 9.5v.3c2.1.9 3.9 2.3 5.3 4.1 1.4 1.8 2.1 4 2.1 6.6 0 3.9-1.4 7.1-4.3 9.7-2.9 2.4-6.5 3.7-10.6 3.7zm18.5-1l17.4-46h6.7l17.4 46h-6.6l-4.4-12.5h-19.4l-4.5 12.5h-6.6zm13.1-18.1h15.3l-7.5-20.8h-.3l-7.5 20.8zm34.3 18v-46h16.7c3.6 0 6.7 1.2 9.3 3.6 2.6 2.4 4 5.4 4 9 0 2.2-.6 4.1-1.7 5.8-1.1 1.7-2.6 2.9-4.5 3.8v.3c2.3.8 4.1 2.1 5.6 4s2.2 4.1 2.2 6.6c0 3.8-1.4 6.9-4.1 9.4-2.8 2.5-6 3.7-9.8 3.7h-17.7v-.2zm5.9-26.3h10.7c2.2 0 4-.7 5.4-2.2 1.4-1.5 2-3.1 2-4.9 0-1.8-.7-3.4-2-4.8-1.3-1.5-3-2.2-5.2-2.2h-11v14.1h.1zm0 20.7H402c2.3 0 4.1-.8 5.5-2.4 1.4-1.6 2.1-3.3 2.1-5.2 0-1.9-.7-3.6-2.2-5.2-1.5-1.6-3.4-2.3-5.7-2.3h-11.6v15.1zm28.5 5.7l17.4-46h6.7l17.4 46h-6.6l-4.4-12.5h-19.4l-4.5 12.5h-6.6zm13.1-18.1H447l-7.5-20.8h-.3l-7.5 20.8zm34.3 18v-46h5.9v19.7h23V49.7h5.9v46h-5.9V75h-23v20.7H466zm59.9 0H520V55.4h-12.8v-5.7h31.6v5.7h-12.9v40.3zm11.3.1l17.4-46h6.7l17.4 46h-6.6l-4.4-12.5h-19.4l-4.5 12.5h-6.6zm13.1-18.1h15.3l-7.5-20.8h-.3l-7.5 20.8zm63.7-3v21h-6v-21h-.2l-17.9 21h-7.7v-.2l19.4-22.3L583 50v-.3h7.2l17.6 22.4h.2V49.7h6v22.4h.2l17.6-22.4h7.2v.3l-18.6 23.2 19.4 22.3v.2h-7.7l-17.9-21h-.2zm66.9-25v46H675V67.1l.3-8.9h-.3l-23.4 37.5h-6.2v-46h6v27l-.3 8.8h.3l22.3-35.8h7.2zm25.2 46h-6V55.4h-12.8v-5.7h31.6v5.7h-12.8v40.3zm54.9-46v46h-5.9V67.1l.2-8.9h-.2l-23.4 37.5h-6.2v-46h5.9v27l-.3 8.8h.3l22.4-35.8h7.2zm35.5 47.1c-3 0-5.8-.9-8.6-2.8-2.8-1.8-4.7-4.6-5.8-8.2l5.4-2.3c.7 2.4 1.8 4.3 3.4 5.6 1.6 1.3 3.5 2 5.6 2 2.4 0 4.5-.8 6.2-2.2 1.7-1.5 2.6-3.4 2.6-5.6 0-2.2-.9-4-2.7-5.5-1.8-1.5-3.9-2.2-6.4-2.2h-3.8V70h3.3c2.3 0 4.2-.6 5.8-1.9 1.5-1.3 2.3-3 2.3-5.1 0-2-.7-3.6-2.2-4.8-1.5-1.2-3.3-1.7-5.5-1.7-3.8 0-6.3 1.9-7.7 5.7l-5.5-2.3c.9-2.4 2.4-4.5 4.6-6.3 2.2-1.8 5-2.8 8.6-2.8 3.9 0 7.2 1.1 9.8 3.4 2.6 2.3 3.9 5.2 3.9 8.7 0 4.2-2 7.4-5.9 9.5v.3c2.1.9 3.9 2.3 5.3 4.1 1.4 1.8 2.1 4 2.1 6.6 0 3.9-1.4 7.1-4.3 9.7-2.9 2.4-6.4 3.7-10.5 3.7zm-508.2 27.6H277v11.3h11.3v-11.3zm-22.7 135.7h-11.3v11.3h11.3v-11.3zm0-192.2h-11.3v11.3h11.3V67.9zm-11.3 101.7H243v11.3h11.3v-11.3z" fill="#fff"/><path d="M254.3 158.3H243v11.3h11.3v-11.3zm0-147H243v11.3h11.3V11.3zM243 192.2h-11.3v11.3H243v-11.3zm0-79.1h-11.3v11.3H243v-11.3zm-11.3 90.4h-11.3v11.3h11.3v-11.3zm0-11.3h-11.3v11.3h11.3v-11.3z" fill="#fff"/><path d="M231.7 180.9h-11.3v11.3h11.3v-11.3zm0-67.8h-11.3v11.3h11.3v-11.3zm0-11.3h-11.3v11.3h11.3v-11.3zm0-90.5h-11.3v11.3h11.3V11.3zm-11.3 214.8h-11.3v11.3h11.3v-11.3z" fill="#fff"/><path d="M220.4 214.8h-11.3v11.3h11.3v-11.3zm0-11.3h-11.3v11.3h11.3v-11.3zm0-11.3h-11.3v11.3h11.3v-11.3z" fill="#fff"/><path d="M220.4 180.9h-11.3v11.3h11.3v-11.3zm0-11.3h-11.3v11.3h11.3v-11.3zm0-45.2h-11.3v11.3h11.3v-11.3zm0-11.3h-11.3v11.3h11.3v-11.3zm0-11.3h-11.3v11.3h11.3v-11.3zm0-11.3h-11.3v11.3h11.3V90.5zm-11.3 146.9h-11.3v11.3h11.3v-11.3zm0-11.3h-11.3v11.3h11.3v-11.3z" fill="#fff"/><path d="M209.1 214.8h-11.3v11.3h11.3v-11.3zm0-11.3h-11.3v11.3h11.3v-11.3zm0-11.3h-11.3v11.3h11.3v-11.3z" fill="#fff"/><path d="M209.1 180.9h-11.3v11.3h11.3v-11.3zm0-11.3h-11.3v11.3h11.3v-11.3z" fill="#fff"/><path d="M209.1 158.3h-11.3v11.3h11.3v-11.3zm0-11.3h-11.3v11.3h11.3V147zm0-11.3h-11.3V147h11.3v-11.3z" fill="#fff"/><path d="M209.1 124.4h-11.3v11.3h11.3v-11.3zm0-11.3h-11.3v11.3h11.3v-11.3z" fill="#fff"/><path d="M209.1 101.8h-11.3v11.3h11.3v-11.3z" fill="#000"/><path d="M209.1 90.5h-11.3v11.3h11.3V90.5zm0-11.3h-11.3v11.3h11.3V79.2zm-11.3 192.2h-11.3v11.3h11.3v-11.3zm0-34h-11.3v11.3h11.3v-11.3zm0-11.3h-11.3v11.3h11.3v-11.3z" fill="#fff"/><path d="M197.8 214.8h-11.3v11.3h11.3v-11.3zm0-11.3h-11.3v11.3h11.3v-11.3zm0-11.3h-11.3v11.3h11.3v-11.3z" fill="#fff"/><path d="M197.8 180.9h-11.3v11.3h11.3v-11.3zm0-11.3h-11.3v11.3h11.3v-11.3z" fill="#fff"/><path d="M197.8 158.3h-11.3v11.3h11.3v-11.3zm0-11.3h-11.3v11.3h11.3V147zm0-11.3h-11.3V147h11.3v-11.3z" fill="#fff"/><path d="M197.8 124.4h-11.3v11.3h11.3v-11.3zm0-11.3h-11.3v11.3h11.3v-11.3zm0-11.3h-11.3v11.3h11.3v-11.3z" fill="#fff"/><path d="M197.8 90.5h-11.3v11.3h11.3V90.5z" fill="#000"/><path d="M197.8 79.2h-11.3v11.3h11.3V79.2zm0-45.3h-11.3v11.3h11.3V33.9zm-11.3 203.5h-11.3v11.3h11.3v-11.3zm0-11.3h-11.3v11.3h11.3v-11.3z" fill="#fff"/><path d="M186.5 214.8h-11.3v11.3h11.3v-11.3z" fill="#000"/><path d="M186.5 203.5h-11.3v11.3h11.3v-11.3zm0-11.3h-11.3v11.3h11.3v-11.3z" fill="#fff"/><path d="M186.5 180.9h-11.3v11.3h11.3v-11.3zm0-11.3h-11.3v11.3h11.3v-11.3z" fill="#fff"/><path d="M186.5 158.3h-11.3v11.3h11.3v-11.3zm0-11.3h-11.3v11.3h11.3V147zm0-11.3h-11.3V147h11.3v-11.3z" fill="#fff"/><path d="M186.5 124.4h-11.3v11.3h11.3v-11.3zm0-11.3h-11.3v11.3h11.3v-11.3zm0-11.3h-11.3v11.3h11.3v-11.3zm0-11.3h-11.3v11.3h11.3V90.5zm0-33.9h-11.3v11.3h11.3V56.6zm0-11.4h-11.3v11.3h11.3V45.2zm0-11.3h-11.3v11.3h11.3V33.9zm-11.3 237.5h-11.3v11.3h11.3v-11.3zm0-34h-11.3v11.3h11.3v-11.3zm0-11.3h-11.3v11.3h11.3v-11.3zm0-11.3h-11.3v11.3h11.3v-11.3zm0-11.3h-11.3v11.3h11.3v-11.3zm0-11.3h-11.3v11.3h11.3v-11.3z" fill="#fff"/><path d="M175.2 180.9h-11.3v11.3h11.3v-11.3zm0-11.3h-11.3v11.3h11.3v-11.3z" fill="#fff"/><path d="M175.2 158.3h-11.3v11.3h11.3v-11.3zm0-11.3h-11.3v11.3h11.3V147z" fill="#fff"/><path d="M175.2 135.7h-11.3V147h11.3v-11.3z" fill="#000"/><path d="M175.2 124.4h-11.3v11.3h11.3v-11.3zm0-11.3h-11.3v11.3h11.3v-11.3zm0-11.3h-11.3v11.3h11.3v-11.3zm0-11.3h-11.3v11.3h11.3V90.5zm0-22.6h-11.3v11.3h11.3V67.9zm0-11.3h-11.3v11.3h11.3V56.6zm0-11.4h-11.3v11.3h11.3V45.2zm-11.3 180.9h-11.3v11.3h11.3v-11.3zm0-11.3h-11.3v11.3h11.3v-11.3zm0-11.3h-11.3v11.3h11.3v-11.3z" fill="#fff"/><path d="M163.9 192.2h-11.3v11.3h11.3v-11.3z" fill="#000"/><path d="M163.9 180.9h-11.3v11.3h11.3v-11.3zm0-11.3h-11.3v11.3h11.3v-11.3z" fill="#fff"/><path d="M163.9 158.3h-11.3v11.3h11.3v-11.3zm0-11.3h-11.3v11.3h11.3V147zm0-11.3h-11.3V147h11.3v-11.3z" fill="#fff"/><path d="M163.9 124.4h-11.3v11.3h11.3v-11.3zm0-11.3h-11.3v11.3h11.3v-11.3zm0-11.3h-11.3v11.3h11.3v-11.3zm0-11.3h-11.3v11.3h11.3V90.5zm0-22.6h-11.3v11.3h11.3V67.9zm0-11.3h-11.3v11.3h11.3V56.6zm-11.3 192.2h-11.3v11.3h11.3v-11.3zm0-22.7h-11.3v11.3h11.3v-11.3zm0-11.3h-11.3v11.3h11.3v-11.3z" fill="#fff"/><path d="M152.6 203.5h-11.3v11.3h11.3v-11.3z" fill="#000"/><path d="M152.6 192.2h-11.3v11.3h11.3v-11.3z" fill="#fff"/><path d="M152.6 180.9h-11.3v11.3h11.3v-11.3zm0-11.3h-11.3v11.3h11.3v-11.3z" fill="#fff"/><path d="M152.6 158.3h-11.3v11.3h11.3v-11.3zm0-11.3h-11.3v11.3h11.3V147zm0-11.3h-11.3V147h11.3v-11.3z" fill="#fff"/><path d="M152.6 124.4h-11.3v11.3h11.3v-11.3zm0-11.3h-11.3v11.3h11.3v-11.3zm0-11.3h-11.3v11.3h11.3v-11.3zm0-11.3h-11.3v11.3h11.3V90.5zm0-67.9h-11.3v11.3h11.3V22.6zm-11.3 214.8H130v11.3h11.3v-11.3zm0-11.3H130v11.3h11.3v-11.3zm0-11.3H130v11.3h11.3v-11.3zm0-11.3H130v11.3h11.3v-11.3zm0-11.3H130v11.3h11.3v-11.3z" fill="#fff"/><path d="M141.3 180.9H130v11.3h11.3v-11.3z" fill="#000"/><path d="M141.3 169.6H130v11.3h11.3v-11.3z" fill="#fff"/><path d="M141.3 158.3H130v11.3h11.3v-11.3zm0-11.3H130v11.3h11.3V147zm0-11.3H130V147h11.3v-11.3z" fill="#fff"/><path d="M141.3 124.4H130v11.3h11.3v-11.3zm0-11.3H130v11.3h11.3v-11.3zm0-11.3H130v11.3h11.3v-11.3zm0-11.3H130v11.3h11.3V90.5zM130 237.4h-11.3v11.3H130v-11.3zm0-11.3h-11.3v11.3H130v-11.3z" fill="#fff"/><path d="M130 214.8h-11.3v11.3H130v-11.3zm0-11.3h-11.3v11.3H130v-11.3zm0-11.3h-11.3v11.3H130v-11.3z" fill="#fff"/><path d="M130 180.9h-11.3v11.3H130v-11.3zm0-11.3h-11.3v11.3H130v-11.3z" fill="#fff"/><path d="M130 158.3h-11.3v11.3H130v-11.3zm0-11.3h-11.3v11.3H130V147zm0-11.3h-11.3V147H130v-11.3z" fill="#fff"/><path d="M130 124.4h-11.3v11.3H130v-11.3zm0-11.3h-11.3v11.3H130v-11.3zm0-11.3h-11.3v11.3H130v-11.3zm0-11.3h-11.3v11.3H130V90.5zm0-11.3h-11.3v11.3H130V79.2zm-11.3 158.2h-11.3v11.3h11.3v-11.3zm0-11.3h-11.3v11.3h11.3v-11.3z" fill="#fff"/><path d="M118.7 214.8h-11.3v11.3h11.3v-11.3zm0-11.3h-11.3v11.3h11.3v-11.3zm0-11.3h-11.3v11.3h11.3v-11.3z" fill="#fff"/><path d="M118.7 180.9h-11.3v11.3h11.3v-11.3zm0-11.3h-11.3v11.3h11.3v-11.3z" fill="#fff"/><path d="M118.7 158.3h-11.3v11.3h11.3v-11.3zm0-11.3h-11.3v11.3h11.3V147z" fill="#fff"/><path d="M118.7 135.7h-11.3V147h11.3v-11.3z" fill="#000"/><path d="M118.7 124.4h-11.3v11.3h11.3v-11.3z" fill="#000"/><path d="M118.7 113.1h-11.3v11.3h11.3v-11.3zm0-11.3h-11.3v11.3h11.3v-11.3zm0-11.3h-11.3v11.3h11.3V90.5zm0-11.3h-11.3v11.3h11.3V79.2zm-11.3 146.9H96.1v11.3h11.3v-11.3z" fill="#fff"/><path d="M107.4 214.8H96.1v11.3h11.3v-11.3z" fill="#000"/><path d="M107.4 203.5H96.1v11.3h11.3v-11.3zm0-11.3H96.1v11.3h11.3v-11.3z" fill="#fff"/><path d="M107.4 180.9H96.1v11.3h11.3v-11.3zm0-11.3H96.1v11.3h11.3v-11.3z" fill="#fff"/><path d="M107.4 158.3H96.1v11.3h11.3v-11.3zm0-11.3H96.1v11.3h11.3V147zm0-11.3H96.1V147h11.3v-11.3z" fill="#fff"/><path d="M107.4 124.4H96.1v11.3h11.3v-11.3z" fill="#000"/><path d="M107.4 113.1H96.1v11.3h11.3v-11.3zm0-11.3H96.1v11.3h11.3v-11.3zm0-11.3H96.1v11.3h11.3V90.5zM96.1 214.8H84.8v11.3h11.3v-11.3zm0-11.3H84.8v11.3h11.3v-11.3zm0-11.3H84.8v11.3h11.3v-11.3z" fill="#fff"/><path d="M96.1 180.9H84.8v11.3h11.3v-11.3zm0-11.3H84.8v11.3h11.3v-11.3z" fill="#fff"/><path d="M96.1 158.3H84.8v11.3h11.3v-11.3zm0-11.3H84.8v11.3h11.3V147zm0-11.3H84.8V147h11.3v-11.3z" fill="#fff"/><path d="M96.1 124.4H84.8v11.3h11.3v-11.3zm0-11.3H84.8v11.3h11.3v-11.3zm0-11.3H84.8v11.3h11.3v-11.3zm0-11.3H84.8v11.3h11.3V90.5zM84.8 192.2H73.5v11.3h11.3v-11.3z" fill="#fff"/><path d="M84.8 180.9H73.5v11.3h11.3v-11.3z" fill="#000"/><path d="M84.8 169.6H73.5v11.3h11.3v-11.3z" fill="#fff"/><path d="M84.8 158.3H73.5v11.3h11.3v-11.3zm0-11.3H73.5v11.3h11.3V147zm0-11.3H73.5V147h11.3v-11.3z" fill="#fff"/><path d="M84.8 124.4H73.5v11.3h11.3v-11.3zm0-11.3H73.5v11.3h11.3v-11.3zm0-11.3H73.5v11.3h11.3v-11.3zm0-56.6H73.5v11.3h11.3V45.2zM73.4 158.3H62.1v11.3h11.3v-11.3zm0-11.3H62.1v11.3h11.3V147zm0-11.3H62.1V147h11.3v-11.3z" fill="#fff"/><path d="M73.4 124.4H62.1v11.3h11.3v-11.3zm-11.3 113H50.8v11.3h11.3v-11.3zm0-158.2H50.8v11.3h11.3V79.2zM39.5 33.9H28.2v11.3h11.3V33.9zM28.2 203.5H16.9v11.3h11.3v-11.3zm0-33.9H16.9v11.3h11.3v-11.3z" fill="#fff"/></svg>