<svg width="992" height="294" viewBox="0 0 992 294" fill="none" xmlns="http://www.w3.org/2000/svg">
<path d="M955.4 290.8H36.6C18 290.8 3 275.7 3 257.2V36.8C3 18.2 18.1 3.20001 36.6 3.20001H955.4C974 3.20001 989 18.3 989 36.8V257.2C989.1 275.8 974 290.8 955.4 290.8Z" fill="#040708"/>
<path d="M955.3 5.89999C972.3 5.89999 986.2 19.7 986.2 36.8V257.3C986.2 274.3 972.4 288.2 955.3 288.2H36.7C19.7 288.2 5.8 274.4 5.8 257.3V36.8C5.8 19.8 19.6 5.89999 36.7 5.89999H955.3V5.89999ZM955.3 0H36.7C16.5 0 0 16.6 0 36.8V257.3C0 277.5 16.5 294 36.7 294H955.3C975.5 294 992 277.5 992 257.3V36.8C992 16.6 975.5 0 955.3 0Z" fill="#A6A6A6"/>
<path d="M353.3 212.8H316.2L307.3 239.1H291.6L326.8 141.7H343.1L378.3 239.1H362.3L353.3 212.8ZM320.1 200.6H349.5L335 157.9H334.6L320.1 200.6Z" fill="#222120"/>
<path d="M353.3 212.8H316.2L307.3 239.1H291.6L326.8 141.7H343.1L378.3 239.1H362.3L353.3 212.8ZM320.1 200.6H349.5L335 157.9H334.6L320.1 200.6Z" stroke="#222120" stroke-width="5" stroke-miterlimit="10"/>
<path d="M454.2 203.6C454.2 225.7 442.4 239.8 424.6 239.8C414.5 239.8 406.4 235.3 402.3 227.4H402V262.6H387.4V168.1H401.5V179.9H401.8C405.9 172.3 414.5 167.3 424.4 167.3C442.3 167.3 454.2 181.6 454.2 203.6ZM439.2 203.6C439.2 189.2 431.8 179.8 420.4 179.8C409.3 179.8 401.8 189.4 401.8 203.6C401.8 217.9 409.3 227.5 420.4 227.5C431.8 227.5 439.2 218.1 439.2 203.6Z" fill="#222120"/>
<path d="M454.2 203.6C454.2 225.7 442.4 239.8 424.6 239.8C414.5 239.8 406.4 235.3 402.3 227.4H402V262.6H387.4V168.1H401.5V179.9H401.8C405.9 172.3 414.5 167.3 424.4 167.3C442.3 167.3 454.2 181.6 454.2 203.6ZM439.2 203.6C439.2 189.2 431.8 179.8 420.4 179.8C409.3 179.8 401.8 189.4 401.8 203.6C401.8 217.9 409.3 227.5 420.4 227.5C431.8 227.5 439.2 218.1 439.2 203.6Z" stroke="#222120" stroke-width="5" stroke-miterlimit="10"/>
<path d="M532.3 203.6C532.3 225.7 520.5 239.8 502.7 239.8C492.6 239.8 484.5 235.3 480.4 227.4H480V262.6H465.4V168.1H479.5V179.9H479.8C483.9 172.3 492.5 167.3 502.4 167.3C520.4 167.3 532.3 181.6 532.3 203.6ZM517.3 203.6C517.3 189.2 509.9 179.8 498.5 179.8C487.4 179.8 479.9 189.4 479.9 203.6C479.9 217.9 487.4 227.5 498.5 227.5C509.9 227.5 517.3 218.1 517.3 203.6Z" fill="#222120"/>
<path d="M532.3 203.6C532.3 225.7 520.5 239.8 502.7 239.8C492.6 239.8 484.5 235.3 480.4 227.4H480V262.6H465.4V168.1H479.5V179.9H479.8C483.9 172.3 492.5 167.3 502.4 167.3C520.4 167.3 532.3 181.6 532.3 203.6ZM517.3 203.6C517.3 189.2 509.9 179.8 498.5 179.8C487.4 179.8 479.9 189.4 479.9 203.6C479.9 217.9 487.4 227.5 498.5 227.5C509.9 227.5 517.3 218.1 517.3 203.6Z" stroke="#222120" stroke-width="5" stroke-miterlimit="10"/>
<path d="M584 212C585.1 221.7 594.5 228 607.3 228C619.6 228 628.4 221.7 628.4 213C628.4 205.4 623.1 200.9 610.4 197.8L597.8 194.8C579.9 190.5 571.6 182.1 571.6 168.5C571.6 151.7 586.2 140.2 607 140.2C627.6 140.2 641.7 151.7 642.2 168.5H627.5C626.6 158.8 618.6 152.9 606.8 152.9C595.1 152.9 587 158.8 587 167.5C587 174.4 592.1 178.4 604.7 181.5L615.4 184.1C635.4 188.8 643.7 196.9 643.7 211.1C643.7 229.3 629.2 240.7 606.1 240.7C584.5 240.7 569.9 229.6 569 211.9H584V212Z" fill="#222120"/>
<path d="M584 212C585.1 221.7 594.5 228 607.3 228C619.6 228 628.4 221.7 628.4 213C628.4 205.4 623.1 200.9 610.4 197.8L597.8 194.8C579.9 190.5 571.6 182.1 571.6 168.5C571.6 151.7 586.2 140.2 607 140.2C627.6 140.2 641.7 151.7 642.2 168.5H627.5C626.6 158.8 618.6 152.9 606.8 152.9C595.1 152.9 587 158.8 587 167.5C587 174.4 592.1 178.4 604.7 181.5L615.4 184.1C635.4 188.8 643.7 196.9 643.7 211.1C643.7 229.3 629.2 240.7 606.1 240.7C584.5 240.7 569.9 229.6 569 211.9H584V212Z" stroke="#222120" stroke-width="5" stroke-miterlimit="10"/>
<path d="M675.2 151.3V168.1H688.7V179.6H675.2V218.7C675.2 224.8 677.9 227.6 683.8 227.6C685.3 227.6 687.7 227.4 688.6 227.3V238.8C687 239.2 683.7 239.5 680.5 239.5C666.1 239.5 660.5 234.1 660.5 220.3V179.6H650.2V168.1H660.5V151.3H675.2Z" fill="#222120"/>
<path d="M675.2 151.3V168.1H688.7V179.6H675.2V218.7C675.2 224.8 677.9 227.6 683.8 227.6C685.3 227.6 687.7 227.4 688.6 227.3V238.8C687 239.2 683.7 239.5 680.5 239.5C666.1 239.5 660.5 234.1 660.5 220.3V179.6H650.2V168.1H660.5V151.3H675.2Z" stroke="#222120" stroke-width="5" stroke-miterlimit="10"/>
<path d="M696.5 203.6C696.5 181.3 709.7 167.2 730.2 167.2C750.8 167.2 763.9 181.2 763.9 203.6C763.9 226 750.9 240 730.2 240C709.5 240 696.5 226 696.5 203.6ZM749 203.6C749 188.3 742 179.2 730.2 179.2C718.4 179.2 711.4 188.3 711.4 203.6C711.4 219 718.4 228 730.2 228C742 228 749 219 749 203.6Z" fill="#222120"/>
<path d="M696.5 203.6C696.5 181.3 709.7 167.2 730.2 167.2C750.8 167.2 763.9 181.2 763.9 203.6C763.9 226 750.9 240 730.2 240C709.5 240 696.5 226 696.5 203.6ZM749 203.6C749 188.3 742 179.2 730.2 179.2C718.4 179.2 711.4 188.3 711.4 203.6C711.4 219 718.4 228 730.2 228C742 228 749 219 749 203.6Z" stroke="#222120" stroke-width="5" stroke-miterlimit="10"/>
<path d="M775.9 168.1H789.8V180.2H790.1C792.3 172.2 798.8 167.4 807.2 167.4C809.3 167.4 811 167.7 812.2 167.9V181.5C811.1 181 808.5 180.6 805.7 180.6C796.3 180.6 790.5 186.9 790.5 196.9V239H775.9V168.1V168.1Z" fill="#222120"/>
<path d="M775.9 168.1H789.8V180.2H790.1C792.3 172.2 798.8 167.4 807.2 167.4C809.3 167.4 811 167.7 812.2 167.9V181.5C811.1 181 808.5 180.6 805.7 180.6C796.3 180.6 790.5 186.9 790.5 196.9V239H775.9V168.1V168.1Z" stroke="#222120" stroke-width="5" stroke-miterlimit="10"/>
<path d="M879.4 218.2C877.4 231.1 864.9 239.9 848.8 239.9C828.1 239.9 815.3 226.1 815.3 203.9C815.3 181.6 828.2 167.2 848.2 167.2C867.8 167.2 880.2 180.7 880.2 202.2V207.2H830.1V208.1C830.1 220.2 837.7 228.2 849.2 228.2C857.3 228.2 863.6 224.4 865.6 218.2H879.4ZM830.1 197H865.6C865.3 186.1 858.3 179 848.2 179C838.1 179 830.9 186.3 830.1 197Z" fill="#222120"/>
<path d="M879.4 218.2C877.4 231.1 864.9 239.9 848.8 239.9C828.1 239.9 815.3 226.1 815.3 203.9C815.3 181.6 828.2 167.2 848.2 167.2C867.8 167.2 880.2 180.7 880.2 202.2V207.2H830.1V208.1C830.1 220.2 837.7 228.2 849.2 228.2C857.3 228.2 863.6 224.4 865.6 218.2H879.4ZM830.1 197H865.6C865.3 186.1 858.3 179 848.2 179C838.1 179 830.9 186.3 830.1 197Z" stroke="#222120" stroke-width="5" stroke-miterlimit="10"/>
<path d="M318.3 96.8C315.3 96.8 312.5 95.9 309.7 94C306.9 92.2 305 89.4 303.9 85.8L309.3 83.5C310 85.9 311.1 87.8 312.7 89.1C314.3 90.4 316.2 91.1 318.3 91.1C320.7 91.1 322.8 90.3 324.5 88.9C326.2 87.4 327.1 85.5 327.1 83.3C327.1 81.1 326.2 79.3 324.4 77.8C322.6 76.3 320.5 75.6 318 75.6H314.2V70H317.5C319.8 70 321.7 69.4 323.3 68.1C324.8 66.8 325.6 65.1 325.6 63C325.6 61 324.9 59.4 323.4 58.2C321.9 57 320.1 56.5 317.9 56.5C314.1 56.5 311.6 58.4 310.3 62.2L304.8 59.9C305.7 57.5 307.2 55.4 309.4 53.6C311.6 51.8 314.4 50.8 318 50.8C321.9 50.8 325.2 51.9 327.8 54.2C330.4 56.5 331.7 59.4 331.7 62.9C331.7 67.1 329.7 70.3 325.8 72.4V72.7C327.9 73.6 329.7 75 331.1 76.8C332.5 78.6 333.2 80.8 333.2 83.4C333.2 87.3 331.8 90.5 328.9 93.1C326 95.5 322.4 96.8 318.3 96.8Z" fill="#222120"/>
<path d="M318.3 96.8C315.3 96.8 312.5 95.9 309.7 94C306.9 92.2 305 89.4 303.9 85.8L309.3 83.5C310 85.9 311.1 87.8 312.7 89.1C314.3 90.4 316.2 91.1 318.3 91.1C320.7 91.1 322.8 90.3 324.5 88.9C326.2 87.4 327.1 85.5 327.1 83.3C327.1 81.1 326.2 79.3 324.4 77.8C322.6 76.3 320.5 75.6 318 75.6H314.2V70H317.5C319.8 70 321.7 69.4 323.3 68.1C324.8 66.8 325.6 65.1 325.6 63C325.6 61 324.9 59.4 323.4 58.2C321.9 57 320.1 56.5 317.9 56.5C314.1 56.5 311.6 58.4 310.3 62.2L304.8 59.9C305.7 57.5 307.2 55.4 309.4 53.6C311.6 51.8 314.4 50.8 318 50.8C321.9 50.8 325.2 51.9 327.8 54.2C330.4 56.5 331.7 59.4 331.7 62.9C331.7 67.1 329.7 70.3 325.8 72.4V72.7C327.9 73.6 329.7 75 331.1 76.8C332.5 78.6 333.2 80.8 333.2 83.4C333.2 87.3 331.8 90.5 328.9 93.1C326 95.5 322.4 96.8 318.3 96.8Z" stroke="#222120" stroke-width="5" stroke-miterlimit="10"/>
<path d="M336.8 95.8L354.2 49.8H360.9L378.3 95.8H371.7L367.3 83.3H347.9L343.4 95.8H336.8ZM349.9 77.7H365.2L357.7 56.9H357.4L349.9 77.7Z" fill="#222120"/>
<path d="M336.8 95.8L354.2 49.8H360.9L378.3 95.8H371.7L367.3 83.3H347.9L343.4 95.8H336.8ZM349.9 77.7H365.2L357.7 56.9H357.4L349.9 77.7Z" stroke="#222120" stroke-width="5" stroke-miterlimit="10"/>
<path d="M384.2 95.7V49.7H400.9C404.5 49.7 407.6 50.9 410.2 53.3C412.8 55.7 414.2 58.7 414.2 62.3C414.2 64.5 413.6 66.4 412.5 68.1C411.4 69.8 409.9 71 408 71.9V72.2C410.3 73 412.1 74.3 413.6 76.2C415.1 78.1 415.8 80.3 415.8 82.8C415.8 86.6 414.4 89.7 411.7 92.2C408.9 94.7 405.7 95.9 401.9 95.9H384.2V95.7ZM390.1 69.4H400.8C403 69.4 404.8 68.7 406.2 67.2C407.6 65.7 408.2 64.1 408.2 62.3C408.2 60.5 407.5 58.9 406.2 57.5C404.9 56 403.2 55.3 401 55.3H390V69.4H390.1ZM390.1 90.1H402C404.3 90.1 406.1 89.3 407.5 87.7C408.9 86.1 409.6 84.4 409.6 82.5C409.6 80.6 408.9 78.9 407.4 77.3C405.9 75.7 404 75 401.7 75H390.1V90.1Z" fill="#222120"/>
<path d="M384.2 95.7V49.7H400.9C404.5 49.7 407.6 50.9 410.2 53.3C412.8 55.7 414.2 58.7 414.2 62.3C414.2 64.5 413.6 66.4 412.5 68.1C411.4 69.8 409.9 71 408 71.9V72.2C410.3 73 412.1 74.3 413.6 76.2C415.1 78.1 415.8 80.3 415.8 82.8C415.8 86.6 414.4 89.7 411.7 92.2C408.9 94.7 405.7 95.9 401.9 95.9H384.2V95.7ZM390.1 69.4H400.8C403 69.4 404.8 68.7 406.2 67.2C407.6 65.7 408.2 64.1 408.2 62.3C408.2 60.5 407.5 58.9 406.2 57.5C404.9 56 403.2 55.3 401 55.3H390V69.4H390.1ZM390.1 90.1H402C404.3 90.1 406.1 89.3 407.5 87.7C408.9 86.1 409.6 84.4 409.6 82.5C409.6 80.6 408.9 78.9 407.4 77.3C405.9 75.7 404 75 401.7 75H390.1V90.1Z" stroke="#222120" stroke-width="5" stroke-miterlimit="10"/>
<path d="M418.6 95.8L436 49.8H442.7L460.1 95.8H453.5L449.1 83.3H429.7L425.2 95.8H418.6ZM431.7 77.7H447L439.5 56.9H439.2L431.7 77.7Z" fill="#222120"/>
<path d="M418.6 95.8L436 49.8H442.7L460.1 95.8H453.5L449.1 83.3H429.7L425.2 95.8H418.6ZM431.7 77.7H447L439.5 56.9H439.2L431.7 77.7Z" stroke="#222120" stroke-width="5" stroke-miterlimit="10"/>
<path d="M466 95.7V49.7H471.9V69.4H494.9V49.7H500.8V95.7H494.9V75H471.9V95.7H466Z" fill="#222120"/>
<path d="M466 95.7V49.7H471.9V69.4H494.9V49.7H500.8V95.7H494.9V75H471.9V95.7H466Z" stroke="#222120" stroke-width="5" stroke-miterlimit="10"/>
<path d="M525.9 95.7H520V55.4H507.2V49.7H538.8V55.4H525.9V95.7Z" fill="#222120"/>
<path d="M525.9 95.7H520V55.4H507.2V49.7H538.8V55.4H525.9V95.7Z" stroke="#222120" stroke-width="5" stroke-miterlimit="10"/>
<path d="M537.2 95.8L554.6 49.8H561.3L578.7 95.8H572.1L567.7 83.3H548.3L543.8 95.8H537.2ZM550.3 77.7H565.6L558.1 56.9H557.8L550.3 77.7Z" fill="#222120"/>
<path d="M537.2 95.8L554.6 49.8H561.3L578.7 95.8H572.1L567.7 83.3H548.3L543.8 95.8H537.2ZM550.3 77.7H565.6L558.1 56.9H557.8L550.3 77.7Z" stroke="#222120" stroke-width="5" stroke-miterlimit="10"/>
<path d="M614 74.7V95.7H608V74.7H607.8L589.9 95.7H582.2V95.5L601.6 73.2L583 50V49.7H590.2L607.8 72.1H608V49.7H614V72.1H614.2L631.8 49.7H639V50L620.4 73.2L639.8 95.5V95.7H632.1L614.2 74.7H614Z" fill="#222120"/>
<path d="M614 74.7V95.7H608V74.7H607.8L589.9 95.7H582.2V95.5L601.6 73.2L583 50V49.7H590.2L607.8 72.1H608V49.7H614V72.1H614.2L631.8 49.7H639V50L620.4 73.2L639.8 95.5V95.7H632.1L614.2 74.7H614Z" stroke="#222120" stroke-width="5" stroke-miterlimit="10"/>
<path d="M680.9 49.7V95.7H675V67.1L675.3 58.2H675L651.6 95.7H645.4V49.7H651.4V76.7L651.1 85.5H651.4L673.7 49.7H680.9Z" fill="#222120"/>
<path d="M680.9 49.7V95.7H675V67.1L675.3 58.2H675L651.6 95.7H645.4V49.7H651.4V76.7L651.1 85.5H651.4L673.7 49.7H680.9Z" stroke="#222120" stroke-width="5" stroke-miterlimit="10"/>
<path d="M706.1 95.7H700.1V55.4H687.3V49.7H718.9V55.4H706.1V95.7Z" fill="#222120"/>
<path d="M706.1 95.7H700.1V55.4H687.3V49.7H718.9V55.4H706.1V95.7Z" stroke="#222120" stroke-width="5" stroke-miterlimit="10"/>
<path d="M761 49.7V95.7H755.1V67.1L755.3 58.2H755.1L731.7 95.7H725.5V49.7H731.4V76.7L731.1 85.5H731.4L753.8 49.7H761Z" fill="#222120"/>
<path d="M761 49.7V95.7H755.1V67.1L755.3 58.2H755.1L731.7 95.7H725.5V49.7H731.4V76.7L731.1 85.5H731.4L753.8 49.7H761Z" stroke="#222120" stroke-width="5" stroke-miterlimit="10"/>
<path d="M796.5 96.8C793.5 96.8 790.7 95.9 787.9 94C785.1 92.2 783.2 89.4 782.1 85.8L787.5 83.5C788.2 85.9 789.3 87.8 790.9 89.1C792.5 90.4 794.4 91.1 796.5 91.1C798.9 91.1 801 90.3 802.7 88.9C804.4 87.4 805.3 85.5 805.3 83.3C805.3 81.1 804.4 79.3 802.6 77.8C800.8 76.3 798.7 75.6 796.2 75.6H792.4V70H795.7C798 70 799.9 69.4 801.5 68.1C803 66.8 803.8 65.1 803.8 63C803.8 61 803.1 59.4 801.6 58.2C800.1 57 798.3 56.5 796.1 56.5C792.3 56.5 789.8 58.4 788.4 62.2L782.9 59.9C783.8 57.5 785.3 55.4 787.5 53.6C789.7 51.8 792.5 50.8 796.1 50.8C800 50.8 803.3 51.9 805.9 54.2C808.5 56.5 809.8 59.4 809.8 62.9C809.8 67.1 807.8 70.3 803.9 72.4V72.7C806 73.6 807.8 75 809.2 76.8C810.6 78.6 811.3 80.8 811.3 83.4C811.3 87.3 809.9 90.5 807 93.1C804.1 95.5 800.6 96.8 796.5 96.8Z" fill="#222120"/>
<path d="M796.5 96.8C793.5 96.8 790.7 95.9 787.9 94C785.1 92.2 783.2 89.4 782.1 85.8L787.5 83.5C788.2 85.9 789.3 87.8 790.9 89.1C792.5 90.4 794.4 91.1 796.5 91.1C798.9 91.1 801 90.3 802.7 88.9C804.4 87.4 805.3 85.5 805.3 83.3C805.3 81.1 804.4 79.3 802.6 77.8C800.8 76.3 798.7 75.6 796.2 75.6H792.4V70H795.7C798 70 799.9 69.4 801.5 68.1C803 66.8 803.8 65.1 803.8 63C803.8 61 803.1 59.4 801.6 58.2C800.1 57 798.3 56.5 796.1 56.5C792.3 56.5 789.8 58.4 788.4 62.2L782.9 59.9C783.8 57.5 785.3 55.4 787.5 53.6C789.7 51.8 792.5 50.8 796.1 50.8C800 50.8 803.3 51.9 805.9 54.2C808.5 56.5 809.8 59.4 809.8 62.9C809.8 67.1 807.8 70.3 803.9 72.4V72.7C806 73.6 807.8 75 809.2 76.8C810.6 78.6 811.3 80.8 811.3 83.4C811.3 87.3 809.9 90.5 807 93.1C804.1 95.5 800.6 96.8 796.5 96.8Z" stroke="#222120" stroke-width="5" stroke-miterlimit="10"/>
<path d="M353.3 212.8H316.2L307.3 239.1H291.6L326.8 141.7H343.1L378.3 239.1H362.3L353.3 212.8ZM320.1 200.6H349.5L335 157.9H334.6L320.1 200.6Z" fill="white"/>
<path d="M454.2 203.6C454.2 225.7 442.4 239.8 424.6 239.8C414.5 239.8 406.4 235.3 402.3 227.4H402V262.6H387.4V168.1H401.5V179.9H401.8C405.9 172.3 414.5 167.3 424.4 167.3C442.3 167.3 454.2 181.6 454.2 203.6ZM439.2 203.6C439.2 189.2 431.8 179.8 420.4 179.8C409.3 179.8 401.8 189.4 401.8 203.6C401.8 217.9 409.3 227.5 420.4 227.5C431.8 227.5 439.2 218.1 439.2 203.6Z" fill="white"/>
<path d="M532.3 203.6C532.3 225.7 520.5 239.8 502.7 239.8C492.6 239.8 484.5 235.3 480.4 227.4H480V262.6H465.4V168.1H479.5V179.9H479.8C483.9 172.3 492.5 167.3 502.4 167.3C520.4 167.3 532.3 181.6 532.3 203.6ZM517.3 203.6C517.3 189.2 509.9 179.8 498.5 179.8C487.4 179.8 479.9 189.4 479.9 203.6C479.9 217.9 487.4 227.5 498.5 227.5C509.9 227.5 517.3 218.1 517.3 203.6Z" fill="white"/>
<path d="M584 212C585.1 221.7 594.5 228 607.3 228C619.6 228 628.4 221.7 628.4 213C628.4 205.4 623.1 200.9 610.4 197.8L597.8 194.8C579.9 190.5 571.6 182.1 571.6 168.5C571.6 151.7 586.2 140.2 607 140.2C627.6 140.2 641.7 151.7 642.2 168.5H627.5C626.6 158.8 618.6 152.9 606.8 152.9C595.1 152.9 587 158.8 587 167.5C587 174.4 592.1 178.4 604.7 181.5L615.4 184.1C635.4 188.8 643.7 196.9 643.7 211.1C643.7 229.3 629.2 240.7 606.1 240.7C584.5 240.7 569.9 229.6 569 211.9H584V212Z" fill="white"/>
<path d="M675.2 151.3V168.1H688.7V179.6H675.2V218.7C675.2 224.8 677.9 227.6 683.8 227.6C685.3 227.6 687.7 227.4 688.6 227.3V238.8C687 239.2 683.7 239.5 680.5 239.5C666.1 239.5 660.5 234.1 660.5 220.3V179.6H650.2V168.1H660.5V151.3H675.2Z" fill="white"/>
<path d="M696.5 203.6C696.5 181.3 709.7 167.2 730.2 167.2C750.8 167.2 763.9 181.2 763.9 203.6C763.9 226 750.9 240 730.2 240C709.5 240 696.5 226 696.5 203.6ZM749 203.6C749 188.3 742 179.2 730.2 179.2C718.4 179.2 711.4 188.3 711.4 203.6C711.4 219 718.4 228 730.2 228C742 228 749 219 749 203.6Z" fill="white"/>
<path d="M775.9 168.1H789.8V180.2H790.1C792.3 172.2 798.8 167.4 807.2 167.4C809.3 167.4 811 167.7 812.2 167.9V181.5C811.1 181 808.5 180.6 805.7 180.6C796.3 180.6 790.5 186.9 790.5 196.9V239H775.9V168.1V168.1Z" fill="white"/>
<path d="M879.4 218.2C877.4 231.1 864.9 239.9 848.8 239.9C828.1 239.9 815.3 226.1 815.3 203.9C815.3 181.6 828.2 167.2 848.2 167.2C867.8 167.2 880.2 180.7 880.2 202.2V207.2H830.1V208.1C830.1 220.2 837.7 228.2 849.2 228.2C857.3 228.2 863.6 224.4 865.6 218.2H879.4ZM830.1 197H865.6C865.3 186.1 858.3 179 848.2 179C838.1 179 830.9 186.3 830.1 197Z" fill="white"/>
<path d="M318.3 96.8C315.3 96.8 312.5 95.9 309.7 94C306.9 92.2 305 89.4 303.9 85.8L309.3 83.5C310 85.9 311.1 87.8 312.7 89.1C314.3 90.4 316.2 91.1 318.3 91.1C320.7 91.1 322.8 90.3 324.5 88.9C326.2 87.4 327.1 85.5 327.1 83.3C327.1 81.1 326.2 79.3 324.4 77.8C322.6 76.3 320.5 75.6 318 75.6H314.2V70H317.5C319.8 70 321.7 69.4 323.3 68.1C324.8 66.8 325.6 65.1 325.6 63C325.6 61 324.9 59.4 323.4 58.2C321.9 57 320.1 56.5 317.9 56.5C314.1 56.5 311.6 58.4 310.3 62.2L304.8 59.9C305.7 57.5 307.2 55.4 309.4 53.6C311.6 51.8 314.4 50.8 318 50.8C321.9 50.8 325.2 51.9 327.8 54.2C330.4 56.5 331.7 59.4 331.7 62.9C331.7 67.1 329.7 70.3 325.8 72.4V72.7C327.9 73.6 329.7 75 331.1 76.8C332.5 78.6 333.2 80.8 333.2 83.4C333.2 87.3 331.8 90.5 328.9 93.1C326 95.5 322.4 96.8 318.3 96.8Z" fill="white"/>
<path d="M336.8 95.8L354.2 49.8H360.9L378.3 95.8H371.7L367.3 83.3H347.9L343.4 95.8H336.8ZM349.9 77.7H365.2L357.7 56.9H357.4L349.9 77.7Z" fill="white"/>
<path d="M384.2 95.7V49.7H400.9C404.5 49.7 407.6 50.9 410.2 53.3C412.8 55.7 414.2 58.7 414.2 62.3C414.2 64.5 413.6 66.4 412.5 68.1C411.4 69.8 409.9 71 408 71.9V72.2C410.3 73 412.1 74.3 413.6 76.2C415.1 78.1 415.8 80.3 415.8 82.8C415.8 86.6 414.4 89.7 411.7 92.2C408.9 94.7 405.7 95.9 401.9 95.9H384.2V95.7ZM390.1 69.4H400.8C403 69.4 404.8 68.7 406.2 67.2C407.6 65.7 408.2 64.1 408.2 62.3C408.2 60.5 407.5 58.9 406.2 57.5C404.9 56 403.2 55.3 401 55.3H390V69.4H390.1ZM390.1 90.1H402C404.3 90.1 406.1 89.3 407.5 87.7C408.9 86.1 409.6 84.4 409.6 82.5C409.6 80.6 408.9 78.9 407.4 77.3C405.9 75.7 404 75 401.7 75H390.1V90.1Z" fill="white"/>
<path d="M418.6 95.8L436 49.8H442.7L460.1 95.8H453.5L449.1 83.3H429.7L425.2 95.8H418.6ZM431.7 77.7H447L439.5 56.9H439.2L431.7 77.7Z" fill="white"/>
<path d="M466 95.7V49.7H471.9V69.4H494.9V49.7H500.8V95.7H494.9V75H471.9V95.7H466Z" fill="white"/>
<path d="M525.9 95.7H520V55.4H507.2V49.7H538.8V55.4H525.9V95.7Z" fill="white"/>
<path d="M537.2 95.8L554.6 49.8H561.3L578.7 95.8H572.1L567.7 83.3H548.3L543.8 95.8H537.2ZM550.3 77.7H565.6L558.1 56.9H557.8L550.3 77.7Z" fill="white"/>
<path d="M614 74.7V95.7H608V74.7H607.8L589.9 95.7H582.2V95.5L601.6 73.2L583 50V49.7H590.2L607.8 72.1H608V49.7H614V72.1H614.2L631.8 49.7H639V50L620.4 73.2L639.8 95.5V95.7H632.1L614.2 74.7H614Z" fill="white"/>
<path d="M680.9 49.7V95.7H675V67.1L675.3 58.2H675L651.6 95.7H645.4V49.7H651.4V76.7L651.1 85.5H651.4L673.7 49.7H680.9Z" fill="white"/>
<path d="M706.1 95.7H700.1V55.4H687.3V49.7H718.9V55.4H706.1V95.7Z" fill="white"/>
<path d="M761 49.7V95.7H755.1V67.1L755.3 58.2H755.1L731.7 95.7H725.5V49.7H731.4V76.7L731.1 85.5H731.4L753.8 49.7H761Z" fill="white"/>
<path d="M796.5 96.8C793.5 96.8 790.7 95.9 787.9 94C785.1 92.2 783.2 89.4 782.1 85.8L787.5 83.5C788.2 85.9 789.3 87.8 790.9 89.1C792.5 90.4 794.4 91.1 796.5 91.1C798.9 91.1 801 90.3 802.7 88.9C804.4 87.4 805.3 85.5 805.3 83.3C805.3 81.1 804.4 79.3 802.6 77.8C800.8 76.3 798.7 75.6 796.2 75.6H792.4V70H795.7C798 70 799.9 69.4 801.5 68.1C803 66.8 803.8 65.1 803.8 63C803.8 61 803.1 59.4 801.6 58.2C800.1 57 798.3 56.5 796.1 56.5C792.3 56.5 789.8 58.4 788.4 62.2L782.9 59.9C783.8 57.5 785.3 55.4 787.5 53.6C789.7 51.8 792.5 50.8 796.1 50.8C800 50.8 803.3 51.9 805.9 54.2C808.5 56.5 809.8 59.4 809.8 62.9C809.8 67.1 807.8 70.3 803.9 72.4V72.7C806 73.6 807.8 75 809.2 76.8C810.6 78.6 811.3 80.8 811.3 83.4C811.3 87.3 809.9 90.5 807 93.1C804.1 95.5 800.6 96.8 796.5 96.8Z" fill="white"/>
<path d="M288.3 124.4H277V135.7H288.3V124.4Z" fill="white"/>
<path d="M265.6 260.1H254.3V271.4H265.6V260.1Z" fill="white"/>
<path d="M265.6 67.9H254.3V79.2H265.6V67.9Z" fill="white"/>
<path d="M254.3 169.6H243V180.9H254.3V169.6Z" fill="white"/>
<path d="M254.3 158.3H243V169.6H254.3V158.3Z" fill="white"/>
<path d="M254.3 11.3H243V22.6H254.3V11.3Z" fill="white"/>
<path d="M243 192.2H231.7V203.5H243V192.2Z" fill="white"/>
<path d="M243 113.1H231.7V124.4H243V113.1Z" fill="white"/>
<path d="M231.7 203.5H220.4V214.8H231.7V203.5Z" fill="white"/>
<path d="M231.7 192.2H220.4V203.5H231.7V192.2Z" fill="white"/>
<path d="M231.7 180.9H220.4V192.2H231.7V180.9Z" fill="white"/>
<path d="M231.7 113.1H220.4V124.4H231.7V113.1Z" fill="white"/>
<path d="M231.7 101.8H220.4V113.1H231.7V101.8Z" fill="white"/>
<path d="M231.7 11.3H220.4V22.6H231.7V11.3Z" fill="white"/>
<path d="M220.4 226.1H209.1V237.4H220.4V226.1Z" fill="white"/>
<path d="M220.4 214.8H209.1V226.1H220.4V214.8Z" fill="white"/>
<path d="M220.4 203.5H209.1V214.8H220.4V203.5Z" fill="white"/>
<path d="M220.4 192.2H209.1V203.5H220.4V192.2Z" fill="white"/>
<path d="M220.4 180.9H209.1V192.2H220.4V180.9Z" fill="white"/>
<path d="M220.4 169.6H209.1V180.9H220.4V169.6Z" fill="white"/>
<path d="M220.4 124.4H209.1V135.7H220.4V124.4Z" fill="white"/>
<path d="M220.4 113.1H209.1V124.4H220.4V113.1Z" fill="white"/>
<path d="M220.4 101.8H209.1V113.1H220.4V101.8Z" fill="white"/>
<path d="M220.4 90.5H209.1V101.8H220.4V90.5Z" fill="white"/>
<path d="M209.1 237.4H197.8V248.7H209.1V237.4Z" fill="white"/>
<path d="M209.1 226.1H197.8V237.4H209.1V226.1Z" fill="white"/>
<path d="M209.1 214.8H197.8V226.1H209.1V214.8Z" fill="white"/>
<path d="M209.1 203.5H197.8V214.8H209.1V203.5Z" fill="white"/>
<path d="M209.1 192.2H197.8V203.5H209.1V192.2Z" fill="white"/>
<path d="M209.1 180.9H197.8V192.2H209.1V180.9Z" fill="white"/>
<path d="M209.1 169.6H197.8V180.9H209.1V169.6Z" fill="white"/>
<path d="M209.1 158.3H197.8V169.6H209.1V158.3Z" fill="white"/>
<path d="M209.1 147H197.8V158.3H209.1V147Z" fill="white"/>
<path d="M209.1 135.7H197.8V147H209.1V135.7Z" fill="white"/>
<path d="M209.1 124.4H197.8V135.7H209.1V124.4Z" fill="white"/>
<path d="M209.1 113.1H197.8V124.4H209.1V113.1Z" fill="white"/>
<path d="M209.1 101.8H197.8V113.1H209.1V101.8Z" fill="black"/>
<path d="M209.1 90.5H197.8V101.8H209.1V90.5Z" fill="white"/>
<path d="M209.1 79.2H197.8V90.5H209.1V79.2Z" fill="white"/>
<path d="M197.8 271.4H186.5V282.7H197.8V271.4Z" fill="white"/>
<path d="M197.8 237.4H186.5V248.7H197.8V237.4Z" fill="white"/>
<path d="M197.8 226.1H186.5V237.4H197.8V226.1Z" fill="white"/>
<path d="M197.8 214.8H186.5V226.1H197.8V214.8Z" fill="white"/>
<path d="M197.8 203.5H186.5V214.8H197.8V203.5Z" fill="white"/>
<path d="M197.8 192.2H186.5V203.5H197.8V192.2Z" fill="white"/>
<path d="M197.8 180.9H186.5V192.2H197.8V180.9Z" fill="white"/>
<path d="M197.8 169.6H186.5V180.9H197.8V169.6Z" fill="white"/>
<path d="M197.8 158.3H186.5V169.6H197.8V158.3Z" fill="white"/>
<path d="M197.8 147H186.5V158.3H197.8V147Z" fill="white"/>
<path d="M197.8 135.7H186.5V147H197.8V135.7Z" fill="white"/>
<path d="M197.8 124.4H186.5V135.7H197.8V124.4Z" fill="white"/>
<path d="M197.8 113.1H186.5V124.4H197.8V113.1Z" fill="white"/>
<path d="M197.8 101.8H186.5V113.1H197.8V101.8Z" fill="white"/>
<path d="M197.8 90.5H186.5V101.8H197.8V90.5Z" fill="black"/>
<path d="M197.8 79.2H186.5V90.5H197.8V79.2Z" fill="white"/>
<path d="M197.8 33.9H186.5V45.2H197.8V33.9Z" fill="white"/>
<path d="M186.5 237.4H175.2V248.7H186.5V237.4Z" fill="white"/>
<path d="M186.5 226.1H175.2V237.4H186.5V226.1Z" fill="white"/>
<path d="M186.5 214.8H175.2V226.1H186.5V214.8Z" fill="black"/>
<path d="M186.5 203.5H175.2V214.8H186.5V203.5Z" fill="white"/>
<path d="M186.5 192.2H175.2V203.5H186.5V192.2Z" fill="white"/>
<path d="M186.5 180.9H175.2V192.2H186.5V180.9Z" fill="white"/>
<path d="M186.5 169.6H175.2V180.9H186.5V169.6Z" fill="white"/>
<path d="M186.5 158.3H175.2V169.6H186.5V158.3Z" fill="white"/>
<path d="M186.5 147H175.2V158.3H186.5V147Z" fill="white"/>
<path d="M186.5 135.7H175.2V147H186.5V135.7Z" fill="white"/>
<path d="M186.5 124.4H175.2V135.7H186.5V124.4Z" fill="white"/>
<path d="M186.5 113.1H175.2V124.4H186.5V113.1Z" fill="white"/>
<path d="M186.5 101.8H175.2V113.1H186.5V101.8Z" fill="white"/>
<path d="M186.5 90.5H175.2V101.8H186.5V90.5Z" fill="white"/>
<path d="M186.5 56.6H175.2V67.9H186.5V56.6Z" fill="white"/>
<path d="M186.5 45.2H175.2V56.5H186.5V45.2Z" fill="white"/>
<path d="M186.5 33.9H175.2V45.2H186.5V33.9Z" fill="white"/>
<path d="M175.2 271.4H163.9V282.7H175.2V271.4Z" fill="white"/>
<path d="M175.2 237.4H163.9V248.7H175.2V237.4Z" fill="white"/>
<path d="M175.2 226.1H163.9V237.4H175.2V226.1Z" fill="white"/>
<path d="M175.2 214.8H163.9V226.1H175.2V214.8Z" fill="white"/>
<path d="M175.2 203.5H163.9V214.8H175.2V203.5Z" fill="white"/>
<path d="M175.2 192.2H163.9V203.5H175.2V192.2Z" fill="white"/>
<path d="M175.2 180.9H163.9V192.2H175.2V180.9Z" fill="white"/>
<path d="M175.2 169.6H163.9V180.9H175.2V169.6Z" fill="white"/>
<path d="M175.2 158.3H163.9V169.6H175.2V158.3Z" fill="white"/>
<path d="M175.2 147H163.9V158.3H175.2V147Z" fill="white"/>
<path d="M175.2 135.7H163.9V147H175.2V135.7Z" fill="black"/>
<path d="M175.2 124.4H163.9V135.7H175.2V124.4Z" fill="white"/>
<path d="M175.2 113.1H163.9V124.4H175.2V113.1Z" fill="white"/>
<path d="M175.2 101.8H163.9V113.1H175.2V101.8Z" fill="white"/>
<path d="M175.2 90.5H163.9V101.8H175.2V90.5Z" fill="white"/>
<path d="M175.2 67.9H163.9V79.2H175.2V67.9Z" fill="white"/>
<path d="M175.2 56.6H163.9V67.9H175.2V56.6Z" fill="white"/>
<path d="M175.2 45.2H163.9V56.5H175.2V45.2Z" fill="white"/>
<path d="M163.9 226.1H152.6V237.4H163.9V226.1Z" fill="white"/>
<path d="M163.9 214.8H152.6V226.1H163.9V214.8Z" fill="white"/>
<path d="M163.9 203.5H152.6V214.8H163.9V203.5Z" fill="white"/>
<path d="M163.9 192.2H152.6V203.5H163.9V192.2Z" fill="black"/>
<path d="M163.9 180.9H152.6V192.2H163.9V180.9Z" fill="white"/>
<path d="M163.9 169.6H152.6V180.9H163.9V169.6Z" fill="white"/>
<path d="M163.9 158.3H152.6V169.6H163.9V158.3Z" fill="white"/>
<path d="M163.9 147H152.6V158.3H163.9V147Z" fill="white"/>
<path d="M163.9 135.7H152.6V147H163.9V135.7Z" fill="white"/>
<path d="M163.9 124.4H152.6V135.7H163.9V124.4Z" fill="white"/>
<path d="M163.9 113.1H152.6V124.4H163.9V113.1Z" fill="white"/>
<path d="M163.9 101.8H152.6V113.1H163.9V101.8Z" fill="white"/>
<path d="M163.9 90.5H152.6V101.8H163.9V90.5Z" fill="white"/>
<path d="M163.9 67.9H152.6V79.2H163.9V67.9Z" fill="white"/>
<path d="M163.9 56.6H152.6V67.9H163.9V56.6Z" fill="white"/>
<path d="M152.6 248.8H141.3V260.1H152.6V248.8Z" fill="white"/>
<path d="M152.6 226.1H141.3V237.4H152.6V226.1Z" fill="white"/>
<path d="M152.6 214.8H141.3V226.1H152.6V214.8Z" fill="white"/>
<path d="M152.6 203.5H141.3V214.8H152.6V203.5Z" fill="black"/>
<path d="M152.6 192.2H141.3V203.5H152.6V192.2Z" fill="white"/>
<path d="M152.6 180.9H141.3V192.2H152.6V180.9Z" fill="white"/>
<path d="M152.6 169.6H141.3V180.9H152.6V169.6Z" fill="white"/>
<path d="M152.6 158.3H141.3V169.6H152.6V158.3Z" fill="white"/>
<path d="M152.6 147H141.3V158.3H152.6V147Z" fill="white"/>
<path d="M152.6 135.7H141.3V147H152.6V135.7Z" fill="white"/>
<path d="M152.6 124.4H141.3V135.7H152.6V124.4Z" fill="white"/>
<path d="M152.6 113.1H141.3V124.4H152.6V113.1Z" fill="white"/>
<path d="M152.6 101.8H141.3V113.1H152.6V101.8Z" fill="white"/>
<path d="M152.6 90.5H141.3V101.8H152.6V90.5Z" fill="white"/>
<path d="M152.6 22.6H141.3V33.9H152.6V22.6Z" fill="white"/>
<path d="M141.3 237.4H130V248.7H141.3V237.4Z" fill="white"/>
<path d="M141.3 226.1H130V237.4H141.3V226.1Z" fill="white"/>
<path d="M141.3 214.8H130V226.1H141.3V214.8Z" fill="white"/>
<path d="M141.3 203.5H130V214.8H141.3V203.5Z" fill="white"/>
<path d="M141.3 192.2H130V203.5H141.3V192.2Z" fill="white"/>
<path d="M141.3 180.9H130V192.2H141.3V180.9Z" fill="black"/>
<path d="M141.3 169.6H130V180.9H141.3V169.6Z" fill="white"/>
<path d="M141.3 158.3H130V169.6H141.3V158.3Z" fill="white"/>
<path d="M141.3 147H130V158.3H141.3V147Z" fill="white"/>
<path d="M141.3 135.7H130V147H141.3V135.7Z" fill="white"/>
<path d="M141.3 124.4H130V135.7H141.3V124.4Z" fill="white"/>
<path d="M141.3 113.1H130V124.4H141.3V113.1Z" fill="white"/>
<path d="M141.3 101.8H130V113.1H141.3V101.8Z" fill="white"/>
<path d="M141.3 90.5H130V101.8H141.3V90.5Z" fill="white"/>
<path d="M130 237.4H118.7V248.7H130V237.4Z" fill="white"/>
<path d="M130 226.1H118.7V237.4H130V226.1Z" fill="white"/>
<path d="M130 214.8H118.7V226.1H130V214.8Z" fill="white"/>
<path d="M130 203.5H118.7V214.8H130V203.5Z" fill="white"/>
<path d="M130 192.2H118.7V203.5H130V192.2Z" fill="white"/>
<path d="M130 180.9H118.7V192.2H130V180.9Z" fill="white"/>
<path d="M130 169.6H118.7V180.9H130V169.6Z" fill="white"/>
<path d="M130 158.3H118.7V169.6H130V158.3Z" fill="white"/>
<path d="M130 147H118.7V158.3H130V147Z" fill="white"/>
<path d="M130 135.7H118.7V147H130V135.7Z" fill="white"/>
<path d="M130 124.4H118.7V135.7H130V124.4Z" fill="white"/>
<path d="M130 113.1H118.7V124.4H130V113.1Z" fill="white"/>
<path d="M130 101.8H118.7V113.1H130V101.8Z" fill="white"/>
<path d="M130 90.5H118.7V101.8H130V90.5Z" fill="white"/>
<path d="M130 79.2H118.7V90.5H130V79.2Z" fill="white"/>
<path d="M118.7 237.4H107.4V248.7H118.7V237.4Z" fill="white"/>
<path d="M118.7 226.1H107.4V237.4H118.7V226.1Z" fill="white"/>
<path d="M118.7 214.8H107.4V226.1H118.7V214.8Z" fill="white"/>
<path d="M118.7 203.5H107.4V214.8H118.7V203.5Z" fill="white"/>
<path d="M118.7 192.2H107.4V203.5H118.7V192.2Z" fill="white"/>
<path d="M118.7 180.9H107.4V192.2H118.7V180.9Z" fill="white"/>
<path d="M118.7 169.6H107.4V180.9H118.7V169.6Z" fill="white"/>
<path d="M118.7 158.3H107.4V169.6H118.7V158.3Z" fill="white"/>
<path d="M118.7 147H107.4V158.3H118.7V147Z" fill="white"/>
<path d="M118.7 135.7H107.4V147H118.7V135.7Z" fill="black"/>
<path d="M118.7 124.4H107.4V135.7H118.7V124.4Z" fill="black"/>
<path d="M118.7 113.1H107.4V124.4H118.7V113.1Z" fill="white"/>
<path d="M118.7 101.8H107.4V113.1H118.7V101.8Z" fill="white"/>
<path d="M118.7 90.5H107.4V101.8H118.7V90.5Z" fill="white"/>
<path d="M118.7 79.2H107.4V90.5H118.7V79.2Z" fill="white"/>
<path d="M107.4 226.1H96.1001V237.4H107.4V226.1Z" fill="white"/>
<path d="M107.4 214.8H96.1001V226.1H107.4V214.8Z" fill="black"/>
<path d="M107.4 203.5H96.1001V214.8H107.4V203.5Z" fill="white"/>
<path d="M107.4 192.2H96.1001V203.5H107.4V192.2Z" fill="white"/>
<path d="M107.4 180.9H96.1001V192.2H107.4V180.9Z" fill="white"/>
<path d="M107.4 169.6H96.1001V180.9H107.4V169.6Z" fill="white"/>
<path d="M107.4 158.3H96.1001V169.6H107.4V158.3Z" fill="white"/>
<path d="M107.4 147H96.1001V158.3H107.4V147Z" fill="white"/>
<path d="M107.4 135.7H96.1001V147H107.4V135.7Z" fill="white"/>
<path d="M107.4 124.4H96.1001V135.7H107.4V124.4Z" fill="black"/>
<path d="M107.4 113.1H96.1001V124.4H107.4V113.1Z" fill="white"/>
<path d="M107.4 101.8H96.1001V113.1H107.4V101.8Z" fill="white"/>
<path d="M107.4 90.5H96.1001V101.8H107.4V90.5Z" fill="white"/>
<path d="M96.0998 214.8H84.7998V226.1H96.0998V214.8Z" fill="white"/>
<path d="M96.0998 203.5H84.7998V214.8H96.0998V203.5Z" fill="white"/>
<path d="M96.0998 192.2H84.7998V203.5H96.0998V192.2Z" fill="white"/>
<path d="M96.0998 180.9H84.7998V192.2H96.0998V180.9Z" fill="white"/>
<path d="M96.0998 169.6H84.7998V180.9H96.0998V169.6Z" fill="white"/>
<path d="M96.0998 158.3H84.7998V169.6H96.0998V158.3Z" fill="white"/>
<path d="M96.0998 147H84.7998V158.3H96.0998V147Z" fill="white"/>
<path d="M96.0998 135.7H84.7998V147H96.0998V135.7Z" fill="white"/>
<path d="M96.0998 124.4H84.7998V135.7H96.0998V124.4Z" fill="white"/>
<path d="M96.0998 113.1H84.7998V124.4H96.0998V113.1Z" fill="white"/>
<path d="M96.0998 101.8H84.7998V113.1H96.0998V101.8Z" fill="white"/>
<path d="M96.0998 90.5H84.7998V101.8H96.0998V90.5Z" fill="white"/>
<path d="M84.8 192.2H73.5V203.5H84.8V192.2Z" fill="white"/>
<path d="M84.8 180.9H73.5V192.2H84.8V180.9Z" fill="black"/>
<path d="M84.8 169.6H73.5V180.9H84.8V169.6Z" fill="white"/>
<path d="M84.8 158.3H73.5V169.6H84.8V158.3Z" fill="white"/>
<path d="M84.8 147H73.5V158.3H84.8V147Z" fill="white"/>
<path d="M84.8 135.7H73.5V147H84.8V135.7Z" fill="white"/>
<path d="M84.8 124.4H73.5V135.7H84.8V124.4Z" fill="white"/>
<path d="M84.8 113.1H73.5V124.4H84.8V113.1Z" fill="white"/>
<path d="M84.8 101.8H73.5V113.1H84.8V101.8Z" fill="white"/>
<path d="M84.8 45.2H73.5V56.5H84.8V45.2Z" fill="white"/>
<path d="M73.4001 158.3H62.1001V169.6H73.4001V158.3Z" fill="white"/>
<path d="M73.4001 147H62.1001V158.3H73.4001V147Z" fill="white"/>
<path d="M73.4001 135.7H62.1001V147H73.4001V135.7Z" fill="white"/>
<path d="M73.4001 124.4H62.1001V135.7H73.4001V124.4Z" fill="white"/>
<path d="M62.0998 237.4H50.7998V248.7H62.0998V237.4Z" fill="white"/>
<path d="M62.0998 79.2H50.7998V90.5H62.0998V79.2Z" fill="white"/>
<path d="M39.4997 33.9H28.1997V45.2H39.4997V33.9Z" fill="white"/>
<path d="M28.1999 203.5H16.8999V214.8H28.1999V203.5Z" fill="white"/>
<path d="M28.1999 169.6H16.8999V180.9H28.1999V169.6Z" fill="white"/>
</svg>
