<?xml version="1.0" encoding="utf-8"?>
<!-- Generator: Adobe Illustrator 22.0.0, SVG Export Plug-In . SVG Version: 6.00 Build 0)  -->
<svg version="1.1" id="Layer_1" xmlns="http://www.w3.org/2000/svg" xmlns:xlink="http://www.w3.org/1999/xlink" x="0px" y="0px"
	 width="1080px" height="1080px" viewBox="0 0 1080 1080" style="enable-background:new 0 0 1080 1080;" xml:space="preserve">
<style type="text/css">
	.st0{fill:#DA1F26;}
	.st1{fill:#FFFFFF;}
</style>
<path class="st0" d="M709.9,615.8h-46.2h-46.1v-46.1h-46.2v-46.2h46.2v-46.2v-46.2V385h46.1v-46.2h-46.1v-46.2v-46.1h-46.2h-46.2
	v-46.2H479v46.2h-46.2v46.1H479v46.2h-46.2V385v46.1v46.2h-46.1v46.2h46.1v46.2v46.1h-46.1h-46.1h-46.2v46.1h46.2v46.2h46.1v-46.2
	h46.1v46.2h-46v46.1h46.1v46.1h46.2v46.2h46.2h46.2v-46.2h46.2v-46.1h46.1v-46.1h46.1v-46.2h46.2v-46.1H709.9z M525.2,292.6h46.2
	v46.2V385h-46.2v-46.2V292.6z M479,569.7h46.2v46.1H479V569.7z M525.3,754.2v-46.1h46.1v-46.2h46.2v46.2h-46.1v46.1H525.3z"/>
<g>
	<polygon class="st1" points="525.2,338.8 525.2,385 571.4,385 571.4,338.8 571.4,292.6 525.2,292.6 	"/>
	<polygon class="st1" points="756.1,569.7 709.9,569.7 663.7,569.7 663.7,523.5 663.7,477.3 663.7,431.1 709.9,431.1 709.9,385 
		709.9,338.8 663.7,338.8 663.7,385 617.6,385 617.6,431.1 617.6,477.3 617.6,523.5 571.4,523.5 571.4,569.7 617.6,569.7 
		617.6,615.8 663.7,615.8 709.9,615.8 756.1,615.8 756.1,661.9 709.9,661.9 709.9,708.1 663.8,708.1 663.8,754.2 617.7,754.2 
		617.7,800.3 571.5,800.3 571.5,846.5 525.3,846.5 479.1,846.5 479.1,800.3 432.9,800.3 432.9,754.2 386.8,754.2 386.8,708.1 
		432.8,708.1 432.8,661.9 386.7,661.9 386.7,708.1 340.7,708.1 340.6,708.1 340.6,661.9 294.4,661.9 294.4,615.8 340.6,615.8 
		386.7,615.8 432.8,615.8 432.8,569.7 432.8,523.5 386.7,523.5 386.7,477.3 432.8,477.3 432.8,431.1 432.8,385 432.8,338.8 
		479,338.8 479,292.6 432.8,292.6 432.8,246.5 479,246.5 479,200.3 525.2,200.3 525.2,246.5 571.4,246.5 617.6,246.5 617.6,292.6 
		617.6,338.8 663.7,338.8 663.7,292.6 663.7,246.5 663.7,200.3 617.6,200.3 571.4,200.3 571.4,154.1 525.2,154.1 479,154.1 
		432.8,154.1 432.8,200.3 386.7,200.3 386.7,246.5 386.7,292.6 386.7,338.8 386.7,385 340.6,385 340.6,431.1 340.6,477.3 
		340.6,523.5 340.6,569.7 294.4,569.7 248.3,569.7 248.3,615.8 248.3,661.9 248.3,708.1 294.4,708.1 294.5,708.1 294.5,754.2 
		340.7,754.2 340.7,800.3 386.8,800.3 386.8,846.5 432.9,846.5 432.9,892.6 479.1,892.6 525.3,892.6 571.5,892.6 617.7,892.6 
		617.7,846.5 663.8,846.5 663.8,800.3 710,800.3 710,754.2 756.2,754.2 756.2,708.1 802.2,708.1 802.2,661.9 802.2,615.8 
		802.2,569.7 	"/>
	<rect x="479" y="569.7" class="st1" width="46.2" height="46.1"/>
	<polygon class="st1" points="571.4,708.1 525.3,708.1 525.3,754.2 571.5,754.2 571.5,708.1 617.6,708.1 617.6,661.9 571.4,661.9 	
		"/>
</g>
</svg>
