<svg width="150" height="200" fill="none" xmlns="http://www.w3.org/2000/svg"><path d="M150 112.514h-12.486V125H150v-12.486zM150 125h-12.486v12.486H150V125zm0 12.514h-12.486v12.513H150v-12.513zm-12.486-25H125V125h12.514v-12.486z" fill="#fff"/><path d="M137.514 125H125v12.486h12.514V125z" fill="#DA1F26"/><path d="M137.514 137.514H125v12.513h12.514v-12.513z" fill="#fff"/><path d="M137.514 150H125v12.486h12.514V150zM125.027 50h-12.513v12.514h12.513V50zm0 12.514h-12.513V75h12.513V62.514zm0 50h-12.513V125h12.513v-12.486z" fill="#fff"/><path d="M125.027 125h-12.513v12.486h12.513V125zm0 12.514h-12.513v12.513h12.513v-12.513z" fill="#DA1F26"/><path d="M125.027 150h-12.513v12.486h12.513V150zm0 12.514h-12.513V175h12.513v-12.486zM112.486 12.486H100V25h12.486V12.486zm0 12.514H100v12.486h12.486V25zm0 12.514H100v12.513h12.486V37.513z" fill="#fff"/><path d="M112.486 50H100v12.514h12.486V50z" fill="#DA1F26"/><path d="M112.486 62.514H100V75h12.486V62.514zm0 12.486H100v12.513h12.486V75zm0 12.513H100v12.514h12.486V87.513z" fill="#fff"/><path d="M112.486 100H100v12.514h12.486V100zm0 12.514H100V125h12.486v-12.486z" fill="#fff"/><path d="M112.486 125H100v12.486h12.486V125zm0 12.514H100v12.513h12.486v-12.513z" fill="#DA1F26"/><path d="M112.486 150H100v12.486h12.486V150z" fill="#DA1F26"/><path d="M112.486 162.514H100V175h12.486v-12.486zm0 12.486H100v12.514h12.486V175zM100.027 12.486H87.513V25h12.514V12.486z" fill="#fff"/><path d="M100.027 25H87.513v12.486h12.514V25zm0 12.514H87.513v12.513h12.514V37.513z" fill="#DA1F26"/><path d="M100.027 50H87.513v12.514h12.514V50zm0 12.514H87.513V75h12.514V62.514zm0 12.486H87.513v12.513h12.514V75zm0 12.513H87.513v12.514h12.514V87.513z" fill="#DA1F26"/><path d="M100.027 100H87.513v12.514h12.514V100z" fill="#fff"/><path d="M100.027 112.514H87.513V125h12.514v-12.486zm0 12.486H87.513v12.486h12.514V125z" fill="#DA1F26"/><path d="M100.027 137.514H87.513v12.513h12.514v-12.513z" fill="#fff"/><path d="M100.027 150H87.513v12.486h12.514V150zm0 12.514H87.513V175h12.514v-12.486z" fill="#DA1F26"/><path d="M100.027 175H87.513v12.514h12.514V175zm0 12.514H87.513V200h12.514v-12.486zM87.513 0H75v12.514h12.513V0z" fill="#fff"/><path d="M87.513 12.486H75V25h12.513V12.486z" fill="#fff"/><path d="M87.513 25H75v12.486h12.513V25z" fill="#DA1F26"/><path d="M87.513 37.514H75v12.513h12.513V37.513z" fill="#fff"/><path d="M87.513 50H75v12.514h12.513V50z" fill="#fff"/><path d="M87.513 62.514H75V75h12.513V62.514zm0 12.486H75v12.513h12.513V75zm0 12.513H75v12.514h12.513V87.513z" fill="#DA1F26"/><path d="M87.513 100H75v12.514h12.513V100zm0 12.514H75V125h12.513v-12.486zm0 12.486H75v12.486h12.513V125zm0 12.514H75v12.513h12.513v-12.513z" fill="#DA1F26"/><path d="M87.513 150H75v12.486h12.513V150z" fill="#fff"/><path d="M87.513 162.514H75V175h12.513v-12.486zm0 12.486H75v12.514h12.513V175z" fill="#DA1F26"/><path d="M87.513 187.514H75V200h12.513v-12.486zM75.027 0H62.513v12.514h12.514V0z" fill="#fff"/><path d="M75.027 12.486H62.513V25h12.514V12.486zm0 12.514H62.513v12.486h12.514V25zm0 12.514H62.513v12.513h12.514V37.513z" fill="#DA1F26"/><path d="M75.027 50H62.513v12.514h12.514V50zm0 12.514H62.513V75h12.514V62.514zm0 12.486H62.513v12.513h12.514V75zm0 12.513H62.513v12.514h12.514V87.513z" fill="#DA1F26"/><path d="M75.027 100H62.513v12.514h12.514V100z" fill="#DA1F26"/><path d="M75.027 112.514H62.513V125h12.514v-12.486z" fill="#fff"/><path d="M75.027 125H62.513v12.486h12.514V125zm0 12.514H62.513v12.513h12.514v-12.513z" fill="#DA1F26"/><path d="M75.027 150H62.513v12.486h12.514V150zm0 12.514H62.513V175h12.514v-12.486zm0 12.486H62.513v12.514h12.514V175z" fill="#DA1F26"/><path d="M75.027 187.514H62.513V200h12.514v-12.486zM62.514 0H50v12.514h12.514V0z" fill="#fff"/><path d="M62.514 12.486H50V25h12.514V12.486z" fill="#fff"/><path d="M62.514 25H50v12.486h12.514V25z" fill="#DA1F26"/><path d="M62.514 37.514H50v12.513h12.514V37.513z" fill="#fff"/><path d="M62.514 50H50v12.514h12.514V50zm0 12.514H50V75h12.514V62.514zm0 12.486H50v12.513h12.514V75zm0 12.513H50v12.514h12.514V87.513z" fill="#DA1F26"/><path d="M62.514 100H50v12.514h12.514V100zm0 12.514H50V125h12.514v-12.486zm0 12.486H50v12.486h12.514V125zm0 12.514H50v12.513h12.514v-12.513z" fill="#DA1F26"/><path d="M62.514 150H50v12.486h12.514V150zm0 12.514H50V175h12.514v-12.486z" fill="#DA1F26"/><path d="M62.514 175H50v12.514h12.514V175zm0 12.514H50V200h12.514v-12.486zM50 12.486H37.514V25H50V12.486zM50 25H37.514v12.486H50V25zm0 12.514H37.514v12.513H50V37.513z" fill="#fff"/><path d="M50 50H37.514v12.514H50V50zm0 12.514H37.514V75H50V62.514zM50 75H37.514v12.513H50V75z" fill="#fff"/><path d="M50 87.513H37.514v12.514H50V87.513z" fill="#DA1F26"/><path d="M50 100H37.514v12.514H50V100zm0 12.514H37.514V125H50v-12.486z" fill="#fff"/><path d="M50 125H37.514v12.486H50V125z" fill="#DA1F26"/><path d="M50 137.514H37.514v12.513H50v-12.513z" fill="#fff"/><path d="M50 150H37.514v12.486H50V150z" fill="#DA1F26"/><path d="M50 162.514H37.514V175H50v-12.486zM50 175H37.514v12.514H50V175zM37.486 62.514H25V75h12.486V62.514zm0 12.486H25v12.513h12.486V75zm0 12.513H25v12.514h12.486V87.513z" fill="#fff"/><path d="M37.486 100H25v12.514h12.486V100zm0 12.514H25V125h12.486v-12.486z" fill="#fff"/><path d="M37.486 125H25v12.486h12.486V125zm0 12.514H25v12.513h12.486v-12.513z" fill="#DA1F26"/><path d="M37.486 150H25v12.486h12.486V150zm0 12.514H25V175h12.486v-12.486zm-12.459-50H12.513V125h12.514v-12.486z" fill="#fff"/><path d="M25.027 125H12.513v12.486h12.514V125z" fill="#DA1F26"/><path d="M25.027 137.514H12.513v12.513h12.514v-12.513z" fill="#fff"/><path d="M25.027 150H12.513v12.486h12.514V150zm-12.541-37.486H0V125h12.486v-12.486zm0 12.486H0v12.486h12.486V125zm0 12.514H0v12.513h12.486v-12.513z" fill="#fff"/></svg>