<svg xmlns="http://www.w3.org/2000/svg" viewBox="0 0 356.76 365"><defs><style>.cls-1{fill:#fff}</style></defs><g id="Layer_2" data-name="Layer 2"><g id="Слой_3" data-name="Слой 3"><path class="cls-1" d="M157.44 64C170.79 107.52 126 145.37 95 167.61c-20.19 14.46-42.48 25.67-61.32 42-11.12 9.64-20.53 21.54-26.27 35.14C1.74 258.11 0 272.6 0 287c0 13.33 1.85 25.95 7.82 38 5.49 11.05 14.61 19.78 24.64 26.69 18.29 12.61 43 17.19 64.15 9.88s39.12-25.26 54-41.37c20.64-22.41 36.23-49.73 51.25-76.08 1.23-2.16 2.41-4.36 3.56-6.57 4.51-8.62-8.89-15.54-13.41-6.92-7.11 13.6-15.37 26.75-23.43 39.82a279.16 279.16 0 01-26.64 36.82 224.83 224.83 0 01-27.14 26.21c-7.48 6.12-15.65 11.45-24.88 14.44-20.45 6.62-43.87-2.22-58.78-16.6-18.79-18.13-18.95-48.05-12.87-71.81 6.86-26.79 30.22-44.22 52.46-58.2 17.43-11 34.7-21.75 50.62-34.92 31-25.6 63.76-63.74 50.52-106.89-2.87-9.37-17.28-4.78-14.43 4.5z"/><path class="cls-1" d="M190.42 135.44c7.85-28.78 12.21-58.42 23.69-86.13 4.15-10 9.58-20.67 19.08-26.54 10.86-6.71 26.61-1.07 34.88 7.28 4.58 4.62 11.37-2.8 6.83-7.39C265 12.67 249.34 7.73 235.6 11c-12.48 2.93-20.92 14.69-26.53 25.35-15.78 30-19.69 64.8-28.5 97.06-1.7 6.21 8.15 8.27 9.85 2.03z"/><path class="cls-1" d="M286.92 20.57a8 8 0 00-4.16-.85 9.2 9.2 0 00-1.28-.8l-6.82-3.52a9.91 9.91 0 00-9.1 17.6l6.82 3.52a11.19 11.19 0 001.4.58 7.8 7.8 0 003.1 2.89 7.88 7.88 0 0010.62-3.38l2.8-5.43a7.89 7.89 0 00-3.38-10.61zm.08 166.75c21.08-25.69 46-48.73 62-78.25 6-11 10-23.92 6.33-36.34-4.07-13.73-19.06-24.17-32.68-26.41-6.38-1-8.5 8.79-2.08 9.85 11.48 1.88 24.16 10.86 26 23 1.65 10.94-4.35 22-9.78 31-15.68 26-38.05 47-57.2 70.29-4.1 5.03 3.28 11.87 7.41 6.86z"/><path class="cls-1" d="M317.39 35.32a7.8 7.8 0 013.1 2.89 9.86 9.86 0 011.4.58l6.81 3.52a9.91 9.91 0 01-9.09 17.61l-6.82-3.52a9.2 9.2 0 01-1.28-.8A7.88 7.88 0 01304 44.12l2.8-5.42a7.88 7.88 0 0110.59-3.38zm-40.54 144C265.44 191 255.31 203.83 243 214.64c-10.45 9.19-25.1 18.22-39.28 12.8-37.39-14.3-13.85-61.59-10.23-88.89 1.27-9.57-13.48-12.78-14.76-3.11-2.45 18.37-9.33 35.79-10.72 54.36-1.52 20.33 5.86 38.14 23.84 48.66 35.85 21 68.37-18.63 89.75-42.18 2.06-2.27 4.16-4.52 6.31-6.72 6.85-6.98-4.28-17.18-11.06-10.24zM172.89 60.15a8.46 8.46 0 11-16.34 4.4l-1.42-5.3a8.46 8.46 0 1116.33-4.4z"/><path class="cls-1" d="M181.63 20.75a28 28 0 10-19.78 34.38 28 28 0 0019.78-34.38zm-22.56 24.07a17.36 17.36 0 1112.24-21.29 17.36 17.36 0 01-12.24 21.29z"/><path class="cls-1" d="M158.85 26.89a4.45 4.45 0 11-5.46-3.13 4.46 4.46 0 015.46 3.13z"/></g></g></svg>