<svg width="1920" height="1129" fill="none" xmlns="http://www.w3.org/2000/svg"><g opacity=".02"><path d="M12.996 997.763c7.177 0 12.996-5.814 12.996-12.987 0-7.172-5.819-12.987-12.996-12.987C5.818 971.789 0 977.604 0 984.776c0 7.173 5.818 12.987 12.996 12.987z" fill="#0098FF" fill-opacity=".5"/><path d="M392.524 417.341c8.689-38.467-15.472-76.689-53.965-85.372-38.493-8.683-76.741 15.461-85.43 53.928-8.689 38.467 15.472 76.69 53.965 85.373 38.493 8.683 76.741-15.462 85.43-53.929z" fill="#005FB2" fill-opacity=".5"/><path d="M363.102 443.133c39.462 0 71.452-31.968 71.452-71.402 0-39.435-31.99-71.403-71.452-71.403-39.461 0-71.451 31.968-71.451 71.403 0 39.434 31.99 71.402 71.451 71.402z" stroke="#1589EE" stroke-opacity=".5" stroke-width="4" stroke-miterlimit="10"/><path d="M1265.64 1010.74c39.46 0 71.45-31.971 71.45-71.405 0-39.435-31.99-71.403-71.45-71.403-39.46 0-71.45 31.968-71.45 71.403 0 39.434 31.99 71.405 71.45 71.405z" fill="#5EB4FF" fill-opacity=".5"/><path d="M1225.36 1040.6c39.46 0 71.45-31.97 71.45-71.4 0-39.435-31.99-71.403-71.45-71.403-39.46 0-71.45 31.968-71.45 71.403 0 39.43 31.99 71.4 71.45 71.4z" stroke="#005FB2" stroke-opacity=".5" stroke-width="4" stroke-miterlimit="10"/><path d="M1225.94 72.845c.4-39.433-31.26-71.723-70.72-72.122-39.46-.4-71.77 31.244-72.17 70.676-.4 39.433 31.26 71.723 70.72 72.122 39.46.399 71.77-31.244 72.17-70.676z" fill="#1589EE" fill-opacity=".5"/><path d="M1114.18 173.386c39.46 0 71.45-31.968 71.45-71.403s-31.99-71.403-71.45-71.403c-39.46 0-71.45 31.968-71.45 71.403s31.99 71.403 71.45 71.403z" stroke="#005FB2" stroke-opacity=".5" stroke-width="4" stroke-miterlimit="10"/><path d="M1348.77 705.555l114.06 113.981 114.06-113.981-114.06-113.982-114.06 113.982zm188.54 0l-74.48 74.435-74.49-74.435 74.49-74.435 74.48 74.435z" fill="#1589EE" fill-opacity=".5"/><path d="M414.409 564.155l114.045 113.981 114.059-113.981-114.059-113.916-114.045 113.916zm188.544 0l-74.499 74.435-74.485-74.435 74.485-74.435 74.499 74.435zm707.067-90.571l56.16 56.125 56.16-56.125-56.16-56.126-56.16 56.126zm92.84 0l-36.68 36.658-36.68-36.658 36.68-36.658 36.68 36.658z" fill="#5EB4FF" fill-opacity=".5"/><path d="M1576.94 1072.87l56.16 56.13 56.17-56.13-56.17-56.13-56.16 56.13zm92.84 0l-36.68 36.65-36.68-36.65 36.68-36.65 36.68 36.65zM273.798 678.136l56.164 56.126 56.163-56.126-56.163-56.125-56.164 56.125zm92.846 0l-36.682 36.658-36.683-36.658 36.683-36.605 36.682 36.605zM1649.94 66.691l-40.99 40.953-40.98-40.953-30.59 30.568 40.98 40.952-40.98 40.965 30.59 30.568 40.98-40.965 40.99 40.965 30.59-30.568-41-40.965 41-40.952-30.59-30.568z" fill="#005FB2" fill-opacity=".5"/><path d="M1649.94 38.557l-40.99 40.952-40.98-40.952-30.59 30.568 40.98 40.952-40.98 40.952 30.59 30.581 40.98-40.965 40.99 40.965 30.59-30.581-41-40.952 41-40.952-30.59-30.568z" stroke="#1589EE" stroke-opacity=".5" stroke-width="4" stroke-miterlimit="10"/><path d="M845.564 217.877l-40.993 40.952-40.98-40.952-30.589 30.568 40.98 40.952-40.98 40.965 30.589 30.568 40.98-40.965 40.993 40.965 30.588-30.568-40.993-40.965 40.993-40.952-30.588-30.568z" fill="#005FB2" fill-opacity=".5"/><path d="M845.564 189.743l-40.993 40.952-40.98-40.952-30.589 30.568 40.98 40.952-40.98 40.965 30.589 30.568 40.98-40.966 40.993 40.966 30.588-30.568-40.993-40.965 40.993-40.952-30.588-30.568z" stroke="#5EB4FF" stroke-opacity=".5" stroke-width="4" stroke-miterlimit="10"/><path d="M558.144 898.161l-40.98 40.966-40.979-40.966-30.589 30.568 40.98 40.965-40.98 40.956 30.589 30.56 40.979-40.95 40.98 40.95 30.602-30.56-40.993-40.956 40.993-40.965-30.602-30.568z" fill="#1589EE" fill-opacity=".5"/><path d="M558.144 928.326l-40.98 40.965-40.979-40.965-30.589 30.567 40.98 40.965-40.98 40.952 30.589 30.57 40.979-40.95 40.98 40.95 30.602-30.57-40.993-40.952 40.993-40.965-30.602-30.567z" stroke="#005FB2" stroke-opacity=".5" stroke-width="4" stroke-miterlimit="10"/><path d="M241.335 138.302c24.741 0 24.741 26.026 49.483 26.026 24.741 0 24.741-26.026 49.483-26.026 24.742 0 24.742 26.026 49.483 26.026 24.742 0 24.742-26.026 49.483-26.026 24.742 0 24.742 26.026 49.484 26.026 24.741 0 24.741-26.026 49.483-26.026 24.741 0 24.741 26.026 49.483 26.026" stroke="#005FB2" stroke-opacity=".5" stroke-width="4" stroke-miterlimit="10" stroke-linecap="round"/><path d="M22.072 813.381c24.742 0 24.742 26.026 49.483 26.026 24.742 0 24.742-26.026 49.483-26.026 24.742 0 24.742 26.026 49.484 26.026 24.741 0 24.741-26.026 49.483-26.026 24.741 0 24.741 26.026 49.483 26.026 24.742 0 24.742-26.026 49.483-26.026 24.742 0 24.742 26.026 49.483 26.026" stroke="#5EB4FF" stroke-opacity=".5" stroke-width="4" stroke-miterlimit="10" stroke-linecap="round"/><path d="M1490.71 486.233c24.74 0 24.74 26.026 49.48 26.026s24.74-26.026 49.48-26.026c24.75 0 24.75 26.026 49.49 26.026 24.74 0 24.74-26.026 49.48-26.026s24.74 26.026 49.48 26.026 24.74-26.026 49.49-26.026c24.74 0 24.74 26.026 49.48 26.026" stroke="#1589EE" stroke-opacity=".5" stroke-width="4" stroke-miterlimit="10" stroke-linecap="round"/><path d="M1105.96 268.16c0 1.2-.35 2.374-1.01 3.374a6.11 6.11 0 01-2.73 2.239 6.076 6.076 0 01-6.62-1.312 6.105 6.105 0 01-1.66-3.108 6.064 6.064 0 015.97-7.244c1.6 0 3.14.637 4.28 1.772a6.07 6.07 0 011.77 4.279zm40.11 0c0 1.197-.36 2.366-1.02 3.362a6.066 6.066 0 01-6.22 2.573 6.092 6.092 0 01-3.1-1.656 6.066 6.066 0 01-1.65-3.099 5.98 5.98 0 01.34-3.496 6.035 6.035 0 012.23-2.716 6.08 6.08 0 013.36-1.019c1.61 0 3.15.637 4.29 1.772a6.07 6.07 0 011.77 4.279zm40.12 0c0 1.2-.35 2.373-1.02 3.372a6.068 6.068 0 01-11-2.171 6.18 6.18 0 01.34-3.506 6.064 6.064 0 012.24-2.723 6.08 6.08 0 017.66.748 6.038 6.038 0 011.78 4.28zm40.17 0c0 1.197-.35 2.366-1.02 3.362a6.013 6.013 0 01-2.72 2.228c-1.1.458-2.32.578-3.49.345a6.013 6.013 0 01-3.1-1.656 6.009 6.009 0 01-1.66-3.099 6.146 6.146 0 01.34-3.496 6.1 6.1 0 012.23-2.716 6.07 6.07 0 017.65.753 6.07 6.07 0 011.77 4.279zm40.05 0c0 1.197-.36 2.366-1.03 3.362a6.04 6.04 0 01-6.21 2.573 6.052 6.052 0 01-3.1-1.656 6.009 6.009 0 01-1.66-3.099 6.065 6.065 0 01.35-3.496 5.972 5.972 0 012.23-2.716 6.032 6.032 0 013.36-1.019c1.61 0 3.15.637 4.28 1.772a6.037 6.037 0 011.78 4.279zm40.12 0c0 1.2-.36 2.373-1.02 3.372a6.085 6.085 0 01-2.72 2.24c-1.11.46-2.33.582-3.51.35a6.062 6.062 0 01-4.43-8.267 6.108 6.108 0 012.23-2.723 6.1 6.1 0 013.38-1.023c1.6 0 3.15.637 4.28 1.771a6.09 6.09 0 011.79 4.28zm40.1 0c0 1.197-.35 2.366-1.02 3.362a6.04 6.04 0 01-6.21 2.573 6.013 6.013 0 01-3.1-1.656 6.009 6.009 0 01-1.66-3.099 6.146 6.146 0 01.34-3.496 6.1 6.1 0 012.23-2.716 6.07 6.07 0 017.65.753 6.028 6.028 0 011.77 4.279zm40.11 0c0 1.197-.35 2.366-1.02 3.362a6.066 6.066 0 01-6.22 2.573 6.092 6.092 0 01-3.1-1.656 6.066 6.066 0 01-1.65-3.099 5.98 5.98 0 01.34-3.496 6.1 6.1 0 012.23-2.716 6.07 6.07 0 017.65.753 6.07 6.07 0 011.77 4.279zm40.16 0c0 1.2-.35 2.373-1.02 3.372a6.068 6.068 0 01-11-2.171 6.18 6.18 0 01.34-3.506 6.064 6.064 0 012.24-2.723 6.08 6.08 0 017.66.748 6.038 6.038 0 011.78 4.28zm-300.61 31.739c0 1.199-.36 2.371-1.02 3.369a6.096 6.096 0 01-2.73 2.233 6.072 6.072 0 01-6.61-1.314 6.027 6.027 0 01-1.66-3.105 6.09 6.09 0 01.35-3.504 5.987 5.987 0 012.23-2.722 6.068 6.068 0 017.66.755 6.055 6.055 0 011.78 4.288zm34.05 6.051c3.35 0 6.06-2.71 6.06-6.052a6.054 6.054 0 00-6.06-6.051 6.052 6.052 0 000 12.103zm40.11 0a6.052 6.052 0 000-12.103c-3.35 0-6.06 2.71-6.06 6.051a6.054 6.054 0 006.06 6.052zm46.17-6.051c0 1.199-.35 2.371-1.02 3.369a6.018 6.018 0 01-2.72 2.233 6.084 6.084 0 01-3.51.345 6.042 6.042 0 01-3.1-1.659 6.116 6.116 0 01-1.67-3.105 6.072 6.072 0 012.59-6.226 6.068 6.068 0 017.66.755 6.045 6.045 0 011.77 4.288zm40.11 0c0 1.199-.35 2.372-1.02 3.37a6.09 6.09 0 01-2.73 2.233 6.05 6.05 0 01-3.5.343 6.078 6.078 0 01-3.11-1.663 6.032 6.032 0 01-1.66-3.108 6.093 6.093 0 01.35-3.505 6.054 6.054 0 012.24-2.719 6.093 6.093 0 015.7-.554c.73.305 1.4.752 1.96 1.315a6.063 6.063 0 011.32 1.968c.3.736.45 1.524.45 2.32zm40.11 0c0 1.196-.36 2.364-1.03 3.358a6.003 6.003 0 01-2.72 2.223c-1.1.456-2.32.574-3.49.339a6.025 6.025 0 01-3.1-1.659 6.082 6.082 0 01-1.66-3.099 6.058 6.058 0 0110.23-5.45 6.035 6.035 0 011.31 1.968c.31.736.46 1.524.46 2.32zm34.06 6.051c3.35 0 6.06-2.71 6.06-6.052a6.054 6.054 0 00-6.06-6.051 6.052 6.052 0 000 12.103zm40.11 0c3.35 0 6.06-2.71 6.06-6.052a6.054 6.054 0 00-6.06-6.051 6.052 6.052 0 000 12.103zm46.17-6.051a6.087 6.087 0 01-1.03 3.358 6.108 6.108 0 01-2.72 2.223 6.073 6.073 0 01-3.5.339 6.104 6.104 0 01-3.1-1.659 6.066 6.066 0 01-1.65-3.099 6.058 6.058 0 018.26-6.765c.74.305 1.4.752 1.97 1.315.56.564 1 1.232 1.31 1.968.3.736.46 1.524.46 2.32z" fill="#005FB2" fill-opacity=".5"/><path d="M632.564 821.827a6.05 6.05 0 01-3.738 5.59 6.06 6.06 0 01-6.598-1.311 6.057 6.057 0 01-1.658-3.099 6.055 6.055 0 012.575-6.212 6.058 6.058 0 019.419 5.032zm34.079 6.051a6.053 6.053 0 006.055-6.051 6.053 6.053 0 00-6.055-6.051 6.053 6.053 0 00-6.055 6.051 6.053 6.053 0 006.055 6.051zm40.107 0a6.053 6.053 0 006.055-6.051 6.053 6.053 0 00-6.055-6.051 6.053 6.053 0 00-6.055 6.051 6.053 6.053 0 006.055 6.051zm46.163-6.051a6.048 6.048 0 01-3.738 5.59 6.065 6.065 0 01-3.499.345 6.048 6.048 0 01-2.182-10.967 6.053 6.053 0 019.419 5.032zm40.107 0a6.055 6.055 0 01-1.02 3.362 6.055 6.055 0 01-6.216 2.573 6.063 6.063 0 01-3.101-1.656 6.047 6.047 0 01.918-9.311 6.056 6.056 0 019.419 5.032zm40.082 0a6.068 6.068 0 11-11.672-2.314 6.065 6.065 0 015.616-3.737 6.056 6.056 0 016.056 6.051zm34.091 6.051a6.053 6.053 0 006.055-6.051 6.053 6.053 0 00-6.055-6.051 6.053 6.053 0 00-6.055 6.051 6.053 6.053 0 006.055 6.051zm40.12 0a6.053 6.053 0 006.055-6.051 6.053 6.053 0 00-6.055-6.051 6.053 6.053 0 00-6.055 6.051 6.053 6.053 0 006.055 6.051zm46.163-6.051a6.06 6.06 0 01-3.74 5.613 6.078 6.078 0 01-6.619-1.312 6.059 6.059 0 01.928-9.336 6.068 6.068 0 013.376-1.016 6.052 6.052 0 016.055 6.051zm-300.571 31.725a6.063 6.063 0 01-3.74 5.613 6.072 6.072 0 01-8.281-4.42 6.065 6.065 0 015.966-7.244 6.072 6.072 0 016.055 6.051zm40.107 0a6.05 6.05 0 01-7.236 5.935 6.056 6.056 0 01-4.758-4.754 6.047 6.047 0 012.575-6.212 6.057 6.057 0 013.364-1.02 6.074 6.074 0 014.278 1.777 6.058 6.058 0 011.777 4.274zm40.108 0a6.051 6.051 0 01-3.738 5.591 6.056 6.056 0 01-8.256-4.41 6.046 6.046 0 012.574-6.212 6.06 6.06 0 013.364-1.02 6.074 6.074 0 014.278 1.777 6.063 6.063 0 011.778 4.274zm40.081 0a6.062 6.062 0 01-3.74 5.613 6.074 6.074 0 01-6.619-1.312 6.056 6.056 0 01.928-9.335 6.074 6.074 0 017.654.76 6.067 6.067 0 011.777 4.274zm40.146 0a6.05 6.05 0 01-7.236 5.935 6.049 6.049 0 01-4.413-8.25 6.048 6.048 0 015.594-3.736 6.074 6.074 0 014.278 1.777 6.058 6.058 0 011.777 4.274zm40.108 0a6.055 6.055 0 11-11.65-2.315 6.057 6.057 0 015.595-3.736 6.067 6.067 0 016.055 6.051zm40.12 0a6.057 6.057 0 01-3.74 5.613 6.07 6.07 0 01-6.619-1.312 6.062 6.062 0 014.304-10.352 6.074 6.074 0 014.278 1.777 6.058 6.058 0 011.777 4.274zm40.108 0a6.055 6.055 0 11-11.65-2.315 6.06 6.06 0 015.595-3.736 6.072 6.072 0 016.055 6.051zm40.055 0a6.05 6.05 0 01-7.236 5.935 6.056 6.056 0 01-4.758-4.754 6.047 6.047 0 012.575-6.212 6.057 6.057 0 013.364-1.02 6.074 6.074 0 014.278 1.777 6.058 6.058 0 011.777 4.274z" fill="#5EB4FF" fill-opacity=".5"/><path d="M1578.79 945.386c0 1.197-.36 2.366-1.02 3.362a6.066 6.066 0 01-6.22 2.573 6.092 6.092 0 01-3.1-1.656 6.082 6.082 0 01-1.66-3.099 6.066 6.066 0 012.58-6.211 6.025 6.025 0 013.36-1.02c1.61.003 3.15.642 4.28 1.776a6.113 6.113 0 011.78 4.275zm40.1 0c0 1.197-.35 2.366-1.02 3.362a6.04 6.04 0 01-6.21 2.573 6.013 6.013 0 01-3.1-1.656 6.009 6.009 0 01-1.66-3.099 6.066 6.066 0 01.35-3.496 5.964 5.964 0 012.23-2.715 6.025 6.025 0 013.36-1.02c1.6.003 3.14.642 4.28 1.776a6.06 6.06 0 011.77 4.275zm40.13 0c0 1.2-.36 2.373-1.02 3.372a6.085 6.085 0 01-2.72 2.24 6.077 6.077 0 01-6.62-1.307 6.016 6.016 0 01-1.66-3.104 6.013 6.013 0 01.34-3.506 6.113 6.113 0 012.23-2.723 6.1 6.1 0 013.38-1.023c1.6 0 3.15.637 4.28 1.771a6.09 6.09 0 011.79 4.28zm40.1 0c0 1.197-.35 2.366-1.02 3.362a6.013 6.013 0 01-2.72 2.228c-1.1.458-2.32.578-3.49.345a6.013 6.013 0 01-3.1-1.656 6.009 6.009 0 01-1.66-3.099 5.98 5.98 0 01.34-3.496 6.092 6.092 0 012.23-2.715c1-.665 2.17-1.02 3.37-1.02 1.6.003 3.14.642 4.28 1.776a6.06 6.06 0 011.77 4.275zm40.11 0c0 1.197-.36 2.366-1.02 3.362a6.066 6.066 0 01-6.22 2.573 6.092 6.092 0 01-3.1-1.656 6.066 6.066 0 01-1.65-3.099 5.98 5.98 0 01.34-3.496 6.027 6.027 0 012.23-2.715c1-.665 2.17-1.02 3.36-1.02 1.61.003 3.15.642 4.28 1.776a6.028 6.028 0 011.78 4.275zm40.12 0c0 1.2-.35 2.373-1.02 3.372a6.032 6.032 0 01-2.72 2.24 6.052 6.052 0 01-3.5.35 6.054 6.054 0 01-3.11-1.657 6.105 6.105 0 01-1.67-3.104 6.18 6.18 0 01.34-3.506 6.07 6.07 0 012.24-2.723 6.08 6.08 0 017.66.748 6.038 6.038 0 011.78 4.28zm40.11 0c0 1.197-.36 2.366-1.02 3.362a6.066 6.066 0 01-6.22 2.573 6.092 6.092 0 01-3.1-1.656 6.082 6.082 0 01-1.66-3.099 6.066 6.066 0 012.58-6.211 6.049 6.049 0 017.64.756 6.07 6.07 0 011.78 4.275zm40.11 0c0 1.197-.36 2.366-1.03 3.362a6.04 6.04 0 01-6.21 2.573 6.052 6.052 0 01-3.1-1.656 6.009 6.009 0 01-1.66-3.099 6.066 6.066 0 01.35-3.496 5.964 5.964 0 012.23-2.715 6.025 6.025 0 013.36-1.02c1.6.003 3.14.642 4.28 1.776a6.113 6.113 0 011.78 4.275zm40.12 0c0 1.2-.36 2.373-1.02 3.372a6.085 6.085 0 01-2.72 2.24 6.077 6.077 0 01-6.62-1.307 6.016 6.016 0 01-1.66-3.104 6.013 6.013 0 01.34-3.506 6.113 6.113 0 012.23-2.723 6.1 6.1 0 013.38-1.023c1.6 0 3.15.637 4.28 1.771a6.09 6.09 0 011.79 4.28zm-300.58 31.738a6.039 6.039 0 01-3.73 5.612 6.077 6.077 0 01-6.62-1.306 6.019 6.019 0 01-1.66-3.105 6.01 6.01 0 01.34-3.505 6.116 6.116 0 012.23-2.724 6.07 6.07 0 017.66.749 6.034 6.034 0 011.78 4.279zm34.06 6.051a6.051 6.051 0 000-12.102 6.053 6.053 0 00-6.06 6.051 6.053 6.053 0 006.06 6.051zm40.1 0c3.35 0 6.06-2.709 6.06-6.051a6.053 6.053 0 00-6.06-6.051 6.051 6.051 0 000 12.102zm46.18-6.051c0 1.2-.35 2.374-1.02 3.373a6.03 6.03 0 01-2.72 2.239 6.06 6.06 0 01-6.61-1.306 6.108 6.108 0 01-1.67-3.105 6.093 6.093 0 01.34-3.505 6.072 6.072 0 012.24-2.724 6.068 6.068 0 017.66.749 6.034 6.034 0 011.78 4.279zm40.11 0a6.09 6.09 0 01-1.02 3.362 6.068 6.068 0 01-6.22 2.573 6.084 6.084 0 01-3.1-1.656 6.075 6.075 0 01-1.66-3.098 6.064 6.064 0 015.94-7.232c1.61 0 3.15.638 4.28 1.773a6.033 6.033 0 011.78 4.278zm40.1 0a6.01 6.01 0 01-1.02 3.362 6.042 6.042 0 01-6.21 2.573 6.006 6.006 0 01-3.1-1.656 6.002 6.002 0 01-1.66-3.098 6.064 6.064 0 01.35-3.496 5.972 5.972 0 012.23-2.716 6.025 6.025 0 013.36-1.02c1.61 0 3.15.638 4.28 1.773a6.024 6.024 0 011.77 4.278zm34.07 6.051c3.34 0 6.06-2.709 6.06-6.051s-2.72-6.051-6.06-6.051c-3.34 0-6.06 2.709-6.06 6.051s2.72 6.051 6.06 6.051zm40.11 0a6.051 6.051 0 000-12.102 6.053 6.053 0 00-6.06 6.051 6.053 6.053 0 006.06 6.051zm46.16-6.051a6.09 6.09 0 01-1.02 3.362 6.068 6.068 0 01-6.22 2.573 6.084 6.084 0 01-3.1-1.656 6.06 6.06 0 01-1.65-3.098 5.979 5.979 0 01.34-3.496 6.1 6.1 0 012.23-2.716c1-.665 2.17-1.02 3.36-1.02 1.61 0 3.15.638 4.29 1.773a6.066 6.066 0 011.77 4.278z" fill="#1589EE" fill-opacity=".5"/><path d="M15.704 1038.94c0 1.6-.637 3.14-1.772 4.28a6.042 6.042 0 01-8.565 0 6.07 6.07 0 01-1.773-4.28c0-1.61.638-3.15 1.774-4.28a6.033 6.033 0 014.281-1.77c1.606 0 3.146.63 4.282 1.77a6.034 6.034 0 011.773 4.28zm40.121 0c0 1.61-.64 3.15-1.778 4.28a6.062 6.062 0 01-4.29 1.78 6.042 6.042 0 01-4.283-1.78 6.07 6.07 0 01-1.772-4.28c0-.8.156-1.58.46-2.32a6.061 6.061 0 013.277-3.27 5.95 5.95 0 012.318-.46c1.607 0 3.148.63 4.286 1.77a6.048 6.048 0 011.782 4.28zm40.107 0c0 1.6-.637 3.14-1.773 4.28a6.042 6.042 0 01-4.282 1.78c-1.61 0-3.153-.64-4.29-1.78a6.028 6.028 0 01-1.778-4.28 6.048 6.048 0 011.782-4.28 6.046 6.046 0 014.286-1.77c1.606 0 3.146.63 4.282 1.77a6.035 6.035 0 011.773 4.28zm40.108 0c0 1.6-.638 3.14-1.773 4.28a6.04 6.04 0 01-8.565 0 6.071 6.071 0 01-1.773-4.28c0-1.61.638-3.15 1.774-4.28a6.033 6.033 0 014.282-1.77c1.605 0 3.146.63 4.281 1.77a6.033 6.033 0 011.774 4.28zm40.12 0c0 .79-.157 1.58-.462 2.32-.305.73-.752 1.4-1.315 1.96a6.067 6.067 0 01-1.969 1.32c-.736.3-1.525.46-2.322.46a6.067 6.067 0 01-6.055-6.06c0-1.61.638-3.15 1.773-4.28a6.035 6.035 0 014.282-1.77c1.607 0 3.149.63 4.286 1.77a6.045 6.045 0 011.782 4.28zm40.108 0a6.055 6.055 0 01-1.018 3.37 6.056 6.056 0 01-2.722 2.24c-1.11.46-2.331.58-3.509.35a6.062 6.062 0 01-4.423-8.28 6.048 6.048 0 015.616-3.73c1.605 0 3.143.64 4.278 1.77a6.076 6.076 0 011.778 4.28zm40.107 0c0 1.19-.355 2.36-1.02 3.36a6.11 6.11 0 01-2.718 2.23 6.068 6.068 0 01-3.498.34 6.068 6.068 0 01-3.101-1.65 6.05 6.05 0 01-1.312-6.6 6.038 6.038 0 012.23-2.71 6.017 6.017 0 013.364-1.02c1.605 0 3.143.64 4.278 1.77a6.075 6.075 0 011.777 4.28zm40.12 0a6.053 6.053 0 01-1.016 3.37 6.056 6.056 0 01-2.72 2.24c-1.109.46-2.33.58-3.508.35a6.082 6.082 0 01-4.774-4.76 6.061 6.061 0 015.95-7.25c1.607 0 3.149.63 4.287 1.77a6.048 6.048 0 011.781 4.28zm40.108 0a6.062 6.062 0 01-3.74 5.61 6.108 6.108 0 01-3.509.35 6.062 6.062 0 01-4.423-8.28 6.044 6.044 0 015.617-3.73c1.605 0 3.143.64 4.278 1.77a6.079 6.079 0 011.777 4.28zm-306.627 37.79a6.056 6.056 0 100-12.109 6.056 6.056 0 000 12.109zm46.163-6.05c0 1.6-.638 3.14-1.773 4.27a6.043 6.043 0 01-8.564 0 6.029 6.029 0 01-1.773-4.27c0-1.61.638-3.15 1.773-4.28a6.043 6.043 0 018.563 0 6.035 6.035 0 011.774 4.28zm40.107 0c0 1.6-.638 3.14-1.773 4.27a6.04 6.04 0 01-8.563 0 6.027 6.027 0 01-1.774-4.27c0-1.61.638-3.15 1.774-4.28a6.04 6.04 0 018.563 0 6.036 6.036 0 011.773 4.28zm40.121 0c0 1.6-.638 3.14-1.774 4.27a6.04 6.04 0 01-4.281 1.78 6.09 6.09 0 01-4.287-1.77 6.089 6.089 0 01-1.782-4.28 6.053 6.053 0 011.782-4.28 6.058 6.058 0 014.287-1.78 6.04 6.04 0 014.281 1.78 6.033 6.033 0 011.774 4.28zm34.052 6.05a6.056 6.056 0 10-.001-12.109 6.056 6.056 0 00.001 12.109zm40.121 0a6.056 6.056 0 10-.001-12.109 6.056 6.056 0 00.001 12.109zm46.162-6.05a6.059 6.059 0 01-3.74 5.61c-1.109.46-2.33.58-3.509.35a6.06 6.06 0 01-4.771-4.77 6.068 6.068 0 01.348-3.51 6.08 6.08 0 012.241-2.72c1-.66 2.175-1.02 3.376-1.02 1.606 0 3.146.64 4.282 1.78a6.036 6.036 0 011.773 4.28zm40.108 0c0 1.19-.355 2.36-1.021 3.36a6.103 6.103 0 01-2.717 2.23 6.156 6.156 0 01-3.499.34 6.012 6.012 0 01-3.1-1.66 6.01 6.01 0 01-1.657-3.09 6.058 6.058 0 015.938-7.24c.796 0 1.583.16 2.318.47.734.3 1.402.74 1.964 1.31a6.04 6.04 0 011.774 4.28zm40.12 0a6.059 6.059 0 01-3.737 5.61 6.101 6.101 0 01-3.507.35 6.084 6.084 0 01-4.775-4.76 6.075 6.075 0 01.343-3.51 6.015 6.015 0 012.235-2.72 6.053 6.053 0 013.373-1.03c1.607 0 3.148.64 4.286 1.78a6.045 6.045 0 011.782 4.28z" fill="#005FB2" fill-opacity=".5"/></g></svg>