<svg width="450" height="450" viewBox="0 0 450 450" fill="none" xmlns="http://www.w3.org/2000/svg">
<g clip-path="url(#clip0)">
<path d="M427.042 40.0833H0.125V450H427.042V40.0833Z" fill="#00FFFF"/>
<path d="M449.917 0H20.625V409.417H449.917V0Z" fill="#EC008C"/>
<path d="M427.042 401.458H404.458V424.042H427.042V401.458Z" fill="black"/>
<path d="M427.042 378.875H404.458V401.458H427.042V378.875Z" fill="black"/>
<path d="M427.042 356.292H404.458V378.875H427.042V356.292Z" fill="black"/>
<path d="M427.042 333.708H404.458V356.292H427.042V333.708Z" fill="black"/>
<path d="M427.042 311.125H404.458V333.708H427.042V311.125Z" fill="black"/>
<path d="M427.042 288.583H404.458V311.167H427.042V288.583Z" fill="black"/>
<path d="M427.042 266H404.458V288.583H427.042V266Z" fill="black"/>
<path d="M427.042 243.417H404.458V266H427.042V243.417Z" fill="black"/>
<path d="M427.042 220.833H404.458V243.417H427.042V220.833Z" fill="black"/>
<path d="M427.042 198.25H404.458V220.833H427.042V198.25Z" fill="black"/>
<path d="M427.042 175.667H404.458V198.25H427.042V175.667Z" fill="black"/>
<path d="M427.042 153.083H404.458V175.667H427.042V153.083Z" fill="black"/>
<path d="M427.042 130.5H404.458V153.083H427.042V130.5Z" fill="black"/>
<path d="M427.042 107.958H404.458V130.542H427.042V107.958Z" fill="black"/>
<path d="M427.042 85.375H404.458V107.958H427.042V85.375Z" fill="black"/>
<path d="M427.042 62.7917H404.458V85.375H427.042V62.7917Z" fill="black"/>
<path d="M427.042 40.2083H404.458V62.7916H427.042V40.2083Z" fill="black"/>
<path d="M427.042 17.625H404.458V40.2083H427.042V17.625Z" fill="black"/>
<path d="M404.458 401.458H381.875V424.042H404.458V401.458Z" fill="white"/>
<path d="M404.458 378.875H381.875V401.458H404.458V378.875Z" fill="black"/>
<path d="M404.458 356.292H381.875V378.875H404.458V356.292Z" fill="black"/>
<path d="M404.458 333.708H381.875V356.292H404.458V333.708Z" fill="black"/>
<path d="M404.458 311.125H381.875V333.708H404.458V311.125Z" fill="black"/>
<path d="M404.458 288.583H381.875V311.167H404.458V288.583Z" fill="black"/>
<path d="M404.458 266H381.875V288.583H404.458V266Z" fill="white"/>
<path d="M404.458 243.417H381.875V266H404.458V243.417Z" fill="white"/>
<path d="M404.458 220.833H381.875V243.417H404.458V220.833Z" fill="black"/>
<path d="M404.458 198.25H381.875V220.833H404.458V198.25Z" fill="black"/>
<path d="M404.458 175.667H381.875V198.25H404.458V175.667Z" fill="black"/>
<path d="M404.458 153.083H381.875V175.667H404.458V153.083Z" fill="black"/>
<path d="M404.458 130.5H381.875V153.083H404.458V130.5Z" fill="black"/>
<path d="M404.458 107.958H381.875V130.542H404.458V107.958Z" fill="black"/>
<path d="M404.458 85.375H381.875V107.958H404.458V85.375Z" fill="black"/>
<path d="M404.458 62.7917H381.875V85.375H404.458V62.7917Z" fill="black"/>
<path d="M404.458 40.2083H381.875V62.7916H404.458V40.2083Z" fill="black"/>
<path d="M404.458 17.625H381.875V40.2083H404.458V17.625Z" fill="black"/>
<path d="M381.875 401.458H359.292V424.042H381.875V401.458Z" fill="white"/>
<path d="M381.875 378.875H359.292V401.458H381.875V378.875Z" fill="black"/>
<path d="M381.875 356.292H359.292V378.875H381.875V356.292Z" fill="black"/>
<path d="M381.875 333.708H359.292V356.292H381.875V333.708Z" fill="black"/>
<path d="M381.875 311.125H359.292V333.708H381.875V311.125Z" fill="white"/>
<path d="M381.875 288.583H359.292V311.167H381.875V288.583Z" fill="black"/>
<path d="M381.875 266H359.292V288.583H381.875V266Z" fill="black"/>
<path d="M381.875 243.417H359.292V266H381.875V243.417Z" fill="black"/>
<path d="M381.875 220.833H359.292V243.417H381.875V220.833Z" fill="black"/>
<path d="M381.875 198.25H359.292V220.833H381.875V198.25Z" fill="black"/>
<path d="M381.875 175.667H359.292V198.25H381.875V175.667Z" fill="black"/>
<path d="M381.875 153.083H359.292V175.667H381.875V153.083Z" fill="white"/>
<path d="M381.875 130.5H359.292V153.083H381.875V130.5Z" fill="black"/>
<path d="M381.875 107.958H359.292V130.542H381.875V107.958Z" fill="black"/>
<path d="M381.875 85.375H359.292V107.958H381.875V85.375Z" fill="black"/>
<path d="M381.875 62.7917H359.292V85.375H381.875V62.7917Z" fill="black"/>
<path d="M381.875 40.2083H359.292V62.7916H381.875V40.2083Z" fill="white"/>
<path d="M381.875 17.625H359.292V40.2083H381.875V17.625Z" fill="black"/>
<path d="M359.292 401.458H336.708V424.042H359.292V401.458Z" fill="black"/>
<path d="M359.292 378.875H336.708V401.458H359.292V378.875Z" fill="black"/>
<path d="M359.292 356.292H336.708V378.875H359.292V356.292Z" fill="black"/>
<path d="M359.292 333.708H336.708V356.292H359.292V333.708Z" fill="black"/>
<path d="M359.292 311.125H336.708V333.708H359.292V311.125Z" fill="black"/>
<path d="M359.292 288.583H336.708V311.167H359.292V288.583Z" fill="black"/>
<path d="M359.292 266H336.708V288.583H359.292V266Z" fill="black"/>
<path d="M359.292 243.417H336.708V266H359.292V243.417Z" fill="black"/>
<path d="M359.292 220.833H336.708V243.417H359.292V220.833Z" fill="black"/>
<path d="M359.292 198.25H336.708V220.833H359.292V198.25Z" fill="black"/>
<path d="M359.292 175.667H336.708V198.25H359.292V175.667Z" fill="black"/>
<path d="M359.292 153.083H336.708V175.667H359.292V153.083Z" fill="white"/>
<path d="M359.292 130.5H336.708V153.083H359.292V130.5Z" fill="white"/>
<path d="M359.292 107.958H336.708V130.542H359.292V107.958Z" fill="white"/>
<path d="M359.292 85.375H336.708V107.958H359.292V85.375Z" fill="black"/>
<path d="M359.292 62.7917H336.708V85.375H359.292V62.7917Z" fill="black"/>
<path d="M359.292 40.2083H336.708V62.7916H359.292V40.2083Z" fill="black"/>
<path d="M359.292 17.625H336.708V40.2083H359.292V17.625Z" fill="black"/>
<path d="M336.708 401.458H314.125V424.042H336.708V401.458Z" fill="black"/>
<path d="M336.708 378.875H314.125V401.458H336.708V378.875Z" fill="black"/>
<path d="M336.708 356.292H314.125V378.875H336.708V356.292Z" fill="black"/>
<path d="M336.708 333.708H314.125V356.292H336.708V333.708Z" fill="black"/>
<path d="M336.708 311.125H314.125V333.708H336.708V311.125Z" fill="black"/>
<path d="M336.708 288.583H314.125V311.167H336.708V288.583Z" fill="black"/>
<path d="M336.708 266H314.125V288.583H336.708V266Z" fill="black"/>
<path d="M336.708 243.417H314.125V266H336.708V243.417Z" fill="black"/>
<path d="M336.708 220.833H314.125V243.417H336.708V220.833Z" fill="black"/>
<path d="M336.708 198.25H314.125V220.833H336.708V198.25Z" fill="white"/>
<path d="M336.708 175.667H314.125V198.25H336.708V175.667Z" fill="black"/>
<path d="M336.708 153.083H314.125V175.667H336.708V153.083Z" fill="black"/>
<path d="M336.708 130.5H314.125V153.083H336.708V130.5Z" fill="white"/>
<path d="M336.708 107.958H314.125V130.542H336.708V107.958Z" fill="white"/>
<path d="M336.708 85.375H314.125V107.958H336.708V85.375Z" fill="black"/>
<path d="M336.708 62.7917H314.125V85.375H336.708V62.7917Z" fill="black"/>
<path d="M336.708 40.2083H314.125V62.7916H336.708V40.2083Z" fill="black"/>
<path d="M336.708 17.625H314.125V40.2083H336.708V17.625Z" fill="black"/>
<path d="M314.167 401.458H291.583V424.042H314.167V401.458Z" fill="black"/>
<path d="M314.167 378.875H291.583V401.458H314.167V378.875Z" fill="black"/>
<path d="M314.167 356.292H291.583V378.875H314.167V356.292Z" fill="black"/>
<path d="M314.167 333.708H291.583V356.292H314.167V333.708Z" fill="black"/>
<path d="M314.167 311.125H291.583V333.708H314.167V311.125Z" fill="black"/>
<path d="M314.167 288.583H291.583V311.167H314.167V288.583Z" fill="black"/>
<path d="M314.167 266H291.583V288.583H314.167V266Z" fill="black"/>
<path d="M314.167 243.417H291.583V266H314.167V243.417Z" fill="black"/>
<path d="M314.167 220.833H291.583V243.417H314.167V220.833Z" fill="black"/>
<path d="M314.167 198.25H291.583V220.833H314.167V198.25Z" fill="black"/>
<path d="M314.167 175.667H291.583V198.25H314.167V175.667Z" fill="black"/>
<path d="M314.167 153.083H291.583V175.667H314.167V153.083Z" fill="black"/>
<path d="M314.167 130.5H291.583V153.083H314.167V130.5Z" fill="black"/>
<path d="M314.167 107.958H291.583V130.542H314.167V107.958Z" fill="white"/>
<path d="M314.167 85.375H291.583V107.958H314.167V85.375Z" fill="white"/>
<path d="M314.167 62.7917H291.583V85.375H314.167V62.7917Z" fill="black"/>
<path d="M314.167 40.2083H291.583V62.7916H314.167V40.2083Z" fill="black"/>
<path d="M314.167 17.625H291.583V40.2083H314.167V17.625Z" fill="black"/>
<path d="M291.583 401.458H269V424.042H291.583V401.458Z" fill="black"/>
<path d="M291.583 378.875H269V401.458H291.583V378.875Z" fill="black"/>
<path d="M291.583 356.292H269V378.875H291.583V356.292Z" fill="black"/>
<path d="M291.583 333.708H269V356.292H291.583V333.708Z" fill="black"/>
<path d="M291.583 311.125H269V333.708H291.583V311.125Z" fill="black"/>
<path d="M291.583 288.583H269V311.167H291.583V288.583Z" fill="black"/>
<path d="M291.583 266H269V288.583H291.583V266Z" fill="black"/>
<path d="M291.583 243.417H269V266H291.583V243.417Z" fill="white"/>
<path d="M291.583 220.833H269V243.417H291.583V220.833Z" fill="white"/>
<path d="M291.583 198.25H269V220.833H291.583V198.25Z" fill="white"/>
<path d="M291.583 175.667H269V198.25H291.583V175.667Z" fill="white"/>
<path d="M291.583 153.083H269V175.667H291.583V153.083Z" fill="white"/>
<path d="M291.583 130.5H269V153.083H291.583V130.5Z" fill="white"/>
<path d="M291.583 107.958H269V130.542H291.583V107.958Z" fill="white"/>
<path d="M291.583 85.375H269V107.958H291.583V85.375Z" fill="white"/>
<path d="M291.583 62.7917H269V85.375H291.583V62.7917Z" fill="white"/>
<path d="M291.583 40.2083H269V62.7916H291.583V40.2083Z" fill="black"/>
<path d="M291.583 17.625H269V40.2083H291.583V17.625Z" fill="black"/>
<path d="M269 401.458H246.417V424.042H269V401.458Z" fill="black"/>
<path d="M269 378.875H246.417V401.458H269V378.875Z" fill="black"/>
<path d="M269 356.292H246.417V378.875H269V356.292Z" fill="black"/>
<path d="M269 333.708H246.417V356.292H269V333.708Z" fill="black"/>
<path d="M269 311.125H246.417V333.708H269V311.125Z" fill="black"/>
<path d="M269 288.583H246.417V311.167H269V288.583Z" fill="black"/>
<path d="M269 266H246.417V288.583H269V266Z" fill="white"/>
<path d="M269 243.417H246.417V266H269V243.417Z" fill="white"/>
<path d="M269 220.833H246.417V243.417H269V220.833Z" fill="white"/>
<path d="M269 198.25H246.417V220.833H269V198.25Z" fill="white"/>
<path d="M269 175.667H246.417V198.25H269V175.667Z" fill="white"/>
<path d="M269 153.083H246.417V175.667H269V153.083Z" fill="white"/>
<path d="M269 130.5H246.417V153.083H269V130.5Z" fill="white"/>
<path d="M269 107.958H246.417V130.542H269V107.958Z" fill="white"/>
<path d="M269 85.375H246.417V107.958H269V85.375Z" fill="black"/>
<path d="M269 62.7917H246.417V85.375H269V62.7917Z" fill="white"/>
<path d="M269 40.2083H246.417V62.7916H269V40.2083Z" fill="white"/>
<path d="M269 17.625H246.417V40.2083H269V17.625Z" fill="black"/>
<path d="M246.417 401.458H223.833V424.042H246.417V401.458Z" fill="black"/>
<path d="M246.417 378.875H223.833V401.458H246.417V378.875Z" fill="black"/>
<path d="M246.417 356.292H223.833V378.875H246.417V356.292Z" fill="black"/>
<path d="M246.417 333.708H223.833V356.292H246.417V333.708Z" fill="black"/>
<path d="M246.417 311.125H223.833V333.708H246.417V311.125Z" fill="black"/>
<path d="M246.417 288.583H223.833V311.167H246.417V288.583Z" fill="white"/>
<path d="M246.417 266H223.833V288.583H246.417V266Z" fill="white"/>
<path d="M246.417 243.417H223.833V266H246.417V243.417Z" fill="white"/>
<path d="M246.417 220.833H223.833V243.417H246.417V220.833Z" fill="black"/>
<path d="M246.417 198.25H223.833V220.833H246.417V198.25Z" fill="white"/>
<path d="M246.417 175.667H223.833V198.25H246.417V175.667Z" fill="black"/>
<path d="M246.417 153.083H223.833V175.667H246.417V153.083Z" fill="black"/>
<path d="M246.417 130.5H223.833V153.083H246.417V130.5Z" fill="black"/>
<path d="M246.417 107.958H223.833V130.542H246.417V107.958Z" fill="black"/>
<path d="M246.417 85.375H223.833V107.958H246.417V85.375Z" fill="black"/>
<path d="M246.417 62.7917H223.833V85.375H246.417V62.7917Z" fill="black"/>
<path d="M246.417 40.2083H223.833V62.7916H246.417V40.2083Z" fill="black"/>
<path d="M246.417 17.625H223.833V40.2083H246.417V17.625Z" fill="black"/>
<path d="M223.833 401.458H201.25V424.042H223.833V401.458Z" fill="white"/>
<path d="M223.833 378.875H201.25V401.458H223.833V378.875Z" fill="black"/>
<path d="M223.833 356.292H201.25V378.875H223.833V356.292Z" fill="black"/>
<path d="M223.833 333.708H201.25V356.292H223.833V333.708Z" fill="black"/>
<path d="M223.833 311.125H201.25V333.708H223.833V311.125Z" fill="black"/>
<path d="M223.833 288.583H201.25V311.167H223.833V288.583Z" fill="white"/>
<path d="M223.833 266H201.25V288.583H223.833V266Z" fill="white"/>
<path d="M223.833 243.417H201.25V266H223.833V243.417Z" fill="black"/>
<path d="M223.833 220.833H201.25V243.417H223.833V220.833Z" fill="black"/>
<path d="M223.833 198.25H201.25V220.833H223.833V198.25Z" fill="black"/>
<path d="M223.833 175.667H201.25V198.25H223.833V175.667Z" fill="black"/>
<path d="M223.833 153.083H201.25V175.667H223.833V153.083Z" fill="white"/>
<path d="M223.833 130.5H201.25V153.083H223.833V130.5Z" fill="white"/>
<path d="M223.833 107.958H201.25V130.542H223.833V107.958Z" fill="black"/>
<path d="M223.833 85.375H201.25V107.958H223.833V85.375Z" fill="black"/>
<path d="M223.833 62.7917H201.25V85.375H223.833V62.7917Z" fill="black"/>
<path d="M223.833 40.2083H201.25V62.7916H223.833V40.2083Z" fill="black"/>
<path d="M223.833 17.625H201.25V40.2083H223.833V17.625Z" fill="black"/>
<path d="M201.25 401.458H178.667V424.042H201.25V401.458Z" fill="black"/>
<path d="M201.25 378.875H178.667V401.458H201.25V378.875Z" fill="black"/>
<path d="M201.25 356.292H178.667V378.875H201.25V356.292Z" fill="black"/>
<path d="M201.25 333.708H178.667V356.292H201.25V333.708Z" fill="black"/>
<path d="M201.25 311.125H178.667V333.708H201.25V311.125Z" fill="black"/>
<path d="M201.25 288.583H178.667V311.167H201.25V288.583Z" fill="white"/>
<path d="M201.25 266H178.667V288.583H201.25V266Z" fill="white"/>
<path d="M201.25 243.417H178.667V266H201.25V243.417Z" fill="black"/>
<path d="M201.25 220.833H178.667V243.417H201.25V220.833Z" fill="black"/>
<path d="M201.25 198.25H178.667V220.833H201.25V198.25Z" fill="black"/>
<path d="M201.25 175.667H178.667V198.25H201.25V175.667Z" fill="white"/>
<path d="M201.25 153.083H178.667V175.667H201.25V153.083Z" fill="white"/>
<path d="M201.25 130.5H178.667V153.083H201.25V130.5Z" fill="white"/>
<path d="M201.25 107.958H178.667V130.542H201.25V107.958Z" fill="black"/>
<path d="M201.25 85.375H178.667V107.958H201.25V85.375Z" fill="black"/>
<path d="M201.25 62.7917H178.667V85.375H201.25V62.7917Z" fill="black"/>
<path d="M201.25 40.2083H178.667V62.7916H201.25V40.2083Z" fill="black"/>
<path d="M201.25 17.625H178.667V40.2083H201.25V17.625Z" fill="white"/>
<path d="M178.667 401.458H156.083V424.042H178.667V401.458Z" fill="black"/>
<path d="M178.667 378.875H156.083V401.458H178.667V378.875Z" fill="black"/>
<path d="M178.667 356.292H156.083V378.875H178.667V356.292Z" fill="black"/>
<path d="M178.667 333.708H156.083V356.292H178.667V333.708Z" fill="black"/>
<path d="M178.667 311.125H156.083V333.708H178.667V311.125Z" fill="black"/>
<path d="M178.667 288.583H156.083V311.167H178.667V288.583Z" fill="white"/>
<path d="M178.667 266H156.083V288.583H178.667V266Z" fill="white"/>
<path d="M178.667 243.417H156.083V266H178.667V243.417Z" fill="white"/>
<path d="M178.667 220.833H156.083V243.417H178.667V220.833Z" fill="black"/>
<path d="M178.667 198.25H156.083V220.833H178.667V198.25Z" fill="white"/>
<path d="M178.667 175.667H156.083V198.25H178.667V175.667Z" fill="black"/>
<path d="M178.667 153.083H156.083V175.667H178.667V153.083Z" fill="white"/>
<path d="M178.667 130.5H156.083V153.083H178.667V130.5Z" fill="black"/>
<path d="M178.667 107.958H156.083V130.542H178.667V107.958Z" fill="black"/>
<path d="M178.667 85.375H156.083V107.958H178.667V85.375Z" fill="white"/>
<path d="M178.667 62.7917H156.083V85.375H178.667V62.7917Z" fill="black"/>
<path d="M178.667 40.2083H156.083V62.7916H178.667V40.2083Z" fill="black"/>
<path d="M178.667 17.625H156.083V40.2083H178.667V17.625Z" fill="black"/>
<path d="M156.083 401.458H133.5V424.042H156.083V401.458Z" fill="black"/>
<path d="M156.083 378.875H133.5V401.458H156.083V378.875Z" fill="black"/>
<path d="M156.083 356.292H133.5V378.875H156.083V356.292Z" fill="black"/>
<path d="M156.083 333.708H133.5V356.292H156.083V333.708Z" fill="black"/>
<path d="M156.083 311.125H133.5V333.708H156.083V311.125Z" fill="black"/>
<path d="M156.083 288.583H133.5V311.167H156.083V288.583Z" fill="black"/>
<path d="M156.083 266H133.5V288.583H156.083V266Z" fill="white"/>
<path d="M156.083 243.417H133.5V266H156.083V243.417Z" fill="white"/>
<path d="M156.083 220.833H133.5V243.417H156.083V220.833Z" fill="white"/>
<path d="M156.083 198.25H133.5V220.833H156.083V198.25Z" fill="white"/>
<path d="M156.083 175.667H133.5V198.25H156.083V175.667Z" fill="white"/>
<path d="M156.083 153.083H133.5V175.667H156.083V153.083Z" fill="black"/>
<path d="M156.083 130.5H133.5V153.083H156.083V130.5Z" fill="black"/>
<path d="M156.083 107.958H133.5V130.542H156.083V107.958Z" fill="black"/>
<path d="M156.083 85.375H133.5V107.958H156.083V85.375Z" fill="black"/>
<path d="M156.083 62.7917H133.5V85.375H156.083V62.7917Z" fill="black"/>
<path d="M156.083 40.2083H133.5V62.7916H156.083V40.2083Z" fill="black"/>
<path d="M156.083 17.625H133.5V40.2083H156.083V17.625Z" fill="black"/>
<path d="M133.542 401.458H110.958V424.042H133.542V401.458Z" fill="black"/>
<path d="M133.542 378.875H110.958V401.458H133.542V378.875Z" fill="black"/>
<path d="M133.542 356.292H110.958V378.875H133.542V356.292Z" fill="black"/>
<path d="M133.542 333.708H110.958V356.292H133.542V333.708Z" fill="black"/>
<path d="M133.542 311.125H110.958V333.708H133.542V311.125Z" fill="black"/>
<path d="M133.542 288.583H110.958V311.167H133.542V288.583Z" fill="black"/>
<path d="M133.542 266H110.958V288.583H133.542V266Z" fill="black"/>
<path d="M133.542 243.417H110.958V266H133.542V243.417Z" fill="white"/>
<path d="M133.542 220.833H110.958V243.417H133.542V220.833Z" fill="white"/>
<path d="M133.542 198.25H110.958V220.833H133.542V198.25Z" fill="white"/>
<path d="M133.542 175.667H110.958V198.25H133.542V175.667Z" fill="black"/>
<path d="M133.542 153.083H110.958V175.667H133.542V153.083Z" fill="black"/>
<path d="M133.542 130.5H110.958V153.083H133.542V130.5Z" fill="black"/>
<path d="M133.542 107.958H110.958V130.542H133.542V107.958Z" fill="black"/>
<path d="M133.542 85.375H110.958V107.958H133.542V85.375Z" fill="black"/>
<path d="M133.542 62.7917H110.958V85.375H133.542V62.7917Z" fill="black"/>
<path d="M133.542 40.2083H110.958V62.7916H133.542V40.2083Z" fill="black"/>
<path d="M133.542 17.625H110.958V40.2083H133.542V17.625Z" fill="black"/>
<path d="M110.958 401.458H88.375V424.042H110.958V401.458Z" fill="black"/>
<path d="M110.958 378.875H88.375V401.458H110.958V378.875Z" fill="black"/>
<path d="M110.958 356.292H88.375V378.875H110.958V356.292Z" fill="black"/>
<path d="M110.958 333.708H88.375V356.292H110.958V333.708Z" fill="black"/>
<path d="M110.958 311.125H88.375V333.708H110.958V311.125Z" fill="black"/>
<path d="M110.958 288.583H88.375V311.167H110.958V288.583Z" fill="black"/>
<path d="M110.958 266H88.375V288.583H110.958V266Z" fill="black"/>
<path d="M110.958 243.417H88.375V266H110.958V243.417Z" fill="black"/>
<path d="M110.958 220.833H88.375V243.417H110.958V220.833Z" fill="black"/>
<path d="M110.958 198.25H88.375V220.833H110.958V198.25Z" fill="black"/>
<path d="M110.958 175.667H88.375V198.25H110.958V175.667Z" fill="black"/>
<path d="M110.958 153.083H88.375V175.667H110.958V153.083Z" fill="black"/>
<path d="M110.958 130.5H88.375V153.083H110.958V130.5Z" fill="black"/>
<path d="M110.958 107.958H88.375V130.542H110.958V107.958Z" fill="black"/>
<path d="M110.958 85.375H88.375V107.958H110.958V85.375Z" fill="black"/>
<path d="M110.958 62.7917H88.375V85.375H110.958V62.7917Z" fill="white"/>
<path d="M110.958 40.2083H88.375V62.7916H110.958V40.2083Z" fill="black"/>
<path d="M110.958 17.625H88.375V40.2083H110.958V17.625Z" fill="black"/>
<path d="M88.375 401.458H65.7917V424.042H88.375V401.458Z" fill="black"/>
<path d="M88.375 378.875H65.7917V401.458H88.375V378.875Z" fill="white"/>
<path d="M88.375 356.292H65.7917V378.875H88.375V356.292Z" fill="black"/>
<path d="M88.375 333.708H65.7917V356.292H88.375V333.708Z" fill="black"/>
<path d="M88.375 311.125H65.7917V333.708H88.375V311.125Z" fill="black"/>
<path d="M88.375 288.583H65.7917V311.167H88.375V288.583Z" fill="black"/>
<path d="M88.375 266H65.7917V288.583H88.375V266Z" fill="black"/>
<path d="M88.375 243.417H65.7917V266H88.375V243.417Z" fill="white"/>
<path d="M88.375 220.833H65.7917V243.417H88.375V220.833Z" fill="black"/>
<path d="M88.375 198.25H65.7917V220.833H88.375V198.25Z" fill="black"/>
<path d="M88.375 175.667H65.7917V198.25H88.375V175.667Z" fill="black"/>
<path d="M88.375 153.083H65.7917V175.667H88.375V153.083Z" fill="black"/>
<path d="M88.375 130.5H65.7917V153.083H88.375V130.5Z" fill="black"/>
<path d="M88.375 107.958H65.7917V130.542H88.375V107.958Z" fill="black"/>
<path d="M88.375 85.375H65.7917V107.958H88.375V85.375Z" fill="black"/>
<path d="M88.375 62.7917H65.7917V85.375H88.375V62.7917Z" fill="black"/>
<path d="M88.375 40.2083H65.7917V62.7916H88.375V40.2083Z" fill="black"/>
<path d="M88.375 17.625H65.7917V40.2083H88.375V17.625Z" fill="black"/>
<path d="M65.7917 401.458H43.2083V424.042H65.7917V401.458Z" fill="black"/>
<path d="M65.7917 378.875H43.2083V401.458H65.7917V378.875Z" fill="black"/>
<path d="M65.7917 356.292H43.2083V378.875H65.7917V356.292Z" fill="black"/>
<path d="M65.7917 333.708H43.2083V356.292H65.7917V333.708Z" fill="black"/>
<path d="M65.7917 311.125H43.2083V333.708H65.7917V311.125Z" fill="black"/>
<path d="M65.7917 288.583H43.2083V311.167H65.7917V288.583Z" fill="black"/>
<path d="M65.7917 266H43.2083V288.583H65.7917V266Z" fill="black"/>
<path d="M65.7917 243.417H43.2083V266H65.7917V243.417Z" fill="black"/>
<path d="M65.7917 220.833H43.2083V243.417H65.7917V220.833Z" fill="black"/>
<path d="M65.7917 198.25H43.2083V220.833H65.7917V198.25Z" fill="black"/>
<path d="M65.7917 175.667H43.2083V198.25H65.7917V175.667Z" fill="black"/>
<path d="M65.7917 153.083H43.2083V175.667H65.7917V153.083Z" fill="black"/>
<path d="M65.7917 130.5H43.2083V153.083H65.7917V130.5Z" fill="white"/>
<path d="M65.7917 107.958H43.2083V130.542H65.7917V107.958Z" fill="white"/>
<path d="M65.7917 85.375H43.2083V107.958H65.7917V85.375Z" fill="black"/>
<path d="M65.7917 62.7917H43.2083V85.375H65.7917V62.7917Z" fill="black"/>
<path d="M65.7917 40.2083H43.2083V62.7916H65.7917V40.2083Z" fill="black"/>
<path d="M65.7917 17.625H43.2083V40.2083H65.7917V17.625Z" fill="black"/>
<path d="M43.2083 401.458H20.625V424.042H43.2083V401.458Z" fill="black"/>
<path d="M43.2083 378.875H20.625V401.458H43.2083V378.875Z" fill="black"/>
<path d="M43.2083 356.292H20.625V378.875H43.2083V356.292Z" fill="black"/>
<path d="M43.2083 333.708H20.625V356.292H43.2083V333.708Z" fill="black"/>
<path d="M43.2083 311.125H20.625V333.708H43.2083V311.125Z" fill="black"/>
<path d="M43.2083 288.583H20.625V311.167H43.2083V288.583Z" fill="black"/>
<path d="M43.2083 266H20.625V288.583H43.2083V266Z" fill="black"/>
<path d="M43.2083 243.417H20.625V266H43.2083V243.417Z" fill="black"/>
<path d="M43.2083 220.833H20.625V243.417H43.2083V220.833Z" fill="black"/>
<path d="M43.2083 198.25H20.625V220.833H43.2083V198.25Z" fill="black"/>
<path d="M43.2083 175.667H20.625V198.25H43.2083V175.667Z" fill="black"/>
<path d="M43.2083 153.083H20.625V175.667H43.2083V153.083Z" fill="black"/>
<path d="M43.2083 130.5H20.625V153.083H43.2083V130.5Z" fill="black"/>
<path d="M43.2083 107.958H20.625V130.542H43.2083V107.958Z" fill="black"/>
<path d="M43.2083 85.375H20.625V107.958H43.2083V85.375Z" fill="black"/>
<path d="M43.2083 62.7917H20.625V85.375H43.2083V62.7917Z" fill="black"/>
<path d="M43.2083 40.2083H20.625V62.7916H43.2083V40.2083Z" fill="black"/>
<path d="M43.2083 17.625H20.625V40.2083H43.2083V17.625Z" fill="black"/>
<path d="M106.125 394.333V350.208H95.0833V339.167H128.167V350.208H117.125V394.333H106.125Z" fill="white"/>
<path d="M146.708 353.208H135.667V394.333H146.708V353.208Z" fill="white"/>
<path d="M177.542 394.333V377.875H166.5V394.333H155.458V353.208H166.5V369.667H177.542V377.875H188.583V394.333H177.542ZM177.542 353.208H188.583V369.667H177.542V353.208Z" fill="white"/>
<path d="M234.417 394.333V350.208H223.375V339.167H256.458V350.208H245.417V394.333H234.417Z" fill="white"/>
<path d="M263.458 353.208H296.583V394.333H263.458V353.208ZM285.5 361.417H274.458V386.083H285.5V361.417Z" fill="white"/>
<path d="M327.083 394.333V377.875H316.042V394.333H305V353.208H316.042V369.667H327.083V377.875H338.125V394.333H327.083ZM327.083 353.208H338.125V369.667H327.083V353.208Z" fill="white"/>
</g>
<defs>
<clipPath id="clip0">
<rect width="450" height="450" fill="white"/>
</clipPath>
</defs>
</svg>
