<svg width="180" height="180" fill="none" xmlns="http://www.w3.org/2000/svg"><path d="M163.262 12.627h-8.153v8.152h8.153v-8.152z" fill="#fff"/><path d="M163.262 20.762h-8.153v8.153h8.153v-8.153zm16.412 0h-8.153v8.153h8.153v-8.153zm-16.412 8.153h-8.153v8.153h8.153v-8.153zm8.206-.23h-8.153v8.153h8.153v-8.153z" fill="#fff"/><path d="M163.262 37.05h-8.153v8.135h8.153V37.05z" fill="#fff"/><path d="M163.262 45.203h-8.153v8.153h8.153v-8.153z" fill="#FDBA13"/><path d="M163.262 53.338h-8.153v8.153h8.153v-8.153zm0 8.153h-8.153v8.135h8.153v-8.135zm0 8.135h-8.153v8.153h8.153v-8.153z" fill="#fff"/><path d="M163.262 77.78h-8.153v8.152h8.153V77.78z" fill="#FDBA13"/><path d="M163.262 85.915h-8.153v8.153h8.153v-8.153z" fill="#fff"/><path d="M163.262 94.068h-8.153v8.135h8.153v-8.135zm0 8.135h-8.153v8.135h8.153v-8.135zm0 8.153h-8.153v8.153h8.153v-8.153zm0 8.153h-8.153v8.135h8.153v-8.135z" fill="#fff"/><path d="M163.262 126.644h-8.153v8.135h8.153v-8.135z" fill="#fff"/><path d="M163.262 134.797h-8.153v8.153h8.153v-8.153z" fill="#FDBA13"/><path d="M163.262 142.932h-8.153v8.136h8.153v-8.136zm0 8.153h-8.153v8.153h8.153v-8.153z" fill="#fff"/><path d="M171.309 159.132h-8.153v8.153h8.153v-8.153z" fill="#fff"/><path d="M155.109 12.627h-8.153v8.152h8.153v-8.152z" fill="#FDBA13"/><path d="M155.109 20.762h-8.153v8.153h8.153v-8.153zm0 8.153h-8.153v8.153h8.153v-8.153z" fill="#fff"/><path d="M155.109 37.05h-8.153v8.135h8.153V37.05zm0 8.153h-8.153v8.153h8.153v-8.153z" fill="#fff"/><path d="M155.109 53.338h-8.153v8.153h8.153v-8.153zm0 8.153h-8.153v8.135h8.153v-8.135zm0 8.135h-8.153v8.153h8.153v-8.153zm0 8.154h-8.153v8.152h8.153V77.78z" fill="#fff"/><path d="M155.109 85.915h-8.153v8.153h8.153v-8.153z" fill="#fff"/><path d="M155.109 94.068h-8.153v8.135h8.153v-8.135zm0 8.135h-8.153v8.135h8.153v-8.135zm24.476 0h-8.153v8.135h8.153v-8.135zm-8.153 0h-8.153v8.135h8.153v-8.135zm-16.323 8.153h-8.153v8.153h8.153v-8.153zm0 8.153h-8.153v8.135h8.153v-8.135z" fill="#fff"/><path d="M155.109 126.644h-8.153v8.135h8.153v-8.135zm0 8.153h-8.153v8.153h8.153v-8.153z" fill="#fff"/><path d="M155.109 142.932h-8.153v8.136h8.153v-8.136z" fill="#FDBA13"/><path d="M155.109 151.085h-8.153v8.153h8.153v-8.153z" fill="#fff"/><path d="M146.956 12.627h-8.135v8.152h8.135v-8.152z" fill="#FDBA13"/><path d="M146.956 20.762h-8.135v8.153h8.135v-8.153zm0 8.153h-8.135v8.153h8.135v-8.153z" fill="#fff"/><path d="M146.956 37.05h-8.135v8.135h8.135V37.05zm0 8.153h-8.135v8.153h8.135v-8.153z" fill="#fff"/><path d="M146.956 53.338h-8.135v8.153h8.135v-8.153zm0 8.153h-8.135v8.135h8.135v-8.135zm0 8.135h-8.135v8.153h8.135v-8.153zm0 8.154h-8.135v8.152h8.135V77.78z" fill="#fff"/><path d="M146.956 85.915h-8.135v8.153h8.135v-8.153z" fill="#fff"/><path d="M146.956 94.068h-8.135v8.135h8.135v-8.135zm0 8.135h-8.135v8.135h8.135v-8.135zm0 8.153h-8.135v8.153h8.135v-8.153zm0 8.153h-8.135v8.135h8.135v-8.135z" fill="#FDBA13"/><path d="M146.956 126.644h-8.135v8.135h8.135v-8.135zm0 8.153h-8.135v8.153h8.135v-8.153z" fill="#fff"/><path d="M146.956 142.932h-8.135v8.136h8.135v-8.136zm0 8.153h-8.135v8.153h8.135v-8.153zm-8.135-138.458h-8.153v8.152h8.153v-8.152z" fill="#fff"/><path d="M138.821 20.762h-8.153v8.153h8.153v-8.153zm0 8.153h-8.153v8.153h8.153v-8.153z" fill="#fff"/><path d="M138.821 37.05h-8.153v8.135h8.153V37.05z" fill="#FDBA13"/><path d="M138.821 45.203h-8.153v8.153h8.153v-8.153z" fill="#fff"/><path d="M138.821 53.338h-8.153v8.153h8.153v-8.153z" fill="#fff"/><path d="M138.821 61.491h-8.153v8.135h8.153v-8.135zm0 8.135h-8.153v8.153h8.153v-8.153zm0 8.154h-8.153v8.152h8.153V77.78z" fill="#FDBA13"/><path d="M138.821 85.915h-8.153v8.153h8.153v-8.153z" fill="#FDBA13"/><path d="M138.821 94.068h-8.153v8.135h8.153v-8.135zm0 8.135h-8.153v8.135h8.153v-8.135zm0 8.153h-8.153v8.153h8.153v-8.153zm0 8.153h-8.153v8.135h8.153v-8.135z" fill="#FDBA13"/><path d="M138.821 126.644h-8.153v8.135h8.153v-8.135zm0 8.153h-8.153v8.153h8.153v-8.153z" fill="#fff"/><path d="M138.821 142.932h-8.153v8.136h8.153v-8.136z" fill="#fff"/><path d="M138.821 151.085h-8.153v8.153h8.153v-8.153z" fill="#FDBA13"/><path d="M130.685 12.627h-8.153v8.152h8.153v-8.152z" fill="#fff"/><path d="M130.685 20.762h-8.153v8.153h8.153v-8.153zm0 8.153h-8.153v8.153h8.153v-8.153z" fill="#fff"/><path d="M130.685 37.05h-8.153v8.135h8.153V37.05zm0 8.153h-8.153v8.153h8.153v-8.153z" fill="#fff"/><path d="M130.685 53.338h-8.153v8.153h8.153v-8.153zm0 8.153h-8.153v8.135h8.153v-8.135zm0 8.135h-8.153v8.153h8.153v-8.153z" fill="#FDBA13"/><path d="M130.685 77.78h-8.153v8.152h8.153V77.78z" fill="#fff"/><path d="M130.685 85.915h-8.153v8.153h8.153v-8.153z" fill="#FDBA13"/><path d="M130.685 94.068h-8.153v8.153h8.153v-8.153z" fill="#fff"/><path d="M130.685 102.203h-8.153v8.135h8.153v-8.135zm0 8.153h-8.153v8.153h8.153v-8.153zm0 8.153h-8.153v8.135h8.153v-8.135z" fill="#fff"/><path d="M130.685 126.644h-8.153v8.135h8.153v-8.135zm0 8.153h-8.153v8.153h8.153v-8.153z" fill="#fff"/><path d="M130.685 142.932h-8.153v8.136h8.153v-8.136zm0 8.153h-8.153v8.153h8.153v-8.153zm-8.153-138.458h-8.153v8.152h8.153v-8.152z" fill="#fff"/><path d="M122.532 20.762h-8.153v8.153h8.153v-8.153zm0 8.153h-8.153v8.153h8.153v-8.153z" fill="#fff"/><path d="M122.532 37.05h-8.153v8.135h8.153V37.05z" fill="#fff"/><path d="M122.532 45.203h-8.153v8.153h8.153v-8.153z" fill="#FDBA13"/><path d="M122.532 53.338h-8.153v8.153h8.153v-8.153z" fill="#FDBA13"/><path d="M122.532 61.491h-8.153v8.135h8.153v-8.135zm0 8.135h-8.153v8.153h8.153v-8.153zm0 8.154h-8.153v8.152h8.153V77.78z" fill="#fff"/><path d="M122.532 85.915h-8.153v8.153h8.153v-8.153z" fill="#fff"/><path d="M122.532 94.068h-8.153v8.135h8.153v-8.135zm0 8.135h-8.153v8.135h8.153v-8.135zm0 8.153h-8.153v8.153h8.153v-8.153z" fill="#fff"/><path d="M122.532 118.509h-8.153v8.135h8.153v-8.135z" fill="#FDBA13"/><path d="M122.532 126.644h-8.153v8.135h8.153v-8.135zm0 8.153h-8.153v8.153h8.153v-8.153z" fill="#fff"/><path d="M122.532 142.932h-8.153v8.136h8.153v-8.136zm0 8.153h-8.153v8.153h8.153v-8.153zm-8.135-138.458h-8.153v8.152h8.153v-8.152z" fill="#fff"/><path d="M114.397 20.762h-8.153v8.153h8.153v-8.153zm0 8.153h-8.153v8.153h8.153v-8.153z" fill="#fff"/><path d="M114.397 37.05h-8.153v8.135h8.153V37.05zm0 8.153h-8.153v8.153h8.153v-8.153z" fill="#fff"/><path d="M114.397 53.338h-8.153v8.153h8.153v-8.153zm0 8.153h-8.153v8.135h8.153v-8.135z" fill="#FDBA13"/><path d="M114.397 69.626h-8.153v8.153h8.153v-8.153zm0 8.154h-8.153v8.152h8.153V77.78z" fill="#fff"/><path d="M114.397 85.915h-8.153v8.153h8.153v-8.153z" fill="#fff"/><path d="M114.397 94.068h-8.153v8.135h8.153v-8.135zm0 8.135h-8.153v8.135h8.153v-8.135zm0 8.153h-8.153v8.153h8.153v-8.153zm0 8.153h-8.153v8.135h8.153v-8.135z" fill="#fff"/><path d="M114.397 126.644h-8.153v8.135h8.153v-8.135z" fill="#FDBA13"/><path d="M114.397 134.797h-8.153v8.153h8.153v-8.153z" fill="#fff"/><path d="M114.397 142.932h-8.153v8.136h8.153v-8.136zm0 8.153h-8.153v8.153h8.153v-8.153zm-8.153-138.458h-8.153v8.152h8.153v-8.152z" fill="#fff"/><path d="M106.244 20.762h-8.153v8.153h8.153v-8.153z" fill="#FDBA13"/><path d="M106.244 28.915h-8.153v8.153h8.153v-8.153z" fill="#fff"/><path d="M106.244 37.05h-8.153v8.135h8.153V37.05zm0 8.153h-8.153v8.153h8.153v-8.153z" fill="#fff"/><path d="M106.244 53.338h-8.153v8.153h8.153v-8.153z" fill="#fff"/><path d="M106.244 61.491h-8.153v8.135h8.153v-8.135zm0 8.135h-8.153v8.153h8.153v-8.153zm0 8.154h-8.153v8.152h8.153V77.78z" fill="#FDBA13"/><path d="M106.244 85.915h-8.153v8.153h8.153v-8.153z" fill="#fff"/><path d="M106.244 94.068h-8.153v8.135h8.153v-8.135zm0 8.135h-8.153v8.135h8.153v-8.135zm0 8.153h-8.153v8.153h8.153v-8.153zm0 8.153h-8.153v8.135h8.153v-8.135z" fill="#fff"/><path d="M106.244 126.644h-8.153v8.135h8.153v-8.135zm0 8.153h-8.153v8.153h8.153v-8.153z" fill="#fff"/><path d="M106.244 142.932h-8.153v8.136h8.153v-8.136zm0 8.153h-8.153v8.153h8.153v-8.153zM98.109 12.627h-8.153v8.152h8.153v-8.152z" fill="#fff"/><path d="M98.109 20.762h-8.153v8.153h8.153v-8.153zm0 8.153h-8.153v8.153h8.153v-8.153z" fill="#fff"/><path d="M98.109 37.05h-8.153v8.135h8.153V37.05zm0 8.153h-8.153v8.153h8.153v-8.153z" fill="#fff"/><path d="M98.109 53.338h-8.153v8.153h8.153v-8.153zm0 8.153h-8.153v8.135h8.153v-8.135zm0 8.135h-8.153v8.153h8.153v-8.153z" fill="#fff"/><path d="M98.109 77.78h-8.153v8.152h8.153V77.78z" fill="#FDBA13"/><path d="M98.109 85.915h-8.153v8.153h8.153v-8.153z" fill="#FDBA13"/><path d="M98.109 94.068h-8.153v8.135h8.153v-8.135zm0 8.135h-8.153v8.135h8.153v-8.135zm0 8.153h-8.153v8.153h8.153v-8.153z" fill="#FDBA13"/><path d="M98.109 118.509h-8.153v8.135h8.153v-8.135z" fill="#fff"/><path d="M98.109 126.644h-8.153v8.135h8.153v-8.135zm0 8.153h-8.153v8.153h8.153v-8.153z" fill="#fff"/><path d="M98.109 142.932h-8.153v8.136h8.153v-8.136z" fill="#FDBA13"/><path d="M98.109 151.085h-8.153v8.153h8.153v-8.153zM89.956 12.627h-8.153v8.152h8.153v-8.152z" fill="#fff"/><path d="M89.956 20.762h-8.153v8.153h8.153v-8.153zm0 8.153h-8.153v8.153h8.153v-8.153z" fill="#fff"/><path d="M89.956 37.05h-8.153v8.135h8.153V37.05z" fill="#fff"/><path d="M89.956 45.203h-8.153v8.153h8.153v-8.153z" fill="#FDBA13"/><path d="M89.956 53.338h-8.153v8.153h8.153v-8.153zm0 8.153h-8.153v8.135h8.153v-8.135zm0 8.135h-8.153v8.153h8.153v-8.153z" fill="#fff"/><path d="M89.956 77.78h-8.153v8.152h8.153V77.78z" fill="#FDBA13"/><path d="M89.956 85.915h-8.153v8.153h8.153v-8.153z" fill="#FDBA13"/><path d="M89.956 94.068h-8.153v8.153h8.153v-8.153z" fill="#FDBA13"/><path d="M89.956 102.203h-8.153v8.135h8.153v-8.135zm0 8.153h-8.153v8.153h8.153v-8.153z" fill="#FDBA13"/><path d="M89.956 118.509h-8.153v8.135h8.153v-8.135z" fill="#fff"/><path d="M89.956 126.644h-8.153v8.135h8.153v-8.135z" fill="#fff"/><path d="M89.956 134.797h-8.153v8.153h8.153v-8.153z" fill="#FDBA13"/><path d="M89.956 142.932h-8.153v8.136h8.153v-8.136zm0 8.153h-8.153v8.153h8.153v-8.153z" fill="#fff"/><path d="M81.82 12.627h-8.152v8.152h8.153v-8.152z" fill="#FDBA13"/><path d="M81.82 20.762h-8.152v8.153h8.153v-8.153zm0 8.153h-8.152v8.153h8.153v-8.153z" fill="#fff"/><path d="M81.82 37.05h-8.152v8.135h8.153V37.05zm0 8.153h-8.152v8.153h8.153v-8.153z" fill="#fff"/><path d="M81.82 53.338h-8.152v8.153h8.153v-8.153z" fill="#fff"/><path d="M81.82 61.491h-8.152v8.135h8.153v-8.135zm0 8.135h-8.152v8.153h8.153v-8.153zm0 8.154h-8.152v8.152h8.153V77.78z" fill="#FDBA13"/><path d="M81.82 85.915h-8.152v8.153h8.153v-8.153z" fill="#fff"/><path d="M81.82 94.068h-8.152v8.135h8.153v-8.135zm0 8.135h-8.152v8.135h8.153v-8.135zm0 8.153h-8.152v8.153h8.153v-8.153zm0 8.153h-8.152v8.135h8.153v-8.135z" fill="#fff"/><path d="M81.82 126.644h-8.152v8.135h8.153v-8.135zm0 8.153h-8.152v8.153h8.153v-8.153z" fill="#fff"/><path d="M81.82 142.932h-8.152v8.136h8.153v-8.136zm0 8.153h-8.152v8.153h8.153v-8.153z" fill="#fff"/><path d="M73.668 12.627h-8.153v8.152h8.153v-8.152z" fill="#FDBA13"/><path d="M73.668 20.762h-8.153v8.153h8.153v-8.153zm0 8.153h-8.153v8.153h8.153v-8.153z" fill="#fff"/><path d="M73.668 37.05h-8.153v8.135h8.153V37.05zm0 8.153h-8.153v8.153h8.153v-8.153z" fill="#fff"/><path d="M73.668 53.338h-8.153v8.153h8.153v-8.153zm0 8.153h-8.153v8.135h8.153v-8.135z" fill="#FDBA13"/><path d="M73.668 69.626h-8.153v8.153h8.153v-8.153zm0 8.154h-8.153v8.152h8.153V77.78z" fill="#fff"/><path d="M73.668 85.915h-8.153v8.153h8.153v-8.153z" fill="#fff"/><path d="M73.668 94.068h-8.153v8.135h8.153v-8.135zm0 8.135h-8.153v8.135h8.153v-8.135zm0 8.153h-8.153v8.153h8.153v-8.153zm0 8.153h-8.153v8.135h8.153v-8.135z" fill="#fff"/><path d="M73.668 126.644h-8.153v8.135h8.153v-8.135zm0 8.153h-8.153v8.153h8.153v-8.153z" fill="#fff"/><path d="M73.668 142.932h-8.153v8.136h8.153v-8.136zm0 8.153h-8.153v8.153h8.153v-8.153zm0 16.218h-8.153v8.153h8.153v-8.153zM65.497 12.627h-8.135v8.152h8.135v-8.152z" fill="#fff"/><path d="M65.497 20.762h-8.135v8.153h8.135v-8.153zm0 8.153h-8.135v8.153h8.135v-8.153z" fill="#fff"/><path d="M65.497 37.05h-8.135v8.135h8.135V37.05z" fill="#fff"/><path d="M65.497 45.203h-8.135v8.153h8.135v-8.153z" fill="#FDBA13"/><path d="M65.497 53.338h-8.135v8.153h8.135v-8.153z" fill="#FDBA13"/><path d="M65.497 61.491h-8.135v8.135h8.135v-8.135zm0 8.135h-8.135v8.153h8.135v-8.153zm0 8.154h-8.135v8.152h8.135V77.78z" fill="#fff"/><path d="M65.497 85.915h-8.135v8.153h8.135v-8.153z" fill="#fff"/><path d="M65.497 94.068h-8.135v8.153h8.135v-8.153z" fill="#fff"/><path d="M65.497 102.203h-8.135v8.135h8.135v-8.135zm0 8.153h-8.135v8.153h8.135v-8.153zm0 8.153h-8.135v8.135h8.135v-8.135z" fill="#fff"/><path d="M65.497 126.644h-8.135v8.135h8.135v-8.135zm0 8.153h-8.135v8.153h8.135v-8.153z" fill="#fff"/><path d="M65.497 142.932h-8.135v8.136h8.135v-8.136zm0 8.153h-8.135v8.153h8.135v-8.153z" fill="#fff"/><path d="M65.497 159.185h-8.135v8.153h8.135v-8.153zM57.362 12.627h-8.136v8.152h8.136v-8.152z" fill="#fff"/><path d="M57.362 4.544h-8.136v8.153h8.136V4.544zm0 16.218h-8.136v8.153h8.136v-8.153z" fill="#fff"/><path d="M57.362 28.915h-8.136v8.153h8.136v-8.153z" fill="#FDBA13"/><path d="M57.362 37.05h-8.136v8.135h8.136V37.05zm0 8.153h-8.136v8.153h8.136v-8.153z" fill="#fff"/><path d="M57.362 53.338h-8.136v8.153h8.136v-8.153zm0 8.153h-8.136v8.135h8.136v-8.135zm0 8.135h-8.136v8.153h8.136v-8.153z" fill="#FDBA13"/><path d="M57.362 77.78h-8.136v8.152h8.136V77.78z" fill="#fff"/><path d="M57.362 85.915h-8.136v8.153h8.136v-8.153z" fill="#fff"/><path d="M57.362 94.068h-8.136v8.135h8.136v-8.135zm0 8.135h-8.136v8.135h8.136v-8.135zm0 8.153h-8.136v8.153h8.136v-8.153zm0 8.153h-8.136v8.135h8.136v-8.135z" fill="#fff"/><path d="M57.362 126.644h-8.136v8.135h8.136v-8.135zm0 8.153h-8.136v8.153h8.136v-8.153z" fill="#fff"/><path d="M57.362 142.932h-8.136v8.136h8.136v-8.136zm0 8.153h-8.136v8.153h8.136v-8.153zM49.227 12.627h-8.153v8.152h8.153v-8.152z" fill="#fff"/><path d="M49.227 20.762h-8.153v8.153h8.153v-8.153zm0 8.153h-8.153v8.153h8.153v-8.153z" fill="#fff"/><path d="M49.227 37.05h-8.153v8.135h8.153V37.05zm0 8.153h-8.153v8.153h8.153v-8.153z" fill="#fff"/><path d="M49.227 53.338h-8.153v8.153h8.153v-8.153z" fill="#fff"/><path d="M49.227 61.491h-8.153v8.135h8.153v-8.135zm0 8.135h-8.153v8.153h8.153v-8.153zm0 8.154h-8.153v8.152h8.153V77.78z" fill="#FDBA13"/><path d="M49.227 85.915h-8.153v8.153h8.153v-8.153z" fill="#FDBA13"/><path d="M49.227 94.068h-8.153v8.135h8.153v-8.135zm0 8.135h-8.153v8.135h8.153v-8.135zm0 8.153h-8.153v8.153h8.153v-8.153zm0 8.153h-8.153v8.135h8.153v-8.135z" fill="#FDBA13"/><path d="M49.227 126.644h-8.153v8.135h8.153v-8.135zm0 8.153h-8.153v8.153h8.153v-8.153z" fill="#fff"/><path d="M49.227 142.932h-8.153v8.136h8.153v-8.136z" fill="#FDBA13"/><path d="M49.227 151.085h-8.153v8.153h8.153v-8.153zM41.074 12.627h-8.136v8.152h8.136v-8.152z" fill="#fff"/><path d="M41.074 20.762h-8.136v8.153h8.136v-8.153zm0 8.153h-8.136v8.153h8.136v-8.153z" fill="#FDBA13"/><path d="M41.074 37.05h-8.136v8.135h8.136V37.05zm0 8.153h-8.136v8.153h8.136v-8.153z" fill="#fff"/><path d="M41.074 53.338h-8.136v8.153h8.136v-8.153zm0 8.153h-8.136v8.135h8.136v-8.135zm0 8.135h-8.136v8.153h8.136v-8.153zm0 8.154h-8.136v8.152h8.136V77.78z" fill="#fff"/><path d="M41.074 85.915h-8.136v8.153h8.136v-8.153z" fill="#fff"/><path d="M41.074 94.068h-8.136v8.135h8.136v-8.135zm0 8.135h-8.136v8.135h8.136v-8.135zm0 8.153h-8.136v8.153h8.136v-8.153zm0 8.153h-8.136v8.135h8.136v-8.135z" fill="#FDBA13"/><path d="M41.074 126.644h-8.136v8.135h8.136v-8.135zm0 8.153h-8.136v8.153h8.136v-8.153z" fill="#fff"/><path d="M41.074 142.932h-8.136v8.136h8.136v-8.136zm0 8.153h-8.136v8.153h8.136v-8.153zM32.938 12.627h-8.153v8.152h8.153v-8.152z" fill="#fff"/><path d="M32.938 20.762h-8.153v8.153h8.153v-8.153zm0 8.153h-8.153v8.153h8.153v-8.153z" fill="#fff"/><path d="M32.938 37.05h-8.153v8.135h8.153V37.05z" fill="#fff"/><path d="M32.938 45.203h-8.153v8.153h8.153v-8.153z" fill="#FDBA13"/><path d="M32.938 53.338h-8.153v8.153h8.153v-8.153zm0 8.153h-8.153v8.135h8.153v-8.135zm0 8.135h-8.153v8.153h8.153v-8.153zm0 8.154h-8.153v8.152h8.153V77.78z" fill="#fff"/><path d="M32.938 85.915h-8.153v8.153h8.153v-8.153z" fill="#fff"/><path d="M32.938 94.068h-8.153v8.135h8.153v-8.135zm0 8.135h-8.153v8.135h8.153v-8.135zm0 8.153h-8.153v8.153h8.153v-8.153zm0 8.153h-8.153v8.135h8.153v-8.135z" fill="#fff"/><path d="M32.938 126.644h-8.153v8.135h8.153v-8.135zm0 8.153h-8.153v8.153h8.153v-8.153z" fill="#fff"/><path d="M32.938 142.932h-8.153v8.136h8.153v-8.136zm0 8.153h-8.153v8.153h8.153v-8.153zM24.803 12.627H16.65v8.152h8.153v-8.152z" fill="#fff"/><path d="M16.756 4.58H8.603v8.152h8.153V4.58zm8.047 16.182H16.65v8.153h8.153v-8.153zm0 8.153H16.65v8.153h8.153v-8.153z" fill="#fff"/><path d="M24.803 37.05H16.65v8.135h8.153V37.05zm0 8.153H16.65v8.153h8.153v-8.153z" fill="#fff"/><path d="M24.803 53.338H16.65v8.153h8.153v-8.153zm0 8.153H16.65v8.135h8.153v-8.135zm0 8.135H16.65v8.153h8.153v-8.153zm0 8.154H16.65v8.152h8.153V77.78z" fill="#fff"/><path d="M16.685 77.832H8.532v8.153h8.153v-8.153z" fill="#fff"/><path d="M24.803 85.915H16.65v8.153h8.153v-8.153z" fill="#fff"/><path d="M24.803 94.068H16.65v8.135h8.153v-8.135z" fill="#fff"/><path d="M24.803 102.203H16.65v8.135h8.153v-8.135z" fill="#FDBA13"/><path d="M24.803 110.356H16.65v8.153h8.153v-8.153zm0 8.153H16.65v8.135h8.153v-8.135z" fill="#fff"/><path d="M24.803 126.644H16.65v8.135h8.153v-8.135z" fill="#FDBA13"/><path d="M24.803 134.797H16.65v8.153h8.153v-8.153zm-8.188 0H8.462v8.153h8.153v-8.153z" fill="#fff"/><path d="M8.48 134.797H.325v8.153H8.48v-8.153zm8.135 8.224H8.462v8.153h8.153v-8.153zm8.188-.089H16.65v8.136h8.153v-8.136zm0 8.153H16.65v8.153h8.153v-8.153z" fill="#fff"/></svg>