<svg width="450" height="450" fill="none" xmlns="http://www.w3.org/2000/svg"><path d="M427.042 401.458h-22.584v22.584h22.584v-22.584zm0-22.583h-22.584v22.583h22.584v-22.583zm0-22.583h-22.584v22.583h22.584v-22.583zm0-22.584h-22.584v22.584h22.584v-22.584zm0-22.583h-22.584v22.583h22.584v-22.583z" fill="#000"/><path d="M427.042 288.583h-22.584v22.584h22.584v-22.584zm0-22.583h-22.584v22.583h22.584V266zm0-22.583h-22.584V266h22.584v-22.583zm0-22.584h-22.584v22.584h22.584v-22.584zm0-22.583h-22.584v22.583h22.584V198.25zm0-22.583h-22.584v22.583h22.584v-22.583zm0-22.584h-22.584v22.584h22.584v-22.584zm0-22.583h-22.584v22.583h22.584V130.5z" fill="#000"/><path d="M427.042 107.958h-22.584v22.584h22.584v-22.584zm0-22.583h-22.584v22.583h22.584V85.375zm0-22.583h-22.584v22.583h22.584V62.792zm0-22.584h-22.584v22.584h22.584V40.208zm0-22.583h-22.584v22.583h22.584V17.625z" fill="#000"/><path d="M404.458 401.458h-22.583v22.584h22.583v-22.584z" fill="#fff"/><path d="M404.458 378.875h-22.583v22.583h22.583v-22.583zm0-22.583h-22.583v22.583h22.583v-22.583zm0-22.584h-22.583v22.584h22.583v-22.584zm0-22.583h-22.583v22.583h22.583v-22.583z" fill="#000"/><path d="M404.458 288.583h-22.583v22.584h22.583v-22.584z" fill="#000"/><path d="M404.458 266h-22.583v22.583h22.583V266zm0-22.583h-22.583V266h22.583v-22.583z" fill="#fff"/><path d="M404.458 220.833h-22.583v22.584h22.583v-22.584zm0-22.583h-22.583v22.583h22.583V198.25zm0-22.583h-22.583v22.583h22.583v-22.583zm0-22.584h-22.583v22.584h22.583v-22.584zm0-22.583h-22.583v22.583h22.583V130.5z" fill="#000"/><path d="M404.458 107.958h-22.583v22.584h22.583v-22.584zm0-22.583h-22.583v22.583h22.583V85.375zm0-22.583h-22.583v22.583h22.583V62.792zm0-22.584h-22.583v22.584h22.583V40.208zm0-22.583h-22.583v22.583h22.583V17.625z" fill="#000"/><path d="M381.875 401.458h-22.583v22.584h22.583v-22.584z" fill="#fff"/><path d="M381.875 378.875h-22.583v22.583h22.583v-22.583zm0-22.583h-22.583v22.583h22.583v-22.583zm0-22.584h-22.583v22.584h22.583v-22.584z" fill="#000"/><path d="M381.875 311.125h-22.583v22.583h22.583v-22.583z" fill="#fff"/><path d="M381.875 288.583h-22.583v22.584h22.583v-22.584zm0-22.583h-22.583v22.583h22.583V266zm0-22.583h-22.583V266h22.583v-22.583zm0-22.584h-22.583v22.584h22.583v-22.584zm0-22.583h-22.583v22.583h22.583V198.25zm0-22.583h-22.583v22.583h22.583v-22.583z" fill="#000"/><path d="M381.875 153.083h-22.583v22.584h22.583v-22.584z" fill="#fff"/><path d="M381.875 130.5h-22.583v22.583h22.583V130.5z" fill="#000"/><path d="M381.875 107.958h-22.583v22.584h22.583v-22.584zm0-22.583h-22.583v22.583h22.583V85.375zm0-22.583h-22.583v22.583h22.583V62.792z" fill="#000"/><path d="M381.875 40.208h-22.583v22.584h22.583V40.208z" fill="#fff"/><path d="M381.875 17.625h-22.583v22.583h22.583V17.625zm-22.583 383.833h-22.584v22.584h22.584v-22.584zm0-22.583h-22.584v22.583h22.584v-22.583zm0-22.583h-22.584v22.583h22.584v-22.583zm0-22.584h-22.584v22.584h22.584v-22.584zm0-22.583h-22.584v22.583h22.584v-22.583z" fill="#000"/><path d="M359.292 288.583h-22.584v22.584h22.584v-22.584zm0-22.583h-22.584v22.583h22.584V266zm0-22.583h-22.584V266h22.584v-22.583zm0-22.584h-22.584v22.584h22.584v-22.584zm0-22.583h-22.584v22.583h22.584V198.25zm0-22.583h-22.584v22.583h22.584v-22.583z" fill="#000"/><path d="M359.292 153.083h-22.584v22.584h22.584v-22.584zm0-22.583h-22.584v22.583h22.584V130.5z" fill="#fff"/><path d="M359.292 107.958h-22.584v22.584h22.584v-22.584z" fill="#fff"/><path d="M359.292 85.375h-22.584v22.583h22.584V85.375zm0-22.583h-22.584v22.583h22.584V62.792zm0-22.584h-22.584v22.584h22.584V40.208zm0-22.583h-22.584v22.583h22.584V17.625zm-22.584 383.833h-22.583v22.584h22.583v-22.584zm0-22.583h-22.583v22.583h22.583v-22.583zm0-22.583h-22.583v22.583h22.583v-22.583zm0-22.584h-22.583v22.584h22.583v-22.584zm0-22.583h-22.583v22.583h22.583v-22.583z" fill="#000"/><path d="M336.708 288.583h-22.583v22.584h22.583v-22.584zm0-22.583h-22.583v22.583h22.583V266zm0-22.583h-22.583V266h22.583v-22.583zm0-22.584h-22.583v22.584h22.583v-22.584z" fill="#000"/><path d="M336.708 198.25h-22.583v22.583h22.583V198.25z" fill="#fff"/><path d="M336.708 175.667h-22.583v22.583h22.583v-22.583zm0-22.584h-22.583v22.584h22.583v-22.584z" fill="#000"/><path d="M336.708 130.5h-22.583v22.583h22.583V130.5z" fill="#fff"/><path d="M336.708 107.958h-22.583v22.584h22.583v-22.584z" fill="#fff"/><path d="M336.708 85.375h-22.583v22.583h22.583V85.375zm0-22.583h-22.583v22.583h22.583V62.792zm0-22.584h-22.583v22.584h22.583V40.208zm0-22.583h-22.583v22.583h22.583V17.625zm-22.541 383.833h-22.584v22.584h22.584v-22.584zm0-22.583h-22.584v22.583h22.584v-22.583zm0-22.583h-22.584v22.583h22.584v-22.583zm0-22.584h-22.584v22.584h22.584v-22.584zm0-22.583h-22.584v22.583h22.584v-22.583z" fill="#000"/><path d="M314.167 288.583h-22.584v22.584h22.584v-22.584zm0-22.583h-22.584v22.583h22.584V266zm0-22.583h-22.584V266h22.584v-22.583zm0-22.584h-22.584v22.584h22.584v-22.584zm0-22.583h-22.584v22.583h22.584V198.25zm0-22.583h-22.584v22.583h22.584v-22.583zm0-22.584h-22.584v22.584h22.584v-22.584zm0-22.583h-22.584v22.583h22.584V130.5z" fill="#000"/><path d="M314.167 107.958h-22.584v22.584h22.584v-22.584zm0-22.583h-22.584v22.583h22.584V85.375z" fill="#fff"/><path d="M314.167 62.792h-22.584v22.583h22.584V62.792zm0-22.584h-22.584v22.584h22.584V40.208zm0-22.583h-22.584v22.583h22.584V17.625zm-22.584 383.833H269v22.584h22.583v-22.584zm0-22.583H269v22.583h22.583v-22.583zm0-22.583H269v22.583h22.583v-22.583zm0-22.584H269v22.584h22.583v-22.584zm0-22.583H269v22.583h22.583v-22.583z" fill="#000"/><path d="M291.583 288.583H269v22.584h22.583v-22.584zm0-22.583H269v22.583h22.583V266z" fill="#000"/><path d="M291.583 243.417H269V266h22.583v-22.583zm0-22.584H269v22.584h22.583v-22.584zm0-22.583H269v22.583h22.583V198.25zm0-22.583H269v22.583h22.583v-22.583zm0-22.584H269v22.584h22.583v-22.584zm0-22.583H269v22.583h22.583V130.5z" fill="#fff"/><path d="M291.583 107.958H269v22.584h22.583v-22.584zm0-22.583H269v22.583h22.583V85.375zm0-22.583H269v22.583h22.583V62.792z" fill="#fff"/><path d="M291.583 40.208H269v22.584h22.583V40.208zm0-22.583H269v22.583h22.583V17.625zM269 401.458h-22.583v22.584H269v-22.584zm0-22.583h-22.583v22.583H269v-22.583zm0-22.583h-22.583v22.583H269v-22.583zm0-22.584h-22.583v22.584H269v-22.584zm0-22.583h-22.583v22.583H269v-22.583z" fill="#000"/><path d="M269 288.583h-22.583v22.584H269v-22.584z" fill="#000"/><path d="M269 266h-22.583v22.583H269V266zm0-22.583h-22.583V266H269v-22.583zm0-22.584h-22.583v22.584H269v-22.584zm0-22.583h-22.583v22.583H269V198.25zm0-22.583h-22.583v22.583H269v-22.583zm0-22.584h-22.583v22.584H269v-22.584zm0-22.583h-22.583v22.583H269V130.5z" fill="#fff"/><path d="M269 107.958h-22.583v22.584H269v-22.584z" fill="#fff"/><path d="M269 85.375h-22.583v22.583H269V85.375z" fill="#000"/><path d="M269 62.792h-22.583v22.583H269V62.792zm0-22.584h-22.583v22.584H269V40.208z" fill="#fff"/><path d="M269 17.625h-22.583v22.583H269V17.625zm-22.583 383.833h-22.584v22.584h22.584v-22.584zm0-22.583h-22.584v22.583h22.584v-22.583zm0-22.583h-22.584v22.583h22.584v-22.583zm0-22.584h-22.584v22.584h22.584v-22.584zm0-22.583h-22.584v22.583h22.584v-22.583z" fill="#000"/><path d="M246.417 288.583h-22.584v22.584h22.584v-22.584zm0-22.583h-22.584v22.583h22.584V266zm0-22.583h-22.584V266h22.584v-22.583z" fill="#fff"/><path d="M246.417 220.833h-22.584v22.584h22.584v-22.584z" fill="#000"/><path d="M246.417 198.25h-22.584v22.583h22.584V198.25z" fill="#fff"/><path d="M246.417 175.667h-22.584v22.583h22.584v-22.583zm0-22.584h-22.584v22.584h22.584v-22.584zm0-22.583h-22.584v22.583h22.584V130.5z" fill="#000"/><path d="M246.417 107.958h-22.584v22.584h22.584v-22.584zm0-22.583h-22.584v22.583h22.584V85.375zm0-22.583h-22.584v22.583h22.584V62.792zm0-22.584h-22.584v22.584h22.584V40.208zm0-22.583h-22.584v22.583h22.584V17.625z" fill="#000"/><path d="M223.833 401.458H201.25v22.584h22.583v-22.584z" fill="#fff"/><path d="M223.833 378.875H201.25v22.583h22.583v-22.583zm0-22.583H201.25v22.583h22.583v-22.583zm0-22.584H201.25v22.584h22.583v-22.584zm0-22.583H201.25v22.583h22.583v-22.583z" fill="#000"/><path d="M223.833 288.583H201.25v22.584h22.583v-22.584zm0-22.583H201.25v22.583h22.583V266z" fill="#fff"/><path d="M223.833 243.417H201.25V266h22.583v-22.583zm0-22.584H201.25v22.584h22.583v-22.584zm0-22.583H201.25v22.583h22.583V198.25zm0-22.583H201.25v22.583h22.583v-22.583z" fill="#000"/><path d="M223.833 153.083H201.25v22.584h22.583v-22.584zm0-22.583H201.25v22.583h22.583V130.5z" fill="#fff"/><path d="M223.833 107.958H201.25v22.584h22.583v-22.584zm0-22.583H201.25v22.583h22.583V85.375zm0-22.583H201.25v22.583h22.583V62.792zm0-22.584H201.25v22.584h22.583V40.208zm0-22.583H201.25v22.583h22.583V17.625zM201.25 401.458h-22.583v22.584h22.583v-22.584zm0-22.583h-22.583v22.583h22.583v-22.583zm0-22.583h-22.583v22.583h22.583v-22.583zm0-22.584h-22.583v22.584h22.583v-22.584zm0-22.583h-22.583v22.583h22.583v-22.583z" fill="#000"/><path d="M201.25 288.583h-22.583v22.584h22.583v-22.584zm0-22.583h-22.583v22.583h22.583V266z" fill="#fff"/><path d="M201.25 243.417h-22.583V266h22.583v-22.583zm0-22.584h-22.583v22.584h22.583v-22.584zm0-22.583h-22.583v22.583h22.583V198.25z" fill="#000"/><path d="M201.25 175.667h-22.583v22.583h22.583v-22.583zm0-22.584h-22.583v22.584h22.583v-22.584zm0-22.583h-22.583v22.583h22.583V130.5z" fill="#fff"/><path d="M201.25 107.958h-22.583v22.584h22.583v-22.584zm0-22.583h-22.583v22.583h22.583V85.375zm0-22.583h-22.583v22.583h22.583V62.792zm0-22.584h-22.583v22.584h22.583V40.208z" fill="#000"/><path d="M201.25 17.625h-22.583v22.583h22.583V17.625z" fill="#fff"/><path d="M178.667 401.458h-22.584v22.584h22.584v-22.584zm0-22.583h-22.584v22.583h22.584v-22.583zm0-22.583h-22.584v22.583h22.584v-22.583zm0-22.584h-22.584v22.584h22.584v-22.584zm0-22.583h-22.584v22.583h22.584v-22.583z" fill="#000"/><path d="M178.667 288.583h-22.584v22.584h22.584v-22.584zm0-22.583h-22.584v22.583h22.584V266zm0-22.583h-22.584V266h22.584v-22.583z" fill="#fff"/><path d="M178.667 220.833h-22.584v22.584h22.584v-22.584z" fill="#000"/><path d="M178.667 198.25h-22.584v22.583h22.584V198.25z" fill="#fff"/><path d="M178.667 175.667h-22.584v22.583h22.584v-22.583z" fill="#000"/><path d="M178.667 153.083h-22.584v22.584h22.584v-22.584z" fill="#fff"/><path d="M178.667 130.5h-22.584v22.583h22.584V130.5z" fill="#000"/><path d="M178.667 107.958h-22.584v22.584h22.584v-22.584z" fill="#000"/><path d="M178.667 85.375h-22.584v22.583h22.584V85.375z" fill="#fff"/><path d="M178.667 62.792h-22.584v22.583h22.584V62.792zm0-22.584h-22.584v22.584h22.584V40.208zm0-22.583h-22.584v22.583h22.584V17.625zm-22.584 383.833H133.5v22.584h22.583v-22.584zm0-22.583H133.5v22.583h22.583v-22.583zm0-22.583H133.5v22.583h22.583v-22.583zm0-22.584H133.5v22.584h22.583v-22.584zm0-22.583H133.5v22.583h22.583v-22.583z" fill="#000"/><path d="M156.083 288.583H133.5v22.584h22.583v-22.584z" fill="#000"/><path d="M156.083 266H133.5v22.583h22.583V266zm0-22.583H133.5V266h22.583v-22.583zm0-22.584H133.5v22.584h22.583v-22.584zm0-22.583H133.5v22.583h22.583V198.25zm0-22.583H133.5v22.583h22.583v-22.583z" fill="#fff"/><path d="M156.083 153.083H133.5v22.584h22.583v-22.584zm0-22.583H133.5v22.583h22.583V130.5z" fill="#000"/><path d="M156.083 107.958H133.5v22.584h22.583v-22.584zm0-22.583H133.5v22.583h22.583V85.375zm0-22.583H133.5v22.583h22.583V62.792zm0-22.584H133.5v22.584h22.583V40.208zm0-22.583H133.5v22.583h22.583V17.625zm-22.541 383.833h-22.584v22.584h22.584v-22.584zm0-22.583h-22.584v22.583h22.584v-22.583zm0-22.583h-22.584v22.583h22.584v-22.583zm0-22.584h-22.584v22.584h22.584v-22.584zm0-22.583h-22.584v22.583h22.584v-22.583z" fill="#000"/><path d="M133.542 288.583h-22.584v22.584h22.584v-22.584zm0-22.583h-22.584v22.583h22.584V266z" fill="#000"/><path d="M133.542 243.417h-22.584V266h22.584v-22.583zm0-22.584h-22.584v22.584h22.584v-22.584zm0-22.583h-22.584v22.583h22.584V198.25z" fill="#fff"/><path d="M133.542 175.667h-22.584v22.583h22.584v-22.583zm0-22.584h-22.584v22.584h22.584v-22.584zm0-22.583h-22.584v22.583h22.584V130.5z" fill="#000"/><path d="M133.542 107.958h-22.584v22.584h22.584v-22.584zm0-22.583h-22.584v22.583h22.584V85.375zm0-22.583h-22.584v22.583h22.584V62.792zm0-22.584h-22.584v22.584h22.584V40.208zm0-22.583h-22.584v22.583h22.584V17.625zm-22.584 383.833H88.375v22.584h22.583v-22.584zm0-22.583H88.375v22.583h22.583v-22.583zm0-22.583H88.375v22.583h22.583v-22.583zm0-22.584H88.375v22.584h22.583v-22.584zm0-22.583H88.375v22.583h22.583v-22.583z" fill="#000"/><path d="M110.958 288.583H88.375v22.584h22.583v-22.584zm0-22.583H88.375v22.583h22.583V266zm0-22.583H88.375V266h22.583v-22.583zm0-22.584H88.375v22.584h22.583v-22.584zm0-22.583H88.375v22.583h22.583V198.25zm0-22.583H88.375v22.583h22.583v-22.583zm0-22.584H88.375v22.584h22.583v-22.584zm0-22.583H88.375v22.583h22.583V130.5z" fill="#000"/><path d="M110.958 107.958H88.375v22.584h22.583v-22.584zm0-22.583H88.375v22.583h22.583V85.375z" fill="#000"/><path d="M110.958 62.792H88.375v22.583h22.583V62.792z" fill="#fff"/><path d="M110.958 40.208H88.375v22.584h22.583V40.208zm0-22.583H88.375v22.583h22.583V17.625zM88.375 401.458H65.792v22.584h22.583v-22.584z" fill="#000"/><path d="M88.375 378.875H65.792v22.583h22.583v-22.583z" fill="#fff"/><path d="M88.375 356.292H65.792v22.583h22.583v-22.583z" fill="#000"/><path d="M88.375 333.708H65.792v22.584h22.583v-22.584zm0-22.583H65.792v22.583h22.583v-22.583z" fill="#000"/><path d="M88.375 288.583H65.792v22.584h22.583v-22.584zm0-22.583H65.792v22.583h22.583V266z" fill="#000"/><path d="M88.375 243.417H65.792V266h22.583v-22.583z" fill="#fff"/><path d="M88.375 220.833H65.792v22.584h22.583v-22.584zm0-22.583H65.792v22.583h22.583V198.25zm0-22.583H65.792v22.583h22.583v-22.583zm0-22.584H65.792v22.584h22.583v-22.584zm0-22.583H65.792v22.583h22.583V130.5z" fill="#000"/><path d="M88.375 107.958H65.792v22.584h22.583v-22.584zm0-22.583H65.792v22.583h22.583V85.375zm0-22.583H65.792v22.583h22.583V62.792zm0-22.584H65.792v22.584h22.583V40.208zm0-22.583H65.792v22.583h22.583V17.625zM65.792 401.458H43.208v22.584h22.584v-22.584zm0-22.583H43.208v22.583h22.584v-22.583zm0-22.583H43.208v22.583h22.584v-22.583zm0-22.584H43.208v22.584h22.584v-22.584zm0-22.583H43.208v22.583h22.584v-22.583z" fill="#000"/><path d="M65.792 288.583H43.208v22.584h22.584v-22.584zm0-22.583H43.208v22.583h22.584V266zm0-22.583H43.208V266h22.584v-22.583zm0-22.584H43.208v22.584h22.584v-22.584zm0-22.583H43.208v22.583h22.584V198.25zm0-22.583H43.208v22.583h22.584v-22.583zm0-22.584H43.208v22.584h22.584v-22.584z" fill="#000"/><path d="M65.792 130.5H43.208v22.583h22.584V130.5z" fill="#fff"/><path d="M65.792 107.958H43.208v22.584h22.584v-22.584z" fill="#fff"/><path d="M65.792 85.375H43.208v22.583h22.584V85.375zm0-22.583H43.208v22.583h22.584V62.792zm0-22.584H43.208v22.584h22.584V40.208zm0-22.583H43.208v22.583h22.584V17.625zM43.208 401.458H20.625v22.584h22.583v-22.584zm0-22.583H20.625v22.583h22.583v-22.583zm0-22.583H20.625v22.583h22.583v-22.583zm0-22.584H20.625v22.584h22.583v-22.584zm0-22.583H20.625v22.583h22.583v-22.583z" fill="#000"/><path d="M43.208 288.583H20.625v22.584h22.583v-22.584zm0-22.583H20.625v22.583h22.583V266zm0-22.583H20.625V266h22.583v-22.583zm0-22.584H20.625v22.584h22.583v-22.584zm0-22.583H20.625v22.583h22.583V198.25zm0-22.583H20.625v22.583h22.583v-22.583zm0-22.584H20.625v22.584h22.583v-22.584zm0-22.583H20.625v22.583h22.583V130.5z" fill="#000"/><path d="M43.208 107.958H20.625v22.584h22.583v-22.584zm0-22.583H20.625v22.583h22.583V85.375zm0-22.583H20.625v22.583h22.583V62.792zm0-22.584H20.625v22.584h22.583V40.208zm0-22.583H20.625v22.583h22.583V17.625z" fill="#000"/><path d="M106.125 394.333v-44.125H95.083v-11.041h33.084v11.041h-11.042v44.125h-11zm40.583-41.125h-11.041v41.125h11.041v-41.125zm30.834 41.125v-16.458H166.5v16.458h-11.042v-41.125H166.5v16.459h11.042v8.208h11.041v16.458h-11.041zm0-41.125h11.041v16.459h-11.041v-16.459zm56.875 41.125v-44.125h-11.042v-11.041h33.083v11.041h-11.041v44.125h-11zm29.041-41.125h33.125v41.125h-33.125v-41.125zm22.042 8.209h-11.042v24.666H285.5v-24.666zm41.583 32.916v-16.458h-11.041v16.458H305v-41.125h11.042v16.459h11.041v8.208h11.042v16.458h-11.042zm0-41.125h11.042v16.459h-11.042v-16.459z" fill="#fff"/></svg>