<svg width="180" height="180" viewBox="0 0 180 180" fill="none" xmlns="http://www.w3.org/2000/svg">
<path d="M163.262 12.6265H155.109V20.7794H163.262V12.6265Z" fill="white"/>
<path d="M163.262 20.7618H155.109V28.9147H163.262V20.7618Z" fill="white"/>
<path d="M163.262 28.9147H155.109V37.0677H163.262V28.9147Z" fill="white"/>
<path d="M163.262 37.05H155.109V45.1853H163.262V37.05Z" fill="white"/>
<path d="M163.262 45.203H155.109V53.3559H163.262V45.203Z" fill="#FDBA13"/>
<path d="M163.262 53.3383H155.109V61.4912H163.262V53.3383Z" fill="white"/>
<path d="M163.262 61.4912H155.109V69.6265H163.262V61.4912Z" fill="white"/>
<path d="M163.262 69.6265H155.109V77.7794H163.262V69.6265Z" fill="white"/>
<path d="M163.262 77.7794H155.109V85.9324H163.262V77.7794Z" fill="#FDBA13"/>
<path d="M163.262 85.9147H155.109V94.0677H163.262V85.9147Z" fill="white"/>
<path d="M163.262 94.0676H155.109V102.203H163.262V94.0676Z" fill="white"/>
<path d="M163.262 102.203H155.109V110.338H163.262V102.203Z" fill="white"/>
<path d="M163.262 110.356H155.109V118.509H163.262V110.356Z" fill="white"/>
<path d="M163.262 118.509H155.109V126.644H163.262V118.509Z" fill="white"/>
<path d="M163.262 126.644H155.109V134.779H163.262V126.644Z" fill="white"/>
<path d="M163.262 134.797H155.109V142.95H163.262V134.797Z" fill="#FDBA13"/>
<path d="M163.262 142.932H155.109V151.068H163.262V142.932Z" fill="white"/>
<path d="M163.262 151.085H155.109V159.238H163.262V151.085Z" fill="white"/>
<path d="M155.109 12.6265H146.956V20.7794H155.109V12.6265Z" fill="#FDBA13"/>
<path d="M155.109 20.7618H146.956V28.9147H155.109V20.7618Z" fill="white"/>
<path d="M155.109 28.9147H146.956V37.0677H155.109V28.9147Z" fill="white"/>
<path d="M155.109 37.05H146.956V45.1853H155.109V37.05Z" fill="white"/>
<path d="M155.109 45.203H146.956V53.3559H155.109V45.203Z" fill="white"/>
<path d="M155.109 53.3383H146.956V61.4912H155.109V53.3383Z" fill="white"/>
<path d="M155.109 61.4912H146.956V69.6265H155.109V61.4912Z" fill="white"/>
<path d="M155.109 69.6265H146.956V77.7794H155.109V69.6265Z" fill="white"/>
<path d="M155.109 77.7794H146.956V85.9324H155.109V77.7794Z" fill="white"/>
<path d="M155.109 85.9147H146.956V94.0677H155.109V85.9147Z" fill="white"/>
<path d="M155.109 94.0676H146.956V102.203H155.109V94.0676Z" fill="white"/>
<path d="M155.109 102.203H146.956V110.338H155.109V102.203Z" fill="white"/>
<path d="M155.109 110.356H146.956V118.509H155.109V110.356Z" fill="white"/>
<path d="M155.109 118.509H146.956V126.644H155.109V118.509Z" fill="white"/>
<path d="M155.109 126.644H146.956V134.779H155.109V126.644Z" fill="white"/>
<path d="M155.109 134.797H146.956V142.95H155.109V134.797Z" fill="white"/>
<path d="M155.109 142.932H146.956V151.068H155.109V142.932Z" fill="#FDBA13"/>
<path d="M155.109 151.085H146.956V159.238H155.109V151.085Z" fill="white"/>
<path d="M146.956 12.6265H138.821V20.7794H146.956V12.6265Z" fill="#FDBA13"/>
<path d="M146.956 20.7618H138.821V28.9147H146.956V20.7618Z" fill="white"/>
<path d="M146.956 28.9147H138.821V37.0677H146.956V28.9147Z" fill="white"/>
<path d="M146.956 37.05H138.821V45.1853H146.956V37.05Z" fill="white"/>
<path d="M146.956 45.203H138.821V53.3559H146.956V45.203Z" fill="white"/>
<path d="M146.956 53.3383H138.821V61.4912H146.956V53.3383Z" fill="white"/>
<path d="M146.956 61.4912H138.821V69.6265H146.956V61.4912Z" fill="white"/>
<path d="M146.956 69.6265H138.821V77.7794H146.956V69.6265Z" fill="white"/>
<path d="M146.956 77.7794H138.821V85.9324H146.956V77.7794Z" fill="white"/>
<path d="M146.956 85.9147H138.821V94.0677H146.956V85.9147Z" fill="white"/>
<path d="M146.956 94.0676H138.821V102.203H146.956V94.0676Z" fill="#FDBA13"/>
<path d="M146.956 102.203H138.821V110.338H146.956V102.203Z" fill="#FDBA13"/>
<path d="M146.956 110.356H138.821V118.509H146.956V110.356Z" fill="#FDBA13"/>
<path d="M146.956 118.509H138.821V126.644H146.956V118.509Z" fill="#FDBA13"/>
<path d="M146.956 126.644H138.821V134.779H146.956V126.644Z" fill="white"/>
<path d="M146.956 134.797H138.821V142.95H146.956V134.797Z" fill="white"/>
<path d="M146.956 142.932H138.821V151.068H146.956V142.932Z" fill="white"/>
<path d="M146.956 151.085H138.821V159.238H146.956V151.085Z" fill="white"/>
<path d="M138.821 12.6265H130.668V20.7794H138.821V12.6265Z" fill="white"/>
<path d="M138.821 20.7618H130.668V28.9147H138.821V20.7618Z" fill="white"/>
<path d="M138.821 28.9147H130.668V37.0677H138.821V28.9147Z" fill="white"/>
<path d="M138.821 37.05H130.668V45.1853H138.821V37.05Z" fill="#FDBA13"/>
<path d="M138.821 45.203H130.668V53.3559H138.821V45.203Z" fill="white"/>
<path d="M138.821 53.3383H130.668V61.4912H138.821V53.3383Z" fill="white"/>
<path d="M138.821 61.4912H130.668V69.6265H138.821V61.4912Z" fill="#FDBA13"/>
<path d="M138.821 69.6265H130.668V77.7794H138.821V69.6265Z" fill="#FDBA13"/>
<path d="M138.821 77.7794H130.668V85.9324H138.821V77.7794Z" fill="#FDBA13"/>
<path d="M138.821 85.9147H130.668V94.0677H138.821V85.9147Z" fill="#FDBA13"/>
<path d="M138.821 94.0676H130.668V102.203H138.821V94.0676Z" fill="#FDBA13"/>
<path d="M138.821 102.203H130.668V110.338H138.821V102.203Z" fill="#FDBA13"/>
<path d="M138.821 110.356H130.668V118.509H138.821V110.356Z" fill="#FDBA13"/>
<path d="M138.821 118.509H130.668V126.644H138.821V118.509Z" fill="#FDBA13"/>
<path d="M138.821 126.644H130.668V134.779H138.821V126.644Z" fill="white"/>
<path d="M138.821 134.797H130.668V142.95H138.821V134.797Z" fill="white"/>
<path d="M138.821 142.932H130.668V151.068H138.821V142.932Z" fill="white"/>
<path d="M138.821 151.085H130.668V159.238H138.821V151.085Z" fill="#FDBA13"/>
<path d="M130.685 12.6265H122.532V20.7794H130.685V12.6265Z" fill="white"/>
<path d="M130.685 20.7618H122.532V28.9147H130.685V20.7618Z" fill="white"/>
<path d="M130.685 28.9147H122.532V37.0677H130.685V28.9147Z" fill="white"/>
<path d="M130.685 37.05H122.532V45.1853H130.685V37.05Z" fill="white"/>
<path d="M130.685 45.203H122.532V53.3559H130.685V45.203Z" fill="white"/>
<path d="M130.685 53.3383H122.532V61.4912H130.685V53.3383Z" fill="#FDBA13"/>
<path d="M130.685 61.4912H122.532V69.6265H130.685V61.4912Z" fill="#FDBA13"/>
<path d="M130.685 69.6265H122.532V77.7794H130.685V69.6265Z" fill="#FDBA13"/>
<path d="M130.685 77.7794H122.532V85.9324H130.685V77.7794Z" fill="white"/>
<path d="M130.685 85.9147H122.532V94.0677H130.685V85.9147Z" fill="#FDBA13"/>
<path d="M130.685 94.0676H122.532V102.221H130.685V94.0676Z" fill="white"/>
<path d="M130.685 102.203H122.532V110.338H130.685V102.203Z" fill="white"/>
<path d="M130.685 110.356H122.532V118.509H130.685V110.356Z" fill="white"/>
<path d="M130.685 118.509H122.532V126.644H130.685V118.509Z" fill="white"/>
<path d="M130.685 126.644H122.532V134.779H130.685V126.644Z" fill="white"/>
<path d="M130.685 134.797H122.532V142.95H130.685V134.797Z" fill="white"/>
<path d="M130.685 142.932H122.532V151.068H130.685V142.932Z" fill="white"/>
<path d="M130.685 151.085H122.532V159.238H130.685V151.085Z" fill="white"/>
<path d="M122.532 12.6265H114.379V20.7794H122.532V12.6265Z" fill="white"/>
<path d="M122.532 20.7618H114.379V28.9147H122.532V20.7618Z" fill="white"/>
<path d="M122.532 28.9147H114.379V37.0677H122.532V28.9147Z" fill="white"/>
<path d="M122.532 37.05H114.379V45.1853H122.532V37.05Z" fill="white"/>
<path d="M122.532 45.203H114.379V53.3559H122.532V45.203Z" fill="#FDBA13"/>
<path d="M122.532 53.3383H114.379V61.4912H122.532V53.3383Z" fill="#FDBA13"/>
<path d="M122.532 61.4912H114.379V69.6265H122.532V61.4912Z" fill="white"/>
<path d="M122.532 69.6265H114.379V77.7794H122.532V69.6265Z" fill="white"/>
<path d="M122.532 77.7794H114.379V85.9324H122.532V77.7794Z" fill="white"/>
<path d="M122.532 85.9147H114.379V94.0677H122.532V85.9147Z" fill="white"/>
<path d="M122.532 94.0676H114.379V102.203H122.532V94.0676Z" fill="white"/>
<path d="M122.532 102.203H114.379V110.338H122.532V102.203Z" fill="white"/>
<path d="M122.532 110.356H114.379V118.509H122.532V110.356Z" fill="white"/>
<path d="M122.532 118.509H114.379V126.644H122.532V118.509Z" fill="#FDBA13"/>
<path d="M122.532 126.644H114.379V134.779H122.532V126.644Z" fill="white"/>
<path d="M122.532 134.797H114.379V142.95H122.532V134.797Z" fill="white"/>
<path d="M122.532 142.932H114.379V151.068H122.532V142.932Z" fill="white"/>
<path d="M122.532 151.085H114.379V159.238H122.532V151.085Z" fill="white"/>
<path d="M114.397 12.6265H106.244V20.7794H114.397V12.6265Z" fill="white"/>
<path d="M114.397 20.7618H106.244V28.9147H114.397V20.7618Z" fill="white"/>
<path d="M114.397 28.9147H106.244V37.0677H114.397V28.9147Z" fill="white"/>
<path d="M114.397 37.05H106.244V45.1853H114.397V37.05Z" fill="white"/>
<path d="M114.397 45.203H106.244V53.3559H114.397V45.203Z" fill="white"/>
<path d="M114.397 53.3383H106.244V61.4912H114.397V53.3383Z" fill="#FDBA13"/>
<path d="M114.397 61.4912H106.244V69.6265H114.397V61.4912Z" fill="#FDBA13"/>
<path d="M114.397 69.6265H106.244V77.7794H114.397V69.6265Z" fill="white"/>
<path d="M114.397 77.7794H106.244V85.9324H114.397V77.7794Z" fill="white"/>
<path d="M114.397 85.9147H106.244V94.0677H114.397V85.9147Z" fill="white"/>
<path d="M114.397 94.0676H106.244V102.203H114.397V94.0676Z" fill="white"/>
<path d="M114.397 102.203H106.244V110.338H114.397V102.203Z" fill="white"/>
<path d="M114.397 110.356H106.244V118.509H114.397V110.356Z" fill="white"/>
<path d="M114.397 118.509H106.244V126.644H114.397V118.509Z" fill="white"/>
<path d="M114.397 126.644H106.244V134.779H114.397V126.644Z" fill="#FDBA13"/>
<path d="M114.397 134.797H106.244V142.95H114.397V134.797Z" fill="white"/>
<path d="M114.397 142.932H106.244V151.068H114.397V142.932Z" fill="white"/>
<path d="M114.397 151.085H106.244V159.238H114.397V151.085Z" fill="white"/>
<path d="M106.244 12.6265H98.0912V20.7794H106.244V12.6265Z" fill="white"/>
<path d="M106.244 20.7618H98.0912V28.9147H106.244V20.7618Z" fill="#FDBA13"/>
<path d="M106.244 28.9147H98.0912V37.0677H106.244V28.9147Z" fill="white"/>
<path d="M106.244 37.05H98.0912V45.1853H106.244V37.05Z" fill="white"/>
<path d="M106.244 45.203H98.0912V53.3559H106.244V45.203Z" fill="white"/>
<path d="M106.244 53.3383H98.0912V61.4912H106.244V53.3383Z" fill="white"/>
<path d="M106.244 61.4912H98.0912V69.6265H106.244V61.4912Z" fill="#FDBA13"/>
<path d="M106.244 69.6265H98.0912V77.7794H106.244V69.6265Z" fill="#FDBA13"/>
<path d="M106.244 77.7794H98.0912V85.9324H106.244V77.7794Z" fill="#FDBA13"/>
<path d="M106.244 85.9147H98.0912V94.0677H106.244V85.9147Z" fill="white"/>
<path d="M106.244 94.0676H98.0912V102.203H106.244V94.0676Z" fill="white"/>
<path d="M106.244 102.203H98.0912V110.338H106.244V102.203Z" fill="white"/>
<path d="M106.244 110.356H98.0912V118.509H106.244V110.356Z" fill="white"/>
<path d="M106.244 118.509H98.0912V126.644H106.244V118.509Z" fill="white"/>
<path d="M106.244 126.644H98.0912V134.779H106.244V126.644Z" fill="white"/>
<path d="M106.244 134.797H98.0912V142.95H106.244V134.797Z" fill="white"/>
<path d="M106.244 142.932H98.0912V151.068H106.244V142.932Z" fill="white"/>
<path d="M106.244 151.085H98.0912V159.238H106.244V151.085Z" fill="white"/>
<path d="M98.1088 12.6265H89.9559V20.7794H98.1088V12.6265Z" fill="white"/>
<path d="M98.1088 20.7618H89.9559V28.9147H98.1088V20.7618Z" fill="white"/>
<path d="M98.1088 28.9147H89.9559V37.0677H98.1088V28.9147Z" fill="white"/>
<path d="M98.1088 37.05H89.9559V45.1853H98.1088V37.05Z" fill="white"/>
<path d="M98.1088 45.203H89.9559V53.3559H98.1088V45.203Z" fill="white"/>
<path d="M98.1088 53.3383H89.9559V61.4912H98.1088V53.3383Z" fill="white"/>
<path d="M98.1088 61.4912H89.9559V69.6265H98.1088V61.4912Z" fill="white"/>
<path d="M98.1088 69.6265H89.9559V77.7794H98.1088V69.6265Z" fill="white"/>
<path d="M98.1088 77.7794H89.9559V85.9324H98.1088V77.7794Z" fill="#FDBA13"/>
<path d="M98.1088 85.9147H89.9559V94.0677H98.1088V85.9147Z" fill="#FDBA13"/>
<path d="M98.1088 94.0676H89.9559V102.203H98.1088V94.0676Z" fill="#FDBA13"/>
<path d="M98.1088 102.203H89.9559V110.338H98.1088V102.203Z" fill="#FDBA13"/>
<path d="M98.1088 110.356H89.9559V118.509H98.1088V110.356Z" fill="#FDBA13"/>
<path d="M98.1088 118.509H89.9559V126.644H98.1088V118.509Z" fill="white"/>
<path d="M98.1088 126.644H89.9559V134.779H98.1088V126.644Z" fill="white"/>
<path d="M98.1088 134.797H89.9559V142.95H98.1088V134.797Z" fill="white"/>
<path d="M98.1088 142.932H89.9559V151.068H98.1088V142.932Z" fill="#FDBA13"/>
<path d="M98.1088 151.085H89.9559V159.238H98.1088V151.085Z" fill="white"/>
<path d="M89.9559 12.6265H81.803V20.7794H89.9559V12.6265Z" fill="white"/>
<path d="M89.9559 20.7618H81.803V28.9147H89.9559V20.7618Z" fill="white"/>
<path d="M89.9559 28.9147H81.803V37.0677H89.9559V28.9147Z" fill="white"/>
<path d="M89.9559 37.05H81.803V45.1853H89.9559V37.05Z" fill="white"/>
<path d="M89.9559 45.203H81.803V53.3559H89.9559V45.203Z" fill="#FDBA13"/>
<path d="M89.9559 53.3383H81.803V61.4912H89.9559V53.3383Z" fill="white"/>
<path d="M89.9559 61.4912H81.803V69.6265H89.9559V61.4912Z" fill="white"/>
<path d="M89.9559 69.6265H81.803V77.7794H89.9559V69.6265Z" fill="white"/>
<path d="M89.9559 77.7794H81.803V85.9324H89.9559V77.7794Z" fill="#FDBA13"/>
<path d="M89.9559 85.9147H81.803V94.0677H89.9559V85.9147Z" fill="#FDBA13"/>
<path d="M89.9559 94.0676H81.803V102.221H89.9559V94.0676Z" fill="#FDBA13"/>
<path d="M89.9559 102.203H81.803V110.338H89.9559V102.203Z" fill="#FDBA13"/>
<path d="M89.9559 110.356H81.803V118.509H89.9559V110.356Z" fill="#FDBA13"/>
<path d="M89.9559 118.509H81.803V126.644H89.9559V118.509Z" fill="white"/>
<path d="M89.9559 126.644H81.803V134.779H89.9559V126.644Z" fill="white"/>
<path d="M89.9559 134.797H81.803V142.95H89.9559V134.797Z" fill="#FDBA13"/>
<path d="M89.9559 142.932H81.803V151.068H89.9559V142.932Z" fill="white"/>
<path d="M89.9559 151.085H81.803V159.238H89.9559V151.085Z" fill="white"/>
<path d="M81.8206 12.6265H73.6677V20.7794H81.8206V12.6265Z" fill="#FDBA13"/>
<path d="M81.8206 20.7618H73.6677V28.9147H81.8206V20.7618Z" fill="white"/>
<path d="M81.8206 28.9147H73.6677V37.0677H81.8206V28.9147Z" fill="white"/>
<path d="M81.8206 37.05H73.6677V45.1853H81.8206V37.05Z" fill="white"/>
<path d="M81.8206 45.203H73.6677V53.3559H81.8206V45.203Z" fill="white"/>
<path d="M81.8206 53.3383H73.6677V61.4912H81.8206V53.3383Z" fill="white"/>
<path d="M81.8206 61.4912H73.6677V69.6265H81.8206V61.4912Z" fill="#FDBA13"/>
<path d="M81.8206 69.6265H73.6677V77.7794H81.8206V69.6265Z" fill="#FDBA13"/>
<path d="M81.8206 77.7794H73.6677V85.9324H81.8206V77.7794Z" fill="#FDBA13"/>
<path d="M81.8206 85.9147H73.6677V94.0677H81.8206V85.9147Z" fill="white"/>
<path d="M81.8206 94.0676H73.6677V102.203H81.8206V94.0676Z" fill="white"/>
<path d="M81.8206 102.203H73.6677V110.338H81.8206V102.203Z" fill="white"/>
<path d="M81.8206 110.356H73.6677V118.509H81.8206V110.356Z" fill="white"/>
<path d="M81.8206 118.509H73.6677V126.644H81.8206V118.509Z" fill="white"/>
<path d="M81.8206 126.644H73.6677V134.779H81.8206V126.644Z" fill="white"/>
<path d="M81.8206 134.797H73.6677V142.95H81.8206V134.797Z" fill="white"/>
<path d="M81.8206 142.932H73.6677V151.068H81.8206V142.932Z" fill="white"/>
<path d="M81.8206 151.085H73.6677V159.238H81.8206V151.085Z" fill="white"/>
<path d="M73.6676 12.6265H65.5147V20.7794H73.6676V12.6265Z" fill="#FDBA13"/>
<path d="M73.6676 20.7618H65.5147V28.9147H73.6676V20.7618Z" fill="white"/>
<path d="M73.6676 28.9147H65.5147V37.0677H73.6676V28.9147Z" fill="white"/>
<path d="M73.6676 37.05H65.5147V45.1853H73.6676V37.05Z" fill="white"/>
<path d="M73.6676 45.203H65.5147V53.3559H73.6676V45.203Z" fill="white"/>
<path d="M73.6676 53.3383H65.5147V61.4912H73.6676V53.3383Z" fill="#FDBA13"/>
<path d="M73.6676 61.4912H65.5147V69.6265H73.6676V61.4912Z" fill="#FDBA13"/>
<path d="M73.6676 69.6265H65.5147V77.7794H73.6676V69.6265Z" fill="white"/>
<path d="M73.6676 77.7794H65.5147V85.9324H73.6676V77.7794Z" fill="white"/>
<path d="M73.6676 85.9147H65.5147V94.0677H73.6676V85.9147Z" fill="white"/>
<path d="M73.6676 94.0676H65.5147V102.203H73.6676V94.0676Z" fill="white"/>
<path d="M73.6676 102.203H65.5147V110.338H73.6676V102.203Z" fill="white"/>
<path d="M73.6676 110.356H65.5147V118.509H73.6676V110.356Z" fill="white"/>
<path d="M73.6676 118.509H65.5147V126.644H73.6676V118.509Z" fill="white"/>
<path d="M73.6676 126.644H65.5147V134.779H73.6676V126.644Z" fill="white"/>
<path d="M73.6676 134.797H65.5147V142.95H73.6676V134.797Z" fill="white"/>
<path d="M73.6676 142.932H65.5147V151.068H73.6676V142.932Z" fill="white"/>
<path d="M73.6676 151.085H65.5147V159.238H73.6676V151.085Z" fill="white"/>
<path d="M65.4971 12.6265H57.3618V20.7794H65.4971V12.6265Z" fill="white"/>
<path d="M65.4971 20.7618H57.3618V28.9147H65.4971V20.7618Z" fill="white"/>
<path d="M65.4971 28.9147H57.3618V37.0677H65.4971V28.9147Z" fill="white"/>
<path d="M65.4971 37.05H57.3618V45.1853H65.4971V37.05Z" fill="white"/>
<path d="M65.4971 45.203H57.3618V53.3559H65.4971V45.203Z" fill="#FDBA13"/>
<path d="M65.4971 53.3383H57.3618V61.4912H65.4971V53.3383Z" fill="#FDBA13"/>
<path d="M65.4971 61.4912H57.3618V69.6265H65.4971V61.4912Z" fill="white"/>
<path d="M65.4971 69.6265H57.3618V77.7794H65.4971V69.6265Z" fill="white"/>
<path d="M65.4971 77.7794H57.3618V85.9324H65.4971V77.7794Z" fill="white"/>
<path d="M65.4971 85.9147H57.3618V94.0677H65.4971V85.9147Z" fill="white"/>
<path d="M65.4971 94.0676H57.3618V102.221H65.4971V94.0676Z" fill="white"/>
<path d="M65.4971 102.203H57.3618V110.338H65.4971V102.203Z" fill="white"/>
<path d="M65.4971 110.356H57.3618V118.509H65.4971V110.356Z" fill="white"/>
<path d="M65.4971 118.509H57.3618V126.644H65.4971V118.509Z" fill="white"/>
<path d="M65.4971 126.644H57.3618V134.779H65.4971V126.644Z" fill="white"/>
<path d="M65.4971 134.797H57.3618V142.95H65.4971V134.797Z" fill="white"/>
<path d="M65.4971 142.932H57.3618V151.068H65.4971V142.932Z" fill="white"/>
<path d="M65.4971 151.085H57.3618V159.238H65.4971V151.085Z" fill="white"/>
<path d="M57.3618 12.6265H49.2265V20.7794H57.3618V12.6265Z" fill="white"/>
<path d="M57.3618 20.7618H49.2265V28.9147H57.3618V20.7618Z" fill="white"/>
<path d="M57.3618 28.9147H49.2265V37.0677H57.3618V28.9147Z" fill="#FDBA13"/>
<path d="M57.3618 37.05H49.2265V45.1853H57.3618V37.05Z" fill="white"/>
<path d="M57.3618 45.203H49.2265V53.3559H57.3618V45.203Z" fill="white"/>
<path d="M57.3618 53.3383H49.2265V61.4912H57.3618V53.3383Z" fill="#FDBA13"/>
<path d="M57.3618 61.4912H49.2265V69.6265H57.3618V61.4912Z" fill="#FDBA13"/>
<path d="M57.3618 69.6265H49.2265V77.7794H57.3618V69.6265Z" fill="#FDBA13"/>
<path d="M57.3618 77.7794H49.2265V85.9324H57.3618V77.7794Z" fill="white"/>
<path d="M57.3618 85.9147H49.2265V94.0677H57.3618V85.9147Z" fill="white"/>
<path d="M57.3618 94.0676H49.2265V102.203H57.3618V94.0676Z" fill="white"/>
<path d="M57.3618 102.203H49.2265V110.338H57.3618V102.203Z" fill="white"/>
<path d="M57.3618 110.356H49.2265V118.509H57.3618V110.356Z" fill="white"/>
<path d="M57.3618 118.509H49.2265V126.644H57.3618V118.509Z" fill="white"/>
<path d="M57.3618 126.644H49.2265V134.779H57.3618V126.644Z" fill="white"/>
<path d="M57.3618 134.797H49.2265V142.95H57.3618V134.797Z" fill="white"/>
<path d="M57.3618 142.932H49.2265V151.068H57.3618V142.932Z" fill="white"/>
<path d="M57.3618 151.085H49.2265V159.238H57.3618V151.085Z" fill="white"/>
<path d="M49.2265 12.6265H41.0735V20.7794H49.2265V12.6265Z" fill="white"/>
<path d="M49.2265 20.7618H41.0735V28.9147H49.2265V20.7618Z" fill="white"/>
<path d="M49.2265 28.9147H41.0735V37.0677H49.2265V28.9147Z" fill="white"/>
<path d="M49.2265 37.05H41.0735V45.1853H49.2265V37.05Z" fill="white"/>
<path d="M49.2265 45.203H41.0735V53.3559H49.2265V45.203Z" fill="white"/>
<path d="M49.2265 53.3383H41.0735V61.4912H49.2265V53.3383Z" fill="white"/>
<path d="M49.2265 61.4912H41.0735V69.6265H49.2265V61.4912Z" fill="#FDBA13"/>
<path d="M49.2265 69.6265H41.0735V77.7794H49.2265V69.6265Z" fill="#FDBA13"/>
<path d="M49.2265 77.7794H41.0735V85.9324H49.2265V77.7794Z" fill="#FDBA13"/>
<path d="M49.2265 85.9147H41.0735V94.0677H49.2265V85.9147Z" fill="#FDBA13"/>
<path d="M49.2265 94.0676H41.0735V102.203H49.2265V94.0676Z" fill="#FDBA13"/>
<path d="M49.2265 102.203H41.0735V110.338H49.2265V102.203Z" fill="#FDBA13"/>
<path d="M49.2265 110.356H41.0735V118.509H49.2265V110.356Z" fill="#FDBA13"/>
<path d="M49.2265 118.509H41.0735V126.644H49.2265V118.509Z" fill="#FDBA13"/>
<path d="M49.2265 126.644H41.0735V134.779H49.2265V126.644Z" fill="white"/>
<path d="M49.2265 134.797H41.0735V142.95H49.2265V134.797Z" fill="white"/>
<path d="M49.2265 142.932H41.0735V151.068H49.2265V142.932Z" fill="#FDBA13"/>
<path d="M49.2265 151.085H41.0735V159.238H49.2265V151.085Z" fill="white"/>
<path d="M41.0736 12.6265H32.9383V20.7794H41.0736V12.6265Z" fill="white"/>
<path d="M41.0736 20.7618H32.9383V28.9147H41.0736V20.7618Z" fill="#FDBA13"/>
<path d="M41.0736 28.9147H32.9383V37.0677H41.0736V28.9147Z" fill="#FDBA13"/>
<path d="M41.0736 37.05H32.9383V45.1853H41.0736V37.05Z" fill="white"/>
<path d="M41.0736 45.203H32.9383V53.3559H41.0736V45.203Z" fill="white"/>
<path d="M41.0736 53.3383H32.9383V61.4912H41.0736V53.3383Z" fill="white"/>
<path d="M41.0736 61.4912H32.9383V69.6265H41.0736V61.4912Z" fill="white"/>
<path d="M41.0736 69.6265H32.9383V77.7794H41.0736V69.6265Z" fill="white"/>
<path d="M41.0736 77.7794H32.9383V85.9324H41.0736V77.7794Z" fill="white"/>
<path d="M41.0736 85.9147H32.9383V94.0677H41.0736V85.9147Z" fill="white"/>
<path d="M41.0736 94.0676H32.9383V102.203H41.0736V94.0676Z" fill="#FDBA13"/>
<path d="M41.0736 102.203H32.9383V110.338H41.0736V102.203Z" fill="#FDBA13"/>
<path d="M41.0736 110.356H32.9383V118.509H41.0736V110.356Z" fill="#FDBA13"/>
<path d="M41.0736 118.509H32.9383V126.644H41.0736V118.509Z" fill="#FDBA13"/>
<path d="M41.0736 126.644H32.9383V134.779H41.0736V126.644Z" fill="white"/>
<path d="M41.0736 134.797H32.9383V142.95H41.0736V134.797Z" fill="white"/>
<path d="M41.0736 142.932H32.9383V151.068H41.0736V142.932Z" fill="white"/>
<path d="M41.0736 151.085H32.9383V159.238H41.0736V151.085Z" fill="white"/>
<path d="M32.9383 12.6265H24.7853V20.7794H32.9383V12.6265Z" fill="white"/>
<path d="M32.9383 20.7618H24.7853V28.9147H32.9383V20.7618Z" fill="white"/>
<path d="M32.9383 28.9147H24.7853V37.0677H32.9383V28.9147Z" fill="white"/>
<path d="M32.9383 37.05H24.7853V45.1853H32.9383V37.05Z" fill="white"/>
<path d="M32.9383 45.203H24.7853V53.3559H32.9383V45.203Z" fill="#FDBA13"/>
<path d="M32.9383 53.3383H24.7853V61.4912H32.9383V53.3383Z" fill="white"/>
<path d="M32.9383 61.4912H24.7853V69.6265H32.9383V61.4912Z" fill="white"/>
<path d="M32.9383 69.6265H24.7853V77.7794H32.9383V69.6265Z" fill="white"/>
<path d="M32.9383 77.7794H24.7853V85.9324H32.9383V77.7794Z" fill="white"/>
<path d="M32.9383 85.9147H24.7853V94.0677H32.9383V85.9147Z" fill="white"/>
<path d="M32.9383 94.0676H24.7853V102.203H32.9383V94.0676Z" fill="white"/>
<path d="M32.9383 102.203H24.7853V110.338H32.9383V102.203Z" fill="white"/>
<path d="M32.9383 110.356H24.7853V118.509H32.9383V110.356Z" fill="white"/>
<path d="M32.9383 118.509H24.7853V126.644H32.9383V118.509Z" fill="white"/>
<path d="M32.9383 126.644H24.7853V134.779H32.9383V126.644Z" fill="white"/>
<path d="M32.9383 134.797H24.7853V142.95H32.9383V134.797Z" fill="white"/>
<path d="M32.9383 142.932H24.7853V151.068H32.9383V142.932Z" fill="white"/>
<path d="M32.9383 151.085H24.7853V159.238H32.9383V151.085Z" fill="white"/>
<path d="M24.803 12.6265H16.65V20.7794H24.803V12.6265Z" fill="white"/>
<path d="M24.803 20.7618H16.65V28.9147H24.803V20.7618Z" fill="white"/>
<path d="M24.803 28.9147H16.65V37.0677H24.803V28.9147Z" fill="white"/>
<path d="M24.803 37.05H16.65V45.1853H24.803V37.05Z" fill="white"/>
<path d="M24.803 45.203H16.65V53.3559H24.803V45.203Z" fill="white"/>
<path d="M24.803 53.3383H16.65V61.4912H24.803V53.3383Z" fill="white"/>
<path d="M24.803 61.4912H16.65V69.6265H24.803V61.4912Z" fill="white"/>
<path d="M24.803 69.6265H16.65V77.7794H24.803V69.6265Z" fill="white"/>
<path d="M24.803 77.7794H16.65V85.9324H24.803V77.7794Z" fill="white"/>
<path d="M24.803 85.9147H16.65V94.0677H24.803V85.9147Z" fill="white"/>
<path d="M24.803 94.0676H16.65V102.203H24.803V94.0676Z" fill="white"/>
<path d="M24.803 102.203H16.65V110.338H24.803V102.203Z" fill="#FDBA13"/>
<path d="M24.803 110.356H16.65V118.509H24.803V110.356Z" fill="white"/>
<path d="M24.803 118.509H16.65V126.644H24.803V118.509Z" fill="white"/>
<path d="M24.803 126.644H16.65V134.779H24.803V126.644Z" fill="#FDBA13"/>
<path d="M24.803 134.797H16.65V142.95H24.803V134.797Z" fill="white"/>
<path d="M24.803 142.932H16.65V151.068H24.803V142.932Z" fill="white"/>
<path d="M24.803 151.085H16.65V159.238H24.803V151.085Z" fill="white"/>
</svg>
