<svg width="995" height="295" fill="none" xmlns="http://www.w3.org/2000/svg"><path d="M957.8 291.7H37.4c-18.6 0-33.7-15.1-33.7-33.7V37.2c0-18.6 15.1-33.7 33.7-33.7h920.5c18.6 0 33.7 15.1 33.7 33.7V258c-.1 18.6-15.2 33.7-33.8 33.7z" fill="#040708"/><path d="M957.7 6.2c17 0 30.9 13.9 30.9 30.9V258c0 17-13.9 30.9-30.9 30.9H37.5C20.4 288.9 6.6 275 6.6 258V37.1C6.6 20 20.5 6.2 37.5 6.2h920.2zm0-5.9H37.5C17.3.3.7 16.9.7 37.1V258c0 20.2 16.6 36.8 36.8 36.8h920.2c20.2 0 36.8-16.6 36.8-36.8V37.1C994.5 16.9 978 .3 957.7.3z" fill="#A6A6A6"/><path d="M502.3 160.5c-17.3 0-31.4 13.2-31.4 31.3 0 18 14.1 31.3 31.4 31.3 17.3 0 31.4-13.3 31.4-31.3 0-18.2-14.1-31.3-31.4-31.3zm0 50.2c-9.5 0-17.7-7.8-17.7-19 0-11.3 8.2-19 17.7-19s17.7 7.7 17.7 19c0 11.2-8.2 19-17.7 19zm-68.6-50.2c-17.3 0-31.4 13.2-31.4 31.3 0 18 14.1 31.3 31.4 31.3 17.3 0 31.4-13.3 31.4-31.3.1-18.2-14.1-31.3-31.4-31.3zm0 50.2c-9.5 0-17.7-7.8-17.7-19 0-11.3 8.2-19 17.7-19s17.7 7.7 17.7 19c0 11.2-8.2 19-17.7 19zm-81.5-40.6v13.3H384c-.9 7.5-3.4 12.9-7.2 16.7-4.6 4.6-11.9 9.7-24.6 9.7-19.6 0-34.9-15.8-34.9-35.3 0-19.6 15.3-35.4 34.9-35.4 10.6 0 18.3 4.2 24 9.5l9.4-9.4c-8-7.6-18.5-13.4-33.3-13.4-26.8 0-49.3 21.8-49.3 48.6s22.5 48.6 49.3 48.6c14.5 0 25.4-4.7 33.9-13.6 8.8-8.8 11.5-21.1 11.5-31.1 0-3.1-.2-5.9-.7-8.3h-44.8v.1zm333.5 10.3c-2.6-7-10.6-19.9-26.8-19.9-16.1 0-29.5 12.7-29.5 31.3 0 17.6 13.3 31.3 31.1 31.3 14.3 0 22.7-8.8 26.1-13.9l-10.7-7.1c-3.6 5.2-8.4 8.7-15.4 8.7s-12-3.2-15.2-9.5l41.9-17.3-1.5-3.6zM643 190.8c-.4-12.1 9.4-18.3 16.4-18.3 5.5 0 10.1 2.7 11.6 6.6l-28 11.7zm-34 30.4h13.8v-92H609v92zm-22.6-53.7h-.4c-3.1-3.7-9-7-16.5-7-15.7 0-30 13.8-30 31.4 0 17.6 14.4 31.2 30 31.2 7.5 0 13.4-3.3 16.5-7.1h.5v4.5c0 12-6.4 18.4-16.7 18.4-8.4 0-13.6-6-15.8-11.1l-12 5c3.4 8.3 12.6 18.5 27.8 18.5 16.1 0 29.8-9.5 29.8-32.6v-56.2h-13.1v5h-.1zm-15.7 43.2c-9.5 0-17.4-7.9-17.4-18.9 0-11 7.9-19.1 17.4-19.1 9.4 0 16.7 8.1 16.7 19.1 0 11-7.4 18.9-16.7 18.9zm179.5-81.6h-32.9v92H731v-34.9h19.2c15.2 0 30.2-11 30.2-28.6s-15-28.5-30.2-28.5zm.3 44.4H731V142h19.5c10.3 0 16.1 8.5 16.1 15.8 0 7.1-5.8 15.7-16.1 15.7zm84.9-13.2c-9.9 0-20.2 4.4-24.5 14.1l12.2 5.1c2.6-5.1 7.5-6.8 12.6-6.8 7.1 0 14.3 4.3 14.4 11.8v.9c-2.5-1.4-7.8-3.5-14.3-3.5-13.1 0-26.5 7.2-26.5 20.7 0 12.3 10.8 20.3 22.9 20.3 9.2 0 14.3-4.1 17.5-9h.5v7.1h13.3v-35.3c-.1-16.3-12.3-25.4-28.1-25.4zm-1.6 50.4c-4.5 0-10.8-2.3-10.8-7.8 0-7.1 7.8-9.8 14.6-9.8 6 0 8.9 1.3 12.5 3.1-1.1 8.5-8.4 14.5-16.3 14.5zm77.9-48.4L896 202.2h-.5l-16.3-39.9h-14.8l24.5 55.8-14 31h14.3l37.8-86.8h-15.3zm-123.8 58.9h13.7v-92h-13.7v92z" fill="#222120"/><path d="M502.3 160.5c-17.3 0-31.4 13.2-31.4 31.3 0 18 14.1 31.3 31.4 31.3 17.3 0 31.4-13.3 31.4-31.3 0-18.2-14.1-31.3-31.4-31.3zm0 50.2c-9.5 0-17.7-7.8-17.7-19 0-11.3 8.2-19 17.7-19s17.7 7.7 17.7 19c0 11.2-8.2 19-17.7 19zm-68.6-50.2c-17.3 0-31.4 13.2-31.4 31.3 0 18 14.1 31.3 31.4 31.3 17.3 0 31.4-13.3 31.4-31.3.1-18.2-14.1-31.3-31.4-31.3zm0 50.2c-9.5 0-17.7-7.8-17.7-19 0-11.3 8.2-19 17.7-19s17.7 7.7 17.7 19c0 11.2-8.2 19-17.7 19zm-81.5-40.6v13.3H384c-.9 7.5-3.4 12.9-7.2 16.7-4.6 4.6-11.9 9.7-24.6 9.7-19.6 0-34.9-15.8-34.9-35.3 0-19.6 15.3-35.4 34.9-35.4 10.6 0 18.3 4.2 24 9.5l9.4-9.4c-8-7.6-18.5-13.4-33.3-13.4-26.8 0-49.3 21.8-49.3 48.6s22.5 48.6 49.3 48.6c14.5 0 25.4-4.7 33.9-13.6 8.8-8.8 11.5-21.1 11.5-31.1 0-3.1-.2-5.9-.7-8.3h-44.8v.1zm333.5 10.3c-2.6-7-10.6-19.9-26.8-19.9-16.1 0-29.5 12.7-29.5 31.3 0 17.6 13.3 31.3 31.1 31.3 14.3 0 22.7-8.8 26.1-13.9l-10.7-7.1c-3.6 5.2-8.4 8.7-15.4 8.7s-12-3.2-15.2-9.5l41.9-17.3-1.5-3.6zM643 190.8c-.4-12.1 9.4-18.3 16.4-18.3 5.5 0 10.1 2.7 11.6 6.6l-28 11.7zm-34 30.4h13.8v-92H609v92zm-22.6-53.7h-.4c-3.1-3.7-9-7-16.5-7-15.7 0-30 13.8-30 31.4 0 17.6 14.4 31.2 30 31.2 7.5 0 13.4-3.3 16.5-7.1h.5v4.5c0 12-6.4 18.4-16.7 18.4-8.4 0-13.6-6-15.8-11.1l-12 5c3.4 8.3 12.6 18.5 27.8 18.5 16.1 0 29.8-9.5 29.8-32.6v-56.2h-13.1v5h-.1zm-15.7 43.2c-9.5 0-17.4-7.9-17.4-18.9 0-11 7.9-19.1 17.4-19.1 9.4 0 16.7 8.1 16.7 19.1 0 11-7.4 18.9-16.7 18.9zm179.5-81.6h-32.9v92H731v-34.9h19.2c15.2 0 30.2-11 30.2-28.6s-15-28.5-30.2-28.5zm.3 44.4H731V142h19.5c10.3 0 16.1 8.5 16.1 15.8 0 7.1-5.8 15.7-16.1 15.7zm84.9-13.2c-9.9 0-20.2 4.4-24.5 14.1l12.2 5.1c2.6-5.1 7.5-6.8 12.6-6.8 7.1 0 14.3 4.3 14.4 11.8v.9c-2.5-1.4-7.8-3.5-14.3-3.5-13.1 0-26.5 7.2-26.5 20.7 0 12.3 10.8 20.3 22.9 20.3 9.2 0 14.3-4.1 17.5-9h.5v7.1h13.3v-35.3c-.1-16.3-12.3-25.4-28.1-25.4zm-1.6 50.4c-4.5 0-10.8-2.3-10.8-7.8 0-7.1 7.8-9.8 14.6-9.8 6 0 8.9 1.3 12.5 3.1-1.1 8.5-8.4 14.5-16.3 14.5zm77.9-48.4L896 202.2h-.5l-16.3-39.9h-14.8l24.5 55.8-14 31h14.3l37.8-86.8h-15.3zm-123.8 58.9h13.7v-92h-13.7v92z" stroke="#222120" stroke-width="5" stroke-miterlimit="10"/><path d="M319.6 97.2c-3 0-5.8-.9-8.6-2.8-2.8-1.8-4.7-4.6-5.8-8.2l5.4-2.3c.7 2.4 1.8 4.3 3.4 5.6 1.6 1.3 3.5 2 5.6 2 2.4 0 4.5-.8 6.2-2.3 1.7-1.5 2.6-3.4 2.6-5.6 0-2.2-.9-4-2.7-5.5-1.8-1.5-3.9-2.3-6.4-2.3h-3.8v-5.5h3.4c2.3 0 4.2-.6 5.8-1.9 1.5-1.3 2.3-3 2.3-5.2 0-2-.7-3.6-2.2-4.8-1.5-1.2-3.3-1.7-5.5-1.7-3.8 0-6.3 1.9-7.7 5.7l-5.5-2.3c.9-2.4 2.4-4.5 4.6-6.3 2.2-1.8 5-2.8 8.6-2.8 3.9 0 7.2 1.1 9.9 3.4 2.6 2.3 3.9 5.2 3.9 8.7 0 4.2-2 7.4-5.9 9.5v.3c2.1.9 3.9 2.3 5.3 4.1 1.4 1.8 2.1 4 2.1 6.6 0 3.9-1.4 7.1-4.3 9.7-3 2.7-6.6 3.9-10.7 3.9z" fill="#222120"/><path d="M319.6 97.2c-3 0-5.8-.9-8.6-2.8-2.8-1.8-4.7-4.6-5.8-8.2l5.4-2.3c.7 2.4 1.8 4.3 3.4 5.6 1.6 1.3 3.5 2 5.6 2 2.4 0 4.5-.8 6.2-2.3 1.7-1.5 2.6-3.4 2.6-5.6 0-2.2-.9-4-2.7-5.5-1.8-1.5-3.9-2.3-6.4-2.3h-3.8v-5.5h3.4c2.3 0 4.2-.6 5.8-1.9 1.5-1.3 2.3-3 2.3-5.2 0-2-.7-3.6-2.2-4.8-1.5-1.2-3.3-1.7-5.5-1.7-3.8 0-6.3 1.9-7.7 5.7l-5.5-2.3c.9-2.4 2.4-4.5 4.6-6.3 2.2-1.8 5-2.8 8.6-2.8 3.9 0 7.2 1.1 9.9 3.4 2.6 2.3 3.9 5.2 3.9 8.7 0 4.2-2 7.4-5.9 9.5v.3c2.1.9 3.9 2.3 5.3 4.1 1.4 1.8 2.1 4 2.1 6.6 0 3.9-1.4 7.1-4.3 9.7-3 2.7-6.6 3.9-10.7 3.9z" stroke="#222120" stroke-width="5" stroke-miterlimit="10"/><path d="M338.1 96.2l17.4-46.1h6.7l17.4 46.1H373l-4.4-12.5h-19.4l-4.5 12.5h-6.6zm13.1-18h15.3L359 57.4h-.3l-7.5 20.8z" fill="#222120"/><path d="M338.1 96.2l17.4-46.1h6.7l17.4 46.1H373l-4.4-12.5h-19.4l-4.5 12.5h-6.6zm13.1-18h15.3L359 57.4h-.3l-7.5 20.8z" stroke="#222120" stroke-width="5" stroke-miterlimit="10"/><path d="M385.6 96.2V50.1h16.7c3.6 0 6.7 1.2 9.4 3.6 2.7 2.4 4 5.4 4 9 0 2.2-.6 4.1-1.7 5.8-1.1 1.7-2.7 2.9-4.5 3.8v.3c2.3.8 4.1 2.1 5.6 4s2.2 4.1 2.2 6.6c0 3.8-1.4 6.9-4.2 9.4-2.8 2.5-6 3.7-9.8 3.7h-17.7v-.1zm5.9-26.3h10.8c2.2 0 4-.7 5.4-2.2 1.4-1.5 2-3.1 2-4.9 0-1.8-.7-3.4-2-4.8-1.3-1.5-3-2.2-5.2-2.2h-11v14.1zm0 20.6h11.9c2.3 0 4.1-.8 5.5-2.4 1.4-1.6 2.1-3.3 2.1-5.2 0-1.9-.7-3.6-2.2-5.2-1.5-1.6-3.4-2.3-5.7-2.3h-11.7v15.1h.1z" fill="#222120"/><path d="M385.6 96.2V50.1h16.7c3.6 0 6.7 1.2 9.4 3.6 2.7 2.4 4 5.4 4 9 0 2.2-.6 4.1-1.7 5.8-1.1 1.7-2.7 2.9-4.5 3.8v.3c2.3.8 4.1 2.1 5.6 4s2.2 4.1 2.2 6.6c0 3.8-1.4 6.9-4.2 9.4-2.8 2.5-6 3.7-9.8 3.7h-17.7v-.1zm5.9-26.3h10.8c2.2 0 4-.7 5.4-2.2 1.4-1.5 2-3.1 2-4.9 0-1.8-.7-3.4-2-4.8-1.3-1.5-3-2.2-5.2-2.2h-11v14.1zm0 20.6h11.9c2.3 0 4.1-.8 5.5-2.4 1.4-1.6 2.1-3.3 2.1-5.2 0-1.9-.7-3.6-2.2-5.2-1.5-1.6-3.4-2.3-5.7-2.3h-11.7v15.1h.1z" stroke="#222120" stroke-width="5" stroke-miterlimit="10"/><path d="M420.1 96.2l17.4-46.1h6.7l17.4 46.1H455l-4.4-12.5h-19.4l-4.5 12.5h-6.6zm13-18h15.3l-7.5-20.8h-.3l-7.5 20.8z" fill="#222120"/><path d="M420.1 96.2l17.4-46.1h6.7l17.4 46.1H455l-4.4-12.5h-19.4l-4.5 12.5h-6.6zm13-18h15.3l-7.5-20.8h-.3l-7.5 20.8z" stroke="#222120" stroke-width="5" stroke-miterlimit="10"/><path d="M467.5 96.2V50.1h5.9v19.8h23.1V50.1h5.9v46.1h-5.9V75.4h-23.1v20.8h-5.9z" fill="#222120"/><path d="M467.5 96.2V50.1h5.9v19.8h23.1V50.1h5.9v46.1h-5.9V75.4h-23.1v20.8h-5.9z" stroke="#222120" stroke-width="5" stroke-miterlimit="10"/><path d="M527.6 96.2h-5.9V55.8h-12.9v-5.7h31.7v5.7h-12.9v40.4z" fill="#222120"/><path d="M527.6 96.2h-5.9V55.8h-12.9v-5.7h31.7v5.7h-12.9v40.4z" stroke="#222120" stroke-width="5" stroke-miterlimit="10"/><path d="M538.9 96.2l17.4-46.1h6.7l17.4 46.1h-6.6l-4.4-12.5H550l-4.5 12.5h-6.6zm13.1-18h15.3l-7.5-20.8h-.3L552 78.2z" fill="#222120"/><path d="M538.9 96.2l17.4-46.1h6.7l17.4 46.1h-6.6l-4.4-12.5H550l-4.5 12.5h-6.6zm13.1-18h15.3l-7.5-20.8h-.3L552 78.2z" stroke="#222120" stroke-width="5" stroke-miterlimit="10"/><path d="M615.8 75.1v21.1h-5.9V75.1h-.3l-17.9 21.1H584V96l19.4-22.3-18.7-23.3v-.3h7.3l17.6 22.4h.3V50.1h5.9v22.4h.2l17.7-22.4h7.2v.3l-18.7 23.3L641.7 96v.2H634l-18-21.1h-.2z" fill="#222120"/><path d="M615.8 75.1v21.1h-5.9V75.1h-.3l-17.9 21.1H584V96l19.4-22.3-18.7-23.3v-.3h7.3l17.6 22.4h.3V50.1h5.9v22.4h.2l17.7-22.4h7.2v.3l-18.7 23.3L641.7 96v.2H634l-18-21.1h-.2z" stroke="#222120" stroke-width="5" stroke-miterlimit="10"/><path d="M682.9 50.1v46.1H677V67.5l.2-8.9h-.2l-23.5 37.6h-6.2V50.1h5.9v27L653 86h.2l22.5-35.9h7.2z" fill="#222120"/><path d="M682.9 50.1v46.1H677V67.5l.2-8.9h-.2l-23.5 37.6h-6.2V50.1h5.9v27L653 86h.2l22.5-35.9h7.2z" stroke="#222120" stroke-width="5" stroke-miterlimit="10"/><path d="M708 96.2h-5.9V55.8h-12.9v-5.7h31.7v5.7H708v40.4z" fill="#222120"/><path d="M708 96.2h-5.9V55.8h-12.9v-5.7h31.7v5.7H708v40.4z" stroke="#222120" stroke-width="5" stroke-miterlimit="10"/><path d="M763.1 50.1v46.1h-6V67.5l.3-8.9h-.3l-23.4 37.6h-6.2V50.1h5.9v27l-.2 8.9h.2l22.4-35.9h7.3z" fill="#222120"/><path d="M763.1 50.1v46.1h-6V67.5l.3-8.9h-.3l-23.4 37.6h-6.2V50.1h5.9v27l-.2 8.9h.2l22.4-35.9h7.3z" stroke="#222120" stroke-width="5" stroke-miterlimit="10"/><path d="M798.6 97.2c-3 0-5.8-.9-8.6-2.8-2.8-1.8-4.7-4.6-5.8-8.2l5.4-2.3c.7 2.4 1.8 4.3 3.4 5.6 1.6 1.3 3.5 2 5.6 2 2.4 0 4.5-.8 6.2-2.3 1.7-1.5 2.6-3.4 2.6-5.6 0-2.2-.9-4-2.7-5.5-1.8-1.5-3.9-2.3-6.4-2.3h-3.8v-5.5h3.3c2.3 0 4.2-.6 5.8-1.9 1.5-1.3 2.3-3 2.3-5.2 0-2-.7-3.6-2.2-4.8-1.5-1.2-3.3-1.7-5.5-1.7-3.8 0-6.3 1.9-7.7 5.7l-5.5-2.3c.9-2.4 2.4-4.5 4.6-6.3 2.2-1.8 5-2.8 8.6-2.8 3.9 0 7.2 1.1 9.9 3.4 2.6 2.3 3.9 5.2 3.9 8.7 0 4.2-2 7.4-5.9 9.5v.3c2.1.9 3.9 2.3 5.3 4.1 1.4 1.8 2.1 4 2.1 6.6 0 3.9-1.4 7.1-4.3 9.7-2.9 2.7-6.4 3.9-10.6 3.9z" fill="#222120"/><path d="M798.6 97.2c-3 0-5.8-.9-8.6-2.8-2.8-1.8-4.7-4.6-5.8-8.2l5.4-2.3c.7 2.4 1.8 4.3 3.4 5.6 1.6 1.3 3.5 2 5.6 2 2.4 0 4.5-.8 6.2-2.3 1.7-1.5 2.6-3.4 2.6-5.6 0-2.2-.9-4-2.7-5.5-1.8-1.5-3.9-2.3-6.4-2.3h-3.8v-5.5h3.3c2.3 0 4.2-.6 5.8-1.9 1.5-1.3 2.3-3 2.3-5.2 0-2-.7-3.6-2.2-4.8-1.5-1.2-3.3-1.7-5.5-1.7-3.8 0-6.3 1.9-7.7 5.7l-5.5-2.3c.9-2.4 2.4-4.5 4.6-6.3 2.2-1.8 5-2.8 8.6-2.8 3.9 0 7.2 1.1 9.9 3.4 2.6 2.3 3.9 5.2 3.9 8.7 0 4.2-2 7.4-5.9 9.5v.3c2.1.9 3.9 2.3 5.3 4.1 1.4 1.8 2.1 4 2.1 6.6 0 3.9-1.4 7.1-4.3 9.7-2.9 2.7-6.4 3.9-10.6 3.9z" stroke="#222120" stroke-width="5" stroke-miterlimit="10"/><path d="M502.3 160.5c-17.3 0-31.4 13.2-31.4 31.3 0 18 14.1 31.3 31.4 31.3 17.3 0 31.4-13.3 31.4-31.3 0-18.2-14.1-31.3-31.4-31.3zm0 50.2c-9.5 0-17.7-7.8-17.7-19 0-11.3 8.2-19 17.7-19s17.7 7.7 17.7 19c0 11.2-8.2 19-17.7 19zm-68.6-50.2c-17.3 0-31.4 13.2-31.4 31.3 0 18 14.1 31.3 31.4 31.3 17.3 0 31.4-13.3 31.4-31.3.1-18.2-14.1-31.3-31.4-31.3zm0 50.2c-9.5 0-17.7-7.8-17.7-19 0-11.3 8.2-19 17.7-19s17.7 7.7 17.7 19c0 11.2-8.2 19-17.7 19zm-81.5-40.6v13.3H384c-.9 7.5-3.4 12.9-7.2 16.7-4.6 4.6-11.9 9.7-24.6 9.7-19.6 0-34.9-15.8-34.9-35.3 0-19.6 15.3-35.4 34.9-35.4 10.6 0 18.3 4.2 24 9.5l9.4-9.4c-8-7.6-18.5-13.4-33.3-13.4-26.8 0-49.3 21.8-49.3 48.6s22.5 48.6 49.3 48.6c14.5 0 25.4-4.7 33.9-13.6 8.8-8.8 11.5-21.1 11.5-31.1 0-3.1-.2-5.9-.7-8.3h-44.8v.1zm333.5 10.3c-2.6-7-10.6-19.9-26.8-19.9-16.1 0-29.5 12.7-29.5 31.3 0 17.6 13.3 31.3 31.1 31.3 14.3 0 22.7-8.8 26.1-13.9l-10.7-7.1c-3.6 5.2-8.4 8.7-15.4 8.7s-12-3.2-15.2-9.5l41.9-17.3-1.5-3.6zM643 190.8c-.4-12.1 9.4-18.3 16.4-18.3 5.5 0 10.1 2.7 11.6 6.6l-28 11.7zm-34 30.4h13.8v-92H609v92zm-22.6-53.7h-.4c-3.1-3.7-9-7-16.5-7-15.7 0-30 13.8-30 31.4 0 17.6 14.4 31.2 30 31.2 7.5 0 13.4-3.3 16.5-7.1h.5v4.5c0 12-6.4 18.4-16.7 18.4-8.4 0-13.6-6-15.8-11.1l-12 5c3.4 8.3 12.6 18.5 27.8 18.5 16.1 0 29.8-9.5 29.8-32.6v-56.2h-13.1v5h-.1zm-15.7 43.2c-9.5 0-17.4-7.9-17.4-18.9 0-11 7.9-19.1 17.4-19.1 9.4 0 16.7 8.1 16.7 19.1 0 11-7.4 18.9-16.7 18.9zm179.5-81.6h-32.9v92H731v-34.9h19.2c15.2 0 30.2-11 30.2-28.6s-15-28.5-30.2-28.5zm.3 44.4H731V142h19.5c10.3 0 16.1 8.5 16.1 15.8 0 7.1-5.8 15.7-16.1 15.7zm84.9-13.2c-9.9 0-20.2 4.4-24.5 14.1l12.2 5.1c2.6-5.1 7.5-6.8 12.6-6.8 7.1 0 14.3 4.3 14.4 11.8v.9c-2.5-1.4-7.8-3.5-14.3-3.5-13.1 0-26.5 7.2-26.5 20.7 0 12.3 10.8 20.3 22.9 20.3 9.2 0 14.3-4.1 17.5-9h.5v7.1h13.3v-35.3c-.1-16.3-12.3-25.4-28.1-25.4zm-1.6 50.4c-4.5 0-10.8-2.3-10.8-7.8 0-7.1 7.8-9.8 14.6-9.8 6 0 8.9 1.3 12.5 3.1-1.1 8.5-8.4 14.5-16.3 14.5zm77.9-48.4L896 202.2h-.5l-16.3-39.9h-14.8l24.5 55.8-14 31h14.3l37.8-86.8h-15.3zm-123.8 58.9h13.7v-92h-13.7v92zm-468.3-124c-3 0-5.8-.9-8.6-2.8-2.8-1.8-4.7-4.6-5.8-8.2l5.4-2.3c.7 2.4 1.8 4.3 3.4 5.6 1.6 1.3 3.5 2 5.6 2 2.4 0 4.5-.8 6.2-2.3 1.7-1.5 2.6-3.4 2.6-5.6 0-2.2-.9-4-2.7-5.5-1.8-1.5-3.9-2.3-6.4-2.3h-3.8v-5.5h3.4c2.3 0 4.2-.6 5.8-1.9 1.5-1.3 2.3-3 2.3-5.2 0-2-.7-3.6-2.2-4.8-1.5-1.2-3.3-1.7-5.5-1.7-3.8 0-6.3 1.9-7.7 5.7l-5.5-2.3c.9-2.4 2.4-4.5 4.6-6.3 2.2-1.8 5-2.8 8.6-2.8 3.9 0 7.2 1.1 9.9 3.4 2.6 2.3 3.9 5.2 3.9 8.7 0 4.2-2 7.4-5.9 9.5v.3c2.1.9 3.9 2.3 5.3 4.1 1.4 1.8 2.1 4 2.1 6.6 0 3.9-1.4 7.1-4.3 9.7-3 2.7-6.6 3.9-10.7 3.9zm18.5-1l17.4-46.1h6.7l17.4 46.1H373l-4.4-12.5h-19.4l-4.5 12.5h-6.6zm13.1-18h15.3L359 57.4h-.3l-7.5 20.8zm34.4 18V50.1h16.7c3.6 0 6.7 1.2 9.4 3.6 2.7 2.4 4 5.4 4 9 0 2.2-.6 4.1-1.7 5.8-1.1 1.7-2.7 2.9-4.5 3.8v.3c2.3.8 4.1 2.1 5.6 4s2.2 4.1 2.2 6.6c0 3.8-1.4 6.9-4.2 9.4-2.8 2.5-6 3.7-9.8 3.7h-17.7v-.1zm5.9-26.3h10.8c2.2 0 4-.7 5.4-2.2 1.4-1.5 2-3.1 2-4.9 0-1.8-.7-3.4-2-4.8-1.3-1.5-3-2.2-5.2-2.2h-11v14.1zm0 20.6h11.9c2.3 0 4.1-.8 5.5-2.4 1.4-1.6 2.1-3.3 2.1-5.2 0-1.9-.7-3.6-2.2-5.2-1.5-1.6-3.4-2.3-5.7-2.3h-11.7v15.1h.1zm28.6 5.7l17.4-46.1h6.7l17.4 46.1H455l-4.4-12.5h-19.4l-4.5 12.5h-6.6zm13-18h15.3l-7.5-20.8h-.3l-7.5 20.8zm34.4 18V50.1h5.9v19.8h23.1V50.1h5.9v46.1h-5.9V75.4h-23.1v20.8h-5.9zm60.1 0h-5.9V55.8h-12.9v-5.7h31.7v5.7h-12.9v40.4zm11.3 0l17.4-46.1h6.7l17.4 46.1h-6.6l-4.4-12.5H550l-4.5 12.5h-6.6zm13.1-18h15.3l-7.5-20.8h-.3L552 78.2zm63.8-3.1v21.1h-5.9V75.1h-.3l-17.9 21.1H584V96l19.4-22.3-18.7-23.3v-.3h7.3l17.6 22.4h.3V50.1h5.9v22.4h.2l17.7-22.4h7.2v.3l-18.7 23.3L641.7 96v.2H634l-18-21.1h-.2zm67.1-25v46.1H677V67.5l.2-8.9h-.2l-23.5 37.6h-6.2V50.1h5.9v27L653 86h.2l22.5-35.9h7.2zM708 96.2h-5.9V55.8h-12.9v-5.7h31.7v5.7H708v40.4zm55.1-46.1v46.1h-6V67.5l.3-8.9h-.3l-23.4 37.6h-6.2V50.1h5.9v27l-.2 8.9h.2l22.4-35.9h7.3zm35.5 47.1c-3 0-5.8-.9-8.6-2.8-2.8-1.8-4.7-4.6-5.8-8.2l5.4-2.3c.7 2.4 1.8 4.3 3.4 5.6 1.6 1.3 3.5 2 5.6 2 2.4 0 4.5-.8 6.2-2.3 1.7-1.5 2.6-3.4 2.6-5.6 0-2.2-.9-4-2.7-5.5-1.8-1.5-3.9-2.3-6.4-2.3h-3.8v-5.5h3.3c2.3 0 4.2-.6 5.8-1.9 1.5-1.3 2.3-3 2.3-5.2 0-2-.7-3.6-2.2-4.8-1.5-1.2-3.3-1.7-5.5-1.7-3.8 0-6.3 1.9-7.7 5.7l-5.5-2.3c.9-2.4 2.4-4.5 4.6-6.3 2.2-1.8 5-2.8 8.6-2.8 3.9 0 7.2 1.1 9.9 3.4 2.6 2.3 3.9 5.2 3.9 8.7 0 4.2-2 7.4-5.9 9.5v.3c2.1.9 3.9 2.3 5.3 4.1 1.4 1.8 2.1 4 2.1 6.6 0 3.9-1.4 7.1-4.3 9.7-2.9 2.7-6.4 3.9-10.6 3.9zm-495.7 79.9h-11.4v11.4h11.4v-11.4zM291.5 52h-11.4v11.4h11.4V52z" fill="#fff"/><path d="M291.5 40.7h-11.4v11.4h11.4V40.7zm0-11.4h-11.4v11.4h11.4V29.3zm0-11.4h-11.4v11.4h11.4V17.9zm-11.3 238.7h-11.4V268h11.4v-11.4zm0-125h-11.4V143h11.4v-11.4zm0-45.5h-11.4v11.4h11.4V86.1zm-11.4 170.5h-11.4V268h11.4v-11.4zm-22.7-45.4h-11.4v11.4h11.4v-11.4zm0-11.4h-11.4v11.4h11.4v-11.4zm0-45.5h-11.4v11.4h11.4v-11.4z" fill="#fff"/><path d="M246.1 143h-11.4v11.4h11.4V143zm0-68.2h-11.4v11.4h11.4V74.8zm-11.4 147.7h-11.4v11.4h11.4v-11.4z" fill="#fff"/><path d="M234.7 211.2h-11.4v11.4h11.4v-11.4zm0-56.9h-11.4v11.4h11.4v-11.4z" fill="#fff"/><path d="M234.7 143h-11.4v11.4h11.4V143zm0-11.4h-11.4V143h11.4v-11.4zM223.3 268h-11.4v11.4h11.4V268z" fill="#fff"/><path d="M223.3 154.3h-11.4v11.4h11.4v-11.4z" fill="#fff"/><path d="M223.3 143h-11.4v11.4h11.4V143zm0-11.4h-11.4V143h11.4v-11.4zm0-113.7h-11.4v11.4h11.4V17.9zM212 165.7h-11.4v11.4H212v-11.4z" fill="#fff"/><path d="M212 154.3h-11.4v11.4H212v-11.4z" fill="#fff"/><path d="M212 143h-11.4v11.4H212V143zm0-11.4h-11.4V143H212v-11.4zm0-11.4h-11.4v11.4H212v-11.4zm0-34.1h-11.4v11.4H212V86.1zm0-34.1h-11.4v11.4H212V52zm-11.4 125.1h-11.4v11.4h11.4v-11.4zm0-11.4h-11.4v11.4h11.4v-11.4z" fill="#fff"/><path d="M200.6 154.3h-11.4v11.4h11.4v-11.4z" fill="#fff"/><path d="M200.6 143h-11.4v11.4h11.4V143zm0-11.4h-11.4V143h11.4v-11.4zm0-11.4h-11.4v11.4h11.4v-11.4zm0-102.3h-11.4v11.4h11.4V17.9zm-11.4 227.4h-11.4v11.4h11.4v-11.4zm0-68.2h-11.4v11.4h11.4v-11.4zm0-11.4h-11.4v11.4h11.4v-11.4zm0-11.4h-11.4v11.4h11.4v-11.4z" fill="#fff"/><path d="M189.2 143h-11.4v11.4h11.4V143zm0-11.4h-11.4V143h11.4v-11.4zm0-11.4h-11.4v11.4h11.4v-11.4zm0-102.3h-11.4v11.4h11.4V17.9zm-11.3 170.5h-11.4v11.4h11.4v-11.4z" fill="#fff"/><path d="M177.9 177.1h-11.4v11.4h11.4v-11.4zm0-11.4h-11.4v11.4h11.4v-11.4z" fill="#fff"/><path d="M177.9 154.3h-11.4v11.4h11.4v-11.4z" fill="#fff"/><path d="M177.9 143h-11.4v11.4h11.4V143z" fill="#000"/><path d="M177.9 131.6h-11.4V143h11.4v-11.4zm0-11.4h-11.4v11.4h11.4v-11.4z" fill="#fff"/><path d="M177.9 108.9h-11.4v11.4h11.4v-11.4zm-11.4 79.5h-11.4v11.4h11.4v-11.4z" fill="#fff"/><path d="M166.5 177.1h-11.4v11.4h11.4v-11.4zm0-11.4h-11.4v11.4h11.4v-11.4z" fill="#fff"/><path d="M166.5 154.3h-11.4v11.4h11.4v-11.4z" fill="#fff"/><path d="M166.5 143h-11.4v11.4h11.4V143zm0-11.4h-11.4V143h11.4v-11.4z" fill="#fff"/><path d="M166.5 120.2h-11.4v11.4h11.4v-11.4z" fill="#000"/><path d="M166.5 108.9h-11.4v11.4h11.4v-11.4zm0-11.4h-11.4v11.4h11.4V97.5zm0-45.5h-11.4v11.4h11.4V52zm-11.4 193.3h-11.4v11.4h11.4v-11.4zm0-45.5h-11.4v11.4h11.4v-11.4zm0-11.4h-11.4v11.4h11.4v-11.4z" fill="#fff"/><path d="M155.1 177.1h-11.4v11.4h11.4v-11.4z" fill="#000"/><path d="M155.1 165.7h-11.4v11.4h11.4v-11.4z" fill="#fff"/><path d="M155.1 154.3h-11.4v11.4h11.4v-11.4z" fill="#fff"/><path d="M155.1 143h-11.4v11.4h11.4V143zm0-11.4h-11.4V143h11.4v-11.4zm0-11.4h-11.4v11.4h11.4v-11.4z" fill="#fff"/><path d="M155.1 108.9h-11.4v11.4h11.4v-11.4zm0-11.4h-11.4v11.4h11.4V97.5zm0-11.4h-11.4v11.4h11.4V86.1zm-11.3 113.7h-11.4v11.4h11.4v-11.4zm0-11.4h-11.4v11.4h11.4v-11.4z" fill="#fff"/><path d="M143.8 177.1h-11.4v11.4h11.4v-11.4z" fill="#000"/><path d="M143.8 165.7h-11.4v11.4h11.4v-11.4z" fill="#fff"/><path d="M143.8 154.3h-11.4v11.4h11.4v-11.4z" fill="#fff"/><path d="M143.8 143h-11.4v11.4h11.4V143zm0-11.4h-11.4V143h11.4v-11.4zm0-11.4h-11.4v11.4h11.4v-11.4z" fill="#fff"/><path d="M143.8 108.9h-11.4v11.4h11.4v-11.4zm0-11.4h-11.4v11.4h11.4V97.5zm0-11.4h-11.4v11.4h11.4V86.1zm0-34.1h-11.4v11.4h11.4V52zm-11.4 159.2H121v11.4h11.4v-11.4z" fill="#fff"/><path d="M132.4 199.8H121v11.4h11.4v-11.4zm0-11.4H121v11.4h11.4v-11.4z" fill="#fff"/><path d="M132.4 177.1H121v11.4h11.4v-11.4zm0-11.4H121v11.4h11.4v-11.4z" fill="#fff"/><path d="M132.4 154.3H121v11.4h11.4v-11.4z" fill="#fff"/><path d="M132.4 143H121v11.4h11.4V143zm0-11.4H121V143h11.4v-11.4zm0-11.4H121v11.4h11.4v-11.4z" fill="#fff"/><path d="M132.4 108.9H121v11.4h11.4v-11.4zm0-11.4H121v11.4h11.4V97.5zm0-11.4H121v11.4h11.4V86.1z" fill="#fff"/><path d="M132.4 74.8H121v11.4h11.4V74.8zM121 211.2h-11.4v11.4H121v-11.4z" fill="#fff"/><path d="M121 199.8h-11.4v11.4H121v-11.4zm0-11.4h-11.4v11.4H121v-11.4z" fill="#fff"/><path d="M121 177.1h-11.4v11.4H121v-11.4z" fill="#000"/><path d="M121 165.7h-11.4v11.4H121v-11.4z" fill="#fff"/><path d="M121 154.3h-11.4v11.4H121v-11.4z" fill="#fff"/><path d="M121 143h-11.4v11.4H121V143zm0-11.4h-11.4V143H121v-11.4zm0-11.4h-11.4v11.4H121v-11.4z" fill="#fff"/><path d="M121 108.9h-11.4v11.4H121v-11.4z" fill="#fff"/><path d="M121 97.5h-11.4v11.4H121V97.5z" fill="#000"/><path d="M121 86.1h-11.4v11.4H121V86.1z" fill="#fff"/><path d="M121 74.8h-11.4v11.4H121V74.8zm-11.3 147.7H98.3v11.4h11.4v-11.4z" fill="#fff"/><path d="M109.7 211.2H98.3v11.4h11.4v-11.4z" fill="#fff"/><path d="M109.7 199.8H98.3v11.4h11.4v-11.4zm0-11.4H98.3v11.4h11.4v-11.4z" fill="#fff"/><path d="M109.7 177.1H98.3v11.4h11.4v-11.4zm0-11.4H98.3v11.4h11.4v-11.4z" fill="#fff"/><path d="M109.7 154.3H98.3v11.4h11.4v-11.4z" fill="#fff"/><path d="M109.7 143H98.3v11.4h11.4V143z" fill="#000"/><path d="M109.7 131.6H98.3V143h11.4v-11.4zm0-11.4H98.3v11.4h11.4v-11.4z" fill="#fff"/><path d="M109.7 108.9H98.3v11.4h11.4v-11.4zm0-11.4H98.3v11.4h11.4V97.5zm0-11.4H98.3v11.4h11.4V86.1z" fill="#fff"/><path d="M109.7 74.8H98.3v11.4h11.4V74.8zM98.3 222.5H86.9v11.4h11.4v-11.4z" fill="#fff"/><path d="M98.3 211.2H86.9v11.4h11.4v-11.4z" fill="#fff"/><path d="M98.3 199.8H86.9v11.4h11.4v-11.4zm0-11.4H86.9v11.4h11.4v-11.4z" fill="#fff"/><path d="M98.3 177.1H86.9v11.4h11.4v-11.4zm0-11.4H86.9v11.4h11.4v-11.4z" fill="#fff"/><path d="M98.3 154.3H86.9v11.4h11.4v-11.4z" fill="#fff"/><path d="M98.3 143H86.9v11.4h11.4V143zm0-11.4H86.9V143h11.4v-11.4zm0-11.4H86.9v11.4h11.4v-11.4z" fill="#fff"/><path d="M98.3 108.9H86.9v11.4h11.4v-11.4zm0-11.4H86.9v11.4h11.4V97.5zm0-11.4H86.9v11.4h11.4V86.1z" fill="#fff"/><path d="M98.3 74.8H86.9v11.4h11.4V74.8zm0-11.4H86.9v11.4h11.4V63.4zM86.9 233.9H75.5v11.4h11.4v-11.4z" fill="#fff"/><path d="M86.9 222.5H75.5v11.4h11.4v-11.4z" fill="#000"/><path d="M86.9 211.2H75.5v11.4h11.4v-11.4z" fill="#fff"/><path d="M86.9 199.8H75.5v11.4h11.4v-11.4zm0-11.4H75.5v11.4h11.4v-11.4z" fill="#fff"/><path d="M86.9 177.1H75.5v11.4h11.4v-11.4zm0-11.4H75.5v11.4h11.4v-11.4z" fill="#fff"/><path d="M86.9 154.3H75.5v11.4h11.4v-11.4z" fill="#fff"/><path d="M86.9 143H75.5v11.4h11.4V143zm0-11.4H75.5V143h11.4v-11.4zm0-11.4H75.5v11.4h11.4v-11.4z" fill="#fff"/><path d="M86.9 108.9H75.5v11.4h11.4v-11.4zm0-11.4H75.5v11.4h11.4V97.5zm0-11.4H75.5v11.4h11.4V86.1z" fill="#fff"/><path d="M86.9 74.8H75.5v11.4h11.4V74.8zm0-11.4H75.5v11.4h11.4V63.4zm0-56.8H75.5V18h11.4V6.6zM75.6 177.1H64.2v11.4h11.4v-11.4zm0-56.9H64.2v11.4h11.4v-11.4z" fill="#fff"/><path d="M75.6 17.9H64.2v11.4h11.4V17.9zM64.2 268H52.8v11.4h11.4V268zm-11.4-45.5H41.4v11.4h11.4v-11.4zm0-102.3H41.4v11.4h11.4v-11.4zm0-34.1H41.4v11.4h11.4V86.1z" fill="#fff"/><path d="M41.5 211.2H30.1v11.4h11.4v-11.4zm0-68.2H30.1v11.4h11.4V143zM30.1 29.3H18.7v11.4h11.4V29.3z" fill="#fff"/></svg>