<svg width="995" height="295" viewBox="0 0 995 295" fill="none" xmlns="http://www.w3.org/2000/svg">
<path d="M957.8 291.7H37.4C18.8 291.7 3.69995 276.6 3.69995 258V37.2C3.69995 18.6 18.8 3.5 37.4 3.5H957.9C976.5 3.5 991.6 18.6 991.6 37.2V258C991.5 276.6 976.4 291.7 957.8 291.7Z" fill="#040708"/>
<path d="M957.7 6.20001C974.7 6.20001 988.6 20.1 988.6 37.1V258C988.6 275 974.7 288.9 957.7 288.9H37.5C20.4 288.9 6.59995 275 6.59995 258V37.1C6.59995 20 20.5 6.20001 37.5 6.20001H957.7V6.20001ZM957.7 0.299988H37.5C17.2999 0.299988 0.699951 16.9 0.699951 37.1V258C0.699951 278.2 17.2999 294.8 37.5 294.8H957.7C977.9 294.8 994.5 278.2 994.5 258V37.1C994.5 16.9 978 0.299988 957.7 0.299988Z" fill="#A6A6A6"/>
<path d="M502.3 160.5C485 160.5 470.9 173.7 470.9 191.8C470.9 209.8 485 223.1 502.3 223.1C519.6 223.1 533.7 209.8 533.7 191.8C533.7 173.6 519.6 160.5 502.3 160.5ZM502.3 210.7C492.8 210.7 484.6 202.9 484.6 191.7C484.6 180.4 492.8 172.7 502.3 172.7C511.8 172.7 520 180.4 520 191.7C520 202.9 511.8 210.7 502.3 210.7ZM433.7 160.5C416.4 160.5 402.3 173.7 402.3 191.8C402.3 209.8 416.4 223.1 433.7 223.1C451 223.1 465.1 209.8 465.1 191.8C465.2 173.6 451 160.5 433.7 160.5ZM433.7 210.7C424.2 210.7 416 202.9 416 191.7C416 180.4 424.2 172.7 433.7 172.7C443.2 172.7 451.4 180.4 451.4 191.7C451.4 202.9 443.2 210.7 433.7 210.7ZM352.2 170.1V183.4H384C383.1 190.9 380.6 196.3 376.8 200.1C372.2 204.7 364.9 209.8 352.2 209.8C332.6 209.8 317.3 194 317.3 174.5C317.3 154.9 332.6 139.1 352.2 139.1C362.8 139.1 370.5 143.3 376.2 148.6L385.6 139.2C377.6 131.6 367.1 125.8 352.3 125.8C325.5 125.8 303 147.6 303 174.4C303 201.2 325.5 223 352.3 223C366.8 223 377.7 218.3 386.2 209.4C395 200.6 397.7 188.3 397.7 178.3C397.7 175.2 397.5 172.4 397 170H352.2V170.1ZM685.7 180.4C683.1 173.4 675.1 160.5 658.9 160.5C642.8 160.5 629.4 173.2 629.4 191.8C629.4 209.4 642.7 223.1 660.5 223.1C674.8 223.1 683.2 214.3 686.6 209.2L675.9 202.1C672.3 207.3 667.5 210.8 660.5 210.8C653.5 210.8 648.5 207.6 645.3 201.3L687.2 184L685.7 180.4ZM643 190.8C642.6 178.7 652.4 172.5 659.4 172.5C664.9 172.5 669.5 175.2 671 179.1L643 190.8ZM609 221.2H622.8V129.2H609V221.2ZM586.4 167.5H586C582.9 163.8 577 160.5 569.5 160.5C553.8 160.5 539.5 174.3 539.5 191.9C539.5 209.5 553.9 223.1 569.5 223.1C577 223.1 582.9 219.8 586 216H586.5V220.5C586.5 232.5 580.1 238.9 569.8 238.9C561.4 238.9 556.2 232.9 554 227.8L542 232.8C545.4 241.1 554.6 251.3 569.8 251.3C585.9 251.3 599.6 241.8 599.6 218.7V162.5H586.5V167.5H586.4ZM570.7 210.7C561.2 210.7 553.3 202.8 553.3 191.8C553.3 180.8 561.2 172.7 570.7 172.7C580.1 172.7 587.4 180.8 587.4 191.8C587.4 202.8 580 210.7 570.7 210.7ZM750.2 129.1H717.3V221.1H731V186.2H750.2C765.4 186.2 780.4 175.2 780.4 157.6C780.4 140 765.4 129.1 750.2 129.1ZM750.5 173.5H731V142H750.5C760.8 142 766.6 150.5 766.6 157.8C766.6 164.9 760.8 173.5 750.5 173.5ZM835.4 160.3C825.5 160.3 815.2 164.7 810.9 174.4L823.1 179.5C825.7 174.4 830.6 172.7 835.7 172.7C842.8 172.7 850 177 850.1 184.5V185.4C847.6 184 842.3 181.9 835.8 181.9C822.7 181.9 809.3 189.1 809.3 202.6C809.3 214.9 820.1 222.9 832.2 222.9C841.4 222.9 846.5 218.8 849.7 213.9H850.2V221H863.5V185.7C863.4 169.4 851.2 160.3 835.4 160.3ZM833.8 210.7C829.3 210.7 823 208.4 823 202.9C823 195.8 830.8 193.1 837.6 193.1C843.6 193.1 846.5 194.4 850.1 196.2C849 204.7 841.7 210.7 833.8 210.7ZM911.7 162.3L896 202.2H895.5L879.2 162.3H864.4L888.9 218.1L874.9 249.1H889.2L927 162.3H911.7ZM787.9 221.2H801.6V129.2H787.9V221.2Z" fill="#222120"/>
<path d="M502.3 160.5C485 160.5 470.9 173.7 470.9 191.8C470.9 209.8 485 223.1 502.3 223.1C519.6 223.1 533.7 209.8 533.7 191.8C533.7 173.6 519.6 160.5 502.3 160.5ZM502.3 210.7C492.8 210.7 484.6 202.9 484.6 191.7C484.6 180.4 492.8 172.7 502.3 172.7C511.8 172.7 520 180.4 520 191.7C520 202.9 511.8 210.7 502.3 210.7ZM433.7 160.5C416.4 160.5 402.3 173.7 402.3 191.8C402.3 209.8 416.4 223.1 433.7 223.1C451 223.1 465.1 209.8 465.1 191.8C465.2 173.6 451 160.5 433.7 160.5ZM433.7 210.7C424.2 210.7 416 202.9 416 191.7C416 180.4 424.2 172.7 433.7 172.7C443.2 172.7 451.4 180.4 451.4 191.7C451.4 202.9 443.2 210.7 433.7 210.7ZM352.2 170.1V183.4H384C383.1 190.9 380.6 196.3 376.8 200.1C372.2 204.7 364.9 209.8 352.2 209.8C332.6 209.8 317.3 194 317.3 174.5C317.3 154.9 332.6 139.1 352.2 139.1C362.8 139.1 370.5 143.3 376.2 148.6L385.6 139.2C377.6 131.6 367.1 125.8 352.3 125.8C325.5 125.8 303 147.6 303 174.4C303 201.2 325.5 223 352.3 223C366.8 223 377.7 218.3 386.2 209.4C395 200.6 397.7 188.3 397.7 178.3C397.7 175.2 397.5 172.4 397 170H352.2V170.1ZM685.7 180.4C683.1 173.4 675.1 160.5 658.9 160.5C642.8 160.5 629.4 173.2 629.4 191.8C629.4 209.4 642.7 223.1 660.5 223.1C674.8 223.1 683.2 214.3 686.6 209.2L675.9 202.1C672.3 207.3 667.5 210.8 660.5 210.8C653.5 210.8 648.5 207.6 645.3 201.3L687.2 184L685.7 180.4ZM643 190.8C642.6 178.7 652.4 172.5 659.4 172.5C664.9 172.5 669.5 175.2 671 179.1L643 190.8ZM609 221.2H622.8V129.2H609V221.2ZM586.4 167.5H586C582.9 163.8 577 160.5 569.5 160.5C553.8 160.5 539.5 174.3 539.5 191.9C539.5 209.5 553.9 223.1 569.5 223.1C577 223.1 582.9 219.8 586 216H586.5V220.5C586.5 232.5 580.1 238.9 569.8 238.9C561.4 238.9 556.2 232.9 554 227.8L542 232.8C545.4 241.1 554.6 251.3 569.8 251.3C585.9 251.3 599.6 241.8 599.6 218.7V162.5H586.5V167.5H586.4ZM570.7 210.7C561.2 210.7 553.3 202.8 553.3 191.8C553.3 180.8 561.2 172.7 570.7 172.7C580.1 172.7 587.4 180.8 587.4 191.8C587.4 202.8 580 210.7 570.7 210.7ZM750.2 129.1H717.3V221.1H731V186.2H750.2C765.4 186.2 780.4 175.2 780.4 157.6C780.4 140 765.4 129.1 750.2 129.1ZM750.5 173.5H731V142H750.5C760.8 142 766.6 150.5 766.6 157.8C766.6 164.9 760.8 173.5 750.5 173.5ZM835.4 160.3C825.5 160.3 815.2 164.7 810.9 174.4L823.1 179.5C825.7 174.4 830.6 172.7 835.7 172.7C842.8 172.7 850 177 850.1 184.5V185.4C847.6 184 842.3 181.9 835.8 181.9C822.7 181.9 809.3 189.1 809.3 202.6C809.3 214.9 820.1 222.9 832.2 222.9C841.4 222.9 846.5 218.8 849.7 213.9H850.2V221H863.5V185.7C863.4 169.4 851.2 160.3 835.4 160.3ZM833.8 210.7C829.3 210.7 823 208.4 823 202.9C823 195.8 830.8 193.1 837.6 193.1C843.6 193.1 846.5 194.4 850.1 196.2C849 204.7 841.7 210.7 833.8 210.7ZM911.7 162.3L896 202.2H895.5L879.2 162.3H864.4L888.9 218.1L874.9 249.1H889.2L927 162.3H911.7ZM787.9 221.2H801.6V129.2H787.9V221.2Z" stroke="#222120" stroke-width="5" stroke-miterlimit="10"/>
<path d="M319.6 97.2C316.6 97.2 313.8 96.3 311 94.4C308.2 92.6 306.3 89.8 305.2 86.2L310.6 83.9C311.3 86.3 312.4 88.2 314 89.5C315.6 90.8 317.5 91.5 319.6 91.5C322 91.5 324.1 90.7 325.8 89.2C327.5 87.7 328.4 85.8 328.4 83.6C328.4 81.4 327.5 79.6 325.7 78.1C323.9 76.6 321.8 75.8 319.3 75.8H315.5V70.3H318.9C321.2 70.3 323.1 69.7 324.7 68.4C326.2 67.1 327 65.4 327 63.2C327 61.2 326.3 59.6 324.8 58.4C323.3 57.2 321.5 56.7 319.3 56.7C315.5 56.7 313 58.6 311.6 62.4L306.1 60.1C307 57.7 308.5 55.6 310.7 53.8C312.9 52 315.7 51 319.3 51C323.2 51 326.5 52.1 329.2 54.4C331.8 56.7 333.1 59.6 333.1 63.1C333.1 67.3 331.1 70.5 327.2 72.6V72.9C329.3 73.8 331.1 75.2 332.5 77C333.9 78.8 334.6 81 334.6 83.6C334.6 87.5 333.2 90.7 330.3 93.3C327.3 96 323.7 97.2 319.6 97.2Z" fill="#222120"/>
<path d="M319.6 97.2C316.6 97.2 313.8 96.3 311 94.4C308.2 92.6 306.3 89.8 305.2 86.2L310.6 83.9C311.3 86.3 312.4 88.2 314 89.5C315.6 90.8 317.5 91.5 319.6 91.5C322 91.5 324.1 90.7 325.8 89.2C327.5 87.7 328.4 85.8 328.4 83.6C328.4 81.4 327.5 79.6 325.7 78.1C323.9 76.6 321.8 75.8 319.3 75.8H315.5V70.3H318.9C321.2 70.3 323.1 69.7 324.7 68.4C326.2 67.1 327 65.4 327 63.2C327 61.2 326.3 59.6 324.8 58.4C323.3 57.2 321.5 56.7 319.3 56.7C315.5 56.7 313 58.6 311.6 62.4L306.1 60.1C307 57.7 308.5 55.6 310.7 53.8C312.9 52 315.7 51 319.3 51C323.2 51 326.5 52.1 329.2 54.4C331.8 56.7 333.1 59.6 333.1 63.1C333.1 67.3 331.1 70.5 327.2 72.6V72.9C329.3 73.8 331.1 75.2 332.5 77C333.9 78.8 334.6 81 334.6 83.6C334.6 87.5 333.2 90.7 330.3 93.3C327.3 96 323.7 97.2 319.6 97.2Z" stroke="#222120" stroke-width="5" stroke-miterlimit="10"/>
<path d="M338.1 96.2L355.5 50.1H362.2L379.6 96.2H373L368.6 83.7H349.2L344.7 96.2H338.1ZM351.2 78.2H366.5L359 57.4H358.7L351.2 78.2Z" fill="#222120"/>
<path d="M338.1 96.2L355.5 50.1H362.2L379.6 96.2H373L368.6 83.7H349.2L344.7 96.2H338.1ZM351.2 78.2H366.5L359 57.4H358.7L351.2 78.2Z" stroke="#222120" stroke-width="5" stroke-miterlimit="10"/>
<path d="M385.6 96.2V50.1H402.3C405.9 50.1 409 51.3 411.7 53.7C414.4 56.1 415.7 59.1 415.7 62.7C415.7 64.9 415.1 66.8 414 68.5C412.9 70.2 411.3 71.4 409.5 72.3V72.6C411.8 73.4 413.6 74.7 415.1 76.6C416.6 78.5 417.3 80.7 417.3 83.2C417.3 87 415.9 90.1 413.1 92.6C410.3 95.1 407.1 96.3 403.3 96.3H385.6V96.2ZM391.5 69.9H402.3C404.5 69.9 406.3 69.2 407.7 67.7C409.1 66.2 409.7 64.6 409.7 62.8C409.7 61 409 59.4 407.7 58C406.4 56.5 404.7 55.8 402.5 55.8H391.5V69.9ZM391.5 90.5H403.4C405.7 90.5 407.5 89.7 408.9 88.1C410.3 86.5 411 84.8 411 82.9C411 81 410.3 79.3 408.8 77.7C407.3 76.1 405.4 75.4 403.1 75.4H391.4V90.5H391.5Z" fill="#222120"/>
<path d="M385.6 96.2V50.1H402.3C405.9 50.1 409 51.3 411.7 53.7C414.4 56.1 415.7 59.1 415.7 62.7C415.7 64.9 415.1 66.8 414 68.5C412.9 70.2 411.3 71.4 409.5 72.3V72.6C411.8 73.4 413.6 74.7 415.1 76.6C416.6 78.5 417.3 80.7 417.3 83.2C417.3 87 415.9 90.1 413.1 92.6C410.3 95.1 407.1 96.3 403.3 96.3H385.6V96.2ZM391.5 69.9H402.3C404.5 69.9 406.3 69.2 407.7 67.7C409.1 66.2 409.7 64.6 409.7 62.8C409.7 61 409 59.4 407.7 58C406.4 56.5 404.7 55.8 402.5 55.8H391.5V69.9ZM391.5 90.5H403.4C405.7 90.5 407.5 89.7 408.9 88.1C410.3 86.5 411 84.8 411 82.9C411 81 410.3 79.3 408.8 77.7C407.3 76.1 405.4 75.4 403.1 75.4H391.4V90.5H391.5Z" stroke="#222120" stroke-width="5" stroke-miterlimit="10"/>
<path d="M420.1 96.2L437.5 50.1H444.2L461.6 96.2H455L450.6 83.7H431.2L426.7 96.2H420.1ZM433.1 78.2H448.4L440.9 57.4H440.6L433.1 78.2Z" fill="#222120"/>
<path d="M420.1 96.2L437.5 50.1H444.2L461.6 96.2H455L450.6 83.7H431.2L426.7 96.2H420.1ZM433.1 78.2H448.4L440.9 57.4H440.6L433.1 78.2Z" stroke="#222120" stroke-width="5" stroke-miterlimit="10"/>
<path d="M467.5 96.2V50.1H473.4V69.9H496.5V50.1H502.4V96.2H496.5V75.4H473.4V96.2H467.5Z" fill="#222120"/>
<path d="M467.5 96.2V50.1H473.4V69.9H496.5V50.1H502.4V96.2H496.5V75.4H473.4V96.2H467.5Z" stroke="#222120" stroke-width="5" stroke-miterlimit="10"/>
<path d="M527.6 96.2H521.7V55.8H508.8V50.1H540.5V55.8H527.6V96.2Z" fill="#222120"/>
<path d="M527.6 96.2H521.7V55.8H508.8V50.1H540.5V55.8H527.6V96.2Z" stroke="#222120" stroke-width="5" stroke-miterlimit="10"/>
<path d="M538.9 96.2L556.3 50.1H563L580.4 96.2H573.8L569.4 83.7H550L545.5 96.2H538.9ZM552 78.2H567.3L559.8 57.4H559.5L552 78.2Z" fill="#222120"/>
<path d="M538.9 96.2L556.3 50.1H563L580.4 96.2H573.8L569.4 83.7H550L545.5 96.2H538.9ZM552 78.2H567.3L559.8 57.4H559.5L552 78.2Z" stroke="#222120" stroke-width="5" stroke-miterlimit="10"/>
<path d="M615.8 75.1V96.2H609.9V75.1H609.6L591.7 96.2H584V96L603.4 73.7L584.7 50.4V50.1H592L609.6 72.5H609.9V50.1H615.8V72.5H616L633.7 50.1H640.9V50.4L622.2 73.7L641.7 96V96.2H634L616 75.1H615.8Z" fill="#222120"/>
<path d="M615.8 75.1V96.2H609.9V75.1H609.6L591.7 96.2H584V96L603.4 73.7L584.7 50.4V50.1H592L609.6 72.5H609.9V50.1H615.8V72.5H616L633.7 50.1H640.9V50.4L622.2 73.7L641.7 96V96.2H634L616 75.1H615.8Z" stroke="#222120" stroke-width="5" stroke-miterlimit="10"/>
<path d="M682.9 50.1V96.2H677V67.5L677.2 58.6H677L653.5 96.2H647.3V50.1H653.2V77.1L653 86H653.2L675.7 50.1H682.9Z" fill="#222120"/>
<path d="M682.9 50.1V96.2H677V67.5L677.2 58.6H677L653.5 96.2H647.3V50.1H653.2V77.1L653 86H653.2L675.7 50.1H682.9Z" stroke="#222120" stroke-width="5" stroke-miterlimit="10"/>
<path d="M708 96.2H702.1V55.8H689.2V50.1H720.9V55.8H708V96.2Z" fill="#222120"/>
<path d="M708 96.2H702.1V55.8H689.2V50.1H720.9V55.8H708V96.2Z" stroke="#222120" stroke-width="5" stroke-miterlimit="10"/>
<path d="M763.1 50.1V96.2H757.1V67.5L757.4 58.6H757.1L733.7 96.2H727.5V50.1H733.4V77.1L733.2 86H733.4L755.8 50.1H763.1Z" fill="#222120"/>
<path d="M763.1 50.1V96.2H757.1V67.5L757.4 58.6H757.1L733.7 96.2H727.5V50.1H733.4V77.1L733.2 86H733.4L755.8 50.1H763.1Z" stroke="#222120" stroke-width="5" stroke-miterlimit="10"/>
<path d="M798.6 97.2C795.6 97.2 792.8 96.3 790 94.4C787.2 92.6 785.3 89.8 784.2 86.2L789.6 83.9C790.3 86.3 791.4 88.2 793 89.5C794.6 90.8 796.5 91.5 798.6 91.5C801 91.5 803.1 90.7 804.8 89.2C806.5 87.7 807.4 85.8 807.4 83.6C807.4 81.4 806.5 79.6 804.7 78.1C802.9 76.6 800.8 75.8 798.3 75.8H794.5V70.3H797.8C800.1 70.3 802 69.7 803.6 68.4C805.1 67.1 805.9 65.4 805.9 63.2C805.9 61.2 805.2 59.6 803.7 58.4C802.2 57.2 800.4 56.7 798.2 56.7C794.4 56.7 791.9 58.6 790.5 62.4L785 60.1C785.9 57.7 787.4 55.6 789.6 53.8C791.8 52 794.6 51 798.2 51C802.1 51 805.4 52.1 808.1 54.4C810.7 56.7 812 59.6 812 63.1C812 67.3 810 70.5 806.1 72.6V72.9C808.2 73.8 810 75.2 811.4 77C812.8 78.8 813.5 81 813.5 83.6C813.5 87.5 812.1 90.7 809.2 93.3C806.3 96 802.8 97.2 798.6 97.2Z" fill="#222120"/>
<path d="M798.6 97.2C795.6 97.2 792.8 96.3 790 94.4C787.2 92.6 785.3 89.8 784.2 86.2L789.6 83.9C790.3 86.3 791.4 88.2 793 89.5C794.6 90.8 796.5 91.5 798.6 91.5C801 91.5 803.1 90.7 804.8 89.2C806.5 87.7 807.4 85.8 807.4 83.6C807.4 81.4 806.5 79.6 804.7 78.1C802.9 76.6 800.8 75.8 798.3 75.8H794.5V70.3H797.8C800.1 70.3 802 69.7 803.6 68.4C805.1 67.1 805.9 65.4 805.9 63.2C805.9 61.2 805.2 59.6 803.7 58.4C802.2 57.2 800.4 56.7 798.2 56.7C794.4 56.7 791.9 58.6 790.5 62.4L785 60.1C785.9 57.7 787.4 55.6 789.6 53.8C791.8 52 794.6 51 798.2 51C802.1 51 805.4 52.1 808.1 54.4C810.7 56.7 812 59.6 812 63.1C812 67.3 810 70.5 806.1 72.6V72.9C808.2 73.8 810 75.2 811.4 77C812.8 78.8 813.5 81 813.5 83.6C813.5 87.5 812.1 90.7 809.2 93.3C806.3 96 802.8 97.2 798.6 97.2Z" stroke="#222120" stroke-width="5" stroke-miterlimit="10"/>
<path d="M502.3 160.5C485 160.5 470.9 173.7 470.9 191.8C470.9 209.8 485 223.1 502.3 223.1C519.6 223.1 533.7 209.8 533.7 191.8C533.7 173.6 519.6 160.5 502.3 160.5ZM502.3 210.7C492.8 210.7 484.6 202.9 484.6 191.7C484.6 180.4 492.8 172.7 502.3 172.7C511.8 172.7 520 180.4 520 191.7C520 202.9 511.8 210.7 502.3 210.7ZM433.7 160.5C416.4 160.5 402.3 173.7 402.3 191.8C402.3 209.8 416.4 223.1 433.7 223.1C451 223.1 465.1 209.8 465.1 191.8C465.2 173.6 451 160.5 433.7 160.5ZM433.7 210.7C424.2 210.7 416 202.9 416 191.7C416 180.4 424.2 172.7 433.7 172.7C443.2 172.7 451.4 180.4 451.4 191.7C451.4 202.9 443.2 210.7 433.7 210.7ZM352.2 170.1V183.4H384C383.1 190.9 380.6 196.3 376.8 200.1C372.2 204.7 364.9 209.8 352.2 209.8C332.6 209.8 317.3 194 317.3 174.5C317.3 154.9 332.6 139.1 352.2 139.1C362.8 139.1 370.5 143.3 376.2 148.6L385.6 139.2C377.6 131.6 367.1 125.8 352.3 125.8C325.5 125.8 303 147.6 303 174.4C303 201.2 325.5 223 352.3 223C366.8 223 377.7 218.3 386.2 209.4C395 200.6 397.7 188.3 397.7 178.3C397.7 175.2 397.5 172.4 397 170H352.2V170.1ZM685.7 180.4C683.1 173.4 675.1 160.5 658.9 160.5C642.8 160.5 629.4 173.2 629.4 191.8C629.4 209.4 642.7 223.1 660.5 223.1C674.8 223.1 683.2 214.3 686.6 209.2L675.9 202.1C672.3 207.3 667.5 210.8 660.5 210.8C653.5 210.8 648.5 207.6 645.3 201.3L687.2 184L685.7 180.4ZM643 190.8C642.6 178.7 652.4 172.5 659.4 172.5C664.9 172.5 669.5 175.2 671 179.1L643 190.8ZM609 221.2H622.8V129.2H609V221.2ZM586.4 167.5H586C582.9 163.8 577 160.5 569.5 160.5C553.8 160.5 539.5 174.3 539.5 191.9C539.5 209.5 553.9 223.1 569.5 223.1C577 223.1 582.9 219.8 586 216H586.5V220.5C586.5 232.5 580.1 238.9 569.8 238.9C561.4 238.9 556.2 232.9 554 227.8L542 232.8C545.4 241.1 554.6 251.3 569.8 251.3C585.9 251.3 599.6 241.8 599.6 218.7V162.5H586.5V167.5H586.4ZM570.7 210.7C561.2 210.7 553.3 202.8 553.3 191.8C553.3 180.8 561.2 172.7 570.7 172.7C580.1 172.7 587.4 180.8 587.4 191.8C587.4 202.8 580 210.7 570.7 210.7ZM750.2 129.1H717.3V221.1H731V186.2H750.2C765.4 186.2 780.4 175.2 780.4 157.6C780.4 140 765.4 129.1 750.2 129.1ZM750.5 173.5H731V142H750.5C760.8 142 766.6 150.5 766.6 157.8C766.6 164.9 760.8 173.5 750.5 173.5ZM835.4 160.3C825.5 160.3 815.2 164.7 810.9 174.4L823.1 179.5C825.7 174.4 830.6 172.7 835.7 172.7C842.8 172.7 850 177 850.1 184.5V185.4C847.6 184 842.3 181.9 835.8 181.9C822.7 181.9 809.3 189.1 809.3 202.6C809.3 214.9 820.1 222.9 832.2 222.9C841.4 222.9 846.5 218.8 849.7 213.9H850.2V221H863.5V185.7C863.4 169.4 851.2 160.3 835.4 160.3ZM833.8 210.7C829.3 210.7 823 208.4 823 202.9C823 195.8 830.8 193.1 837.6 193.1C843.6 193.1 846.5 194.4 850.1 196.2C849 204.7 841.7 210.7 833.8 210.7ZM911.7 162.3L896 202.2H895.5L879.2 162.3H864.4L888.9 218.1L874.9 249.1H889.2L927 162.3H911.7ZM787.9 221.2H801.6V129.2H787.9V221.2Z" fill="white"/>
<path d="M319.6 97.2C316.6 97.2 313.8 96.3 311 94.4C308.2 92.6 306.3 89.8 305.2 86.2L310.6 83.9C311.3 86.3 312.4 88.2 314 89.5C315.6 90.8 317.5 91.5 319.6 91.5C322 91.5 324.1 90.7 325.8 89.2C327.5 87.7 328.4 85.8 328.4 83.6C328.4 81.4 327.5 79.6 325.7 78.1C323.9 76.6 321.8 75.8 319.3 75.8H315.5V70.3H318.9C321.2 70.3 323.1 69.7 324.7 68.4C326.2 67.1 327 65.4 327 63.2C327 61.2 326.3 59.6 324.8 58.4C323.3 57.2 321.5 56.7 319.3 56.7C315.5 56.7 313 58.6 311.6 62.4L306.1 60.1C307 57.7 308.5 55.6 310.7 53.8C312.9 52 315.7 51 319.3 51C323.2 51 326.5 52.1 329.2 54.4C331.8 56.7 333.1 59.6 333.1 63.1C333.1 67.3 331.1 70.5 327.2 72.6V72.9C329.3 73.8 331.1 75.2 332.5 77C333.9 78.8 334.6 81 334.6 83.6C334.6 87.5 333.2 90.7 330.3 93.3C327.3 96 323.7 97.2 319.6 97.2Z" fill="white"/>
<path d="M338.1 96.2L355.5 50.1H362.2L379.6 96.2H373L368.6 83.7H349.2L344.7 96.2H338.1ZM351.2 78.2H366.5L359 57.4H358.7L351.2 78.2Z" fill="white"/>
<path d="M385.6 96.2V50.1H402.3C405.9 50.1 409 51.3 411.7 53.7C414.4 56.1 415.7 59.1 415.7 62.7C415.7 64.9 415.1 66.8 414 68.5C412.9 70.2 411.3 71.4 409.5 72.3V72.6C411.8 73.4 413.6 74.7 415.1 76.6C416.6 78.5 417.3 80.7 417.3 83.2C417.3 87 415.9 90.1 413.1 92.6C410.3 95.1 407.1 96.3 403.3 96.3H385.6V96.2ZM391.5 69.9H402.3C404.5 69.9 406.3 69.2 407.7 67.7C409.1 66.2 409.7 64.6 409.7 62.8C409.7 61 409 59.4 407.7 58C406.4 56.5 404.7 55.8 402.5 55.8H391.5V69.9ZM391.5 90.5H403.4C405.7 90.5 407.5 89.7 408.9 88.1C410.3 86.5 411 84.8 411 82.9C411 81 410.3 79.3 408.8 77.7C407.3 76.1 405.4 75.4 403.1 75.4H391.4V90.5H391.5Z" fill="white"/>
<path d="M420.1 96.2L437.5 50.1H444.2L461.6 96.2H455L450.6 83.7H431.2L426.7 96.2H420.1ZM433.1 78.2H448.4L440.9 57.4H440.6L433.1 78.2Z" fill="white"/>
<path d="M467.5 96.2V50.1H473.4V69.9H496.5V50.1H502.4V96.2H496.5V75.4H473.4V96.2H467.5Z" fill="white"/>
<path d="M527.6 96.2H521.7V55.8H508.8V50.1H540.5V55.8H527.6V96.2Z" fill="white"/>
<path d="M538.9 96.2L556.3 50.1H563L580.4 96.2H573.8L569.4 83.7H550L545.5 96.2H538.9ZM552 78.2H567.3L559.8 57.4H559.5L552 78.2Z" fill="white"/>
<path d="M615.8 75.1V96.2H609.9V75.1H609.6L591.7 96.2H584V96L603.4 73.7L584.7 50.4V50.1H592L609.6 72.5H609.9V50.1H615.8V72.5H616L633.7 50.1H640.9V50.4L622.2 73.7L641.7 96V96.2H634L616 75.1H615.8Z" fill="white"/>
<path d="M682.9 50.1V96.2H677V67.5L677.2 58.6H677L653.5 96.2H647.3V50.1H653.2V77.1L653 86H653.2L675.7 50.1H682.9Z" fill="white"/>
<path d="M708 96.2H702.1V55.8H689.2V50.1H720.9V55.8H708V96.2Z" fill="white"/>
<path d="M763.1 50.1V96.2H757.1V67.5L757.4 58.6H757.1L733.7 96.2H727.5V50.1H733.4V77.1L733.2 86H733.4L755.8 50.1H763.1Z" fill="white"/>
<path d="M798.6 97.2C795.6 97.2 792.8 96.3 790 94.4C787.2 92.6 785.3 89.8 784.2 86.2L789.6 83.9C790.3 86.3 791.4 88.2 793 89.5C794.6 90.8 796.5 91.5 798.6 91.5C801 91.5 803.1 90.7 804.8 89.2C806.5 87.7 807.4 85.8 807.4 83.6C807.4 81.4 806.5 79.6 804.7 78.1C802.9 76.6 800.8 75.8 798.3 75.8H794.5V70.3H797.8C800.1 70.3 802 69.7 803.6 68.4C805.1 67.1 805.9 65.4 805.9 63.2C805.9 61.2 805.2 59.6 803.7 58.4C802.2 57.2 800.4 56.7 798.2 56.7C794.4 56.7 791.9 58.6 790.5 62.4L785 60.1C785.9 57.7 787.4 55.6 789.6 53.8C791.8 52 794.6 51 798.2 51C802.1 51 805.4 52.1 808.1 54.4C810.7 56.7 812 59.6 812 63.1C812 67.3 810 70.5 806.1 72.6V72.9C808.2 73.8 810 75.2 811.4 77C812.8 78.8 813.5 81 813.5 83.6C813.5 87.5 812.1 90.7 809.2 93.3C806.3 96 802.8 97.2 798.6 97.2Z" fill="white"/>
<path d="M302.9 177.1H291.5V188.5H302.9V177.1Z" fill="white"/>
<path d="M291.5 52H280.1V63.4H291.5V52Z" fill="white"/>
<path d="M291.5 40.7H280.1V52.1H291.5V40.7Z" fill="white"/>
<path d="M291.5 29.3H280.1V40.7H291.5V29.3Z" fill="white"/>
<path d="M291.5 17.9H280.1V29.3H291.5V17.9Z" fill="white"/>
<path d="M280.2 256.6H268.8V268H280.2V256.6Z" fill="white"/>
<path d="M280.2 131.6H268.8V143H280.2V131.6Z" fill="white"/>
<path d="M280.2 86.1H268.8V97.5H280.2V86.1Z" fill="white"/>
<path d="M268.8 256.6H257.4V268H268.8V256.6Z" fill="white"/>
<path d="M246.1 211.2H234.7V222.6H246.1V211.2Z" fill="white"/>
<path d="M246.1 199.8H234.7V211.2H246.1V199.8Z" fill="white"/>
<path d="M246.1 154.3H234.7V165.7H246.1V154.3Z" fill="white"/>
<path d="M246.1 143H234.7V154.4H246.1V143Z" fill="white"/>
<path d="M246.1 74.8H234.7V86.2H246.1V74.8Z" fill="white"/>
<path d="M234.7 222.5H223.3V233.9H234.7V222.5Z" fill="white"/>
<path d="M234.7 211.2H223.3V222.6H234.7V211.2Z" fill="white"/>
<path d="M234.7 154.3H223.3V165.7H234.7V154.3Z" fill="white"/>
<path d="M234.7 143H223.3V154.4H234.7V143Z" fill="white"/>
<path d="M234.7 131.6H223.3V143H234.7V131.6Z" fill="white"/>
<path d="M223.3 268H211.9V279.4H223.3V268Z" fill="white"/>
<path d="M223.3 154.3H211.9V165.7H223.3V154.3Z" fill="white"/>
<path d="M223.3 143H211.9V154.4H223.3V143Z" fill="white"/>
<path d="M223.3 131.6H211.9V143H223.3V131.6Z" fill="white"/>
<path d="M223.3 17.9H211.9V29.3H223.3V17.9Z" fill="white"/>
<path d="M212 165.7H200.6V177.1H212V165.7Z" fill="white"/>
<path d="M212 154.3H200.6V165.7H212V154.3Z" fill="white"/>
<path d="M212 143H200.6V154.4H212V143Z" fill="white"/>
<path d="M212 131.6H200.6V143H212V131.6Z" fill="white"/>
<path d="M212 120.2H200.6V131.6H212V120.2Z" fill="white"/>
<path d="M212 86.1H200.6V97.5H212V86.1Z" fill="white"/>
<path d="M212 52H200.6V63.4H212V52Z" fill="white"/>
<path d="M200.6 177.1H189.2V188.5H200.6V177.1Z" fill="white"/>
<path d="M200.6 165.7H189.2V177.1H200.6V165.7Z" fill="white"/>
<path d="M200.6 154.3H189.2V165.7H200.6V154.3Z" fill="white"/>
<path d="M200.6 143H189.2V154.4H200.6V143Z" fill="white"/>
<path d="M200.6 131.6H189.2V143H200.6V131.6Z" fill="white"/>
<path d="M200.6 120.2H189.2V131.6H200.6V120.2Z" fill="white"/>
<path d="M200.6 17.9H189.2V29.3H200.6V17.9Z" fill="white"/>
<path d="M189.2 245.3H177.8V256.7H189.2V245.3Z" fill="white"/>
<path d="M189.2 177.1H177.8V188.5H189.2V177.1Z" fill="white"/>
<path d="M189.2 165.7H177.8V177.1H189.2V165.7Z" fill="white"/>
<path d="M189.2 154.3H177.8V165.7H189.2V154.3Z" fill="white"/>
<path d="M189.2 143H177.8V154.4H189.2V143Z" fill="white"/>
<path d="M189.2 131.6H177.8V143H189.2V131.6Z" fill="white"/>
<path d="M189.2 120.2H177.8V131.6H189.2V120.2Z" fill="white"/>
<path d="M189.2 17.9H177.8V29.3H189.2V17.9Z" fill="white"/>
<path d="M177.9 188.4H166.5V199.8H177.9V188.4Z" fill="white"/>
<path d="M177.9 177.1H166.5V188.5H177.9V177.1Z" fill="white"/>
<path d="M177.9 165.7H166.5V177.1H177.9V165.7Z" fill="white"/>
<path d="M177.9 154.3H166.5V165.7H177.9V154.3Z" fill="white"/>
<path d="M177.9 143H166.5V154.4H177.9V143Z" fill="black"/>
<path d="M177.9 131.6H166.5V143H177.9V131.6Z" fill="white"/>
<path d="M177.9 120.2H166.5V131.6H177.9V120.2Z" fill="white"/>
<path d="M177.9 108.9H166.5V120.3H177.9V108.9Z" fill="white"/>
<path d="M166.5 188.4H155.1V199.8H166.5V188.4Z" fill="white"/>
<path d="M166.5 177.1H155.1V188.5H166.5V177.1Z" fill="white"/>
<path d="M166.5 165.7H155.1V177.1H166.5V165.7Z" fill="white"/>
<path d="M166.5 154.3H155.1V165.7H166.5V154.3Z" fill="white"/>
<path d="M166.5 143H155.1V154.4H166.5V143Z" fill="white"/>
<path d="M166.5 131.6H155.1V143H166.5V131.6Z" fill="white"/>
<path d="M166.5 120.2H155.1V131.6H166.5V120.2Z" fill="black"/>
<path d="M166.5 108.9H155.1V120.3H166.5V108.9Z" fill="white"/>
<path d="M166.5 97.5H155.1V108.9H166.5V97.5Z" fill="white"/>
<path d="M166.5 52H155.1V63.4H166.5V52Z" fill="white"/>
<path d="M155.1 245.3H143.7V256.7H155.1V245.3Z" fill="white"/>
<path d="M155.1 199.8H143.7V211.2H155.1V199.8Z" fill="white"/>
<path d="M155.1 188.4H143.7V199.8H155.1V188.4Z" fill="white"/>
<path d="M155.1 177.1H143.7V188.5H155.1V177.1Z" fill="black"/>
<path d="M155.1 165.7H143.7V177.1H155.1V165.7Z" fill="white"/>
<path d="M155.1 154.3H143.7V165.7H155.1V154.3Z" fill="white"/>
<path d="M155.1 143H143.7V154.4H155.1V143Z" fill="white"/>
<path d="M155.1 131.6H143.7V143H155.1V131.6Z" fill="white"/>
<path d="M155.1 120.2H143.7V131.6H155.1V120.2Z" fill="white"/>
<path d="M155.1 108.9H143.7V120.3H155.1V108.9Z" fill="white"/>
<path d="M155.1 97.5H143.7V108.9H155.1V97.5Z" fill="white"/>
<path d="M155.1 86.1H143.7V97.5H155.1V86.1Z" fill="white"/>
<path d="M143.8 199.8H132.4V211.2H143.8V199.8Z" fill="white"/>
<path d="M143.8 188.4H132.4V199.8H143.8V188.4Z" fill="white"/>
<path d="M143.8 177.1H132.4V188.5H143.8V177.1Z" fill="black"/>
<path d="M143.8 165.7H132.4V177.1H143.8V165.7Z" fill="white"/>
<path d="M143.8 154.3H132.4V165.7H143.8V154.3Z" fill="white"/>
<path d="M143.8 143H132.4V154.4H143.8V143Z" fill="white"/>
<path d="M143.8 131.6H132.4V143H143.8V131.6Z" fill="white"/>
<path d="M143.8 120.2H132.4V131.6H143.8V120.2Z" fill="white"/>
<path d="M143.8 108.9H132.4V120.3H143.8V108.9Z" fill="white"/>
<path d="M143.8 97.5H132.4V108.9H143.8V97.5Z" fill="white"/>
<path d="M143.8 86.1H132.4V97.5H143.8V86.1Z" fill="white"/>
<path d="M143.8 52H132.4V63.4H143.8V52Z" fill="white"/>
<path d="M132.4 211.2H121V222.6H132.4V211.2Z" fill="white"/>
<path d="M132.4 199.8H121V211.2H132.4V199.8Z" fill="white"/>
<path d="M132.4 188.4H121V199.8H132.4V188.4Z" fill="white"/>
<path d="M132.4 177.1H121V188.5H132.4V177.1Z" fill="white"/>
<path d="M132.4 165.7H121V177.1H132.4V165.7Z" fill="white"/>
<path d="M132.4 154.3H121V165.7H132.4V154.3Z" fill="white"/>
<path d="M132.4 143H121V154.4H132.4V143Z" fill="white"/>
<path d="M132.4 131.6H121V143H132.4V131.6Z" fill="white"/>
<path d="M132.4 120.2H121V131.6H132.4V120.2Z" fill="white"/>
<path d="M132.4 108.9H121V120.3H132.4V108.9Z" fill="white"/>
<path d="M132.4 97.5H121V108.9H132.4V97.5Z" fill="white"/>
<path d="M132.4 86.1H121V97.5H132.4V86.1Z" fill="white"/>
<path d="M132.4 74.8H121V86.2H132.4V74.8Z" fill="white"/>
<path d="M121 211.2H109.6V222.6H121V211.2Z" fill="white"/>
<path d="M121 199.8H109.6V211.2H121V199.8Z" fill="white"/>
<path d="M121 188.4H109.6V199.8H121V188.4Z" fill="white"/>
<path d="M121 177.1H109.6V188.5H121V177.1Z" fill="black"/>
<path d="M121 165.7H109.6V177.1H121V165.7Z" fill="white"/>
<path d="M121 154.3H109.6V165.7H121V154.3Z" fill="white"/>
<path d="M121 143H109.6V154.4H121V143Z" fill="white"/>
<path d="M121 131.6H109.6V143H121V131.6Z" fill="white"/>
<path d="M121 120.2H109.6V131.6H121V120.2Z" fill="white"/>
<path d="M121 108.9H109.6V120.3H121V108.9Z" fill="white"/>
<path d="M121 97.5H109.6V108.9H121V97.5Z" fill="black"/>
<path d="M121 86.1H109.6V97.5H121V86.1Z" fill="white"/>
<path d="M121 74.8H109.6V86.2H121V74.8Z" fill="white"/>
<path d="M109.7 222.5H98.3V233.9H109.7V222.5Z" fill="white"/>
<path d="M109.7 211.2H98.3V222.6H109.7V211.2Z" fill="white"/>
<path d="M109.7 199.8H98.3V211.2H109.7V199.8Z" fill="white"/>
<path d="M109.7 188.4H98.3V199.8H109.7V188.4Z" fill="white"/>
<path d="M109.7 177.1H98.3V188.5H109.7V177.1Z" fill="white"/>
<path d="M109.7 165.7H98.3V177.1H109.7V165.7Z" fill="white"/>
<path d="M109.7 154.3H98.3V165.7H109.7V154.3Z" fill="white"/>
<path d="M109.7 143H98.3V154.4H109.7V143Z" fill="black"/>
<path d="M109.7 131.6H98.3V143H109.7V131.6Z" fill="white"/>
<path d="M109.7 120.2H98.3V131.6H109.7V120.2Z" fill="white"/>
<path d="M109.7 108.9H98.3V120.3H109.7V108.9Z" fill="white"/>
<path d="M109.7 97.5H98.3V108.9H109.7V97.5Z" fill="white"/>
<path d="M109.7 86.1H98.3V97.5H109.7V86.1Z" fill="white"/>
<path d="M109.7 74.8H98.3V86.2H109.7V74.8Z" fill="white"/>
<path d="M98.2999 222.5H86.8999V233.9H98.2999V222.5Z" fill="white"/>
<path d="M98.2999 211.2H86.8999V222.6H98.2999V211.2Z" fill="white"/>
<path d="M98.2999 199.8H86.8999V211.2H98.2999V199.8Z" fill="white"/>
<path d="M98.2999 188.4H86.8999V199.8H98.2999V188.4Z" fill="white"/>
<path d="M98.2999 177.1H86.8999V188.5H98.2999V177.1Z" fill="white"/>
<path d="M98.2999 165.7H86.8999V177.1H98.2999V165.7Z" fill="white"/>
<path d="M98.2999 154.3H86.8999V165.7H98.2999V154.3Z" fill="white"/>
<path d="M98.2999 143H86.8999V154.4H98.2999V143Z" fill="white"/>
<path d="M98.2999 131.6H86.8999V143H98.2999V131.6Z" fill="white"/>
<path d="M98.2999 120.2H86.8999V131.6H98.2999V120.2Z" fill="white"/>
<path d="M98.2999 108.9H86.8999V120.3H98.2999V108.9Z" fill="white"/>
<path d="M98.2999 97.5H86.8999V108.9H98.2999V97.5Z" fill="white"/>
<path d="M98.2999 86.1H86.8999V97.5H98.2999V86.1Z" fill="white"/>
<path d="M98.2999 74.8H86.8999V86.2H98.2999V74.8Z" fill="white"/>
<path d="M98.2999 63.4H86.8999V74.8H98.2999V63.4Z" fill="white"/>
<path d="M86.9 233.9H75.5V245.3H86.9V233.9Z" fill="white"/>
<path d="M86.9 222.5H75.5V233.9H86.9V222.5Z" fill="black"/>
<path d="M86.9 211.2H75.5V222.6H86.9V211.2Z" fill="white"/>
<path d="M86.9 199.8H75.5V211.2H86.9V199.8Z" fill="white"/>
<path d="M86.9 188.4H75.5V199.8H86.9V188.4Z" fill="white"/>
<path d="M86.9 177.1H75.5V188.5H86.9V177.1Z" fill="white"/>
<path d="M86.9 165.7H75.5V177.1H86.9V165.7Z" fill="white"/>
<path d="M86.9 154.3H75.5V165.7H86.9V154.3Z" fill="white"/>
<path d="M86.9 143H75.5V154.4H86.9V143Z" fill="white"/>
<path d="M86.9 131.6H75.5V143H86.9V131.6Z" fill="white"/>
<path d="M86.9 120.2H75.5V131.6H86.9V120.2Z" fill="white"/>
<path d="M86.9 108.9H75.5V120.3H86.9V108.9Z" fill="white"/>
<path d="M86.9 97.5H75.5V108.9H86.9V97.5Z" fill="white"/>
<path d="M86.9 86.1H75.5V97.5H86.9V86.1Z" fill="white"/>
<path d="M86.9 74.8H75.5V86.2H86.9V74.8Z" fill="white"/>
<path d="M86.9 63.4H75.5V74.8H86.9V63.4Z" fill="white"/>
<path d="M86.9 6.60001H75.5V18H86.9V6.60001Z" fill="white"/>
<path d="M75.6 177.1H64.2V188.5H75.6V177.1Z" fill="white"/>
<path d="M75.6 120.2H64.2V131.6H75.6V120.2Z" fill="white"/>
<path d="M75.6 17.9H64.2V29.3H75.6V17.9Z" fill="white"/>
<path d="M64.2 268H52.8V279.4H64.2V268Z" fill="white"/>
<path d="M52.7999 222.5H41.3999V233.9H52.7999V222.5Z" fill="white"/>
<path d="M52.7999 120.2H41.3999V131.6H52.7999V120.2Z" fill="white"/>
<path d="M52.7999 86.1H41.3999V97.5H52.7999V86.1Z" fill="white"/>
<path d="M41.4999 211.2H30.0999V222.6H41.4999V211.2Z" fill="white"/>
<path d="M41.4999 143H30.0999V154.4H41.4999V143Z" fill="white"/>
<path d="M30.1 29.3H18.7V40.7H30.1V29.3Z" fill="white"/>
</svg>
