<svg xmlns="http://www.w3.org/2000/svg" width="395.093" height="302.35" viewBox="0 0 395.093 302.35">
  <defs>
    <style>
      .cls-1 {
        fill: #f5f9fd;
        fill-rule: evenodd;
      }
    </style>
  </defs>
  <path id="Shape_3_copy_5" data-name="Shape 3 copy 5" class="cls-1" d="M466.3,4512.02c-47.44,4.57-78.648-12.14-112.029-7.46-17.99,2.52-53.379,27.92-59.74,53.23s-10.727,58.64-10.57,93.4c0.164,36.61,4.082,73.6,24.706,96.64s45.877,40.31,66.871,42.65c40.645,4.54,51.769-13.93,111.177-25.4s107.163,3,130.047-14.36c37.687-28.58,54.659-31.92,61.112-99.01,2.377-24.7,2.458-79.89-12.348-101.78-43.011-63.59-56.737-70.53-131.836-52.52C497.7,4506.04,482.11,4510.5,466.3,4512.02Z" transform="translate(-283.969 -4488.81)"/>
</svg>
