<svg xmlns="http://www.w3.org/2000/svg" width="395.092" height="302.35" viewBox="0 0 395.092 302.35">
  <defs>
    <style>
      .cls-1 {
        fill: #f5f9fd;
        fill-rule: evenodd;
      }
    </style>
  </defs>
  <path id="Shape_3_copy_4" data-name="Shape 3 copy 4" class="cls-1" d="M973.7,4426.02c47.439,4.57,78.649-12.14,112.029-7.46,17.99,2.52,53.38,27.92,59.74,53.23s10.73,58.64,10.57,93.4c-0.16,36.61-4.08,73.6-24.71,96.64s-45.87,40.31-66.87,42.65c-40.64,4.54-51.77-13.93-111.174-25.4s-107.163,3-130.047-14.36c-37.687-28.58-54.659-31.92-61.112-99.01-2.377-24.7-2.458-79.89,12.348-101.78,43.011-63.59,56.737-70.53,131.836-52.52C942.3,4420.04,957.89,4424.49,973.7,4426.02Z" transform="translate(-760.938 -4402.81)"/>
</svg>
