<svg xmlns="http://www.w3.org/2000/svg" width="395.09" height="302.35" viewBox="0 0 395.09 302.35">
  <defs>
    <style>
      .cls-1 {
        fill: #f5f9fd;
        fill-rule: evenodd;
      }
    </style>
  </defs>
  <path id="Shape_3_copy_3" data-name="Shape 3 copy 3" class="cls-1" d="M1437.7,4676.98c47.44-4.57,78.65,12.14,112.03,7.46,17.99-2.52,53.38-27.92,59.74-53.23s10.73-58.64,10.57-93.4c-0.16-36.61-4.08-73.6-24.71-96.64s-45.87-40.31-66.87-42.65c-40.64-4.54-51.77,13.93-111.17,25.4s-107.17-3-130.05,14.36c-37.69,28.58-54.66,31.92-61.11,99.01-2.38,24.7-2.46,79.89,12.34,101.78,43.02,63.59,56.74,70.53,131.84,52.52C1406.3,4682.96,1421.89,4678.5,1437.7,4676.98Z" transform="translate(-1224.94 -4397.84)"/>
</svg>
