<svg xmlns="http://www.w3.org/2000/svg" width="395.093" height="302.35"><path data-name="Shape 3 copy 5" d="M182.331 23.21c-47.44 4.57-78.648-12.14-112.029-7.46-17.99 2.52-53.379 27.92-59.74 53.23s-10.727 58.64-10.57 93.4c.164 36.61 4.082 73.6 24.706 96.64s45.877 40.31 66.871 42.65c40.645 4.54 51.769-13.93 111.177-25.4s107.163 3 130.047-14.36c37.687-28.58 54.659-31.92 61.112-99.01 2.377-24.7 2.458-79.89-12.348-101.78C338.546-2.47 324.82-9.41 249.721 8.6c-35.99 8.63-51.58 13.09-67.39 14.61z" fill="#f5f9fd" fill-rule="evenodd"/></svg>