<svg width="1012" height="152" fill="none" xmlns="http://www.w3.org/2000/svg"><path d="M440.032 30.6v10.05h-40.048v-9.8h-9.203v-9.353h38.804V30.7h10.597l-.15-.1z" fill="#FFBC0D"/><path d="M440.132 30.7v-9.154h29.65V40.7h-8.905V30.55h-20.894l.149.15zm-160.69 110.394h-18.955v-10.149h8.905v-10.049h10.05v20.198zM8.955 90.698h29.7v9.95H9.105v-10.05l-.15.1zm91.191-69.599H89.847V1.049h19.104v9.752h-8.805v10.298zM49.352 10.9H39.103V21H30V1h19.203v10l.15-.1zm311.032 40.297v9.104h-29.601v-8.955h29.75l-.149-.149zm-180.541 9.652h9.751v20.098h-9.751V60.848zm-30.297 10.148h19.403v9.9h-19.253V70.848l-.15.15z" fill="#FFBC0D"/><path d="M49.252 11h19.402v9.95H49.401v-10.1l-.15.15zm390.78 100.294h20.298v9.005h-20.198v-9.104l-.1.099zm60.894-.099v9.104h-20.248v-8.955h20.347l-.099-.149zM309.888 51.297v-10.05h9.9v9.9h-10.049l.149.15zm80.445-9.951v9.552h-9.9v-9.552h9.9zM149.646 70.898h-10.05v-9.95h9.9v10.099l.15-.15zM59.55 90.549v10.049h-9.9v-9.9H59.7l-.15-.15z" fill="#FFBC0D"/><path d="M440.181 111.195h-10.049v-9.95h9.9v10.099c0-.05.149-.149.149-.149zm60.894.099v-10.049h9.95v9.9h-10.099c0 .05.149.149.149.149zM309.789 51.147v9.105h-9.95v-9.005h10.099c-.05.05-.149-.1-.149-.1zm50.694.199v-10.05h9.005v9.9h-9.154c.05 0 .149.15.149.15zM9.104 90.549H0v-9.005h9.005v9.154c-.05 0 .1-.15.1-.15zm50.596.149v-9.104h9.004v9.005H59.55c0-.05.15.1.15.1zm881.308-49.65v10.05h-40.049v-9.801h-9.203v-9.353h38.804v9.204h10.597l-.149-.1z" fill="#FFBC0D"/><path d="M941.157 41.197v-9.153h29.651v19.153h-8.906V41.048h-20.894l.149.15zm-160.69 110.394h-18.955v-10.149h8.905v-10.049h10.05v20.198zM509.98 101.195h29.7v9.95h-29.551v-10.049l-.149.099zm91.19-69.649h-10.298V11.497h19.104v9.75h-8.806v10.299zm-50.793-10.199h-10.249v10.1h-9.104v-20h19.203v10l.15-.1zm310.982 40.347v9.104h-29.6v-8.955h29.75l-.15-.149zm-180.54 9.652h9.751v20.098h-9.751V71.345zm-30.298 10.148h19.402v9.9H650.67V81.345l-.149.15z" fill="#FFBC0D"/><path d="M550.227 21.497h19.403v9.95h-19.254v-10.1l-.149.15zm390.83 100.294h20.298v9.005h-20.198v-9.104l-.1.099zm60.893-.149v9.104h-20.248v-8.955h20.348l-.1-.149zM810.913 61.794v-10.05h9.9v9.9h-10.049l.149.15zm80.395-10v9.552h-9.9v-9.552h9.9zM650.67 81.345h-10.049v-9.95h9.9v10.1l.149-.15zm-90.145 19.701v10.049h-9.9v-9.9h10.049l-.149-.149zm380.632 20.596h-10.049v-9.95h9.9v10.099c.049 0 .149-.149.149-.149z" fill="#FFBC0D"/><path d="M1002.05 121.791v-10.049h9.95v9.9h-10.1c.05 0 .15.149.15.149zM810.764 61.644v9.105h-9.95v-9.005h10.099c0 .05-.149-.1-.149-.1zm50.744.199v-10.05h9.005v9.9h-9.154l.149.15zm-351.379 39.203h-9.104v-9.005h9.005v9.154c-.05 0 .099-.149.099-.149zm50.545.149v-9.104h9.005v9.005h-9.154c0-.05.149.099.149.099z" fill="#FFBC0D"/></svg>