<svg width="200" height="200" viewBox="0 0 200 200" fill="none" xmlns="http://www.w3.org/2000/svg">
<g clip-path="url(#clip0)">
<path d="M0 0.300049C67.0444 0.300049 133.171 0.300049 200 0.300049C200 66.9847 200 133.103 200 200.3C133.846 200.3 67.3951 200.3 0 200.3C0 134.263 0 67.821 0 0.300049ZM26.548 171.058C74.7875 171.058 122.407 171.058 170.241 171.058C170.241 123.58 170.241 76.8849 170.241 30.2973C121.759 30.2973 74.14 30.2973 26.548 30.2973C26.548 77.6672 26.548 124.066 26.548 171.058Z" fill="#FFBC0D"/>
<path d="M142.183 58.1096C142.183 86.6502 142.183 114.22 142.183 142.491C114.016 142.491 86.4427 142.491 57.7903 142.491C57.7903 114.84 57.7903 86.947 57.7903 58.1096C85.3366 58.1096 113.233 58.1096 142.183 58.1096Z" fill="#FFBC0D"/>
</g>
<defs>
<clipPath id="clip0">
<rect width="200" height="200" fill="white"/>
</clipPath>
</defs>
</svg>
