<svg xmlns="http://www.w3.org/2000/svg" width="395.092" height="302.35"><path data-name="Shape 3 copy 4" d="M212.762 23.21c47.439 4.57 78.649-12.14 112.029-7.46 17.99 2.52 53.38 27.92 59.74 53.23s10.73 58.64 10.57 93.4c-.16 36.61-4.08 73.6-24.71 96.64s-45.87 40.31-66.87 42.65c-40.64 4.54-51.77-13.93-111.174-25.4s-107.163 3-130.047-14.36C24.613 233.33 7.641 229.99 1.188 162.9-1.189 138.2-1.27 83.01 13.536 61.12 56.547-2.47 70.273-9.41 145.372 8.6c35.99 8.63 51.58 13.08 67.39 14.61z" fill="#f5f9fd" fill-rule="evenodd"/></svg>