<svg width="357" height="365" fill="none" xmlns="http://www.w3.org/2000/svg"><g clip-path="url(#clip0)" fill="#fff"><path d="M157.44 64C170.79 107.52 126 145.37 95 167.61c-20.19 14.46-42.48 25.67-61.32 42-11.12 9.64-20.53 21.54-26.27 35.14C1.74 258.11 0 272.6 0 287c0 13.33 1.85 25.95 7.82 38 5.49 11.05 14.61 19.78 24.64 26.69 18.29 12.61 43 17.19 64.15 9.88 21.15-7.31 39.12-25.26 54-41.37 20.64-22.41 36.23-49.73 51.25-76.08 1.23-2.16 2.41-4.36 3.56-6.57 4.51-8.62-8.89-15.54-13.41-6.92-7.11 13.6-15.37 26.75-23.43 39.82a279.2 279.2 0 01-26.64 36.82 224.799 224.799 0 01-27.14 26.21c-7.48 6.12-15.65 11.45-24.88 14.44-20.45 6.62-43.87-2.22-58.78-16.6-18.79-18.13-18.95-48.05-12.87-71.81 6.86-26.79 30.22-44.22 52.46-58.2 17.43-11 34.7-21.75 50.62-34.92 31-25.6 63.76-63.74 50.52-106.89-2.87-9.37-17.28-4.78-14.43 4.5z"/><path d="M190.419 135.44c7.85-28.78 12.21-58.42 23.69-86.13 4.15-10 9.58-20.67 19.08-26.54 10.86-6.71 26.61-1.07 34.88 7.28 4.58 4.62 11.37-2.8 6.83-7.39-9.9-9.99-25.56-14.93-39.3-11.66-12.48 2.93-20.92 14.69-26.53 25.35-15.78 30-19.69 64.8-28.5 97.06-1.7 6.21 8.15 8.27 9.85 2.03z"/><path d="M286.92 20.57a8 8 0 00-4.16-.85 9.182 9.182 0 00-1.28-.8l-6.82-3.52a9.908 9.908 0 00-13.803 11.801A9.909 9.909 0 00265.56 33l6.82 3.52c.453.225.921.418 1.4.58a7.804 7.804 0 003.1 2.89 7.878 7.878 0 0010.62-3.38l2.8-5.43a7.888 7.888 0 00-3.38-10.61zm.08 166.75c21.08-25.69 46-48.73 62-78.25 6-11 10-23.92 6.33-36.34-4.07-13.73-19.06-24.17-32.68-26.41-6.38-1-8.5 8.79-2.08 9.85 11.48 1.88 24.16 10.86 26 23 1.65 10.94-4.35 22-9.78 31-15.68 26-38.05 47-57.2 70.29-4.1 5.03 3.28 11.87 7.41 6.86z"/><path d="M317.39 35.32a7.803 7.803 0 013.1 2.89 9.84 9.84 0 011.4.58l6.81 3.52a9.909 9.909 0 01-1.595 18.153 9.91 9.91 0 01-7.495-.543l-6.82-3.52a9.201 9.201 0 01-1.28-.8A7.88 7.88 0 01304 44.12l2.8-5.42a7.88 7.88 0 0110.59-3.38zm-40.54 144C265.44 191 255.31 203.83 243 214.64c-10.45 9.19-25.1 18.22-39.28 12.8-37.39-14.3-13.85-61.59-10.23-88.89 1.27-9.57-13.48-12.78-14.76-3.11-2.45 18.37-9.33 35.79-10.72 54.36-1.52 20.33 5.86 38.14 23.84 48.66 35.85 21 68.37-18.63 89.75-42.18 2.06-2.27 4.16-4.52 6.31-6.72 6.85-6.98-4.28-17.18-11.06-10.24zM172.891 60.15a8.457 8.457 0 01-3.011 8.906 8.473 8.473 0 01-6.253 1.684 8.465 8.465 0 01-7.076-6.19l-1.42-5.3a8.446 8.446 0 01.704-6.554 8.46 8.46 0 0115.626 2.154l1.43 5.3z"/><path d="M181.63 20.75A27.995 27.995 0 00158.197.314 28 28 0 10181.63 20.75zm-22.56 24.07a17.358 17.358 0 01-18.274-6.17 17.365 17.365 0 016.048-26.146 17.359 17.359 0 0122.757 24.207 17.36 17.36 0 01-10.531 8.109z"/><path d="M158.85 26.89a4.448 4.448 0 01-6.508 5.025 4.456 4.456 0 01-1.772-1.88 4.457 4.457 0 01.631-4.904 4.45 4.45 0 012.189-1.371 4.463 4.463 0 015.46 3.13z"/></g><defs><clipPath id="clip0"><path fill="#fff" d="M0 0h356.76v365H0z"/></clipPath></defs></svg>