<svg version="1.1" id="Layer_1" xmlns="http://www.w3.org/2000/svg" x="0" y="0" viewBox="0 0 639.9 184.2" xml:space="preserve"><style>.st0{fill:#dd1e15}.st1{fill:#fff}.st4{fill:#003f78}.st5{fill:#cc0935}.st6{fill-rule:evenodd;clip-rule:evenodd;fill:#003f78}</style><g id="Layer_1_1_"><path d="M591.4 104.7c.9 0 1.6.7 1.6 1.6s-.7 1.6-1.6 1.6c-.9 0-1.6-.7-1.6-1.6 0-.9.7-1.6 1.6-1.6zm0 .2c-.7 0-1.3.6-1.3 1.4s.6 1.4 1.3 1.4 1.3-.6 1.3-1.4c0-.7-.6-1.4-1.3-1.4zm-.3 2.3h-.3v-1.8h.5c.3 0 .4.1.6.1.1.1.2.2.2.4s-.2.4-.4.4c.2 0 .3.2.3.4 0 .3.1.4.1.4h-.3c0-.1-.1-.2-.1-.5 0-.2-.2-.3-.4-.3h-.2v.9zm0-.9h.2c.2 0 .4-.1.4-.3 0-.2-.1-.3-.4-.3h-.2v.6z"/><path class="st0" d="M444.3 45.7l.2 2.9c-.9 0-.2 1.2-1 1.2-1.3 4-5.4 3.5-7 7.2-.9 1.2-1.6 2.4-1.6 3.9l-.8.6c.1.3.4.2.6.2v.8h-1.3c-1-3 1.8-5.9.6-9-2.1-2.7-6.7-4.9-4.5-8.8.5.2.9-.4 1-.8 0-.2-.1-.3-.2-.4 1.1-1.5 3.2-1.1 4.7-1.2.5.1.9.6 1.4 1 1.1-.6 1.5-1.8 3.1-1.3l.4-.4c1.7.9 4.5 1.4 4.4 4.1"/><path class="st1" d="M442.5 45.2c.2 1.1.2 2.8-.4 3.9-.3.4-1.4.6-1.4 1.3h-.4l-4.5 4.1c-.3-3-3.1-3.6-4.3-6.1-1.1-.2-.9-1.5-.6-2.2.5-.9 1.2-1.8 2.2-2.3 1.2-.4 2.3.5 2.5 1.8 1.1.2.9 2.2 2.2 1.6.7-.6.4-1.1.2-1.8-.3-.4-.8-.7-.4-1.4 1.4-.8 4.3-1.1 4.9 1.1"/><path d="M416.5 57.5c.8 2.3 3.3 3.8 5.2 5.3 2.5 1.7 4.5 3.5 6.9 5.2 1.7-1.8.5-5.2 2.1-7.3 1.1-.8 1.9.9 3.1 1.6 1.1-.2 2.7.5 3.3-.6.4.2 1 .6 1 1-2.9 2.1-2.1 6.3-3.6 9 .2 1-.4 1.5-.2 2.5 2.7 3.3 6.5 5.5 9.7 8.2.6-.2 1 .4 1.1.8-.3 0-.4.3-.8.2-1.2 4-.7 7.8-1.7 11.4.9.5 0 1.3 0 1.9.7 4.2-1.5 8.5.4 12.7.2.8-.4 1.4-.2 1.9-.4 2.2.8 5.7 0 8 .2.6.1 1.5-.2 2.3.2 3.6-.2 6.5-.2 9.7.2.6.9 1.1 1.3.6.1.5-.8 1.3-.6 1.9-2.7.1-6.1-.1-8.9-.6-7.8.8-16.5 1.9-23.8-.2-6.5.5-12.4.7-18.7-.2-.4.7-1.3.2-1.9.4-.6-1-1.3.6-1.9-.6 1.3-2.4-.6-4.8.6-7.4.2-5.7.2-11.9.8-17.8h.2c.1-3.9 1.3-7 1-10.8.4-3.4 0-6.6-.4-10.1-.4-.6-1.5-.2-1.3-1.1-.3-1.2 1.9-1.5 1.5-3.1.3-.4.9-.2 1.4-.2.9-1.7 2.4-2.8 3.6-4.2 2.3-1.4 3.1-4 5.5-5.1 4-4.2 9.1-7.2 12.2-11.8 1.1-.8 1.6-1.7 1.9-3.1-1.2-.1-.7-1.1-.6-1.9h1.3c0 .2.1.3.2.4 1 0 1.1-1.5 2.3-1.2l-1.6 2.3z"/><path class="st1" d="M417.2 61.1c1.6.9 2.7 2.7 4.6 3.3 0 .8 1 1.2 1.3 1.5 1 1.2 2.5 2.1 3.3 3.1 2.7 1.8 4.2 3.9 5.5 6.5 3.6 2.4 6 5.4 9.5 7.6-.3 2.2-.3 4.3 0 6.3-.4.4 0 1.5-.4 2.1s-.8 1.8-.4 2.7h-.4c.2 2.5 0 5.8-.8 8 .5 1.8-.3 3.9.8 5.7.1 7.6-.1 15.4-.6 23.3-.3.5-1.1-.2-1.1.6h-.4c-.6-1.2-1.6-.2-2.7-.6-3.6.3-7.2 1.2-11.2 1.1-3.6.1-7.1-.1-10.5-.6v-.2c-2.6-.8-5.5-.2-8.2 0-3.2.9-6.8-.1-10.3.2v-.2c-.7-.3-1.7-.3-2.5 0v.2c-.2-.6-1-.3-1.5-.4.1.4-1.1 0-1.6-.2.2-11.8 1.1-25.4 2.1-37.6-.8-2.9-.9-7 0-9.9 1.8-1.2 2.5-3.4 4.6-4.6 5.2-7.2 13.5-10.7 17.9-18.7 1.1-1.9 2.4.3 3 .8m18.2 2.5c-.4 1.2-.2 3.3-1.3 4.2l-1 4.2c-.6.2-.5-.2-.8-.6-.8-1.3-2.3-1.3-2.9-2.7.6-2 .8-4.1 1.5-6.1 1.8-.3 2.7 2 4.5 1"/><path d="M423.8 79.3c2.8 3.8 6.5 6.4 11.2 6.9.7 0 1.4-.1 2-.2.2 0 .4.2.5.5l-.2.6-7 10.5c-.3.7-1.3.2-1.5 1l-.3.7c.5.9.6 2 .3 2.8-1 1.5-2.5 2.7-3 4.4.2 1.3 1 2.4 1.4 3.6.4.9.5 1.8.5 2.8.7-.3 1.7-.8 2.3-.1.6.7.4 1.7.1 2.4-.6 1.1-1.9 1.7-2.9 2.3-.2.8-.3 1.9-1.1 2.3-.6.4-1.2.4-1.9.5-.2.8-.8 1.5-1.6 1.6 0 .6 0 1.4-.6 1.8-.4.4-1 .5-1.6.4-.1.9-.6 1.7-1.4 2l-.9.1c-.7.8-1.7.8-2.7.6-.5-.2-1.1-.4-1.5-.9-.8.1-1.7-.3-2.1-.9-.3-.4-.5-.8-.7-1.2-1.2-.1-2.1-1.2-2.3-2.3l-.2-1.2c-2.1-1.9-1.7-5.2-.8-7.6l1-2.3c-.8-1.6-1.7-3.1-2.6-4.7-.5-.1-1.2 0-1.5-.5l-2.4-4.3c-.5-.2-1.1-.3-1.4-.9l-5.8-10.6c-.2-.3 0-.8.1-1.1l.7-.4c2.2-.3 4.4-.8 6.1-2.7.7-.7 1.6-1.9 2.7-1.3l.4.4 6.1 11.1c.1.5-.5.7-.1 1.1l2 3.9c.3.7-.6 1.2.1 1.8l.2-.3c.4-1.5 1-3.2.6-4.8.1-1.8 2.1-2.4 3.5-2.8l.6-1.1c-.3-.5-.5-1.1-.2-1.7 1.7-4 3.5-8 5.2-12 .2-.4.5-.4.7-.2"/><path class="st0" d="M435.5 87.4c-.1.3-.3.6-.5.9-4.7.7-8.8-2.2-11.8-5.5.1-.4.3-.8.5-1.2 3.1 3.3 6.9 6.2 11.8 5.8"/><path class="st1" d="M434 89.7c-.1.3-.3.6-.5.9-4.6.2-8.3-2.2-11.3-5.5.1-.3.2-.7.4-1 3 3.2 6.7 5.8 11.4 5.6"/><path class="st0" d="M432.6 91.8c-.2.3-.3.9-.8.9-4.4 0-7.8-2.2-10.7-5 .1-.4.2-.8.5-1.2 2.9 2.9 6.4 5.4 11 5.3m-23 3.4c0 1.4-1.5 2-2.4 2.8l-2 1.1c-.1.2-.2.5-.1.7.8.9 1.7-.3 2.5-.6.9-.5 1.8-1.2 2.6-1.9l1.9 3.4c-.4 1.1-1.6 1.9-2.5 2.5-1.1.6-2.3 1.3-3.6 1-1-1.5-1.8-3.2-2.7-4.7-.5-.1-1-.2-1.2-.7l-5.2-9.4c-.1-.3.3-.3.5-.5 2.5-.3 4.9-2 6.7-3.7l.3.1 5.2 9.9z"/><path class="st1" d="M431.2 93.8c-.1.4-.3.7-.6 1-4.2.1-7.6-2-10.5-4.7 0-.4.2-.8.4-1.2 3 2.7 6.3 4.9 10.7 4.9"/><path class="st0" d="M429.7 95.8c0 .3-.3.5-.5.8-4 0-7.2-1.8-10.1-4.2-.2-.3 0-.7.2-1 3 2.4 6.3 4.4 10.4 4.4m-2.1 2.1c-.2.8-.7 1.5-1.5 1.9-1.6.9-3.6.6-5.1-.2-1.2-.8-2.4-1.5-2.5-3.1 0-.9.3-1.6.7-2.3 2.5 1.9 5.2 3.2 8.4 3.7"/><path d="M417 96.2c-.3 1.6.8 3.1 2 4 2 1.5 5.2 2.1 7.5.9l.9-.5c.2.2.2.6.1.8-.9 1.6-2.2 2.8-2.9 4.5-.3 2.5 2 4.3 1.7 6.8-.1 1.7-.2 3.4-.6 5.1-.2-2-1.5-4.2-3.5-5.2-.5-.1-.9 0-1.3.2-.4.3-.6.6-.7 1-.5-.3-1 0-1.4.1-.8.4-1.2 1.2-1.1 2.1-.7.2-1.2.9-1.3 1.6.1.5-.1 1.1.2 1.5-1.3 1.7-.8 4.1 0 5.8l.5.6c-.3.3-.8.2-1.2 0-1.6-.8-1.5-2.7-1.4-4.3 0-1 .7-2.2 0-3-.3-.2-.7.1-.8.4-.5 1.9-.9 4.1-.4 6-1.2-.7-1.3-2.2-1.2-3.5.1-1.6.5-3.1.9-4.7 0-.3-.1-.5-.3-.7-.3-.2-.7.1-.8.4-.7 1.9-.9 4.1-.9 6.2-.6-.1-.8-.9-1-1.5-.3-1.9.4-3.8.8-5.6 0-.3 0-.7-.4-.8-1 .1-.9 1.3-1.3 2l-.3 1.9c-.9-1.2-.4-3-.1-4.3 1.3-3.5 3.4-6.6 5.1-9.9.8-1.9 1.9-3.7 1.8-6-.2-.5-.1-1.2.2-1.7.4-.3.8-.5 1.3-.6l-.1.4z" fill="#fec707"/><path class="st1" d="M412.5 103.6c-.9 1.9-1.9 3.7-2.9 5.4h-.1l-1.9-3.5c1.5-.7 3.1-1.4 4.5-2.6.2.1.3.4.4.7"/><path d="M416.1 107.1c0 .6-.3 1.2-.3 1.8.6-.9 1.3-2.1 2.4-2.6.3 0 .5.3.6.5.3 2.4-.4 4.9-1.2 7.1-.3-.1-.5-.3-.8-.5.5-1.7 1.2-3.2 1.5-5 0-.4.3-1-.1-1.4-.8.4-1.1 1.3-1.6 1.9l-1.5 3c-.3-.3-1.4-.5-.9-1.2.7-1.5 1.3-3.1 1.4-4.9-.1-.1-.3-.1-.4 0-1.3 1.3-2.2 2.9-3 4.5l-.7-.5c1.1-1.7 2-3.7 3.9-4.7.2 0 .3 0 .5.2.4.5.2 1.2.2 1.8"/><path class="st1" d="M429.4 114c.1 1-1 1.5-1.6 1.8-.1 0-.3.1-.2-.1l.1-1.4c.5-.3 1-.6 1.5-.7l.2.4zm-5.3 2.5c.3.7.9 1.7.2 2.3-.1 0-.2.1-.3.1-.6-1.6-1.4-3.1-2.7-4.4.1-.3.1-.6.4-.8 1.3.2 1.7 1.8 2.4 2.8m-2.4.7c.3 1.2 2 2.6.6 3.7-.8-1.7-1.9-3-3.4-4.6-.1-.3-.1-.7.1-.9.2-.2.4-.3.6-.4 1 .2 1.6 1.3 2.1 2.2m-1.5 2.2c.6.9 1 1.9 1.2 2.9 0 .3-.3.6-.6.7l-.6-.1c-.5-1.4-.8-3.5-2.6-3.9-.2-.4-.4-1-.2-1.6.2-.3.7-.2.9 0 .9.4 1.5 1.3 1.9 2m-1.8 1.6c.4 1 .7 2 .7 3.1-.1.3-.3.7-.7.7-1.1-.1-1.1-1.4-1.4-2.2-.2-.7-.1-1.6.2-2.2.4-.4 1 .2 1.2.6"/><path d="M447 130c1.1 0 2 .9 2 2s-.9 2-2 2-2-.9-2-2 .9-2 2-2zm0 .3c-.9 0-1.6.8-1.6 1.7 0 1 .7 1.7 1.6 1.7s1.6-.8 1.6-1.7c0-1-.7-1.7-1.6-1.7zm-.4 2.9h-.4v-2.3c.2 0 .4-.1.6-.1.3 0 .6.1.7.2.1.1.2.3.2.5 0 .3-.2.5-.4.6.2 0 .3.2.4.5.1.4.1.5.1.6h-.4c-.1-.1-.1-.3-.2-.6s-.2-.4-.5-.4h-.3v1h.2zm0-1.3h.3c.3 0 .5-.1.5-.4 0-.2-.1-.4-.5-.4h-.3v.8zM461 74.3c-2-.2-3.4-.8-4.5-1.9-1-1.1-1.5-2.5-1.5-4.3 0-.9.1-1.7.4-2.4.3-.7.6-1.3 1.2-1.9.5-.5 1.1-1 1.9-1.3.7-.3 1.6-.6 2.6-.6V60h2.2v1.8c1 .1 1.8.3 2.5.6s1.3.8 1.8 1.3.9 1.2 1.1 1.9c.3.7.4 1.5.4 2.4 0 1.8-.5 3.2-1.5 4.3-1 1.1-2.5 1.7-4.4 1.9v1.9H461v-1.8zm0-10.4c-2.5.3-3.8 1.6-3.8 4.1s1.3 3.9 3.8 4.2v-8.3zm2.2 8.3c2.4-.3 3.6-1.7 3.6-4.2 0-2.4-1.2-3.8-3.6-4.1v8.3zm8 5.3c.2.2.4.3.7.4.2.1.4.1.6.1.3 0 .7-.2.9-.6.3-.4.5-1.1.8-2l-4.3-10.5h2.3l3.3 8.6 2.9-8.6h2.1L476 76.7c-.4 1.2-.9 2-1.4 2.4-.5.5-1.2.7-1.9.7-.3 0-.6 0-.8-.1-.2-.1-.5-.2-.7-.4v-1.8zm13-8.5h4.8v-4.2h2.2v10.5H489v-4.5h-4.8v4.5H482V64.8h2.2V69zm8.7 4.4h.6c.3-.1.6-.2.8-.4.2-.2.4-.5.6-.9s.3-1 .4-1.6c.1-.7.2-1.5.3-2.6l.3-3.1h6.9v8.6h1.3v5.1h-1.9v-3.2h-7.5v3.2h-1.9v-5.1h.1zm7.7 0v-6.8h-2.8l-.3 1.9c-.2 1.3-.4 2.3-.6 3.1-.2.8-.5 1.4-.8 1.8h4.5zm8.3 2.1c-.5 0-1-.1-1.4-.3-.4-.2-.8-.4-1.1-.7-.3-.3-.6-.6-.7-1-.2-.4-.3-.8-.3-1.3s.1-.9.3-1.3c.2-.4.5-.7.9-1s.9-.5 1.4-.7 1.1-.2 1.8-.2c.5 0 1 0 1.5.1s.9.2 1.3.4v-.7c0-.8-.2-1.4-.7-1.8-.4-.4-1.1-.7-1.9-.7-.6 0-1.1.1-1.7.3-.5.2-1.1.5-1.7.9l-.7-1.4c1.4-.9 2.8-1.4 4.2-1.4 1.4 0 2.6.4 3.4 1.1s1.2 1.8 1.2 3.2v3.8c0 .5.2.7.6.7v1.9c-.2 0-.4.1-.6.1h-.5c-.4 0-.8-.1-1-.3-.2-.2-.4-.5-.4-.8l-.1-.7c-.5.6-1 1.1-1.7 1.4-.6.3-1.3.4-2.1.4zm.6-1.6c.5 0 1-.1 1.5-.3.5-.2.8-.5 1.1-.8.3-.2.4-.5.4-.8v-1.4c-.4-.1-.8-.3-1.2-.3-.4-.1-.8-.1-1.2-.1-.8 0-1.4.2-1.9.5s-.8.8-.8 1.4c0 .5.2 1 .6 1.3s.9.5 1.5.5zm8-9.1h2.2v8.6h4v-8.6h2.2v8.6h1.8v5.1h-1.9v-3.2h-8.3V64.8zm11.9-1.7v-2.4h2.2v2.4h-2.2zm0 12.2V64.8h2.2v10.5h-2.2zm6.6-4c-.6-.2-1.1-.6-1.5-1.1s-.6-1.1-.6-1.9c0-.5.1-1 .3-1.4s.4-.8.8-1.1c.3-.3.7-.5 1.2-.7.4-.2.9-.3 1.5-.3h4.3v10.5h-2.2v-3.7h-1.7l-2.2 3.7h-2.4l2.5-4zm3.8-1.4v-3.2h-1.9c-.4 0-.8.1-1.1.4s-.5.7-.5 1.2.2.9.5 1.2c.3.3.7.4 1.1.4h1.9zm-85.1 23.4h.3c.4 0 .8-.1 1.1-.4.3-.2.6-.6.9-1.2s.5-1.4.7-2.5.4-2.5.5-4.2l.3-4h8.1v12.3h2.2v5.6h-2.1v-3.7h-9.9v3.7h-2.1v-5.6zm9.6 0V83h-3.7l-.2 2.3c-.1 1.1-.2 2-.3 2.9-.1.9-.3 1.6-.4 2.3-.2.6-.4 1.2-.6 1.7s-.5.9-.7 1.2l5.9-.1zm6.1-10.2v-2.4h2.2v2.4h-2.2zm0 12.2V84.8h2.2v10.5h-2.2zm10.5-4.4l3.4-6.1h2.2v10.5h-2.1v-6.9l-2.9 5.2h-1.1l-2.9-5.2v6.9h-2.1V84.8h2.2l3.3 6.1zm13.6 4.4V81h6c.6 0 1.2.1 1.8.4.5.3 1 .6 1.4 1.1.4.4.7.9.9 1.5.2.6.3 1.1.3 1.7s-.1 1.2-.3 1.7c-.2.6-.5 1-.9 1.5-.4.4-.8.8-1.4 1-.5.3-1.1.4-1.8.4h-3.9v5h-2.1zm2.2-7h3.7c.3 0 .6-.1.9-.2s.5-.3.7-.6c.2-.2.3-.5.4-.8s.2-.7.2-1.1-.1-.8-.2-1.1c-.1-.3-.3-.6-.5-.8-.2-.2-.5-.4-.7-.5-.3-.1-.6-.2-.9-.2h-3.6v5.3zm14.5 7.2c-.8 0-1.6-.1-2.2-.4-.7-.3-1.2-.7-1.7-1.2s-.8-1.1-1.1-1.7c-.3-.7-.4-1.4-.4-2.1s.1-1.4.4-2.1.6-1.2 1.1-1.7 1-.9 1.7-1.2c.7-.3 1.4-.4 2.2-.4.8 0 1.6.1 2.2.4.7.3 1.2.7 1.7 1.2s.8 1.1 1.1 1.7c.3.7.4 1.4.4 2.1s-.1 1.4-.4 2.1c-.3.7-.6 1.2-1.1 1.7s-1 .9-1.7 1.2c-.6.2-1.4.4-2.2.4zm-3.1-5.4c0 .5.1 1 .2 1.4.2.4.4.8.7 1.1.3.3.6.6 1 .7.4.2.8.3 1.2.3s.9-.1 1.2-.3c.4-.2.7-.4 1-.8.3-.3.5-.7.7-1.1s.2-.9.2-1.4-.1-1-.2-1.4c-.2-.4-.4-.8-.7-1.1-.3-.3-.6-.6-1-.8-.4-.2-.8-.3-1.2-.3-.4 0-.8.1-1.2.3-.4.2-.7.4-1 .8-.3.3-.5.7-.7 1.1-.1.5-.2 1-.2 1.5zm12.7-1.1h4.8v-4.2h2.2v10.5h-2.2v-4.5h-4.8v4.5h-2.2V84.8h2.2V89zm12.4 6.5c-.5 0-1-.1-1.4-.2-.4-.2-.8-.4-1.1-.7-.3-.3-.6-.6-.7-1-.2-.4-.3-.8-.3-1.3s.1-.9.3-1.3.5-.7.9-1 .9-.5 1.4-.7 1.1-.2 1.8-.2c.5 0 1 0 1.5.1s.9.2 1.3.4v-.7c0-.8-.2-1.4-.7-1.8-.4-.4-1.1-.7-1.9-.7-.6 0-1.1.1-1.7.3-.5.2-1.1.5-1.7.9l-.7-1.4c1.4-.9 2.8-1.4 4.2-1.4s2.6.4 3.4 1.1c.8.7 1.2 1.8 1.2 3.2v3.8c0 .5.2.7.6.7v1.9c-.2 0-.4.1-.6.1h-.5c-.4 0-.8-.1-1-.3-.2-.2-.4-.5-.4-.8l-.1-.7c-.5.6-1 1.1-1.7 1.4-.5.1-1.3.3-2.1.3zm.6-1.6c.5 0 1-.1 1.5-.3.5-.2.8-.5 1.1-.8.3-.2.4-.5.4-.8v-1.4c-.4-.1-.8-.3-1.2-.3-.4-.1-.8-.1-1.2-.1-.8 0-1.4.2-1.9.5s-.8.8-.8 1.4c0 .5.2 1 .6 1.3.4.3.9.5 1.5.5zm6.8-.5c.4 0 .7-.1 1-.3.3-.2.5-.4.7-.8s.3-1 .5-1.7c.1-.7.3-1.6.4-2.8l.3-3.1h6.9v10.5h-2.2v-8.7h-2.8l-.3 1.9c-.2 1.4-.4 2.5-.6 3.3-.2.9-.5 1.6-.8 2.1s-.7.9-1.2 1.1-1.1.3-1.7.4l-.2-1.9zm12.5-8.6h2.2v3.5h2c.5 0 1 .1 1.5.2s.9.4 1.2.7c.4.3.6.7.8 1.1s.3 1 .3 1.5c0 .6-.1 1.1-.3 1.5s-.5.8-.8 1.1c-.3.3-.8.5-1.2.7-.5.1-.9.2-1.4.2h-4.2l-.1-10.5zm4.1 8.7c.5 0 .9-.1 1.2-.4s.5-.7.5-1.3c0-.6-.2-1-.5-1.3s-.7-.5-1.2-.5h-1.9v3.5h1.9zm4.7-.1h.6c.3-.1.6-.2.8-.4.2-.2.4-.5.6-.9.2-.4.3-1 .4-1.6.1-.7.2-1.5.3-2.6l.3-3.1h6.9v8.6h1.3v5.1h-1.9v-3.2h-7.5v3.2h-1.9v-5.1h.1zm7.8 0v-6.8h-2.8l-.3 1.9c-.2 1.3-.4 2.3-.6 3.1-.2.8-.5 1.4-.8 1.8h4.5zm8.3 2.1c-.5 0-1-.1-1.4-.2-.4-.2-.8-.4-1.1-.7-.3-.3-.6-.6-.7-1-.2-.4-.3-.8-.3-1.3s.1-.9.3-1.3.5-.7.9-1 .9-.5 1.4-.7 1.1-.2 1.8-.2c.5 0 1 0 1.5.1s.9.2 1.3.4v-.7c0-.8-.2-1.4-.7-1.8-.4-.4-1.1-.7-1.9-.7-.6 0-1.1.1-1.7.3-.5.2-1.1.5-1.7.9L575 86c1.4-.9 2.8-1.4 4.2-1.4s2.6.4 3.4 1.1c.8.7 1.2 1.8 1.2 3.2v3.8c0 .5.2.7.6.7v1.9c-.2 0-.4.1-.6.1h-.5c-.4 0-.8-.1-1-.3-.2-.2-.4-.5-.4-.8l-.1-.7c-.5.6-1 1.1-1.7 1.4-.6.3-1.4.5-2.1.5zm.6-1.6c.5 0 1-.1 1.5-.3.5-.2.8-.5 1.1-.8.3-.2.4-.5.4-.8v-1.4c-.4-.1-.8-.3-1.2-.3-.4-.1-.8-.1-1.2-.1-.8 0-1.4.2-1.9.5s-.8.8-.8 1.4c0 .5.2 1 .6 1.3.4.3.9.5 1.5.5zM468 115.2V105l-4.2 7.8h-1.2l-4.3-7.8v10.3H456V101h2.4l4.7 8.7 4.7-8.7h2.4v14.3H468v-.1zm7.9.2c-.5 0-1-.1-1.4-.2-.4-.2-.8-.4-1.1-.7-.3-.3-.6-.6-.7-1-.2-.4-.3-.8-.3-1.3s.1-.9.3-1.3c.2-.4.5-.7.9-1s.9-.5 1.4-.7 1.1-.2 1.8-.2c.5 0 1 0 1.5.1s.9.2 1.3.4v-.7c0-.8-.2-1.4-.7-1.8-.4-.4-1.1-.7-1.9-.7-.6 0-1.1.1-1.7.3-.5.2-1.1.5-1.7.9l-.7-1.4c1.4-.9 2.8-1.4 4.2-1.4 1.4 0 2.6.4 3.4 1.1s1.2 1.8 1.2 3.2v3.8c0 .5.2.7.6.7v1.9c-.2 0-.4.1-.6.1h-.5c-.4 0-.8-.1-1-.3-.2-.2-.4-.5-.4-.8l-.1-.7c-.5.6-1 1.1-1.7 1.4-.5.2-1.3.3-2.1.3zm.6-1.6c.5 0 1-.1 1.5-.3.5-.2.8-.5 1.1-.8.3-.2.4-.5.4-.8v-1.4c-.4-.1-.8-.3-1.2-.3-.4-.1-.8-.1-1.2-.1-.8 0-1.4.2-1.9.5s-.8.8-.8 1.4c0 .5.2 1 .6 1.3s.9.5 1.5.5zm14.4-9.1h2.4l-4.1 5.1 4.4 5.4h-2.5l-3.4-4.3h-1v4.3h-2.2v-10.5h2.2v4.4h.8l3.4-4.4zm3 8.6h.3c.4 0 .8-.1 1.1-.4.3-.2.6-.6.9-1.2s.5-1.4.7-2.5.4-2.5.5-4.2l.3-4h8.1v12.3h2.2v5.6h-2.1v-3.7H496v3.7h-2.1v-5.6zm9.7 0V103h-3.7l-.2 2.3c-.1 1.1-.2 2-.3 2.9-.1.9-.3 1.6-.4 2.2-.2.6-.4 1.2-.6 1.7s-.5.9-.7 1.2h5.9zm10.6 2.1c-.8 0-1.6-.1-2.2-.4-.7-.3-1.2-.7-1.7-1.2s-.8-1.1-1.1-1.7c-.3-.7-.4-1.4-.4-2.1s.1-1.4.4-2.1.6-1.2 1.1-1.7 1-.9 1.7-1.2c.7-.3 1.4-.4 2.2-.4s1.6.1 2.2.4c.7.3 1.2.7 1.7 1.2s.8 1.1 1.1 1.7c.3.7.4 1.4.4 2.1s-.1 1.4-.4 2.1c-.3.7-.6 1.2-1.1 1.7s-1 .9-1.7 1.2c-.7.3-1.4.4-2.2.4zM511 110c0 .5.1 1 .2 1.4.2.4.4.8.7 1.1.3.3.6.6 1 .7.4.2.8.3 1.2.3s.9-.1 1.2-.3c.4-.2.7-.4 1-.8.3-.3.5-.7.7-1.1s.2-.9.2-1.4-.1-1-.2-1.4c-.2-.4-.4-.8-.7-1.1-.3-.3-.6-.6-1-.8-.4-.2-.8-.3-1.2-.3s-.8.1-1.2.3c-.4.2-.7.4-1 .8-.3.3-.5.7-.7 1.1-.1.6-.2 1-.2 1.5zm12.8-1.1h4.8v-4.2h2.2v10.5h-2.2v-4.5h-4.8v4.5h-2.2v-10.5h2.2v4.2zm12.4 6.5c-.5 0-1-.1-1.4-.2-.4-.2-.8-.4-1.1-.7-.3-.3-.6-.6-.7-1-.2-.4-.3-.8-.3-1.3s.1-.9.3-1.3.5-.7.9-1 .9-.5 1.4-.7 1.1-.2 1.8-.2c.5 0 1 0 1.5.1s.9.2 1.3.4v-.7c0-.8-.2-1.4-.7-1.8-.4-.4-1.1-.7-1.9-.7-.6 0-1.1.1-1.7.3-.5.2-1.1.5-1.7.9l-.7-1.4c1.4-.9 2.8-1.4 4.2-1.4s2.6.4 3.4 1.1c.8.7 1.2 1.8 1.2 3.2v3.8c0 .5.2.7.6.7v1.9c-.2 0-.4.1-.6.1h-.5c-.4 0-.8-.1-1-.3-.2-.2-.4-.5-.4-.8l-.1-.7c-.5.6-1 1.1-1.7 1.4-.6.2-1.3.3-2.1.3zm.6-1.6c.5 0 1-.1 1.5-.3.5-.2.8-.5 1.1-.8.3-.2.4-.5.4-.8v-1.4c-.4-.1-.8-.3-1.2-.3-.4-.1-.8-.1-1.2-.1-.8 0-1.4.2-1.9.5s-.8.8-.8 1.4c0 .5.2 1 .6 1.3.4.3.9.5 1.5.5zm6.7-.4c.4 0 .7-.1 1-.3.3-.2.5-.4.7-.8s.3-1 .5-1.7c.1-.7.3-1.6.4-2.8l.3-3.1h6.9v10.5h-2.2v-8.7h-2.8l-.3 1.9c-.2 1.4-.4 2.5-.6 3.3-.2.9-.5 1.6-.8 2.1s-.7.9-1.2 1.1-1.1.3-1.7.4l-.2-1.9zm12.6-8.7h2.2v3.5h2c.5 0 1 .1 1.5.2s.9.4 1.2.7c.4.3.6.7.8 1.1s.3 1 .3 1.5c0 .6-.1 1.1-.3 1.5s-.5.8-.8 1.1c-.4.3-.8.5-1.2.7-.5.1-.9.2-1.4.2h-4.2l-.1-10.5zm4 8.8c.5 0 .9-.1 1.2-.4s.5-.7.5-1.3c0-.6-.2-1-.5-1.3s-.7-.5-1.2-.5h-1.9v3.5h1.9zm4.8-.2h.6c.3-.1.6-.2.8-.4.2-.2.4-.5.6-.9.2-.4.3-1 .4-1.6.1-.7.2-1.5.3-2.6l.3-3.1h6.9v8.6h1.3v5.1h-1.9v-3.2h-7.5v3.2h-1.9v-5.1h.1zm7.8 0v-6.8h-2.8l-.3 1.9c-.2 1.3-.4 2.3-.6 3.1-.2.8-.5 1.4-.8 1.8h4.5zm8.2 2.1c-.5 0-1-.1-1.4-.2-.4-.2-.8-.4-1.1-.7-.3-.3-.6-.6-.7-1-.2-.4-.3-.8-.3-1.3s.1-.9.3-1.3.5-.7.9-1 .9-.5 1.4-.7 1.1-.2 1.8-.2c.5 0 1 0 1.5.1s.9.2 1.3.4v-.7c0-.8-.2-1.4-.7-1.8-.4-.4-1.1-.7-1.9-.7-.6 0-1.1.1-1.7.3-.5.2-1.1.5-1.7.9l-.7-1.4c1.4-.9 2.8-1.4 4.2-1.4s2.6.4 3.4 1.1c.8.7 1.2 1.8 1.2 3.2v3.8c0 .5.2.7.6.7v1.9c-.2 0-.4.1-.6.1h-.5c-.4 0-.8-.1-1-.3-.2-.2-.4-.5-.4-.8l-.1-.7c-.5.6-1 1.1-1.7 1.4-.6.2-1.3.3-2.1.3zm.6-1.6c.5 0 1-.1 1.5-.3.5-.2.8-.5 1.1-.8.3-.2.4-.5.4-.8v-1.4c-.4-.1-.8-.3-1.2-.3-.4-.1-.8-.1-1.2-.1-.8 0-1.4.2-1.9.5s-.8.8-.8 1.4c0 .5.2 1 .6 1.3.4.3.9.5 1.5.5z"/><path d="M460.1 126.2c.3 0 .5 0 .7.1s.4.2.6.4c.2.2.3.4.4.6s.1.5.1.7c0 .3-.1.6-.2.9-.2.3-.4.5-.8.7.4.1.7.3 1 .6.2.3.4.7.4 1.2 0 .7-.2 1.1-.7 1.5-.5.3-1.1.5-1.9.5h-3.8v-7.1l4.2-.1zm-.8 3c.3 0 .5-.1.6-.2.2-.1.2-.4.2-.6 0-.2-.1-.4-.2-.6s-.3-.2-.6-.2h-1.6v1.7h1.6v-.1zm.2 2.8c.3 0 .5-.1.6-.3.2-.2.2-.4.2-.6 0-.3-.1-.5-.2-.6-.2-.2-.4-.3-.6-.3h-1.8v1.8h1.8zm9.7 1.5h-.3c-.1 0-.2 0-.4-.1-.1 0-.3-.1-.4-.1s-.2-.1-.3-.2l.2-1.6c.1.1.2.1.4.2s.4.1.6.1c.3 0 .5-.1.7-.2.2-.1.4-.4.5-.8l-3.6-7.1h2l2.4 5.2 2.2-5.2h2l-3.4 7.4c-.2.4-.4.8-.6 1.1s-.4.6-.6.7c-.2.2-.4.3-.7.4-.2.1-.4.2-.7.2zm11.6-7.3h2l-2.8 3.5 3 3.7h-2.1l-2.2-2.8h-.5v2.8h-1.8v-7.1h1.8v2.8h.4l2.2-2.9zm7.6 7.3c-.6 0-1.1-.1-1.5-.4-.4-.2-.7-.6-1-1v4.2h-1.8v-10.1h1.6v1.2c.3-.4.6-.7 1-1 .4-.2.9-.4 1.4-.4s.9.1 1.3.3c.4.2.8.5 1.1.8.3.3.5.7.7 1.2.2.4.3.9.3 1.4s-.1 1-.2 1.5c-.2.5-.4.8-.6 1.2-.3.3-.6.6-1 .8-.5.2-.9.3-1.3.3zm-.6-1.5c.3 0 .5-.1.8-.2.2-.1.4-.3.6-.5s.3-.4.4-.7.1-.5.1-.8 0-.6-.1-.8c-.1-.3-.2-.5-.4-.7-.2-.2-.4-.3-.6-.4s-.5-.2-.8-.2c-.2 0-.4 0-.5.1-.2.1-.4.1-.5.3-.2.1-.3.2-.4.4-.1.1-.2.3-.3.5v1.7c.2.4.4.7.8 1 .1.1.5.3.9.3zm7.2 1.5c-.3 0-.7-.1-1-.2-.3-.1-.6-.3-.8-.5-.2-.2-.4-.4-.5-.7s-.2-.6-.2-.9c0-.3.1-.6.2-.9.2-.3.4-.5.6-.7.3-.2.6-.4 1-.5s.8-.2 1.2-.2c.3 0 .6 0 .9.1s.6.1.8.2v-.4c0-.5-.1-.8-.4-1.1-.3-.3-.7-.4-1.2-.4-.4 0-.8.1-1.1.2-.4.1-.7.3-1.1.6l-.4-1.1c.9-.6 1.9-.9 3-.9 1 0 1.8.3 2.4.8s.9 1.2.9 2.2v2.2c0 .2 0 .3.1.4.1.1.2.1.3.1v1.6c-.3.1-.6.1-.8.1-.3 0-.6-.1-.8-.2-.2-.2-.3-.4-.3-.6v-.4c-.3.4-.7.7-1.2 1-.6.1-1.1.2-1.6.2zm.5-1.3c.3 0 .6-.1.9-.2.3-.1.5-.3.6-.4.2-.2.3-.3.3-.5v-.8c-.2-.1-.5-.1-.7-.2-.3 0-.5-.1-.7-.1-.5 0-.9.1-1.2.3-.3.2-.5.5-.5.8s.1.6.4.8.6.3.9.3zm4.6-7.1v-1.6h1.5v1.6h-1.5zm1.2 8.3v-7.1h1.8v7.1h-1.8zm1.4-8.3v-1.6h1.5v1.6h-1.5zm4.2 3.8h2.8v-2.7h1.8v7.1h-1.8v-2.9h-2.8v2.9h-1.8v-7.1h1.8v2.7zm6.7-3.7v-1.8h1.8v1.8h-1.8zm0 8.2v-7.1h1.8v7.1h-1.8z" fill="#646363"/><path class="st4" d="M123.5 116.9v-6.8h2c.4 0 .7.1.9.1.3.1.5.2.7.4.2.2.3.3.4.6.1.2.1.4.1.6 0 .4-.1.7-.2.9-.2.2-.4.4-.8.6.3 0 .5.1.7.2s.4.2.5.4c.1.2.2.3.3.5.1.2.1.4.1.6s0 .4-.1.6c-.1.2-.2.4-.4.6-.2.2-.4.3-.7.4-.3.1-.7.2-1.1.2h-2.4v.1zm.9-5.9v2h.6c.5 0 .9-.1 1.1-.3.2-.2.4-.5.4-.8 0-.1 0-.2-.1-.4 0-.1-.1-.2-.2-.3-.1-.1-.2-.2-.4-.2-.2-.1-.3-.1-.6-.1h-.8v.1zm0 2.9v2.1h1.2c.3 0 .5 0 .7-.1s.3-.1.4-.3c.1-.1.2-.2.2-.3 0-.1.1-.3.1-.4 0-.2 0-.3-.1-.4l-.3-.3c-.1-.1-.3-.2-.5-.2-.2-.1-.4-.1-.7-.1h-1zm4.7-3.8h1v6.8h-1v-6.8zm8.3 5.9v2.1h-1v-1.2h-4.5v1.2h-1V116h.6l2.2-6h.7l2.4 6h.6zm-3.3-4.5l-1.6 4.5h3.3l-1.7-4.5zm9.8-1.4l3 6.8h-1l-.9-2h-2.9l-.9 2h-1l2.9-6.8h.8zm-.4 1.5l-1 2.5h2.1l-1.1-2.5zm10.5-1.5v6.8h-1v-5.3l-2.1 2.6h-.2l-2.1-2.6v5.3h-1v-6.8h.9l2.3 2.8 2.3-2.8h.9zm5.3 0v.9h-2.9v2.1h2.8v.9h-2.8v2.1h3v.9h-3.9v-6.8l3.8-.1zm1.1 0h2.1c.4 0 .7.1 1 .2s.5.2.7.4c.2.2.3.4.4.6.1.2.1.5.1.8s0 .5-.1.7-.2.4-.4.6-.4.3-.7.4-.6.1-1 .1h-1v2.9h-1v-6.7h-.1zm1 .9v2.1h1.1c.2 0 .3 0 .5-.1.1 0 .3-.1.4-.2.1-.1.2-.2.2-.3.1-.1.1-.3.1-.5 0-.1 0-.2-.1-.4 0-.1-.1-.2-.2-.3-.1-.1-.2-.2-.4-.2-.1-.1-.3-.1-.6-.1h-1zm8.9.9L166 117h-.5v-6.9h1v5.2l4.3-5.2h.5v6.8h-1v-5zm2.5-1.8h1v2.8h.5c.1 0 .3-.1.4-.2.1-.1.2-.2.3-.4l.3-.6c.1-.3.2-.6.4-.8.1-.2.3-.4.4-.5.2-.1.3-.2.5-.3.2-.1.4-.1.6-.1h.2v.9c-.2 0-.4 0-.5.1-.1 0-.3.1-.4.2-.1.1-.2.2-.2.3-.1.1-.1.3-.2.5 0 .1-.1.2-.2.4-.1.1-.1.2-.2.3l-.3.3c-.1.1-.2.1-.3.2.2.1.3.2.4.2l.3.3c.1.1.2.3.3.4.1.2.2.4.4.6l1.2 2.1h-1.1l-1.1-1.8c-.2-.3-.3-.5-.4-.7-.1-.2-.3-.3-.4-.4-.1-.1-.3-.2-.4-.2-.2 0-.3-.1-.6-.1v3.2h-1v-6.7h.1zm8.8 0l3 6.8h-1l-.9-2h-2.9l-.9 2h-1l2.9-6.8h.8zm-.4 1.5l-1 2.5h2.1l-1.1-2.5zm9.9-1.5v6.8h-1v-3h-3.8v3h-1v-6.8h1v3h3.8v-3h1zm7.4 6.3c-.2.1-.3.2-.5.2-.2.1-.4.1-.6.2-.2.1-.4.1-.6.1h-.7c-.4 0-.8-.1-1.2-.1-.3-.1-.7-.2-.9-.4-.3-.2-.5-.4-.7-.6s-.4-.5-.5-.7c-.1-.3-.2-.5-.3-.8s-.1-.5-.1-.7c0-.3 0-.7.1-1s.2-.6.4-.9.3-.5.6-.7c.2-.2.5-.4.7-.5.3-.1.6-.3.9-.3.3-.1.7-.1 1-.1h.5c.2 0 .4.1.6.1.2 0 .4.1.6.2.2.1.4.2.7.3v1l-.6-.3c-.2-.1-.4-.2-.6-.2-.2-.1-.4-.1-.6-.1h-.6c-.4 0-.8.1-1.1.2s-.6.3-.9.5c-.2.2-.4.5-.6.8-.1.3-.2.7-.2 1 0 .4.1.7.2 1 .1.3.3.6.6.8.2.2.5.4.9.5.3.1.7.2 1.1.2.4 0 .8-.1 1.2-.2s.8-.3 1.2-.6v1.1zm3.3-3.4c.4 0 .7.1 1 .2s.5.3.7.4c.2.2.3.4.4.6.1.2.1.5.1.8s-.1.5-.2.8c-.1.2-.2.4-.4.6s-.4.3-.7.4-.6.2-1 .2h-2.1v-6.8h1v2.9l1.2-.1zm-1.1.8v2.2h1.3c.2 0 .4 0 .6-.1.1-.1.3-.1.4-.2.1-.1.2-.2.2-.3 0-.1.1-.2.1-.4s0-.3-.1-.5c-.1-.1-.1-.3-.2-.4-.1-.1-.2-.2-.4-.2-.1-.1-.3-.1-.5-.1h-1.4zm4.4-3.7h1v2.8h.5c.1 0 .3-.1.4-.2.1-.1.2-.2.3-.4l.3-.6c.1-.3.2-.6.4-.8.1-.2.3-.4.4-.5.2-.1.3-.2.5-.3.2-.1.4-.1.6-.1h.2v.9c-.2 0-.4 0-.5.1-.1 0-.3.1-.4.2-.1.1-.2.2-.2.3-.1.1-.1.3-.2.5 0 .1-.1.2-.2.4-.1.1-.1.2-.2.3l-.3.3c-.1.1-.2.1-.3.2.2.1.3.2.4.2l.3.3c.1.1.2.3.3.4.1.2.2.4.4.6l1.2 2.1h-1l-1.1-1.8c-.2-.3-.3-.5-.4-.7-.1-.2-.3-.3-.4-.4-.1-.1-.3-.2-.4-.2-.2 0-.3-.1-.6-.1v3.2h-1v-6.7zm5.5 3.4c0-.5.1-.9.3-1.3s.4-.8.7-1.1c.3-.3.7-.6 1.1-.8.5-.2.9-.3 1.5-.3s1.1.1 1.5.3c.5.2.8.4 1.2.8.3.3.6.7.7 1.1.2.4.3.9.3 1.3 0 .5-.1.9-.3 1.3s-.4.8-.7 1.1c-.3.3-.7.6-1.2.8-.5.2-1 .3-1.5.3-.4 0-.7 0-1-.1s-.6-.2-.9-.4c-.3-.2-.5-.3-.7-.6-.2-.2-.4-.5-.5-.7-.1-.3-.3-.5-.3-.8-.2-.3-.2-.6-.2-.9zm1 0c0 .4.1.7.2 1 .1.3.3.6.6.8.2.2.5.4.8.5s.7.2 1.1.2c.4 0 .7-.1 1.1-.2.3-.1.6-.3.8-.5s.4-.5.6-.8c.1-.3.2-.7.2-1 0-.4-.1-.7-.2-1-.1-.3-.3-.6-.6-.8-.2-.2-.5-.4-.8-.5s-.7-.2-1.1-.2c-.4 0-.7.1-1.1.2-.3.1-.6.3-.8.5s-.4.5-.6.8c-.2.3-.2.6-.2 1zm11.3-3.4v.9H220v5.9h-1v-6.8h3.9zm.4 3.4c0-.5.1-.9.3-1.3s.4-.8.7-1.1c.3-.3.7-.6 1.1-.8.5-.2 1-.3 1.5-.3.6 0 1.1.1 1.5.3.5.2.8.4 1.2.8.3.3.6.7.7 1.1.2.4.3.9.3 1.3 0 .5-.1.9-.3 1.3s-.4.8-.7 1.1c-.3.3-.7.6-1.2.8-.5.2-1 .3-1.5.3-.4 0-.7 0-1-.1s-.6-.2-.9-.4c-.3-.2-.5-.3-.7-.6-.2-.2-.4-.5-.5-.7-.1-.3-.3-.5-.3-.8-.2-.3-.2-.6-.2-.9zm1 0c0 .4.1.7.2 1 .1.3.3.6.6.8.2.2.5.4.8.5s.7.2 1.1.2c.4 0 .7-.1 1.1-.2.3-.1.6-.3.8-.5s.4-.5.6-.8c.1-.3.2-.7.2-1 0-.4-.1-.7-.2-1-.1-.3-.3-.6-.6-.8-.2-.2-.5-.4-.8-.5s-.7-.2-1.1-.2c-.4 0-.7.1-1.1.2-.3.1-.6.3-.8.5s-.4.5-.6.8c-.1.3-.2.6-.2 1zm16-3.4v6.8h-1v-3h-3.8v3h-1v-6.8h1v3h3.8v-3h1zm4.4 0l3 6.8h-1l-.9-2H243l-.9 2h-1l2.9-6.8h.7zm-.4 1.5l-1 2.5h2.1l-1.1-2.5zm4.1-1.5h2.1c.4 0 .7.1 1 .2s.5.2.7.4.3.4.4.6c.1.2.1.5.1.8s0 .5-.1.7-.2.4-.4.6-.4.3-.7.4-.6.1-1 .1h-1v2.9h-1v-6.7h-.1zm1 .9v2.1h1.1c.2 0 .3 0 .5-.1.1 0 .3-.1.4-.2.1-.1.2-.2.2-.3.1-.1.1-.3.1-.5 0-.1 0-.2-.1-.4 0-.1-.1-.2-.2-.3-.1-.1-.2-.2-.4-.2-.1-.1-.3-.1-.6-.1h-1zm3.9 2.5c0-.5.1-.9.3-1.3s.4-.8.7-1.1c.3-.3.7-.6 1.1-.8.5-.2.9-.3 1.5-.3s1.1.1 1.5.3c.5.2.8.4 1.2.8.3.3.6.7.7 1.1.2.4.3.9.3 1.3 0 .5-.1.9-.3 1.3-.2.4-.4.8-.7 1.1-.3.3-.7.6-1.2.8-.5.2-1 .3-1.5.3-.4 0-.7 0-1-.1-.3-.1-.6-.2-.9-.4-.3-.2-.5-.3-.7-.6-.2-.2-.4-.5-.5-.7-.1-.3-.3-.5-.3-.8-.2-.3-.2-.6-.2-.9zm1 0c0 .4.1.7.2 1 .1.3.3.6.6.8.2.2.5.4.8.5s.7.2 1.1.2.7-.1 1.1-.2c.3-.1.6-.3.8-.5.2-.2.4-.5.6-.8.1-.3.2-.7.2-1 0-.4-.1-.7-.2-1s-.3-.6-.6-.8c-.2-.2-.5-.4-.8-.5s-.7-.2-1.1-.2-.7.1-1.1.2c-.3.1-.6.3-.8.5s-.4.5-.6.8c-.1.3-.2.6-.2 1zm13.1 2.5v2.1h-1v-1.2h-4.5v1.2h-1V116h.6l2.2-6h.7l2.4 6h.6zm-3.3-4.5l-1.6 4.5h3.3l-1.7-4.5zm4.3-1.4l2.4 5.7 2-5.7h1l-2.5 6.8c-.1.3-.2.5-.3.7-.1.2-.2.4-.4.5-.1.1-.3.2-.4.3-.2.1-.3.1-.5.1s-.3 0-.5-.1c-.1 0-.3-.1-.4-.2v-.9c.1.1.2.2.4.2.1.1.3.1.5.1.1 0 .1 0 .2-.1.1 0 .2-.1.2-.1l.2-.2c.1-.1.1-.2.1-.3l-3-6.8h1z" id="Ukranian_2_"/><g id="template_1_"><path class="st4" d="M155.2 69.9v18.5c0 10.8-7.4 14.5-16.3 14.5-9.5 0-16.3-4.4-16.3-14.5V69.9h8.1v18.7c0 4.7 3.4 7.5 8.1 7.5 4.3 0 8.3-2.2 8.3-8.1V69.9h8.1zm28.4 8.5c-4.7-2.1-7.5-2.9-10.3-2.9-2.9 0-4.8 1.1-4.8 2.7 0 4.9 16.6 3.5 16.6 14.9 0 6.3-5.3 9.9-12.5 9.9-5.7 0-8.5-1.5-11.7-3.2v-7c4.7 3.1 7.5 4.2 11.1 4.2 3.1 0 4.8-1.1 4.8-3 0-5.4-16.6-3.4-16.6-15.1 0-5.6 4.9-9.4 12.4-9.4 3.6 0 6.9.8 11 2.5v6.4z" id="US_1_"/><path class="st5" d="M223.6 102.5h-8.7l-2.7-6.4h-14.6l-2.4 6.4h-8.6l13.1-32.6h9.4l14.5 32.6zm-19-24.8l-4.8 12.7h10l-5.2-12.7zm22.6-7.8h8.1v32.6h-8.1zm29.5 0c11.9 0 18 7.4 18 16.3 0 9.4-5.9 16.2-18.9 16.2h-13.5V69.9h14.4zm-6.3 26.6h5.3c8.2 0 10.6-5.5 10.6-10.3 0-5.6-3-10.3-10.7-10.3h-5.2v20.6z" id="AID_1_"/><g id="logo_1_"><path class="st1" d="M47.2 91.9c0-18.7 15.1-33.8 33.8-33.8s33.8 15.1 33.8 33.8-15.1 33.8-33.8 33.8-33.8-15.1-33.8-33.8"/><path class="st1" d="M81 118.9c14.9 0 26.9-12.1 26.9-26.9 0-14.9-12.1-27-26.9-27-14.9 0-27 12.1-27 26.9 0 14.9 12.1 27 27 27"/><g id="blue_elements_1_"><path class="st4" d="M46.9 91.9c0 18.8 15.3 34.1 34.1 34.1s34.1-15.3 34.1-34.1S99.8 57.8 81 57.8c-18.8.1-34.1 15.4-34.1 34.1m.6 0c0-18.5 15-33.5 33.5-33.5s33.5 15 33.5 33.5-15 33.5-33.5 33.5-33.5-15-33.5-33.5"/><path class="st4" d="M53.7 91.9c0 15 12.2 27.2 27.2 27.2s27.2-12.2 27.2-27.2-12.2-27.2-27.2-27.2c-14.9 0-27.2 12.2-27.2 27.2m.6 0c0-14.7 12-26.7 26.7-26.7s26.6 12 26.6 26.7-12 26.6-26.6 26.6c-14.7.1-26.7-11.9-26.7-26.6"/><path class="st4" d="M65.5 101.5h31.1v4.9H65.5zm0-28.3h31.1v9H65.5z"/><path class="st4" d="M65.5 73.2h31.1v9H65.5zm45.8 13.3v1.2l-.7-1-1.3.4.8-1-.8-1.1 1.3.4.7-1v1.3l1.2.4zm-60.9-.8v-1.3l.7 1 1.3-.4-.8 1.1.8 1-1.3-.4-.7 1v-1.2l-1.2-.4zm2.4-9.7l1.9.9c1.1.5 1.1 1.5.7 2.4-.5 1-1.3 1.4-2.3.9l-1.9-.9.4-.8 1.9.9c.5.2.9 0 1.2-.4.2-.4.2-1-.4-1.3l-1.9-.9.4-.8zm5.8-2l-.4.7-3.1.3 1.9 1.3-.5.8-3.1-2.1.5-.7 3-.4-1.8-1.3.5-.7z"/><path transform="rotate(-48.67 58.02 71.884)" class="st4" d="M57.6 70h.9v3.7h-.9z"/><path class="st4" d="M60.6 67.7l-.9.9 2 2.2-.6.6-2.1-2.2-1 1-.5-.5 2.7-2.5zm4.7.3l-2.2 1.6-2.2-3 2.2-1.6.4.6-1.5 1 .5.7 1.4-1 .4.5-1.4 1 .5.7 1.5-1zm.1-4.4c1.2-.6 2.2-.2 2.7.7.5.9.3 2-1 2.7l-1.3.7-1.8-3.3 1.4-.8zm.8 3l.5-.3c.8-.4.8-1.1.5-1.6-.3-.6-.9-.9-1.6-.5l-.5.3 1.1 2.1zm6.2-4.8c-.6-.1-.9 0-1.2 0-.3.1-.5.3-.4.5.2.5 1.9-.2 2.3 1 .2.7-.2 1.3-1 1.5-.6.2-1 .1-1.4.1l-.2-.8c.6.2 1 .2 1.4.1.3-.1.5-.3.4-.5-.2-.6-1.9.2-2.3-1-.2-.6.2-1.2 1-1.5.4-.1.8-.2 1.3-.1l.1.7zm4.2-1.2l-1.3.2.6 3-.9.2-.6-3-1.3.3-.2-.7 3.6-.7zm4.2 2.7l-1 .1-.4-.7-1.7.1-.2.8-1 .1 1.2-3.8 1.1-.1 2 3.5zm-2.4-2.7l-.4 1.5 1.1-.1-.7-1.4zm5.6-.2h-1.4l-.1 3h-.9l.1-3.1h-1.3v-.7l3.6.2zm3 3.6l-2.7-.5.6-3.6 2.7.4-.1.7-1.8-.3-.1.8 1.7.2-.2.7-1.6-.3-.2.9 1.8.3zm3.7-1.8c-.5-.4-.7-.6-1-.6-.3-.1-.6 0-.6.1-.2.5 1.7.9 1.4 2.1-.2.7-.9.9-1.7.7-.6-.2-.9-.4-1.2-.7l.2-.8c.4.5.7.7 1.1.8.3.1.6 0 .6-.2.2-.6-1.7-.9-1.3-2.2.2-.6.8-.9 1.7-.6.4.1.7.3 1.1.6l-.3.8zM95 67l-.9-.4v-.8l-1.5-.8-.6.6-.9-.4 2.9-2.7 1 .5v4zm-.8-3.5l-1.1 1.1 1 .5.1-1.6zm5.3 3.2c-.3-.5-.6-.8-1-1-.8-.5-1.5-.2-1.8.2-.4.6-.2 1.2.5 1.6.2.1.3.2.6.2l.2-.4-.5-.3.4-.6 1.2.8-.8 1.3c-.4.1-1.1-.1-1.6-.4-1.1-.7-1.4-1.9-.8-2.8s1.8-1.1 2.9-.4c.5.3.8.7 1.1 1.1l-.4.7zm1.2 4.5l-2.1-1.8 2.4-2.8 2.1 1.8-.5.5-1.3-1.2-.5.6 1.3 1.1-.5.5-1.3-1.1-.6.7 1.4 1.2zm2.9 3.2l-.5-.6.4-3.1-1.8 1.6-.6-.7 2.8-2.4.6.6-.4 3 1.7-1.5.6.7zm2.6 3.3c-.5-.3-.8-.6-1.1-1-.8-1.2-.4-2.3.4-2.8s2-.4 2.8.8c.3.4.4.9.5 1.3l-.7.5c0-.5-.1-.9-.4-1.3-.4-.7-1.1-.9-1.7-.5s-.7 1.1-.2 1.7c.3.4.6.6 1.1.9l-.7.4zm2 .9l1.2-2.1.4 1-.7 1.2 1.4.2.5 1-2.4-.4-1.6.7-.4-.8z"/><path transform="rotate(-2.152 50.65 93.15)" class="st4" d="M48.8 92.7h3.7v.9h-3.7z"/><path class="st4" d="M49.4 98.5l-.1-.7 2-2.4-2.3.3-.2-.9 3.7-.5.1.8-1.9 2.3 2.2-.3.1.9zm4.1 3.5l-.4-1.3-2.9.9-.2-.9 2.9-.8-.4-1.3.6-.2 1.1 3.4zm-1.5 4.2l-1.1-2.5 3.4-1.5 1.1 2.5-.6.3-.7-1.7-.7.3.7 1.6-.7.3-.6-1.6-.9.4.8 1.6zm4.5.4c.4.7.2 1.3-.3 1.6-.4.2-.7.2-1.1-.1 0 .4-.3.8-1 1.8l-.5-.9c.5-.7 1-1.2.8-1.7l-.1-.2-1.3.8-.5-.8 3.2-1.9.8 1.4zm-1.6.2l.2.4c.1.2.4.4.6.2.2-.1.3-.4.1-.7l-.2-.4-.7.5zm2 6.7l-.4-.6.5-3.1-1.8 1.5-.6-.7 2.9-2.4.5.7-.5 3 1.8-1.5.5.8zm3.7 3.5l-.7-.7.3-.7-1.2-1.1-.7.3-.7-.7 3.6-1.7.8.7-1.4 3.9zm.3-3.6l-1.4.7.8.8.6-1.5zm4.2 3.1l-1-.8-1.8 2.5-.8-.6 1.8-2.4-1.1-.8.4-.6 2.9 2.2z"/><path transform="rotate(-59.191 65.467 117.997)" class="st4" d="M63.6 117.6h3.7v.9h-3.7z"/><path class="st4" d="M67.6 121.3c-1.2-.6-1.5-1.8-1.1-2.6.4-.8 1.5-1.4 2.7-.9 1.3.6 1.5 1.8 1.1 2.6-.4.9-1.5 1.5-2.7.9m1.3-2.8c-.6-.3-1.3-.1-1.5.5-.3.6 0 1.2.6 1.5s1.3.1 1.5-.5 0-1.2-.6-1.5m5.3 5l-.8-.2-1.3-2.9-.6 2.3-.9-.2 1-3.6.8.2 1.3 2.8.6-2.2.9.2zm5 .7l-1-.1-.2-.8-1.6-.2-.4.7-1-.1 1.9-3.5 1.1.1 1.2 3.9zm-1.8-3.1l-.7 1.4 1.1.1-.4-1.5zm5.4 3l-2.9.1v-3.8h.9v3.1h1.9zm3.3-4.1c1.3-.2 2.2.5 2.4 1.5.2 1-.3 1.9-1.8 2.2l-1.5.3-.7-3.6 1.6-.4zm-.1 3.1l.6-.1c.9-.2 1.1-.8 1-1.4s-.5-1.1-1.4-.9l-.6.1.4 2.3zm6.4-1l-2.6.9-1.1-3.6 2.5-.8.2.7-1.6.5.2.7 1.6-.5.2.7-1.6.5.3.8 1.7-.5zm2.6-1l-.4.1-3.2-2.6.9-.4 1.8 1.5v-2.4l.9-.4zm4.5-2.7l-2.3 1.5-2-3.1 2.3-1.5.3.6-1.5.9.4.7 1.5-.9.3.6-1.4.9.5.7 1.5-.9zm3-2.3l-2.2 1.8L98 115l.7-.6 1.9 2.3 1.5-1.2zm2-2c-.9 1-2.2.9-2.8.2-.7-.6-.9-1.8.1-2.9 1-1 2.2-.9 2.8-.2.7.7.8 1.9-.1 2.9m-2.2-2.1c-.5.5-.5 1.2 0 1.6.5.5 1.1.4 1.6-.1s.5-1.2 0-1.6-1.1-.4-1.6.1m2.2-3.8c.5-.7 1.2-.7 1.6-.4.4.3.7.9.2 1.6l-.4.6 1.2.9-.5.8-3-2.1.9-1.4zm.8 1.5l.2-.4c.2-.3.2-.6 0-.7-.3-.2-.5-.1-.7.3l-.2.3.7.5zm1.6-5.8l.4-.7 3.3 1.7-.4.8-2.1-1 .6 1.4-.1.1-1.5.4 2.1 1-.4.9-3.3-1.7.3-.7 1.8-.5zm5-2.7l-.9 2.6-3.5-1.2.9-2.6.6.3-.6 1.6.8.3.5-1.6.7.2-.6 1.6.9.3.5-1.7zm1-4.7l-.1.8-2.8 1.5 2.4.5-.2.9-3.7-.7.2-.9 2.6-1.5-2.2-.4.2-.9zm-2.7-4.7l-.1 1.4 3 .1v1l-3-.2-.1 1.3h-.7l.2-3.6z"/></g><g id="handshake_1_"><path class="st6" d="M76.1 95.1c0-.1 0-.1 0 0-.1-.1-.1-.2-.1-.2v-.1h-.1.1c0 .1 0 .1.1.3-.1-.1-.1-.1 0 0-.2 0-.2.1-.3.2.1 0 .2-.1.3-.2 0 .1 0 .1.1.1-.2-.1-.1-.1-.1-.1m1.6-8.7c.1 0 .1 0 0 0 .1.1.1.1 0 0 .1.1.1.1.1.2s.1.1.1.2v-.3c0-.1 0-.1-.2-.1.1-.1.1-.1 0 0m.3 1c0 .1 0 .1 0 0l-.1.2s-.1.1-.2.1c0 0-.1 0-.1-.1v-.3l-.1.1-.1.1-.1.1-.1.1s0 .1-.1.1l-.1.1h-.2.3c.1 0 .1 0 .2-.1h.3v-.6c0-.1.1-.1.1-.2v-.2c.4.4.4.5.3.6"/><path class="st6" d="M77 87.6l-.2.2-.1.1-.1.1-.1.1v.1h.1c.1-.1.2-.2.2-.3.1-.1.2-.2.2-.3m-.7.2c-.1 0-.1 0 0 0-.1.1-.1.1 0 0l-.2.2-.1.1-.1.1h.1V88c.3-.1.3-.2.3-.2 0-.1 0-.1 0 0m-.5 0c0 .1 0 .1 0 0-.1 0-.1.1-.2.1h-.1s-.1 0-.1.1h.2l.2-.2c0 .1 0 .1 0 0 0 .1 0 .1 0 0 0 .1 0 .1 0 0 0 .1 0 .1 0 0 0 .1 0 0 0 0 .1 0 .1 0 0 0m17.9.5c-.1 0-.1 0 0 0-.1 0-.2 0-.2.1l-.1.1h.4c-.2-.1-.1-.2-.1-.2m.6 0c0 .1 0 .1 0 0-.1.1-.1.1 0 0-.1.2 0 .1 0 0 0 .1.1.1 0 0 .1.1.1.1 0 0 .1 0 .1 0 0 0m-13.4 1c0-.1-.1-.1 0 0l-.2-.2-.1-.1-.1-.1h-.1l-.1-.1h-1.2c.1 0 .2 0 .3.1.1 0 .2.1.3.1v.3s0 .1-.1.1h.2s.1 0 .1-.1c0 0 .1 0 .1-.1h.3v.2c0 .1-.1.1-.1.2h.1s.1 0 .1-.1c0 0 .1 0 .1-.1.1 0 .2-.1.2-.1v.1s0 .1-.1.1v.3c.1 0 .1-.1.2-.1 0 0 .1 0 .1-.1h.2v.2c.1 0 .1-.1.2-.1l.1-.1c-.4-.2-.4-.3-.5-.3m8.5-.4c-.1.1-.1.1 0 0-.1.1-.1.1 0 0-.1.1-.2.1-.2.1h-.1.2c.1 0 .1 0 .1-.1z"/><path class="st6" d="M80.9 89.9c-.1 0-.1 0 0 0-.1 0-.1 0 0 0h-.2s-.1 0-.1.1h.1l.2-.1c0 .1.1.1 0 0 .2-.1.2-.2.3-.2-.1.1-.2.2-.3.2m-7.6.8c0-.1 0-.1 0 0 0-.1 0-.1 0 0-.1 0-.1 0 0 0h-.2c-.1 0-.1.1-.2.1 0 0-.1 0-.1.1l-.1.1s0 .1-.1.1h.3s.1 0 .1-.1h.1l.1-.1.1-.2c0 .1 0 .1 0 0 .1.1.1.1 0 0 .1 0 .1 0 0 0 .1 0 0 0 0 0m.6 0s-.1.1 0 0c-.1.1-.2.1-.2.1h-.2s-.1 0-.1.1c0 0-.1 0-.1.1-.1.1-.2.1-.3.2v.1h.1s.1 0 .1-.1h.2c.1 0 .2-.1.2-.1.1 0 .1-.1.2-.1.2-.1.2-.2.1-.3.1.1.1 0 0 0m.1.5c-.1 0-.1 0 0 0h-.3l-.2.2-.1.1c.2 0 .4-.1.6-.3m15 .1h-1.3v.2h1.1c.1 0 .1 0 .2-.2 0 .1 0 0 0 0m-13 0c0 .1 0 .1 0 0-.2.1-.2.2-.3.2 0 0-.1 0-.1.1l-.1.1s-.1 0-.1.1l-.1.1h-.1.3s.1 0 .1-.1h.2l.1-.1c.1-.3.1-.3.1-.4 0 .1.1.1 0 0 .1 0 0 0 0 0m8.1.3c-.1 0-.1 0 0 0-.1 0-.1 0 0 0-.1.1-.2.1-.2.1l-.1.1h-.2v.2h.3s0-.1.1-.1l.1-.1c-.1-.1-.1-.1 0-.2-.1 0 0 0 0 0 0-.1 0-.1 0 0 0-.1 0 0 0 0m-9.7 0c-.1 0-.1 0 0 0h-.3l-.1.1-.3.3h-.1l-.1.1v.1s.1 0 .1-.1c0 0 .1 0 .1-.1l.1-.1s0-.1.1-.1c.5-.1.5-.1.5-.2 0 .1 0 .1 0 0m2.7.2s-.1 0-.2.1h-.1v.1c.1 0 .1-.1.1-.1l.2-.1s0-.1 0 0"/><path class="st6" d="M84.2 91.9c0-.1 0 0 0 0-.1 0-.1 0 0 0-.2 0-.3 0-.3.1v.2h.1l.1-.1h.1s.1 0 0-.2c.2 0 .2 0 .3-.1-.2 0-.2 0-.3.1"/><path class="st6" d="M84.7 91.9c-.1 0-.1 0 0 0-.1.1-.1.1-.2.1h-.2v.2h.2l.1-.1c.1-.1.1-.1.1-.2-.1.1 0 .1 0 0 0 .1 0 .1 0 0 0 .1 0 .1 0 0M67.4 94c.1 0 .1 0 0 0 .1 0 .1 0 0 0 .1 0 .1-.1 0 0 .1-.1.1-.1 0 0 .1 0 .1-.1 0 0 .1-.1.2-.1.2-.2h.1l.1-.1s.1 0 .1-.1l.1-.1c.1 0 .1-.1.2-.1l.1-.1s0-.1.1-.1l.1-.1c.1 0 .1-.1.2-.1l.1-.1s.1 0 .1-.1l.3-.3h-.1c-.1 0-.1.1-.2.1 0 0-.1 0-.1.1h-.1l-.1.1-.1.1h-.1s-.1.1-.2.1h-.1l-.1.1-.1.1-.1.1c-.1.1-.1.2-.2.2-.3.5-.2.5-.2.5m25.3-1.5l-.2.2-.1.1c-.1.1-.1.1-.2.1v.1h-.1l-.1.1v.1h-.1l-.2.2s-.1 0-.1.1h-.3s-.1 0-.1.1c-.1 0-.1.1-.2.1.3 0 .6 0 .9.1h.2l.1-.1.1-.1.2-.2h.1l.1-.1.1-.1.3-.3.1-.1.1-.1c0-.1.1-.1.1-.1l.1-.1s0-.1.1-.1v-.1l-.1.1-.1.1v.1l-.1.1s-.1 0-.1.1c-.1 0-.1.1-.2.1l-.1.1h-.1v.1h-.1l-.1.1-.1.1h-.4v-.1l.2-.2s.1 0 .1-.1l.1-.1.1-.1.1-.2c0 .1.1.1.1 0l.1-.1.2-.2.1-.1c-.5.5-.5.5-.5.4 0 .1 0 .1 0 0 0 .1 0 .1 0 0 .1 0 .1 0 0 0 .1-.1.1-.1 0 0 .1-.1 0 0 0 0"/><path class="st6" d="M91.3 92.5c-.2.1-.2.2-.2.2H91l-.1.1s-.1 0-.1.1l-.1.1-.3.3-.2.2-.1.1v.1l-.1.1-.1.1h.9l.1-.1.2-.2.2-.2.1-.1.1-.1.1-.1c0-.1.1-.1.1-.1l.1-.1.1-.1v-.1l.1-.1s-.1 0-.1.1h-.1l-.1.1s-.1.1-.2.1-.1.1-.2.1l-.1.1h-.1l-.1.1-.1.1c-.1 0-.1.1-.2.1 0 0-.1 0-.1.1h-.1c-.1 0-.2.1-.3.1h-.1l.1-.1s.1 0 .1-.1l.1-.1c.1 0 .1-.1.2-.1 0 0 .1 0 .1-.1l.2-.2.1-.1c0-.1.1-.1.2-.1l.1-.1v-.1l.2-.1c-.3.2-.2.2-.2.1.1-.1.1-.1 0 0m-22.9 0s-.1 0 0 0c-.1 0-.1.1 0 0-.1.1-.1.1 0 0l-.2.2s-.1 0-.1.1l-.1.1s-.1 0-.1.1c-.1.1-.1.1-.2.1l-.1.1h-.1l-.1.1-.1.1h-.1s-.1 0-.1.1v.1l-.1.1v.1h.5l.1-.1s.1 0 .1-.1l.1-.1.1-.1.1-.1c0-.1.1-.1.1-.1 0-.1.1-.1.2-.2.1-.4.1-.4.1-.5.1 0 .1 0 0 0 .1 0 .1 0 0 0 .1 0 0 0 0 0m13.2.2c-.1 0-.2.1-.3.1l-.1.1-.1.1-.1.1v.1h.3c.1 0 .1-.1.1-.1l.1-.1c-.1-.1 0-.2.1-.3 0 0 0-.1 0 0 .1-.1.1-.1 0 0 0-.1 0-.1 0 0m12.5 0s-.1 0 0 0c-.1 0-.1 0 0 0-.1 0-.1 0 0 0-.1.1-.1.1 0 0l-.2.2-.1.1v.3s0-.1.1-.1l.1-.1.1-.1.1-.1c-.2-.1-.2-.2-.1-.2 0-.1 0-.1 0 0 0-.1 0 0 0 0m-26.7 0h-.2s-.1 0-.1.1l-.1.1-.2.2h-.1l-.1.1s-.1 0-.1.1c0 0-.1 0-.1.1s-.1.1-.1.2c-.3.3-.3.4-.3.4h.1c.1 0 .1 0 .2-.1l.1-.1v-.1c.1 0 .1-.1.1-.1l.1-.1.1-.1.1-.1.1-.1V93c.3-.1.4-.2.5-.3zm27.2.2c-.1 0-.1 0 0 0-.1 0-.1 0 0 0-.1.1-.1.1 0 0l-.2.2-.1.1c0 .1 0 .1-.1.1h-.1l-.1.1c0 .1-.1.1-.2.1-.1.1-.2.2-.4.2l-.4.4s-.1 0-.1.1c0 0-.1 0-.1.1h.5l.1-.1.1-.1V94s.1 0 .1-.1l.1-.1s0-.1.1-.1v-.1c.7-.6.7-.6.8-.7 0-.1 0-.1 0 0 0-.1 0 0 0 0m-.5 1.2c.1 0 .1-.1.2-.1h.1v-.2l.1-.1.1-.1v-.1l.1-.1s0-.1.1-.1v-.1l-.1.1-.1.1-.1.1-.1.1s-.1 0-.1.1l-.1.1h-.1l-.1.1s-.1 0-.1.1c-.1 0-.1.1-.2.1s-.1.1-.2.1l-.1.1c.3 0 .5-.1.7-.2M82 92.9c-.1 0-.2.1-.2.1h-.1s-.1 0-.1.1c0 0-.1 0-.1.1 0 0-.1 0-.1.1l-.1.1s0 .1.1.1h.2s.1 0 .1-.1h.1s.1 0 .1-.1l.1-.1c-.1-.2-.1-.2 0-.3-.1.1-.1.1 0 0z"/><path class="st6" d="M82.3 93.1c-.1.1-.1.1-.2.1H82s0 .1-.1.1h-.1c-.1 0-.1.1-.2.1 0 0-.1 0-.1.1.1 0 .1.1.2.1l.1-.1c.1 0 .1-.1.2-.1s.1-.1.2-.1l.1-.2c0 .1 0 .1 0 0 .1 0 .1 0 0 0 .1 0 0 0 0 0m11.1.1s-.1 0 0 0c-.1.1-.2.1-.2.2l-.1.1s-.1 0-.1.1l-.1.1-.1.1-.1.1s-.1 0-.1.1h.7l.1-.1.1-.1.1-.1c-.2-.4-.2-.4-.2-.5zm1.1 1.1c.1 0 .3-.1.3-.1l.1-.1h.2l.1-.1c0-.1.1-.1.1-.1l.1-.1v-.1h-.1l-.1.1-.1.1h-.2s-.1 0-.1.1h-.1v.1h-.1l-.1.2c-.1 0-.2 0-.3.1h-.1l-.1.1c.3-.2.4-.2.5-.2m-11.8-1s-.1 0 0 0c-.1 0-.1.1 0 0-.1.1-.1.1-.2.1h-.1l-.1.1s-.1 0-.1.1l-.2.2v.1l.1.1h.1l.1-.1s0-.1.1-.1l.1-.1c.1-.3.1-.3.2-.4 0 .1 0 0 0 0"/><path class="st6" d="M83 93.7c-.1 0-.1.1-.2.1s-.1.1-.2.1h-.1l-.1.1H82v.1l.1.1c.1 0 .1 0 .1-.1h.1s.1 0 .1-.1c0 0 0-.1.1-.1.4-.1.4-.1.5-.2-.1 0-.1 0 0 0-.1 0 0 0 0 0m.7 0c-.1.1-.2.1-.2.2 0 0-.1 0-.1.1 0 0-.1 0-.1.1h-.2s-.1 0-.1.1h-.1v.2c.1 0 .2 0 .3-.1h.2v.1s-.1 0-.1.1h-.2.5v.1l-.2.2h-.1s-.1 0-.1.1c.1 0 .1 0 .2-.1h.2s.1 0 .1-.1c.1 0 .1-.1.2-.1l.1-.1v-.1h-.6l.1-.1s0-.1.1-.1v-.3l.1-.2c-.2.2-.2.2-.3.2l-.1.1s-.1 0-.1.1H83v-.2l.1-.1.1-.1s0-.1.1-.1c.3.2.4.2.4.1zm-4-2.9s-.1.1 0 0c-.1.1-.1.1 0 0-.1.1-.1.1-.1.2 0 0 .1 0 .1.1h.2c.1 0 .2-.1.3-.1v.1s0 .1-.1.1c0 0-.1 0-.1.1v.1c.1 0 .1 0 .2-.1h.3v.1l-.1.1-.1.1v.5h-.2l-.1.1s-.1 0-.1.1l-.1.1h-.2l-.1.1h-.3s.1 0 .1-.1c.1 0 .1-.1.1-.1l.1-.1.1-.1.1-.1v-.1l.1-.1c0-.1.1-.1 0-.2-.1 0-.1.1-.2.1l-.1.1-.1.1c-.1.1-.3.2-.4.3h-.1c0-.1 0-.1.1-.1 0-.1.1-.1.2-.2s.2-.2.2-.3l.1-.1s0-.1.1-.1c0-.1 0-.1-.1-.1-.1.1-.2.1-.3.2-.1 0-.1.1-.2.1h-.1s0-.1.1-.1v-.1l.1-.1v-.1s-.1 0-.2.1h-.1l-.1.1h-.4l.1-.1h.1s.1 0 .2-.1h.3c.1 0 .2-.1.2-.1.1-.1.2-.1.3-.2-.1.1-.1.2-.2.3h.3c.1 0 .1-.1.2-.1-.2-.2-.2-.3-.1-.3"/><path class="st6" d="M80.6 91.9s0 .1 0 0l-.2.2-.1.1s-.1 0-.1.1l-.1.1-.1.1-.1.1-.1.1-.1.1s-.1 0-.1.1h-.1s-.1 0-.1.1c-.1 0-.1.1-.2.1l.2-.2.1-.1s0-.1.1-.1h.2s.1 0 .1-.1c.6-.7.6-.7.7-.7m-8.7 0s0 .1 0 0c0 .1 0 .1 0 0-.1.1-.2.1-.2.2h-.1l-.1.1h-.1s0-.1.1-.1l.1-.1h.1l.2-.1c-.1 0-.1 0 0 0 0-.1.1-.1.1-.2h.1c-.4.3-.3.3-.2.2m-1.5.2c-.1 0-.1 0 0 0-.1.1-.1.1 0 0l-.2.2c-.1.1-.1.2-.2.2l-.1.1s0 .1-.1.1l-.1.1-.1.1c-.1 0-.1.1-.2.1l-.1.1s-.1 0-.1.1c0 0-.1 0-.1.1 0 0 0 .1-.1.1l-.1.1s-.1 0-.1.1v.1h.1c.1 0 .1-.1.1-.1l.1-.1h.2l.1-.1.1-.1.1-.1.1-.1.1-.1.1-.1.1-.1h.1c.1 0 .1-.1.2-.1l-.2.2H70l-.1.1c-.1 0-.1.1-.1.1l-.1.1-.3.3-.1.1-.1.1-.1.1H69l-.1.1-.1.1c0 .1-.1.1-.1.2h-1.3l.1-.1h.2V94s.1 0 .1-.1l.1-.1h.1l.1-.1c.1-.1.2-.2.4-.3l.1-.1.1-.1.1-.1s.1 0 .1-.1l.1-.1s.1 0 .1-.1l.1-.1.1-.1h.2c.7-.4.8-.4.9-.5-.1 0-.1 0 0 0m19.5.8c.1-.1.1-.1.2-.1 0 0 .1 0 .1-.1l.1-.1h.2c.1 0 .1-.1.2-.1l.1-.1c0 .1-.1.1-.1.2l-.1.1-.1.1h-.1l-.1.1h-.4m-23.7.2c-.1 0-.1 0 0 0-.1 0-.1.1-.2.1h-.1l-.1.1-.2.2-.1.1s-.1 0-.1.1l-.1.1v.2h.1l.1-.1v-.1s0-.1.1-.1l.1-.1c.4-.4.5-.4.5-.5 0 .1 0 0 0 0"/><path class="st6" d="M96.5 94.7h-7.8v-.1s.1 0 .1-.1h.1l.1-.1h.2v-.1h.1l.1-.1.1-.1.1-.1h.2l.1-.1c-.1 0-.3.1-.4.1 0 0-.1 0-.1.1-.1 0-.1.1-.2.2h-.1l-.1.1h-.2l-.1.1h-.1c-.1 0-.1.1-.2.1l-.2.1v-.1s0-.1.1-.1l.1-.1.1-.1.2-.2h.1v-.2l.1-.1.2-.2.2-.2.1-.1s0-.1.1-.1c0-.1.1-.1.1-.1s-.1 0-.1.1c-.1 0-.1.1-.2.1 0 0 0 .1-.1.1l-.1.1-.1.1-.1.1-.1.1h-.1l-.1.1h-.3l-.1.1s-.1 0-.1.1h-.2s-.1 0-.1.1h-.2s0-.1.1-.1c0 0 .1 0 .1-.1h.2v-.1l.1-.1c.1 0 .1-.1.2-.2v-.1c.1 0 .1-.1.2-.1l.1-.1.1-.1s0-.1.1-.1h-.1s-.1 0-.1.1c0 0-.1 0-.1.1l-.1.1h-.2s-.1 0-.1.1h-.2c-.1.1-.2.1-.4.2-.1 0-.1.1-.2.1h-.1v-.2l.1-.1.1-.1h.1c0-.1.1-.1.1-.1s0-.1.1-.1h.1s-.1 0-.1.1h-.2c-.1.1-.2.1-.2.2-.1 0-.1.1-.2.1H87v-.1l.1-.1v-.1l.1-.1.1-.1.2-.2s0-.1.1-.1v-.1h-.1s-.1 0-.1.1h-.5c-.1 0-.1 0-.1-.1v-.3l.1-.1h.1s0-.1.1-.1c0 0 .1-.1 0-.1H87s-.1 0-.1.1h-.2c-.1 0-.1-.1-.1-.1l.1-.1.1-.1h-.3s0 .1-.1.1v.4l.1.1v1.2s0 .1-.1.1l-.1.1-.1.1s-.1 0-.1.1H86V94l.1-.1s0-.1.1-.1c0 0 .1 0 .1-.1v-.2H86v-.1s0-.1.1-.1V93l-.1.1s-.1 0-.1.1l-.1.1h-.1l.1-.1.1-.1h-.3V93c0-.1-.1-.1-.1-.2v-.1c0-.1 0-.1-.1-.1 0-.1-.1-.1-.1-.2v-.6s.1-.1.1-.2h-.2v-.2s0-.1.1-.1c0 0 .1 0 .1-.1v-.1h.1l.1-.1v-.2l-.2.2s-.1.1-.2.1-.1.1-.2.1c0-.1-.1-.2-.1-.3l.1-.1h.1l.2-.2c.1 0 .1-.1.2-.1h.1s0-.1.1-.1v.4c0 .1-.1.1-.1.2v.4s0 .1 0 0V91c0-.1 0-.1.1-.2v-1.1c0-.1-.1-.1-.1-.2 0 0 0-.1-.1-.1h-.1l-.1-.1c0-.1-.1-.1-.2-.2-.1 0-.1-.1-.2-.1 0 .1.1.1.1.2s.1.1.1.2v.1c0 .1.1.1.1.1v.1l.1.1v.3c.1 0 .1-.1.2-.1v.4c0 .1 0 .1-.1.1l-.1.1-.1.1h-.1l-.1.1h-.1l-.1.1c0-.1-.1-.1-.1-.1s.1 0 .1-.1.1-.1.1-.2v-.1s.1 0 .1-.1h-.1c-.1.1-.2.1-.3.2l-.1-.1h.1c0-.1.1-.1.1-.1h.1l.1-.1.1-.1s0-.1.1-.1v-.2l-.2.2-.1.1-.2.2-.1.1s-.1 0-.1.1h-.5.1v-.1s.1 0 .1-.1v-.1l.1-.1s.1 0 0-.1h-.1c-.1.1-.2.2-.3.2l-.1.1c-.1.1-.2.1-.3.2h-.1s-.1 0-.1-.1h-.1c0-.1.1-.1.2-.2 0 0 .1 0 .1-.1l.1-.1c-.1 0-.1.1-.2.1s-.1.1-.2.1c-.1.1-.2.1-.3.2 0 0-.1 0-.1.1h-.2c-.1-.1 0-.1.1-.2l.1-.1v-.1c-.1 0-.1.1-.2.1 0 0-.1 0-.2.1h-.1c-.1 0-.2.1-.2.1h-.3v-.1l.1-.1.1-.1c-.1 0-.2.1-.2.1h-.2s-.1 0-.1.1h-.2v-.1s0-.1.1-.1h-.4c-.1 0-.2 0-.2.1 0 0-.1 0-.1-.1V90l.1-.1h.1c-.1 0-.2.1-.3.1H80l-.1-.1h-.1l-.1-.1s-.1 0-.1-.1h-.1v-.1l.1-.1.1-.1.1-.1h-.4s-.1.1-.1 0v-.1l.1-.1h.1l.1-.1.1-.1c-.1 0-.1.1-.2.1 0 0-.1 0-.1.1h-.5l.1-.1.1-.1.1-.1s0-.1.1-.1c0 0-.1 0-.1.1 0 0-.1 0-.1.1-.1 0-.1.1-.2.1h-.2v-.2c.1-.1.1-.2.2-.2-.1 0-.1.1-.2.1s-.1.1-.2.1-.2.1-.3.1c0 0-.1.1-.2 0v-.1l.1-.1s0-.1.1-.1c0 0 0-.1.1-.1 0 0 .1 0 .1-.1-.1 0-.1 0-.1.1l-.1.1h-.1l-.1.1h-.3s-.1 0-.1-.1v-.1l.1-.1v-.1h-.1s-.1 0-.1.1c-.1 0-.2.1-.2.1h-.1s-.1-.1 0-.1l.1-.1h.1s0-.1.1-.1c0 0 0-.1.1-.1l.1-.1c-.1 0-.2.1-.4.1v-.4.2c0 .1 0 .1-.1.2 0 0 0 .1-.1.1l-.1.1v.1l-.1.1h-.1c0 .1-.1.1-.2.1s-.1.1-.2.1h-.3c-.1 0-.3 0-.5.1h-1.2s-.1 0-.2-.1h-.3s0-.1-.1-.1c0 0 0-.1-.1-.1v-.3c0-.1.1 0 .1-.1h.3c.1 0 .2.1.2.1h.8l.1-.1.1-.1c0-.1 0-.2.1-.3v-.1l.1-.1s.1 0 .1-.1h1.1c.1 0 .2.1.3.1h.3c.1 0 .2 0 .3.1h3.6c.1 0 .2.1.3.1h.3s.1 0 .1.1v.1l-.1.1h.1s.1 0 .1-.1c.1 0 .1 0 .1-.1h.2v.3s.1 0 .1-.1h.4l.1.1-.1.1h.1c.1 0 .1-.1.2-.1h.1c.1 0 .2 0 .2.1v.1s-.1 0-.1.1h.5v.2h.8s.1 0 .1.1v.2s0 .1.1.1c0 .1 0 .1.1.1v.2s0 .1.1.1v-.3c0-.1 0-.1-.1-.2 0-.1-.1-.1-.1-.2v-.2s0-.1-.1-.1h.2l.1.1c0 .1.1 0 .1 0h.1l.1-.1h.1v.2s-.1 0 0 .1h.1l.1-.1s.1 0 .1-.1c0 0 .1 0 .1-.1 0 0 .1 0 .1-.1v.1s0 .1-.1.1-.1.1-.1.1h.2s.1 0 .1-.1c0 0 .1 0 .1-.1h.2l.1-.1h.1s.1 0 .1-.1c0 0 .1 0 .1.1v.1s0 .1-.1.1l-.1.1v.1h-.1l-.1.1-.1.1-.2.2v.1h.1c.1 0 .1-.1.2-.1l.1-.1c.1 0 .1-.1.2-.1s.1-.1.2-.1h.1l.1-.1c.1 0 .1-.1.2-.1s.1-.1.2-.1.1-.1.2-.1h.2s0 .1-.1.1c0 0 0 .1-.1.1l-.1.1-.1.1-.1.1-.1.1h-.1l-.1.1h-.1c.1-.1.2-.1.3-.2h.1c.1 0 .1-.1.2-.1h.1c.1 0 .1-.1.2-.1s.1-.1.2-.1c0 0 .1-.1.2-.1h.1l.1-.1s.1 0 .1-.1c.1 0 .1-.1.2-.1h.3v.2l-.1.1-.1.1-.1.1c.1 0 .2-.1.2-.1h.1s.1 0 .1-.1h.1c.1 0 .1-.1.2-.1 0 0 .1 0 .1-.1 0 0 .1 0 .1-.1h.4c0 .1-.1.1-.1.2l-.1.1s0 .1-.1.1h.1c.1 0 .1-.1.1-.1h.2c.1 0 .1-.1.2-.1h.3v.3h.2l.1-.1h.2s.1 0 .1-.1c.1-.1.3-.1.4-.1h.1v.1l-.1.1-.1.1v.1h.1s.1 0 .1-.1l.1-.1h.3c.1 0 .1-.1.2-.1H95v.1s-.1 0-.1.1-.1.1-.1.2h.1s.1 0 .1-.1c.1-.1.2-.1.3-.2.1 0 .1-.1.2-.1v.3h.1l.1-.1h.1v-.5H83.5c-.1 0-.2-.1-.2-.1h-.7c-.1 0-.1 0-.2-.1h-.1s-.1 0-.1-.1H82s-.1 0-.1-.1h-.1c-.1 0-.2-.1-.3-.1h-2.6c-.1 0-.2 0-.3-.1h-1.8c-.1.1-.2.1-.3.2h-.3c-.1 0-.1.1-.2.1s-.3.1-.4.1-.2.1-.4.1h-.4v.5h-3.4c-.2 0-.4 0-.5-.1h-5.3v.5s.1-.1.2-.1h.4c0 .1-.1.1-.1.1l-.1.1c0 .1-.1.1-.2.2l-.1.1s.1 0 .1-.1h.1s.1 0 .1-.1h.2s.1 0 .1-.1h.1v.1s0 .1-.1.1l-.1.1v.1h-.1.1c.1 0 .1-.1.2-.1s.1-.1.2-.1h.2s.1 0 .1-.1h.2s0 .1-.1.1c0 0-.1 0-.1.1 0 0-.1 0-.1.1-.1.1-.2.1-.2.2h.3s.1 0 .1-.1h.1c.1 0 .2-.1.3-.1 0 0 .1 0 .1-.1l.1-.1h.2l-.1.1-.1.1-.2.2c.1 0 .1 0 .1-.1h.2s.1 0 .1-.1c.1 0 .1-.1.2-.1s.1-.1.2-.1h.4c0 .1-.1.1-.1.1h-.1l-.1.1-.1.1-.1.1s-.1 0-.1.1c.1 0 .2-.1.3-.1 0 0 .1 0 .1-.1h.1s.1 0 .1-.1h.4v.1l-.1.1-.1.1h-.1s-.1 0-.1.1l-.1.1c.1 0 .2-.1.2-.1h.1c.1 0 .1-.1.2-.1h.1s.1 0 .1-.1h2.5v.1h.7v.2c.1 0 .1 0 .2-.1 0 0 .1 0 .2-.1h.3c0 .1 0 .1-.1.1h.2s.1 0 .1-.1h.4v.3c.1 0 .1-.1.2-.1l.1-.1h.4v.1l-.1.1h-.1s-.1 0-.1.1h.2c.1 0 .2-.1.2-.1s.1 0 .1-.1v.1l-.1.1-.2.2v.1c.1 0 .2-.1.3-.1 0 0 .1 0 .1-.1.1 0 .2-.1.3-.1l-.1.1-.1.1-.1.1-.1.1-.1.1c.1 0 .1-.1.2-.1s.2-.1.3-.1h.2s.1 0 .1-.1h.1s.1 0 .1.1-.1.1-.1.1v.1s-.1 0-.1.1c0 0-.1 0-.1.1v.2h.4c.1 0 .1-.1.2-.1h.2c.1 0 .1-.1.2-.1 0 0 .1-.1.2-.1s.1.1 0 .1l-.1.1-.1.1h.1s.1 0 .1-.1c0 0 .1 0 .1-.1 0 0 .1 0 .1-.1h.4s.1 0 .1.1v.1c.1 0 .1 0 .2-.1h2.2c.1 0 .2 0 .3.1h.1c.1 0 .1.1.2.1h.1s.1 0 .1.1l.1.1s0 .1.1.1c0 0 .1 0 .1.1h.2s.1 0 .1.1h.1l.1.1s.1 0 .1.1.1 0 .1.1h.2s.1 0 .1.1c.1 0 .2.1.2.1.1 0 .2.1.2.1.1 0 .1.1.2.1s.1.1.2.1h.2s.1 0 .1.1c.1 0 .1.1.2.1 0 0 .1 0 .1.1h.1s.1 0 .1.1l.1.1c.1 0 .1.1.2.1h.1v.1l.1.1v.2s0 .1.1.1v.2l.1.1v1.1c0 .1 0 .1.1.2 0 .1 0 .1.1.2v.7c0 .1-.1.1-.1.2h-.1s-.1 0-.1.1c0 0-.1 0-.1.1h-.4s.1 0 .1-.1c.1 0 .2-.1.2-.1l.1-.1.1-.1.1-.1.1-.1v-.1s0-.1.1-.1c0 0-.1 0-.1.1 0 0-.1 0-.1.1-.1 0-.1.1-.2.1h-.2c-.1 0-.1.1-.2.1h-.2v-.1h.3c.1 0 .1-.1.2-.1 0 0 .1 0 .1-.1 0 0 .1 0 .1-.1v-.1l.1-.1c-.1 0-.1 0-.2.1H83l-.1-.1s0-.1.1-.1h.1c.1 0 .2-.1.2-.1h.1v-.1s-.1 0-.1.1c-.1 0-.2.1-.3.1h-.2s-.1 0-.1-.1v-.1l.1-.1h.1l.1-.1c.1-.1.2-.1.2-.2 0 0 .1 0 .1-.1h-.1l-.1.1s-.1 0-.1.1h-.6s.1 0 .1-.1h.3l.1-.1.1-.1c0-.1.1-.2.1-.3v.1l-.1.1h-.2v-.3c0-.1.1-.1.1-.2v-.2s0 .1-.1.1c0 0 0 .1-.1.1 0 0 0 .1-.1.1l-.1.1-.1.1-.1.1c-.1 0-.1.1-.2.1 0 0-.1 0-.1.1s.1 0 .2 0h.3s0 .1-.1.1l-.1.1h-.4l-.1-.1-.2-.2-.1-.1h-.1l-.1-.1c-.1 0-.1-.1-.2-.1 0 0-.1 0-.1-.1-.1 0-.1 0-.2-.1l-.1-.1h.1l.1-.1.1-.1s.1 0 .1-.1h.2c-.1.1-.3.1-.4.2h-.1s-.1 0-.2.1h-.2c0 .1-.1 0-.1 0l.1-.1h.1c.1 0 .1-.1.2-.1-.1 0-.1 0-.2.1h-.3c-.1 0-.1 0-.2.1h-.1l.1-.1.1-.1.1-.1.1-.1s.1 0 .1-.1H80l.1-.1.1-.1.1-.1c-.1 0-.2.1-.3.1h-.5s0-.1.1-.1l.1-.1s.1 0 .1-.1h-.7v-.1c0-.1.1-.1.2-.1l.1-.1h-.2c-.1 0-.1 0-.2.1h-.3v-.2h.1l.1-.1.1-.1.1-.1c-.1 0-.1 0-.2.1l-.1.1c-.1 0-.1 0-.2.1h-.4s0 .1.1.1l.1.1c0 .1.1.1.1.2v.3s.1 0 .1.1l.1.1.1.1.1.1.1.1.1.1.1.1h.2l.1.1.1.1.1.1.1.1h.2l.1.1.1.1.1.1v.1h.1v.1s0 .1.1.1c.1.1.1.2.1.3v.6s0 .1-.1.1c0 .1-.1.1-.1.1l-.1.1c-.1 0-.1.1-.2.1 0 0-.1.1-.2.1l-.1.1-.1.1c.1 0 .2-.1.3-.1h.1s.1 0 .1-.1.1-.1.1-.1 0-.1.1-.1h.1v.1s0 .1-.1.1v.1h-.1v.1l-.1.1H80l-.1.1h.5l.1-.1h.1l.1-.1h.1v-.1s0-.1.1-.1 0 .1 0 .2v.1l-.1.1v.1l-.1.1c-.1 0-.1.1-.2.1h-.1s-.1 0-.1.1h-.1.7c0-.1.1-.1.2-.1s0 .1 0 .1v.1l-.1.1-.1.1c-.1 0-.1.1-.2.1s-.1.1-.2.1h.3c.1 0 .1-.1.1 0l-.1.1-.1.1h-.6s0-.1-.1-.1V97s0-.1-.1-.1c0-.1-.1-.1-.1-.1l-.1-.1h-.2v-.3l-.1-.1-.1-.1h-.1l-.1-.1-.1-.1h-.1l-.1-.1h-.3s-.1 0-.1-.1h-.1s-.1 0-.1-.1l-.1-.1h.1l.1-.1.1-.1s.1 0 .1-.1l.2-.2c-.1 0-.2.1-.3.2h-.1s-.1 0-.1.1c-.1 0-.1.1-.2.1h-.1s0-.1.1-.1l.3-.3.1-.1v-.1l.1-.1v-.1h-.3l-.1.1H78l-.1.1h-.1l-.1.1-.1.1s-.1 0-.1.1h.1l.1.1h.1s.1 0 .1.1c0 0 .1 0 .1.1v.1c0 .1 0 .1-.1.1h-.1.2c.1.1.2.1.2.1h.3c.1 0 .1.1.2.1 0 0 .1 0 .1.1h.1l.1.1h.1c0 .1.1.1.1.1l.1.1s0 .1.1.1v.3l.1-.1h.1v.4s0 .1-.1.1h-.1s-.1 0-.1.1v-.4c-.1 0-.1.1-.1.1l-.1.1-.1.1h-.1s-.1 0-.1.1h-.3s.1 0 .1-.1c0 0 .1 0 .1-.1 0 0 .1 0 .1-.1h-.3c-.1 0-.1.1-.2.1h-.6v-.1h.2s.1 0 .1-.1h.6v-.1h-.8s-.1 0-.1-.1v-.1s.1 0 .1-.1c0 0 .1 0 .1-.1.1 0 .1-.1.2-.1h.1c-.1 0-.1 0-.2.1h-.4s-.1 0-.1.1h-.3v-.1h.1l.1-.1.1-.1h.1V96c-.1.1-.2.1-.3.1-.1 0-.1.1-.2.1h-.2v-.1l.1-.1.1-.1h.3l.1-.1s.1 0 0-.1c0 0-.1 0-.2.1h-.2c-.1 0-.2.1-.3.1h-.3l.1-.1h.1l.1-.1c-.1 0-.1.1-.2.1h-.4c-.1 0-.1.1-.2 0 0 0 0-.1.1-.1l.2-.2.1-.1c.1 0 .1-.1.2-.1h-.1c-.1 0-.2.1-.2.1s-.1 0-.1.1h-.3v-.1l.1-.1.1-.1v-.1s0-.1.1-.1c.1-.1.1-.1.2-.1-.2.1-.3.1-.4.2-.1 0-.1.1-.2.1h-.3v-.1l.1-.1.1-.1h.2-.6l-.1-.1c0-.1-.1-.1-.1-.1s-.1 0-.1-.1h-.4l-.1.1-.1.1-.1.1-.1.1s-.1 0-.1.1c-.1 0-.1.1-.2.1 0 0-.1 0-.1.1h-.1s-.1.1-.1 0v-.1c0-.1.1-.1.1-.1l.1-.1.1-.1s.1 0 .1-.1l.1-.1.1-.1.1-.1h.2c-.1 0-.1.1-.2.1s-.1.1-.2.1H74l-.1.1s-.1 0-.1.1c0 0-.1 0-.1.1l-.1.1-.1.1-.1.1s-.1 0-.1.1l-.1.1c-.1 0-.1.1-.2.1 0 0-.1-.1 0-.1v-.1c0-.1.1-.1.1-.1l.1-.1c.1-.1.2-.2.3-.2l.2-.2.1-.1.1-.1v-.1l.1-.1.1-.1.1-.1.1-.1.1-.1c-.1 0-.2.1-.2.2 0 0-.1 0-.1.1l-.1.1s-.1 0-.1.1h-.1l-.1.1c-.1 0-.1.1-.2.1h-.3l-.1.1-.1.1-.3.3h-.1l-.1.1s-.1 0-.1.1l-.1.1s-.1.1-.2 0c0 0-.1 0-.1-.1 0 0 0-.1.1-.1v-.1l.1-.1.3-.3.1-.1.1-.1.1-.1.1-.1.1-.1.1-.1.1-.1h.1l.1-.1h-.2c-.1.1-.2.1-.3.2l-.1.1-.1.1h-.1c0 .1-.1.1-.1.1l-.1.1-.1.1h-.2l-.1.1c-.1 0-.1.1-.2.1l-.1.1s0 .1-.1.1l-.1.1h-.1v-.1c0-.1.1-.1.1-.1l.1-.1s.1 0 .1-.1l.1-.1.1-.1c0-.1.1-.1.2-.2l.1-.1.1-.1.2-.2.1-.1.1-.1v-.1l.1-.1v-.1s0-.1.1-.1c0 0-.1 0-.1.1l-.1.1-.1.1s-.1 0-.1.1l-.3.3-.1.1c-.1 0-.1.1-.2.1l-.2.2v.1s-.1 0-.1.1h-.3l-.1.1h-.1l-.1.1-.1.1s-.1 0-.1.1h-.1s-.1.1-.1 0c0 0 0-.1.1-.1l.1-.1h.1s.1 0 .1-.1l.1-.1v-.1h.1l.1-.1.1-.1.2-.2.1-.1h-.1l-.1.1h-.3l-.1.1s0 .1-.1.1h-.3l-.1.1-.1.1s-.1.1-.1.2c0 0-.1.1-.1 0s0-.1.1-.1v-.1s.1 0 .1-.1l.1-.1.2-.2.2-.2.1-.1.1-.1h-.1l-.1.1c-.1 0-.1.1-.2.1h-.1s-.1 0-.1.1l-.1.1c-.1 0-.1.1-.2.1 0 0-.1 0-.1.1l-.1.1c-.1.1-.2.1-.2.2h-.1l-.1.1s-.1.1-.1 0l.1-.1.1-.1.1-.1v-.2l.1-.1.1-.1s0-.1.1-.1v-.1h-.1l-.1.1-.1.1-.1.1c-.1 0-.1.1-.2.1l-.2.2h-.1l-.1.1h-.1l-.1.1-.1.1-.1.1-.1.1-.1.1-.1.1s-.1 0-.1.1l-.1.1h-.4l.1-.1.1-.1.1-.1.1-.1.1-.1.1-.1.1-.1s.1 0 .1-.1c0 0 .1 0 .1-.1 0 0 0-.1.1-.1l.1-.1s0-.1.1-.1l.1-.1.1-.1.1-.1.1-.1s.1 0 .1-.1h-.1c-.1.1-.2.1-.3.2l-.1.1h-.2s-.1 0-.1.1h-.1l-.1.1-.1.1s0 .1-.1.1c0 0-.1 0-.1.1l-.1.1-.3.3-.1.1h-.3s-.1 0-.1-.1c0 0 .1 0 .1-.1l.1-.1.1-.1.1-.1.1-.1.1-.1.2-.2h.1V94l.1-.1.1-.1s.1 0 .1-.1c.1 0 .1-.1.2-.1.1-.1.1-.1.2-.1 0 0-.1 0-.1.1h-.1l-.1.1-.1.1s-.1 0-.1.1l-.1.1s-.1 0-.1.1l-.1.1-.1.1-.1.1v.1l-.3.3-.1.1s-.1 0-.1.1l-.1.1-.1.1-.1.1-.1.1c-.1 0-.1.1-.2.1h-.1v-.2s0-.1.1-.1l.1-.1.1-.1.1-.1.1-.1.1-.1.1-.1v-.2c-.1 0-.2.1-.3.1 0 0-.1 0-.1.1H67l-.1.1-.1.1s-.1 0-.1.1l-.1.1-.1.1-.1.1-.2.2-.1.1s0 .1-.1.1h-.1s-.1 0-.1.1h-3.6v.4h3.3c.3 0 .6 0 .9-.1h2.7v.2s0 .1.1.2c0 .1.1.1.1.1v.2c0 .1.1.1.1.1l.1.1h1.1v.3l.1.1.1.1c.1.1.2.1.4.1h.6v.5l.1.1s.1 0 .1.1h.6c.1 0 .2-.1.3-.1v.1c0 .1.1.1.1.2l.1.1.1.1.1.1.1.1h.1c.1 0 .1.1.2.1h1.1c.1 0 .1 0 .2-.1h.1c.1.1.2.1.3.2l.1.1h1v-.7h1.2l.1-.1.1-.1s0-.1.1-.1v-.2l.1-.1h1c.1-.1.2-.1.2-.2l.1-.1.1-.1c0-.1 0-.1.1-.2v-.1h.3l.1-.1c.1 0 .1-.1.2-.1l.1-.1v-.2s0-.1.1-.1h.1c.1 0 .1 0 .2-.1.1 0 .1 0 .1-.1h2.1c.3 0 .6 0 .9.1h1.1c.5 0 1.1.1 1.6.1h1.8c.8.1 1.6.1 2.4.2v-2h5.8zm-20.8-7.6c.1 0 .1 0 0 0 .1 0 .1 0 0 0 .1 0 .2 0 .2-.1h.2s.1 0 .1-.1h.1l.1-.1h.1s.1 0 .1-.1v.2l-.1.1-.1.1s-.1 0-.1.1h-.4l-.2-.1c.1.1.1.1 0 0 0 .1 0 .1 0 0-.1.1-.1.1 0 0m3.5 8.4c.1 0 .1.1.2.1v.2h-.1s-.1 0-.1.1-.1.1-.2.1h.4v.1l-.1.1h-.4V96h.2s.1 0 .1-.1h.1v-.1h-.2v-.1h.1c-.1-.2-.1-.3 0-.2m-.7 1c.1 0 .1 0 0 0 0 .1 0 .1 0 0 0 .1 0 .1 0 0m-.3-3.2c.1 0 .1 0 0 0 .1 0 .1-.1 0 0 .1-.1.1-.1.2-.1h.1v.1c0 .1 0 .1-.1.1l-.1.1s-.1 0-.1.1h-.1c-.1 0-.1.1-.2.1h-.3v-.1c.4-.1.5-.2.6-.3m-1.2.5s.1 0 0 0c.1-.1.1-.1 0 0l.3-.3.2-.2h.1s.1 0 .1-.1h.1s.1-.1.2 0c0 0 .1.1 0 .1v.1l-.1.1-.1.1h-.1l-.1.1-.1.1h-.2s-.1 0-.1.1c-.1 0-.2.1-.2-.1 0 .1 0 .1 0 0m.1.4c-.1 0-.1 0 0 0-.1 0-.1-.1 0 0 0-.1 0-.1 0 0 0-.1 0-.1 0 0 0-.1 0-.1 0 0 .1-.1.1-.1.2-.1v.1h-.2m-1.9.2c.1-.1.1-.1.2-.1h1s0 .1.1.1l.1.1v.4c0 .1 0 .1-.1.1v.1s0 .1-.1.1v-.4l-.1-.1c-.1-.1-.1-.2-.2-.2l-.1-.1s0-.1-.1-.1h-.1c-.1 0-.2 0-.3.1h-.3c.1 0 0 .1 0 0m1.6 1.2c.1-.1.1-.1 0 0 .1-.1.1-.1.2-.1h.3v.2l-.1.1h-.1c-.2-.1-.2-.1-.3-.2m-1.7-.8c.1-.1.1-.1 0 0 .1-.1.1-.1.1-.2 0 0 .1 0 .1-.1h.4s.1 0 .1.1l.1.1.1.1v.5h-.1s-.1 0-.1.1h-.5l-.1-.1s0-.1-.1-.1v-.4m-1.4.8c-.1.1-.2.1-.3.1h-.1v-.2l-.1-.1h.1s.1 0 .1.1h.1l.2.1c0-.1 0-.1 0 0 0-.1 0-.1 0 0m.7-.8c-.1.1-.1.1-.2.1h-.3c0 .1 0 .1.1.1h-.7v-.1s.1 0 .1-.1c0 0 .1 0 .1-.1 0 0 .1 0 .1-.1h-.2s-.1 0-.1.1c0 0-.1 0-.1.1h-.4v-.1h.1l.1-.1h.1l.1-.1h-.4s-.1.1-.1 0v-.1c0-.1.1-.1.2-.1h.9l.1.1h.1v.1l.1.1v.4c.4-.3.4-.3.3-.2m1.7 1.3c0 .1-.1.1 0 0-.1.1-.1.1 0 0-.1.1-.2.1-.2.2h-1v-.1s0-.1-.1-.1v-.7h.4v.3l-.1.1h.1s.1 0 .2-.1c0 0 .1 0 .1-.1h.2v.1h-.3l-.1.1h.6l.1-.1c.1 0 .1-.1.2-.1h.1v.1l-.1.1h-.1l-.1.1-.1.1.2.1c-.1-.1 0-.1.1-.2h.1c.1 0 .2-.1.2-.1h.3c0 .1 0 .1-.1.1l-.1.1c-.4 0-.4 0-.5.1.1 0 0 0 0 0m1.9.5c-.1.1-.1.1 0 0-.1.2-.2.2-.2.3-.1 0-.1.1-.2.2l-.1.1h-1.3v-.1c0-.1 0-.1-.1-.2v-.1.1s.1 0 .1.1h1l.1-.1h.1v-.1h-.1c-.1 0-.1.1-.2.1s-.1 0-.2.1h-.2s-.1 0-.1-.1v-.1h.3s.1 0 .1-.1h.5s.1 0 .1-.1l.1-.1c-.1 0-.2.1-.3.1H77c-.1 0-.2.1-.3.1-.1 0-.2.1-.3.1h-.3v-.1h1c.1 0 .1-.1.2-.1 0 0 .1 0 .1-.1h-.1c-.1 0-.1 0-.2.1-.1 0-.2 0-.3.1h-.6v-.1h.1s.1 0 .1-.1h1.3s0-.1.1-.1c0 0 0-.1.1-.1v-.5c0-.1-.1-.2-.2-.3h-.3s-.1 0-.1-.1c-.1 0-.1 0-.2-.1h-.2l-.1.1-.1.1v.1l-.1.1v.1c0 .1-.1.1-.1.2s-.1.1-.1.2c0 0 0 .1-.1.1v.1s-.1 0-.1.1H76v-.2s0-.1.1-.1V96l.1-.1v-.1s.1 0 .1-.1l.1-.1h.5c.1 0 .3 0 .3.1h.1l.1.1.1.1s0 .1.1.1v.4c0 .1 0 .1-.1.2v.2s0 .1-.1.1v.2s0 .1-.1.1l-.1.1v.1s-.1 0-.1.1l-.1.1-.1.1 1.1-1.1c0-.1 0 0 0 0m.6-1.7c0 .1-.1.1 0 0-.1.1-.1.1-.2.1s-.2.1-.2.1h-.1.3v.1l-.1.1s0 .1-.1.1l-.1.1H78c-.1 0-.1.1-.2 0h-.2l-.1-.1v-.1l-.1-.1V95s0-.1.1-.2v-.1c0-.1 0-.1.1-.1 0-.1.1-.1.1-.1h.3s.1 0 .1.1c0 0 .1 0 .1.1.4.1.4.1.4.2 0-.1 0-.1 0 0 0-.1 0-.1 0 0 0 0 0-.1 0 0m1 2.1c0 .1 0 .1 0 0 0 .1-.1.1-.1.2v.3h-.7.9v.1h-1.2l-.1-.1s.1 0 .1-.1h.4c.1 0 .1 0 .2-.1l.1-.1s-.1 0-.1.1h-.6c-.1 0-.2 0-.3-.1 0 0 .1 0 .1-.1.1 0 .1 0 .2-.1h.2s.1 0 .2-.1h.1c-.1 0-.2 0-.4.1h-.4v-.1l.1-.1h.1c.1 0 .2-.1.3-.1h.1c.1 0 .2 0 .3-.1l.1-.1c.1-.1.2-.1.2-.2V96l.1-.1v-.2l-.2-.2s-.1 0-.1-.1h-.1l-.1-.1v-.2s0-.1.1-.1h.2c.1 0 0 0 0 0 .1 0 .1.1.2.1 0 0 .1 0 .1.1l.1.1s0 .1.1.1c0 0 0 .1.1.1v.5s0 .1-.1.1v.2s0 .1-.1.1v.1c0 .4 0 .4-.1.5.1 0 .1 0 0 0 .1 0 .1 0 0 0m2.1.6c0 .1 0 .1 0 0 0 .1 0 .1 0 0 0 .1 0 .1 0 0 0 .1 0 .1-.1.2l-.1.1h-.8c-.1 0-.1-.1-.2-.1h-.1c0-.1.1-.1.1-.2v-.7h.1s0-.1.1-.1c0 0 .1 0 .1-.1.1-.1.3-.1.4-.1 0 0 .1 0 .1.1l-.1.1-.1.1H81l-.1.1s-.1 0-.1.1h-.1.3l.1-.1h.2s.1-.1.2-.1h.1l.1-.1h.1l.1-.1h.1v.1l-.1.1-.1.1s-.1 0-.1.1h-.1l-.1.1s-.1 0-.1.1h-.1.3s.1 0 .1-.1h.2s.1 0 .1-.1h.2l.1-.1.1-.1.1-.1v.1s0 .1-.1.1v.1s-.1 0-.1.1l-.1.1s-.1 0-.1.1l-.1.1h.4s.1 0 .1-.1h.1s.1 0 .1-.1c0 0 .1-.1.1 0v.2l-.1.1-.1.1-.1.1-.1.1s.1 0 .1-.1h.4l.1-.1s.1-.1.1 0c-1.3-.2-1.3-.1-1.4-.1m1.6-1.1c0 .1 0 .1 0 0 0 .1 0 .1 0 0 0 .1 0 .1 0 0 0 .1 0 .1 0 0 0 .1 0 .1 0 0-.1.1-.1.1-.1.2l-.1.1-.1.1-.1.1h-.5c-.1 0-.1 0-.1-.1h-.1c-.1-.1-.2-.1-.3-.2h-.2l-.1-.1-.1-.1h-.1l-.1-.1-.1-.1s.1 0 .1-.1h.4v.1h-.2 1s.1 0 .1-.1h.1l.1-.1h.1s.1 0 .1-.1v-.1h.1v.3l-.1.1-.1.1s-.1 0-.1.1h-.1l-.1.1s-.1 0-.1.1h-.1.3s.1 0 .1-.1c0 0 .1 0 .1-.1 0 0 .1 0 .1-.1h.1s.1 0 .1-.1h.1l.1-.1s0-.1.1-.1h.1v.1l-.1.1-.2.2s-.1 0-.1.1l-.1.1h.4s.1 0 .1-.1c0 0 .1 0 .1-.1h.1l.1-.1s.1-.1.1 0v.1s0 .1-.1.1l-.1.1v.1l-.1.1-.1.1s.1 0 .1-.1h.4l.1-.1s0-.1.1-.1c-1-.3-1-.2-1-.2m2.7-1.9s-.1.1 0 0c0 .1 0 .1 0 0-.1.1-.1.1-.1.2h-.1s-.1 0-.1.1c0 0-.1 0-.2.1h-.2l.1-.1h.1c.1 0 .1-.1.2-.1.1-.1.1-.1.3-.2-.1 0-.1 0 0 0"/><path class="st6" d="M96.5 93.9c-.1.1-.1.1 0 0-.1.1-.1.1-.2.1h-.2s-.1 0-.1.1h-.1s-.1 0-.1.1v.2h.5c.1 0 .1-.1.2-.1v-.4z"/><path class="st6" d="M96.5 93.2l-.4.4c-.1.1-.3.2-.4.3 0 0-.1 0-.1.1l-.1.1s-.1 0-.1.1c0 0 0 .1-.1.1 0 0 0 .1-.1.1 0 0-.1 0-.1.1h.1c.1 0 .2-.1.3-.1 0-.1.1-.1.1-.1l.1-.1h.1l.1-.1h.1l.2-.2.1-.1.1-.1.1-.1v-.4z"/></g><path class="st5" d="M65.5 107s.2 2.1 2.6 3.7V107h-2.6zm3.9 0H73v5.8s-2.2-.5-3.6-1.2V107zm4.9 0v6s1.3.2 1.5.2 1.5.2 2.1.5V107h-3.6zm22.3 0s-.2 2.1-2.6 3.7V107h2.6zm-4 0H89v5.8s2.2-.5 3.6-1.2V107zm-4.9 0v6s-1.3.2-1.5.2-1.5.2-2.1.5V107h3.6zm-6.7 9c-.6-1.1-1.7-1.7-1.7-1.7V107h3.5v7.3c0 .1-1.1.6-1.8 1.7" id="red_elements_1_"/><path class="st1" d="M68.6 103.4h1.2v.1l-1 .7.4 1.1-1-.7-.9.7.4-1.1-1-.7v-.1h1.2l.3-1.1zm4.3 0h1.2v.1l-1 .7.4 1.1-1-.7-.9.7.3-1.1-.9-.7v-.1h1.2l.3-1.1zm4.3 0h1.2v.1l-1 .7.4 1.1-1-.7-.9.7h-.1l.4-1.1-1-.7v-.1h1.2l.4-1.1zm4.3 0h1.2v.1l-1 .7.4 1.1-1-.7-1 .7.4-1.1-1-.7v-.1h1.2l.4-1.1zm4.2 0H87v.1l-1 .7.4 1.1-1-.7-1 .7.4-1.1-1-.7v-.1H85l.4-1.1zm4.3 0h1.3v.1l-1 .7.4 1.1h-.1l-.9-.7-1 .7.4-1.1-1-.7v-.1h1.2l.4-1.1zm4.3 0h1.2v.1l-.9.7.3 1.1-.9-.7-1 .7.4-1.1-1-.7v-.1h1.2l.4-1.1zM74 75.1V78c0 1.7-1.2 2.3-2.6 2.3-1.5 0-2.6-.7-2.6-2.3v-2.9h1.3V78c0 .7.5 1.2 1.3 1.2.7 0 1.3-.4 1.3-1.3v-2.8H74zm4.5 1.3c-.7-.3-1.2-.5-1.6-.5-.5 0-.8.2-.8.4 0 .8 2.6.6 2.6 2.3 0 1-.8 1.6-2 1.6-.9 0-1.3-.2-1.8-.5v-1.1c.7.5 1.2.7 1.8.7.5 0 .7-.2.7-.5 0-.8-2.6-.5-2.6-2.4 0-.9.8-1.5 1.9-1.5.6 0 1.1.1 1.7.4v1.1h.1zm6.4 3.8h-1.4l-.4-1h-2.3l-.4 1H79l2.1-5.1h1.5l2.3 5.1zm-3-3.9l-.8 2h1.6l-.8-2zm3.6-1.2h1.3v5.1h-1.3zm4.7 0c1.9 0 2.8 1.2 2.8 2.6 0 1.5-.9 2.6-3 2.6h-2.1v-5.1l2.3-.1zm-1 4.2h.8c1.3 0 1.7-.9 1.7-1.6 0-.9-.5-1.6-1.7-1.6h-.8v3.2z"/></g></g><path fill="none" stroke="#9d9d9c" stroke-miterlimit="10" d="M332.7 31.3V152"/></g></svg>